<svg version="1.0" xmlns="http://www.w3.org/2000/svg" width="1706.667" height="956" viewBox="0 0 1280 717" fill="#0b0a0e"><path d="M.1 1.6c0 1.1.3 1.4.6.6C1 1.5.9.6.6.3.3-.1 0 .5.1 1.6zM1070.5 101c-.3.5-.2 1 .4 1 .5 0 1.3-.5 1.6-1 .3-.6.2-1-.4-1-.5 0-1.3.4-1.6 1zM245.2 111.9c-1.8 1.1.3 3.3 2.9 2.9 1.3-.1 2.3-.7 2.2-1.3-.2-1.3-3.8-2.5-5.1-1.6zM1096 120c0 .5.7 1 1.5 1s1.5-.5 1.5-1c0-.6-.7-1-1.5-1s-1.5.4-1.5 1zM1059.7 123c-1.9 3.1-1.6 5 .8 5 1.7 0 3.5-3.1 3.5-5.9 0-3.1-2.3-2.6-4.3.9zM690 127.3c0 1.1-.8 2.9-1.7 4-1.8 1.9-1.7 2 2.2 1.2 2.2-.4 6.2-1 8.9-1.4 2.7-.3 5.1-1.1 5.3-1.7.5-1.6-4.6-3.6-9.9-3.9-4.3-.3-4.8-.1-4.8 1.8zM1059.6 130.8c-.2.2.3 1.6 1.1 3.3 1.6 3.2 4.7 3.8 7.8 1.5 1.6-1.1 1.7-1.7.7-2.9-1.1-1.3-8.7-2.8-9.6-1.9zM605.8 135.2c-3.3.9-3.8 1.4-3.8 3.8 0 1.6.3 3.1.8 3.3.4.3 3.1-.4 6-1.5 4.4-1.6 5.3-2.4 5-4.1-.4-2.6-2.6-3-8-1.5zM1071 139.4c-.9 1.2-.7 2.1 1.1 4.5 2.8 3.8 6.9 4.1 9.9.9l2.1-2.2-4.3-2.3c-5.1-2.6-7.1-2.8-8.8-.9z"/><path d="M1056.4 143.4c-4.7 3.2-4.9 3.5-4.6 7.5.4 4.9-1.2 6-5.9 4.1-6-2.5-15.6 5-12 9.4.7.8.9 3.1.5 6l-.7 4.7-5.3-.5c-3-.3-6.7-1.2-8.4-2.1-3.7-1.9-8.1-1.9-12.6 0-2.1.8-4.7 1.2-6.6.8-2.2-.4-2.9-.3-2.4.5.4.7 1.5 1.2 2.6 1.2 1.9 0 3 1.9 3 5.1 0 2.5 4.5 3.6 8.4 1.9 5-2.1 8.1-1.8 8.4.7.3 2.1 2.8 3.5 9.2 5.1 2.9.7 3.4 1.2 3.5 3.8 0 2.4-.4 2.9-2.7 3.2-1.6.2-2.8.7-2.8 1.2s-1.9 1.5-4.1 2.2c-3.7 1.1-4.3 1-5.5-.7-.8-1-1.4-2.4-1.4-3.1 0-1.6-8.5-3.5-13.4-2.9-2.2.2-6.5 1.7-9.6 3.4-5.2 2.7-5.9 2.8-7.3 1.4-.9-.9-2.3-1.3-3.2-.9-2.7 1-.1 3.2 4.7 4 4.7.8 7.8 3 7.8 5.6 0 .9.4 2 .9 2.5.5.6 1.1 2.3 1.3 4 .3 2.8.6 3 5.1 3.3 5.4.4 7.7-.9 7.7-4.3 0-1.8.4-2.2 2-1.8 1.6.4 2 .1 1.8-1.8-.4-3.4 2.8-3.6 9.3-.4 3 1.4 6.3 2.4 7.4 2.1 1.6-.4 2.3.2 3.2 3.1 1 3.2.9 3.9-.5 5-1.5 1.1-1.5 1.4-.2 2.3 2.1 1.4 3 1.2 3.6-.5.7-1.8 9.4-7.8 10.2-7 .3.3.1 1-.6 1.7-.8.8-.6 1.7.5 3.5 1 1.4 1.2 2.8.7 3.1-.5.4-1.6 2-2.4 3.7-1.5 3-7.3 9.5-8.6 9.5-.3 0-.4-.6-.1-1.4.3-.8-.3-2.2-1.4-3.2-1.8-1.7-2-1.6-4.4.6-1.6 1.5-3 2-4.2 1.6-1.6-.7-1.6-.9.7-2.6l2.5-2h-2.7c-1.5 0-3 .4-3.3 1-.6 1-9.1 5-10.6 5-.5 0-.6-.7-.3-1.5.4-.8.2-1.5-.4-1.5-.6 0-1.2.5-1.4 1.1-.2.7-1.5.2-3.1-1.3-2.9-2.7-2.6-3.8.9-3.8 3.3 0 5.4-1 5.4-2.6 0-.8-1-1.4-2.5-1.4-1.4 0-2.9-.8-3.5-2-1.3-2.3-4.5-2.7-5.4-.5-.3.9-1.8 1.5-3.7 1.5-2.4 0-3 .4-2.5 1.5.3.9-.1 1.8-.9 2.2-1.3.5-1.3 1 .5 4 2.5 4.2 2.5 4-.6 4.7-1.7.5-3.5.1-5-.9-4.1-2.7-13.8-1.5-11.9 1.5.5.8 2.4 1.1 5.7.8 2.7-.3 5.1-.2 5.3.2.6 1-6.2 4-9.1 4-1.6 0-2.8.8-3.6 2.5-.6 1.4-1.7 2.5-2.5 2.5-.7 0-2.2.9-3.3 2-2.2 2.2-5.1 2.6-8.1 1-3-1.7-2.3-3.3 1.1-2.5 4.1.9 3.8 0-.7-2.4-2.1-1.1-3.2-2-2.5-2.1 1.7 0 1.5-2.5-.4-4.1-1-.8-3.5-1.9-5.8-2.4-3-.7-4.2-1.6-4.4-3.2-.2-1.3-1.3-2.4-2.8-2.7-1.5-.4-2.4-1.4-2.4-2.5s-1.1-2.8-2.5-3.9c-2.8-2.2-2.3-3.2 1.7-3.2 1.5 0 2.8-.5 2.8-1 0-.6-3.8-1-9.2-1-9.7 0-13.2-1-11.1-3.1.9-.9.1-1.7-3.3-3.5-2.5-1.3-5.3-2.4-6.2-2.3-1 0-.6.5 1.1 1.1 3.4 1.2 3.6 3.1.2 2.2-1.6-.4-3.4 0-5 1-1.3.9-3.3 1.6-4.4 1.6-3 0-3.7-2.2-1.3-3.8 1.2-.8 2.2-1.8 2.2-2.3 0-1.8-7.4-5.8-9.6-5.3-2.2.6-2.2.5-.9-3.3 1.2-3.4 1.8-3.9 5.6-4.5 2.3-.4 4.7-1.2 5.2-1.7 1.5-1.5-6.1-4.2-9.9-3.5-4.6.8-13.2-1.5-14-3.8-.8-2.6-2.3-2.2-3 .7-.5 1.8-1.3 2.5-3.3 2.6-1.4 0-3.5.4-4.6.8-1.1.5-2.8.4-3.7-.1-1.1-.5-2.5-.5-3.8.2-3.2 1.7-2.3 3 1.9 3 2.2 0 4.3.5 4.7 1.2 1.2 1.9-2.8 4-6.9 3.5-2.6-.4-4.4 0-5.8 1.2-2.5 2-1.6 3.1 4.9 5.1 4 1.3 4.4 1.2 5.8-.8 1.9-2.7 4.5-2.8 6.9-.3 1 1.2 3.3 2.1 5.8 2.3 4.5.3 6 2.5 3.6 5.4-1 1.3-1.6 1.1-3.9-1.1-2.9-2.8-5.5-3.1-18.2-2.1-4.9.3-7.6 1.1-9.9 2.8l-3.1 2.3 2.9.3c2.3.2 3.4 1.1 4.6 3.7 1.5 3.2 1.5 3.5-.1 4.4-3.4 1.8-15.3 4.3-17.7 3.7-1.4-.4-4.3-.3-6.6 0-3.6.6-3.9.8-2.5 2.2 1 1 3.5 1.6 7 1.6 3 .1 5.7.4 6.1.8.9.9-2.6 4.8-4.4 4.8-1.1 0-1.2.3-.4 1.1.9.9.7 1.6-.9 2.9-1.9 1.5-2 2-1 5 .7 1.8 1.2 3.7 1.2 4.1 0 1.6-7 1-7.6-.6-.9-2.2-3.3-1.8-4.3.7-.6 1.6-.4 2.6.7 3.4 1.1.8 1.2 1.5.3 3.1-.8 1.7-.8 2.2.4 2.7 1.7.6 2 4.2.5 5.1-.6.3-.8 1.6-.5 2.8.4 1.7-.3 2.7-3.1 4.4-4.3 2.8-5.6 2.9-5.2.5.1-1-.5-2.9-1.4-4.3-1.1-1.7-1.3-3.1-.7-4 1.4-2.2 1.1-2.9-1.1-2.9-1.3 0-2-.7-2-2 0-1.9-4-6.3-10.5-11.8-3.2-2.6-3.7-2.7-7.5-.7-2.9 1.5-3 1.5-3-1 0-4 2.9-7.7 5.3-6.9 1.6.5 1.9.3 1.4-1.1-.4-.9-.7-1.9-.7-2.1 0-.2-.9-.4-2-.4-3 0-3.7-2.8-1.1-4.6 2.6-1.9 2.8-3.7.2-2.9-1.5.5-1.8.2-1.4-1.4.3-1.3-.1-2.1-1.5-2.5-3.2-1-7.2-4.6-7.2-6.4 0-.8 1-2.6 2.2-3.9 2.9-3.1 1.5-4.3-5.5-4.6-3-.1-5.9-.5-6.2-.9-.4-.4-3.1-1.8-6.1-3.3-4.1-2-6.3-4-9-8-4-6-3.9-9.1.2-10.1 3.4-.9 3.1-3.4-.4-3.4-1.9 0-3.8-1-5.5-3-1.7-1.8-3.7-3-5.2-3-1.4 0-2.5-.2-2.5-.5 0-.9 5.1-5.5 6.2-5.5.6 0 .3-.9-.7-2-1.1-1.2-3.1-2-5-2-4.8 0-9.2-1.8-11-4.7-1.4-2.1-2.3-2.4-5.3-2-2.1.2-5.1 1-6.9 1.8-3.4 1.4-5.4.6-3.5-1.3 1.8-1.8 1.5-2.5-1.3-3.2-2.6-.7-3.2-2-1.5-3.1 1.7-1.1 1.1-2.3-1.6-2.9-3.7-1-6.1.1-6.8 3-.7 2.5-.9 2.5-8.9 2.4h-10.9c-1.6 0-3.5.1-4.3.1h-3.2c-1.7 0-6.4-.7-11-1.7-2-.4-2.1-.7-1.1-3 1-2.1.9-2.7-.3-3.5-3.9-2.5-11.4.2-14.9 5.4-2.7 3.9-3.4 4.1-12.2 3.8-5.3-.3-12.3.6-25.8 3-12.2 2.2-16.5 3.3-17.2 4.3-.4.6-2.3.9-4.3.7-2.2-.1-4.3.3-5.3 1.2-2.4 2.1-5.4 2.8-7.1 1.7-2-1.2-5.2.6-4.5 2.5.5 1.1-.1 1.5-1.9 1.5-1.4 0-2.8-.4-3.1-.9-.4-.5-2.9.2-5.6 1.5-2.7 1.3-6.1 2.4-7.5 2.4-2.9 0-10.1-2.9-15.4-6.2-2.5-1.5-7.1.7-7.1 3.4 0 1.9-7.4 5.7-15.2 7.9-2.2.6-5.1 2.1-6.3 3.3-2.4 2.4-9.1 4.1-10 2.5-.4-.5-1.1-.9-1.6-.9-.6 0-.8.4-.5.9.3.5-1.2 2.1-3.4 3.6-3.1 2.1-4.8 2.6-8 2.3-2.2-.2-4 0-4 .4 0 .5.4.8.8.8.5 0 1.6.6 2.6 1.3 1.4 1 .1 1.3-7.7 1.3-5.2.1-10.6.4-12 .8-1.6.4-2.7.2-2.7-.4 0-1.7-2.5-1.1-4.3 1.1-1.6 1.8-2.5 2-7.5 1.4-3.3-.4-7.6-.2-10.2.5-2.5.6-5.5 1.4-6.7 1.7-1.3.3-3.1.2-4-.2-1-.4-4.7-.8-8.3-1-5-.1-7.5.3-11 2-2.5 1.2-8.4 2.8-13 3.4-9 1.3-17.7 3.8-18.6 5.2-.3.5-1.8.9-3.5.9-1.9 0-4 1.1-6.1 3-1.7 1.6-3.7 3-4.5 3-.8 0-2.5 1.1-3.8 2.4-1.3 1.4-3.3 2.7-4.4 3.1-1.2.4-1.7 1.2-1.4 2.4.3 1.1-.5 2.8-2 4.2-2.9 2.8-4.2 6.4-2.7 7.4 1.3.8 1.3 6.2 0 7-.5.3-1 1.5-1 2.6 0 1.8-.4 2-3.1 1.4-2.4-.5-3-.4-2.7.6.2.7 1.5 1.6 2.9 2l2.4.6-2.7 1.1c-3.2 1.3-3.5 2.4-1.3 4.2 2.2 1.8 1.8 4.6-.7 6.4-1.2.9-1.9 1.6-1.4 1.6s.1.9-.8 1.9c-1.7 1.8-1.7 2 .2 3 2.8 1.5 3.5 7.2 1 7.9-2.1.5-2.4 1.8-.6 2.4 1.8.6-1.9 2.5-5.7 2.9-2.7.4-3 .1-2.7-2.1.3-2 .1-2.3-.9-1.3-.7.7-2.6 1.3-4.1 1.3-3.5 0-3.7 1.7-.2 2.6 1.7.4 2.3 1.1 1.9 2.1-.3 1.1-.1 1.3 1 .9 1-.4 1.5.1 1.5 1.4 0 2.5-1.4 2.5-4.9 0-2.3-1.8-3.2-1.9-5.5-1-1.8.7-3.3.7-4 .1-.7-.6-2-.3-3.6.9-1.5 1.2-4.1 2-6.6 2-2.2 0-4.4.3-4.8.7-.4.4-2.2.6-4 .5-1.9-.2-5.1.4-7.2 1.4-2.2.9-6.1 2-8.8 2.3-5.9.7-7.9 3-5.3 5.9 3 3.3 2.2 5.2-2.4 5.2-3.1 0-4.2-.4-4.6-1.8-.3-1.4-1.5-1.8-5.9-1.8-3.7-.1-5.4.3-5.4 1.1 0 .7-2.1 2-4.7 2.9-4.5 1.5-4.9 1.5-6.1-.1-1.1-1.5-1-1.8.5-2.1 6.3-1 6.6-1.2 4.9-3.1-.9-1-1.6-2.3-1.6-3 0-.8-.7-1-2-.6-1.1.3-2.8.2-3.7-.4-1.6-.9-1.4-1.1 1.4-2.3 3-1.3 2.9-1.4-4.3-1.5-6-.1-8.5-.6-13.2-2.9-3.1-1.6-6-3.3-6.3-3.7-.7-.9-7.9.1-7.9 1.2 0 .3.7 1.5 1.5 2.5 1.4 1.8 1.2 2.1-2.2 3.2-4 1.4-5.4 1.1-3.5-.8 1.4-1.4 1.6-2.8.3-2.8-.5 0-1.4 1.3-2.1 3-1.4 3.5-4 3.9-5.8 1-1.1-1.8-.9-2.2 1.3-3.2 1.3-.6 2.7-1.8 3-2.7 1.2-3.4 3.4-5.4 4.8-4.3 1.6 1.3 4.2-.1 3.2-1.8-.4-.6-1.6-.9-2.6-.7-1.2.3-1.9 0-1.8-.6.4-2.1-2-6.7-3.4-6.7-2.1 0-2.8 1.2-1.6 2.6 1.5 1.9-3.7 3.1-6.3 1.5-1-.6-2.3-.9-2.9-.6-.5.4-2.8-1.4-5.2-3.9-2.3-2.5-5.1-4.6-6.1-4.6s-2-.9-2.3-2c-.3-1.1-.9-2-1.4-2-3 0 2.7 7.4 9 11.6 2.8 1.9 5.8 4.8 6.6 6.4.9 1.7 2.2 3 3.1 3 .9 0 1.4.7 1.2 1.7-.5 2.5-7.4 4-9.6 2-1.6-1.4-5.8-2.4-12.7-3.1-1.6-.1-4.7.6-6.7 1.7-3.3 1.8-4.2 1.9-7.7.8-3.5-1-4.2-1.7-5.1-5.2-.9-3.3-1.5-4-3-3.6-2.5.6-4.8-1.9-3.2-3.5 2.1-2.1 1.3-3.4-2.1-3.4-1.8 0-5.3-1-7.7-2.2-2.4-1.2-4.6-2-4.8-1.7-.2.2.9 2.2 2.6 4.3 1.7 2.2 3.6 5.1 4.1 6.5.6 1.4 2.1 3.1 3.4 3.9 6 3.3 10.7 6.9 10.7 8.3 0 .8-.3 1.4-.7 1.4-.5-.1-1.8-.1-3 0-3.1.1-2.9 2.1.1 2.1 1.4 0 2.8.4 3.1 1 .3.6-.5 1-1.9 1-2.9 0-4.3 1.5-2 2.4 3.1 1.2 6.4.7 5.8-.9-.4-1 0-1.5 1.1-1.5 2.4 0 5.5 1.9 5.5 3.4 0 .8.9 1.6 2 1.9 2.5.6 1.7 3.4-1.4 4.8-1.1.5-2.8 1.4-3.7 2-2.2 1.6-7 .3-7.6-2.2-.4-1.5-.8-1.7-1.9-.8-1.5 1.2-2.9.5-2.9-1.4 0-1.5-7.1-2.8-10.8-2.1-2.2.5-2.6.9-1.7 1.9 1.4 1.6-.6 3.3-2.2 1.7-1.2-1.2-7.6 1.8-13.8 6.5-3.6 2.8-4.6 3.1-4.8 1.9-.5-2.1-1.9-2-3.1.3-.6 1-2.4 2.1-4.1 2.5-5.3 1-17 12.3-17 16.4 0 .4 1.6 1.6 3.5 2.5 3 1.5 3.4 2 2.6 3.6-2.1 3.9-1.2 20.8 1.3 24.7 1.8 2.7 2.1 5.5.6 7-.6.6-.7 2.3-.4 4 .7 3.3 6.5 7.7 8.9 6.8.8-.4 1.5-.1 1.5.5s-.9 1.1-2 1.1c-1.3 0-2 .7-2 2 0 1.4-1.1 2.5-3 3.4-2.3.9-2.7 1.5-1.8 2.4.9.9.9 1.2-.3 1.2-.8 0-.2 1 1.6 2.5 1.7 1.3 2.4 2.4 1.8 2.5-2.8 0-1.1 2 1.7 2 3.5 0 4.1 1.7.7 2.2-2.7.4-2.9 3.1-.2 3.6 1.1.2 2.8 1.1 3.8 2 1.6 1.5 1.6 1.6 0 3.5-1.4 1.6-1.5 1.9-.3 1.5.8-.3 2.3-.2 3.3.1 1.7.6 1.7.8-.2 3.3-2.9 3.6-2.7 5.6.7 6 1.9.2 2.8.9 3 2.5.2 1.3 1.3 2.4 2.8 2.7 1.8.5 2.4 1.2 2 2.2-.3.9-.6 2-.6 2.5 0 .6-.5.7-1 .4-1.7-1-1.1 1 .8 2.8.9.8 3.1 2.8 4.7 4.4 4 3.7 8.8 5.5 15.5 5.7 4.7.1 5.5.4 5.2 1.9-.2.9.4 2 1.3 2.3 2.2.9 7.5-1.5 6.9-3.1-.3-.7.3-1.5 1.3-1.8 1.6-.4 1.6-.5.1-.6-1.9-.1-2.6-2.1-.7-2.1.5 0 1.5-1.4 2-3 1.1-3.1 1.3-3.1 10.2-3.4 1.2-.1 2.5-.5 2.8-1 .4-.4 1.6-.3 2.8.3 1.8 1 1.9 1.5 1 3.2-.6 1.1-.8 2.7-.5 3.4.7 1.9 7.2 3 10.1 1.7 1.6-.7 2.6-.7 3.4.1 1.7 1.7 1.3 2.9-1 2.5-1.3-.2-2.6.5-3.3 1.5-.9 1.5-.6 2.2 2.2 4.5 1.8 1.5 3.2 3.3 3.2 3.9 0 .7 1.1 1.3 2.4 1.3 2.7 0 4.5 1.8 2.8 2.9-1 .6 1.1 1.8 6.2 3.5 1.5.5 1.6.9.6 2.1-1.6 1.9-1.4 2.1 3.5 2.9 3.6.6 4.3.4 6.9-2.3l2.8-2.9-5.3-2.9-5.4-2.8 5-.5c3.3-.3 4.9-.9 4.7-1.8-.3-1.9 5.3-1.5 7.1.6 1 1 1.7 2.2 1.7 2.7s.7 1.7 1.7 2.7c1.5 1.7 1.5 1.8-.1 1.8-.9 0-1.4.4-1.1 1 .8 1.4 6.1 1.3 10.1-.2 2.5-.9 3.9-.9 5.9 0 1.5.7 2.5.8 2.5.2 0-.6.5-1 1-1 1.5 0 1.2 2.6-.4 3.9-.8.6-2.9 1.4-4.7 1.6-1.9.2-3.9 1.1-4.5 1.9-.6.9-1.9 1.3-3.2.9-1.8-.4-2-.8-1.1-2 1-1.2.5-1.3-3.2-.7-2.4.4-5.4 1.1-6.7 1.5-1.3.5-3.4.6-4.8.3-2.8-.7-5.5 1.1-4.7 3.2.4 1 1 1.1 2.5.3 1.1-.6 3.6-.8 5.5-.4 3 .5 3.4.9 2.9 2.9-.8 3.3.4 3.9 2.9 1.6 2.7-2.5 9-4 8.3-1.9-.2.8-1.4 1.5-2.6 1.7-2.4.4-2.9 1.7-1.1 2.8.6.3.8 1.5.6 2.6-.4 1.4.2 2.2 2 2.9 2.6 1 2.6 1 .6 2.4-1.1.8-3.3 1.4-4.9 1.4-8.9-.3-12.4.3-12.4 2.2 0 1.2.7 1.9 2 1.9 2.6 0 2.5 1.4-.3 3.3-2.2 1.5-2.2 1.5.8 1 6.7-1 7.7-1.4 7.1-2.8-.3-.8-.1-1.7.4-2 .6-.4 1-.3 1 .2 0 .4 1.1 1.3 2.5 2 2.2 1 2.7.8 3.5-.8.6-1.1 2.1-1.9 3.5-1.9 2.8 0 3.4-1.7 1-2.6-1.2-.5-1.3-.9-.4-2 1-1.2 1.4-1.2 2.9.1 1.6 1.4 1.8 1.4 2.4 0 .5-1.4.8-1.4 3.1.1 3 1.9 5.5 1.2 5.5-1.6 0-1.8.6-2 5.6-2 3.6 0 6.1-.5 7-1.5 1.8-1.7 9-1 11.1 1.1 1.7 1.7-1.6 4.7-3.7 3.4-1.6-1-5.9-.3-7.5 1.2-.7.7.4.8 3 .5 4-.5 13.5 1.8 13.5 3.3 0 .5-1.3 1.3-3 1.9-3.4 1.1-4 3.1-1 3.1h2.8c.4 0 .7-.4.7-.9 0-2.5 2.2-3.1 4-1.1 1 1.1 2.4 2 3.2 2 .7 0 1.8 1.1 2.3 2.5.6 1.6 1.7 2.5 3 2.5 1.2 0 1.8.4 1.5 1-1 1.6-5.2 1.2-5.9-.6-.7-1.8-2.8-.9-2.4 1.2.2.8-.8 2-2.1 2.7-2.9 1.4-3.9 3.7-1.7 3.7.9 0 1.6.6 1.6 1.3 0 .8 1 1.3 2.2 1.3 1.6-.1 2.3.5 2.3 1.9 0 1.3 1 2.2 3.3 2.9 2.1.6 3.1 1.4 2.8 2.2-.3.7-.1 1.6.4 1.9.6.4 1-.3 1-1.4 0-3 3.8-2.7 5.2.4.9 1.9 1.4 2.2 2.4 1.4.8-.6 2.7-.9 4.4-.7 1.6.3 3 .1 3-.4 0-.4.6-.8 1.4-.8.7 0 1.9-.7 2.6-1.5 1.7-2 9.6-2 10.3 0 .7 1.8-.6 2.7-2.7 1.9-.9-.4-3.1.7-5.3 2.5-2.4 2-4.9 3.1-6.8 3.1-1.7 0-3.6.5-4.2 1.1-.8.8-2 .8-4.5 0-1.8-.6-4.6-.9-6.3-.7-5.7.7-8.8-3-4.2-5.2 2-1 2.1-1.1.2-1.1-1.1-.1-3.3.8-4.9 1.8-2.7 1.8-3.1 1.8-5.3.4-1.9-1.3-2.7-1.3-3.2-.4-.5.7-1.5.9-2.6.5-1.4-.6-1.7-.4-1.2.9.5 1.2.1 1.7-1.3 1.7-1.1 0-2 .7-2 1.5s-.9 1.5-2 1.5c-1.4 0-1.8-.5-1.3-1.7.6-1.4-.1-1.5-5.7-1-3.5.4-6.8 1.1-7.3 1.6-.4.4 1.5 1.8 4.4 2.9 5.6 2.4 8.9 2.8 8.9 1.2 0-1.3 6.7-1.3 7.5 0 .3.6-.1 1.3-1 1.6-1.2.5-1.3 1-.5 2 .8.9.8 1.8.1 3.3-1.5 2.7-1.4 3.1.9 3.1 1.1 0 2 .3 2 .8 0 .4 1.8.6 4 .4 2.4-.3 4 0 4 .7 0 .5 2 2.2 4.5 3.7 4.5 2.6 5.1 3.4 3.8 4.8-.5.4-.9 1.1-.9 1.4-.8 3.9-1.9 5-5.4 5.6-2.1.3-4 1-4.2 1.6-.1.5-1.3.7-2.5.4-2-.6-2-.7-.5-3.6 1.3-2.3 1.4-3.2.5-3.5-.7-.3-1.3-1.2-1.3-2 0-1.4-.3-1.3-2.1.3-2 1.8-2.1 3.7-.4 9 .5 1.5.1 2.3-1.7 3.1-1.3.7-1.7 1.2-.9 1.2.9.1 1 .5.3 1.3-1.5 1.9.4 5.8 2.7 5.8 1.1 0 2.3.4 2.6 1 .3.5 1.5 1 2.6 1 1 0 1.9.7 1.9 1.5 0 1.2-1.1 1.5-4.5 1.3-2.6-.1-4.5-.6-4.5-1.3 0-1.1-5.9-6-6.5-5.3-.1.1-.6 1.8-1 3.6-.5 2.4-.3 3.3.9 3.8.9.3 1.6 1.3 1.6 2.1 0 .9.6 1.3 1.5.9 2-.7 4.5.3 4.5 1.9 0 1.7 3.8 2.4 6.8 1.1 1.2-.5 2.5-2 2.8-3.3.4-1.3 1.5-2.8 2.6-3.4 1.8-1 1.8-1.1-.3-2.8-1.5-1.2-1.9-2-1.1-2.5.7-.4 1.2-.2 1.2.3 0 2.2 1.6 1 3.8-3 1.8-3.1 2.8-4 4.3-3.6 1.4.4 1.9 0 1.9-1.3 0-1.1.5-2.2 1.1-2.5.6-.4.8-1.3.6-1.9-.8-1.9 2.9-3.6 6.3-3 1.6.4 3 1 3 1.5 0 1.3 4.5 1.1 7.4-.2 1.9-.9 2.9-.9 3.9-.1 2 1.7 9.7 2.7 9.7 1.3 0-.6-1-1.1-2.2-1.1-1.7 0-1.9-.3-.9-.9.7-.5 1.1-1.3.7-1.9-.7-1.2 1.6-2.2 5-2.2 1.7 0 2.4-.6 2.4-1.9 0-1.1-.4-2.2-.9-2.5-.5-.4-.7.3-.4 1.4.4 1.6 0 2-2.1 2-1.5 0-3.6.5-4.6 1-1.5.8-2.4.5-4.4-1.4-3-3.1-2-4.1 5.2-4.9 6.8-.8 7.8-1.4 5.7-3.7-2.2-2.4-1-2.9 4.7-2.1 2.6.4 5.1.4 5.6-.1 1.4-1.4 4.2.2 4.2 2.3 0 1 .5 1.9 1 1.9 1.4 0 1.3-4.3-.1-5.7-3.1-3.1 4.9-3.9 9.2-.9 1.4.9 4.2 1.6 6.9 1.6 3.8-.1 4.2-.2 2.5-1.2-1.1-.6-2.1-1.1-2.1-1.2-.1-.1-.5-1.2-.9-2.4-.6-2-.4-2.3 1.2-2 1.1.2 2.4-.6 3.6-2.4 2.2-3.6 2.1-3.8-.4-3.8-1.2 0-1.9-.5-1.7-1.3.8-2.2 3.5-1.9 6.2.7 1.9 2 3.5 2.6 7.1 2.6 2.5 0 4.5-.5 4.5-1 0-.6-2.3-1-5.1-1-4.2 0-5-.3-4.5-1.6.3-.9.2-1.2-.4-.9-.6.4-1.9-.4-2.9-1.6l-1.8-2.3-2.8 2.2c-2.8 2.2-10.2 3.2-9 1.2.3-.6 0-1-.9-1-.8 0-2.2-.3-3.1-.6-.9-.4-1.5-.2-1.3.3.2.5-1 2.1-2.7 3.6l-3 2.6 2.9.1c5.6 0-1 3.3-8.7 4.4-1 .1-2.2.8-2.6 1.4-.7 1.1-6.1 1-8.1-.3-.6-.3-2-.3-3.2.1l-2.3.7 2.3.8c1.2.5 2.9.6 3.7.3.8-.4 1.5-.1 1.5.5s-.8 1.1-1.7 1.1c-.9 0-2.5.8-3.5 1.7-1.5 1.3-2.3 1.5-3.6.6-1-.6-3.2-1.4-5-1.7-2.6-.6-3.6-.3-5.5 1.8-1.4 1.4-3.4 2.6-4.7 2.6-3.7 0-11.7-3.3-13-5.3-1.1-1.8-1-1.9.7-1.2 1 .5 3 .8 4.5.7 1.5-.1 3 .3 3.3.9.4.5 1.2.6 1.8.2.6-.4 4.3-1.2 8.2-1.8 6.8-1.1 6.9-1.2 4.1-2.4-2.2-.9-3.7-.9-6.3 0-2.6.8-3.8.8-4.6 0-.8-.8-.5-1.1 1.1-1.1 2.3 0 3-1.6 1.1-2.2-.7-.2.1-1.2 1.5-2.2 2.6-1.7 2.9-1.7 4.7 0 1 .9 1.9 1.2 1.9.6s-.4-1.4-1-1.7c-2-1.2-.9-2.3 3.8-3.5 2.6-.8 5-1.8 5.3-2.3.4-.5 4.3-1 8.8-1.1 6.3-.1 8.4.2 9.1 1.4.8 1.3 1.3 1.3 3.7 0 3.5-2 3.7-4.5.3-4.6-4.7-.1-6-.4-6-1.2 0-1.4 17.4-.2 18.5 1.3.6.7 2.2 1.1 3.7.8 1.4-.3 4.3.4 6.6 1.5 3.9 1.9 4.2 1.9 5.6.3 2.3-2.5 2-4-1-5.2-2.1-.7-3.2-.6-5.2.7-2.1 1.4-2.7 1.5-3.6.3-.6-.8-2-1.3-3.1-1.1-1.2.1-2.5-.6-3.3-1.8-1.1-1.7-1-2 .7-2 1.1 0 2.2.4 2.5.9 1.1 1.7 4.8 0 4.3-2-.5-1.9 1.7-2.9 6.4-2.9 1.4 0 3.4-.9 4.3-1.9 2.3-2.5 9.5-3.3 11.9-1.3 1.5 1.4 1.9 1.3 3.9-.4 2-1.8 2.1-1.8 1.5-.1-.4 1-.7 2.5-.7 3.2 0 1.8-5.2 3.5-7.3 2.3-2.3-1.2-6.3 0-4.8 1.5.8.8 1.4.8 2.2 0 .8-.8 2-.6 4.5.9 2.8 1.6 3.2 2.3 2.1 3.2-.7.6-2.1 2.3-3 3.8-1.4 2.2-1.5 2.8-.4 2.8 1.9 0 18.8-3.6 21-4.5 2.1-.9 2.3-3.5.1-3.5-1 0-1.4-.6-1.1-1.4.9-2.4-3-2.6-4.6-.3l-1.3 2-3.2-2.3-3.2-2.3 2.2-3.6c3-5 4.2-6.2 6.6-6.4 2.5-.1 2.7-.8 1-2.5-.8-.8-.5-1.4 1.5-2.3 1.5-.7 2.7-1.8 2.7-2.4 0-.7.7-1.8 1.5-2.5 1.9-1.6 1.9-5.9 0-6.6-.8-.4-1.2-1-.9-1.6.3-.5 1.5-.3 2.8.6 1.7 1.1 3.6 1.2 7.7.6l5.4-.7-3.2-1.4c-2.6-1.1-3.2-1.8-2.7-3.4.4-1.1.6-2.2.6-2.5 0-2.4-.5-2.7-4.7-2.2-3 .3-4.5.1-4.5-.7 0-.6.6-1.1 1.4-1.1.7 0 2-1 2.8-2.2 1.3-1.9 1.8-2 4.6-1 1.9.6 3.2.7 3.2.1 0-1.1 2.1-1.2 3.9 0 1.2.8 1.2 1.2.2 2.5-.8.9-1 1.6-.7 1.6.4 0 .2.9-.4 2-.9 1.7-.8 2 1 2 2.2 0 2.6 2 .9 5.2-1.6 2.9.9 4.4 3.3 1.8.9-1 3.6-2.1 6-2.5 5.7-.9 9.3-3.2 7.9-4.9-1.3-1.5 1.2-4.2 4.4-4.8 1.4-.2 2.1.3 2.3 2 .4 2.4 2.2 3.1 2.2.8 0-1.5 2.4-2.8 3.4-1.9.3.4.6 1.5.6 2.5 0 1.1.7 3.2 1.5 4.8 1.3 2.5 1.3 3 .2 3-.8 0-2.6-.9-4.1-2.1l-2.6-2-2.6 2c-1.5 1.2-3.2 2.1-3.8 2.1-.6 0-1.7.9-2.4 2-1.1 1.7-1 2 .7 2 2.7 0 7.2 2.1 6.6 3.1-.6.9 5.1 5.9 6.8 6 .7 0 .3.4-.8.8-1.1.5-2.8.4-3.9-.1-1.2-.7-2.2-.6-2.9.1-.8.8-.6 1.1.8 1.1 1.6.1 1.5.4-.8 1.6-2.4 1.3-2.6 1.8-1.6 3 .8 1 2.1 1.3 3.7.9 1.7-.4 3 0 4.3 1.4 1.8 1.9 1.8 2 0 2.6-2.9.9-8.6 6.9-8.3 8.7.2.9-.1 1.9-.7 2.2-.6.4-.8 2-.4 3.6.4 2.3-.1 3.8-2.1 6.4-3.3 4.4-3.3 5.2.2 2.6 2.3-1.7 3.3-1.9 5.6-1 1.9.7 3.3.7 4.7 0 2.2-1.2 2.6-5 .4-5-.8 0-1.2-.6-.9-1.3.3-1-.5-1.2-3.1-.9-3.9.5-3.9.4-2.5-3.2.6-1.5 1.7-2.6 2.9-2.6 1 0 2.4-.7 3.1-1.5.7-.8 2.7-1.5 4.4-1.5 4.4 0 7.7-1.1 7.5-2.4-.4-3.5 1.7-4.2 6.4-2.1 1.3.5 2.8.1 4.7-1.4 1.6-1.1 3.4-2.1 3.9-2.1 1.8 0 2.3 2.1 1 3.7-2.9 3.4 6.5 6 10.1 2.8 1.9-1.7 14.7-2.8 15.6-1.4.3.5 1.3.9 2.3.9 2.3 0 5.1 3 3 3-.8.1-.4.6.9 1.3 1.5.9 1.9 1.6 1.2 2.3-.8.8-.6 1.5.5 2.4.8.7 1.5 1.9 1.5 2.6 0 1.8 1.4 1.8 3-.1 1.6-1.9 7-1.9 9.6-.1 1.1.9 3 1.2 4.7.9 2-.4 2.7-.2 2.7 1.1 0 1.1.9 1.6 2.9 1.6 3.3 0 4.9 1.5 2.6 2.4-2.1.8-1.9 3.8.4 6.7 2.5 3.2 1 5.3-4.4 6.3-2.2.4-4.5 1.2-5.2 1.7-.7.7-1.4.6-1.8-.1-1-1.6-3.8-1.2-3.2.4.3.8-.1 2-.9 2.7-.9.8-1.3 2.1-1 3.5.5 1.9.1 2.3-2.9 2.8-2 .4-4 .4-4.6.1-1.1-.8-3.9 1.2-3.9 2.7 0 .6 1.3.8 3.1.4 2.5-.5 3-.3 2.5.9-.4 1.1.2 1.5 2.3 1.5 1.6 0 3.1.7 3.5 1.5.3.8 1.4 1.5 2.5 1.5 2.5 0 3.7 1.8 1.7 2.6-.9.3-1.6 1.2-1.6 2 0 .7-.8 1.8-1.7 2.4-1.5.9-1.4 1 .9.6 1.5-.4 3-.2 3.3.4.3.5 1.4 1 2.4 1s2.4.6 3 1.4c2.1 2.5 6 2.8 8.7.7 1.4-1.1 3.1-1.8 3.9-1.5 1.8.7 2.6 4.3 1.4 6.6-.6 1.2-.6 1.8 0 1.8s.8 1.2.5 2.8c-.6 3.2.5 4.5 5.1 5.7 2.7.8 2.8.9.8 1.2-1.3.3-2.3.8-2.3 1.3s-1 1-2.2 1.2c-2 .3-1.8.6 1.5 2.2 4.4 2.1 4.8 5.2.7 4.9-2.4-.2-2.4-.2.3.9 2.7 1.2 4 3.2 1.3 2.2-.8-.3-2.5 0-3.7.7-1.7.9-2.4.9-2.7 0-.2-.6-.8-.9-1.3-.6-.5.3-1.8.1-3-.5-2.4-1.3-4.1-.4-1.9 1 .8.6 3.9 1.7 6.9 2.5 2.9.9 5.1 1.8 4.9 2.1-.4.4-4.8-.3-13.6-2.2-1.6-.3-2.1-.1-1.7.7.4.6.2 1.5-.5 1.9-1 .6-.8 1.6.8 4.2l2.2 3.3v-3.3c0-3.1.1-3.2 4.1-3.2 3.5 0 4 .2 3.4 1.9-.3 1.1-.1 2.3.6 2.6.8.6.7 1-.2 1.7-1.1.7-1.1 1.1-.1 1.5 2.1.8 1.3 3.3-1.3 4.3-1.4.5-2.5 1.4-2.5 2 0 .5-.8 1-1.7 1-1.7.1-1.7.1 0 1.1 2.1 1.2 2.3 3.3.2 2.6-.8-.4-1.7-.2-2 .3-.4.6-1.4 1-2.3 1-1.7 0-3.5 3.1-4.8 8.3-.5 2.1-.3 2.7 1 2.7.9 0 1.6-.6 1.6-1.3.1-.6 1-2.3 2-3.6 2-2.4 2.2-2.4 9.5-.5 1.6.4 2.4-.3 3.8-3.6 1.6-3.7 2.1-4.1 4.2-3.6 3.7.9 3-.6-1.4-3.4-3.1-1.9-3.8-2.7-3.1-4 .5-.9.7-2.6.4-3.7-.3-1.2-.1-3 .5-4.2 1.3-2.4 5.1-2.9 5.1-.7 0 2.7 2 2.8 5.1.2 1.7-1.4 3.7-2.6 4.6-2.6 1.3 0 1.3-.3.3-1.5-.7-.8-.9-1.5-.4-1.5.4 0-.3-1.1-1.6-2.4-1.5-1.7-2.1-3.3-1.8-5 .3-1.5-.1-3.1-.8-3.7-.8-.6-1.1-1.6-.8-2.1.4-.6.1-1.4-.7-1.8-1.9-1.2.5-3.8 3.8-4.2 3.9-.5 4.2-2.8.3-2.8-2.7 0-3-.3-2.5-2 .4-1.4.1-2.2-1-2.6-.9-.4-1.4-1.3-1.1-2.1.4-.9-.1-1.7-1.4-2-2.1-.6-2.6-1.8-1.1-2.7.5-.3.7-1.5.4-2.5-.3-1 0-2.2.6-2.5.6-.4 1.1-1.6 1.1-2.7 0-1 .6-2.8 1.3-3.9 1-1.7.9-2.2-.2-3-1.2-.7-1.2-1.1-.2-2.4 1.2-1.4 1-1.6-.7-1.6-3.3 0-3.6-1.9-.5-3 1.5-.6 3.8-1.6 5.1-2.2 1.8-1 2.5-.9 3.1.1 1 1.5 9.4 3.3 11.6 2.5.8-.4 1.5-1.2 1.5-2 0-1.7 9.5-2 10.5-.4 1.1 1.8 2.3 1.1 1.8-1-.4-1.7-.1-2 2.3-1.9 3.8 0 11.6 3.2 12.3 5 1.3 3.1 5.6 6.9 7.8 6.9 2.6 0 6-1.5 8.1-3.7 1.6-1.6 3.6-1.7 6.3-.3 3 1.6 2.3 2.6-1.6 2.2-2.8-.3-3.5-.1-3.5 1.3 0 1.3.8 1.6 3.4 1.4 1.9-.2 3.8 0 4.1.3.4.4 2.2-.1 4.1-.9 2.7-1.3 3.8-1.4 5.9-.5 1.7.8 3.2.9 4.4.3 4.8-2.6 13.6 4.5 10.6 8.5-1 1.5-1.6 1.6-2.7.6-.8-.6-1.8-.9-2.2-.4-.4.4-1.2-.1-1.7-1.1-.6-.9-2.2-1.7-3.6-1.7h-2.7l3.4 3.5c3 3.1 4 3.5 8.5 3.5 3.9 0 5.6.5 7 2 1.6 1.8 1.6 2 .2 2-1 0-1.7.4-1.7 1 0 .5.6 1 1.3 1 .8 0 .7.3-.3 1-1.2.8-1.2 1 .2 1.5 1 .4 2.1.4 2.7.1.5-.4 1.3.3 1.6 1.5.4 1.2 1.2 1.8 2.1 1.5 2.1-.8 1.7 1.2-.6 2.4-2.4 1.3-1.6 4.5.9 3.4.9-.3 2.5-.9 3.6-1.1 2-.5 2-.5.1.9-1.4 1.1-1.6 1.7-.7 2.3.7.4 1.8.2 2.4-.4 1.9-1.9 3.4-1.2 4.7 1.9.7 1.7 1.6 3 2.1 3 1.3 0 1.1-1.4-.2-2.7-.9-.9-.5-1.4 1.7-1.9 1.6-.3 4.8-1.6 7.1-2.7 3.8-1.8 4.6-1.9 6.8-.7 1.4.7 2.8 1 3.2.5.5-.4.2-1-.4-1.2-2-.7-1.5-2.3.7-2.3 1.1 0 2-.5 2-1.2 0-.8.6-.7 1.6.4 1.3 1.2 1.4 2 .5 3.7-1.5 2.7.1 3.4 6.4 2.9 4.4-.3 6 .7 3 1.8-.8.4-1.5 1.1-1.5 1.6 0 .7.4.7 1.3 0 1.7-1.4 9.7-2.6 9.7-1.4 0 .5-.9 1.2-2.1 1.5-3.1.8-1.3 2.8 1.9 2.1 2.6-.5 2.6-.5.8 1-1.1.9-2.3 1.6-2.8 1.6-.4 0-.8.5-.8 1.1 0 .5.5.7 1.1.4.6-.4 2.6-.4 4.5 0 2.8.5 3.4 1 2.9 2.4-.5 1.5-.1 1.7 2.1 1.3 2.3-.4 2.5-.2 1.9 1.7-.5 1.6-.3 2 .9 1.5 2.3-.9 2-3.5-.4-4.1-2.8-.7-2.5-2.3.4-2.3 4.1 0 7.5 5 4.4 6.4-.7.3.6.3 3 0 2.7-.4 4.8-.1 5.7.6.8.7 2.6 1 4 .8 1.6-.3 2.5-.1 2.5.7 0 .7.9 1.5 2 1.8 1.1.3 2 1 2 1.7 0 1.7-8.8.2-12.8-2.2-2.7-1.6-3.5-1.8-4.8-.7-1.2 1-1.2 1.4-.2 2 1.1.7 1.1.9 0 .9-.7 0-1.1.4-.7 1 .3.5 1.3.6 2.2.3.9-.4 2.1.1 2.9 1.2.7 1 2 1.5 2.9 1.2 3.4-1.4 1.3 2.2-2.6 4.2-3.8 2-6.6 2-5.4 0 .4-.5-.8-.9-2.4-.9-2.4 0-3.1-.4-3.1-1.9 0-2.4-2.5-4.5-4.5-3.7-2.1.8-1.9 3.2.5 4.9 1.1.8 1.7 1.7 1.4 2-.4.4-.2 1.3.5 2.1.9 1.1.5 1.9-1.9 3.9-1.6 1.4-3 2.8-3 3.1 0 1.3 2 .5 4-1.6 2.3-2.5 4-1.7 1.9.9-1.3 1.7-1.3 1.7.7.1 3.7-3.2 12.4-1.3 12.4 2.8 0 1.5 2.5 2 3.4.6.3-.5-.4-2.3-1.5-4.1-1.5-2.4-2.4-3.1-3.9-2.6-1.4.5-2 .2-2-.9 0-.9.5-1.6 1.1-1.6.6 0 2.3-.9 3.7-2 1.9-1.5 3.4-1.9 5.6-1.4 2.5.5 2.9.4 1.9-.7-3.2-3.3.5-3.1 3.8.2 1.4 1.4 3.2 1.6 12.3 1.2 5.8-.3 10.6-.3 10.6 0 0 1.8-4.3 2.8-7.2 1.8-4.1-1.5-4.5-.9-1.4 2.2 2.3 2.3 3.3 2.6 10.3 2.5 6.3-.1 8.2-.5 9.7-2.1 1.6-1.6 2.8-1.9 7.5-1.4 5.2.5 5.9.4 9.1-2.4 3.3-2.8 3.4-3 1.6-4.4-1-.8-1.6-2.1-1.3-2.9 1.3-3.3 14.7-8 16.1-5.7.9 1.3 3.6 1.5 3.6.2 0-.5-1-1.1-2.2-1.3-1.3-.2-2.4-1.1-2.6-2.1-.3-1.2.5-1.9 2.8-2.4 1.7-.3 3.4-1.2 3.7-1.9.7-1.9 2.8-1.8 4.3.1 1.9 2.3 9.4 1.6 9.8-.8.6-3.1 4-5.7 7.3-5.7 2.7 0 3-.2 1.9-1.5-1.7-2-4.5-1.9-7.8.4-3.1 2.2-9.2 3.5-9.2 2.1 0-.6-.7-1-1.5-1-2.1 0-1.9-1.3.5-3.5 1.1-1 1.7-2.1 1.5-2.5-.3-.4.2-1 1-1.4.8-.3 1.5-1.2 1.5-2.1 0-.9.9-1.5 2.5-1.5 1.4 0 2.5-.5 2.5-1.1 0-.5.6-.7 1.2-.3 2.3 1.5 6.3.9 7.9-1.1 1.7-2 1.7-2 5.5 0 5.4 2.7 6.5 2.8 20.4 2.2 4.6-.3 5.5-.6 5.5-2.2 0-1.2-.9-2.1-2.5-2.5-2.4-.6-2.4-.6.9-1.8 1.9-.7 4.4-1.2 5.7-1.2 1.3 0 2.6-.5 2.9-1 .6-1-6.4-1.6-14.3-1.1-3.9.2-4.7-.2-7.8-3.5-3.9-4.3-3.9-4.4-1.9-7 1.4-1.8 1.4-1.8 1.5.8 0 2.9 1.7 3.7 3.7 1.7.8-.8 1.7-.7 3.4.5 1.3.9 3.7 1.5 5.4 1.5 1.6-.1 2.3-.3 1.4-.6-1.6-.4-4.4-8.2-3.3-9.2.2-.2 1.5.1 2.8.9 1.4.7 3.2 1 4.2.6 1.6-.6 1.6-.8 0-2.5-1.5-1.6-1.5-1.9.2-3.4 1-1 3.2-1.7 4.8-1.7 1.6 0 5.3-.7 8.3-1.5 4.7-1.2 5.8-1.2 9 .1 1.9.8 4.2 2.1 5.1 2.8 2.5 2.2 5.6 2.4 8 .6l2.3-1.7-3.4-1.1c-1.9-.6-4.3-1.2-5.4-1.4-1.6-.3-1.2-.8 2.1-2.6 3.5-1.8 4.4-3 5.8-7.2.9-2.8 1.4-5.5 1.2-5.9-.7-1.1-12.3-2.4-13.7-1.6-.7.5-.5 1.3.6 2.5 1.8 1.9 1.4 2.4-2.6 3.4-3 .7-4.5-1.3-2.6-3.3.9-1 .8-1.5-.5-2.5-2.6-1.9-2.2-2.6 1.5-2.7l3.2-.1-2.9-1c-2.6-.9-3.1-.7-5.7 2.3-2.3 2.6-2.8 4-2.3 6.2.5 2.4.3 2.7-1.9 2.7-1.6 0-2.6.7-3 2-.4 1.4-1.4 2-3.4 2-1.6 0-3.3-.4-3.9-.9-.5-.5-2-1.1-3.4-1.3l-2.5-.4 2.7-1.2c3-1.3 4.7-5.7 2.9-7.5-2.1-2.1-1.2-5.5 1.8-7 2.5-1.2 2.9-1.2 3.9.2s1.3 1.4 2.7-.3c1.5-2 1.5-2 3 0 1.4 1.9 1.5 1.9 3.3-.4.9-1.2 3.1-2.6 4.7-3 2.2-.6 3.1-1.5 3.3-3.4.2-1.7 1.4-3.1 3.7-4.4 3.1-1.6 3.9-1.7 6.7-.5 5.4 2.2 9.8 2.6 9.8.8 0-.8 1.2-1.8 2.6-2.1 1.9-.5 2.4-1 1.6-1.8-1.2-1.2-4.6-3.2-7.9-4.7-1.3-.6-2.3-1.5-2.3-2.1 0-.5-1.1-1-2.5-1-2.9 0-3.3-1.4-.7-2.9 1.6-1 1.5-1.3-1-3.5-1.6-1.4-2.8-2.7-2.8-2.9 0-.2 2.5-.7 5.5-1.1 4-.4 6.3-.2 8.5.9 3.6 1.9 4 1.9 4 0 0-.8-.9-1.5-2-1.5s-3.5-.8-5.4-1.8c-2.7-1.5-3.1-2.1-2.2-3.3 1.5-2.1 5-3.9 7.6-3.9 1.2 0 3.8-1 6-2.2l3.9-2.3 4.5 2.2c3.6 1.8 4.6 2 5.5.9.6-.8.9-2.1.5-3-.5-1.2 0-1.6 2.3-1.6 3.4 0 4.7.9 3.4 2.4-.7.8.6 1.1 4 1.3 2.7 0 4.6-.3 4.3-.8-.3-.5-1.2-.9-2-.9s-1.4-.5-1.4-1c0-.6.5-1 1.1-1 .8 0 .8-.4 0-1.4-.8-1-.8-2.1-.1-4.1.8-2.1.7-3.4-.4-5.6-.8-1.6-1-3.1-.5-3.5 3.2-1.9-1.4-2.5-6.9-.8-1.6.5-.1 3.6 3.6 7.7 2.3 2.4 2.4 2.9 1.2 4.1-2.2 2.1-11.5 2.6-11.5.6 0-.9 1.3-1.7 3.5-2l3.5-.6-3.5-2.2c-3.9-2.4-7.3-3.1-5.2-1 2.1 2.1 1.3 3.4-3.9 5.8-3.8 1.8-7 2.5-12.3 2.6-3.9 0-7.8.4-8.7.8-1 .4-2 .3-2.3-.2-.3-.6-2.3-.8-4.5-.5-2.2.3-4.1.1-4.5-.5-2-3.3 14.9-6.9 19.9-4.2 2.1 1.1 2.8 1 5.2-.5l2.7-1.8-2.2-1.5c-3.2-2.1-2.7-3.5 1.2-3l3.3.4-3.5-4.2c-3.7-4.5-5.4-5.6-11.9-7.3-4.4-1.2-5.8-3.1-2.3-3.1 1.3 0 2-.7 2-2s-.7-2-2-2c-2.5 0-8-2.7-8-3.9 0-.5.7-1.4 1.5-2.1 2-1.7.9-3-2.6-3-1.6 0-2.9-.5-2.9-1 0-2-4.2-5.1-9.6-7.2-2.9-1.1-5.4-2.4-5.4-2.9 0-.4 1.9-1 4.3-1.4 5.9-.9 7.7-1.5 7.7-2.5 0-.5-.9-1.2-2-1.5-1.3-.4-2-1.5-2-3.1 0-2.7.6-2.9 4.7-1.4l2.8 1-2.4-2c-2.2-1.9-2.2-2-.3-2 2.5 0 4.8-2.5 3.2-3.5-.6-.4-.8-1.5-.5-2.6.5-1.5.1-1.9-1.9-1.9-1.4 0-2.8.4-3.1 1-.3.5-1.7 1-3 1-1.9 0-2.2-.4-1.8-2.1.5-1.9.3-2-4.1-1.4-3 .5-4.6.4-4.6-.3 0-1 2.1-1.8 10.2-3.7 1.5-.4 3.2-1.3 3.8-2 .7-.8 3.3-1.7 5.8-2.1 3.6-.5 4.2-.9 2.6-1.4-3-1.2-4.9-3.9-3.6-5.2 1.2-1.2 8.2-.2 8.2 1.2 0 .6.6 1 1.4 1 .8 0 1.7.7 2 1.6.3.9 1.3 1.4 2.1 1 .8-.3 1.7-.1 2 .4.4.6 2 1 3.6 1 3.5 0 10.4 3.3 11.7 5.6 1.2 2.1 7.6 4.4 10.2 3.7 1.3-.4 2 0 2 1 0 .8.6 1.9 1.3 2.6.9.7 1.2 2.7 1 5.8-.5 7.6.2 9.3 3.8 9.3 2.6 0 3.1.3 2.6 2-.6 2.5 1.8 2.7 5.9.5 1.6-.8 3.6-1.5 4.4-1.5.8 0 2.4-.7 3.4-1.5 1.7-1.3 1.8-1.5.3-1.5-2.4 0-2.1-1.2.8-3.3 2.8-2 4.7-1.5 4.3 1.1-.4 2.3 3.5 2.8 5.6.7 2.3-2.4 7-1.2 6.1 1.5-.8 2.4 2.9 4.7 4.9 3.1 1-.8 1.7-.7 2.6.3 1.7 2.1.6 3.3-3.9 4.1-2.6.4-4.5 1.5-6 3.6l-2.2 2.9 3 .6c1.6.4 3.2 1.3 3.5 2.1.6 1.4-2.7 1.3-11.6-.3-4.8-.9-3 1 3.4 3.6 7.2 3 8.6 5 3.5 5-6.4 0-9.7-1.1-10.3-3.5-.3-1.2-1.1-2.2-1.7-2.2-.7.1-3.4-.9-6-2.2-4.7-2.2-4.9-2.2-6.2-.4-1.9 2.4-1.8 3.7.3 6.4 1.6 1.8 3 2.3 8.1 2.4 6.6.2 8.2 1.2 7.4 4.6-.3 1.2.3 2.6 1.8 3.8 2.2 1.7 2.2 1.9.6 3.5-2.1 2.1-2.2 4.6-.2 4.6 1.8 0 1.9 1.2.3 2.8-.9.9-.9 1.2.2 1.2.7 0 3.4-1.7 6-3.9 3.7-3.1 5.1-3.7 7.7-3.4 1.9.3 4.1-.2 5.7-1.2 2.6-1.7 2.7-1.7 4.1.1 1.9 2.5 1.9 2.7-.5 4.7-1.1.9-2 2.3-2 3 0 .8-1 2.3-2.3 3.5-2.2 2.1-2.3 2.1-3.9.3-1.1-1.3-2.4-1.8-3.7-1.4-2.6.7-2.7 1.8-.3 3.5 1 .7 2.2 2.5 2.5 3.9.6 2.2.3 2.6-1.1 2.5-1 0-1.6.5-1.3 1.4 1.5 6 1.6 6-2.7 6-2.6 0-4.8.7-6.3 2.1-2.1 1.8-2.1 2-.4 1.4 4.5-1.6 5.7-1.7 7.8-.7 3.7 1.7 5.6 2.2 7.2 1.6 2.2-.9 1.8-3.4-.5-3.4-1.1 0-2-.7-2-1.5s.5-1.5 1-1.5c.6 0 1-.8.8-1.7-.2-1.4.4-1.8 2.7-1.8 1.7 0 4.7-.8 6.8-1.7 7-3.2 13.4-.2 11.4 5.3-1.2 3.1.4 7.3 3.4 8.9 2.5 1.4 7.4-.3 7.4-2.5 0-2.3 2.1-3.1 4.1-1.5.8.7 1.7 1 2 .7 1.1-1.1-.6-2.5-3.6-3.2-4.4-1-3.9-5.5.8-6.9 2.5-.8 2.9-2.4.7-3.2-.8-.4-1.5-1.3-1.5-2.1 0-1 .6-1.3 1.6-.9.9.3 3.1.6 5.1.6 2.6 0 3.6.5 4 2 .6 2.1 1.8 2.6 2.8 1 .3-.5 1.1-.7 1.8-.5.7.3 2.3-.4 3.7-1.5 2.5-1.9 2.5-2 .3-2-1.3 0-5.7-.9-9.9-2.1-6.2-1.7-8.2-1.9-10.2-1-3 1.4-4 .7-2.2-1.5 1.2-1.3 1.1-1.7 0-2.4-.8-.5-1.7-.7-2.1-.4-.4.2-1 0-1.4-.6-.3-.6.4-1 1.8-1 1.7 0 3.6-1.4 6.1-4.5 2.1-2.5 3.5-4.9 3.2-5.4-.7-1.1 4.4-2.2 7-1.5 1.2.3 2.7-.3 3.8-1.5 1.6-1.8 1.7-2.1.3-2.7-.8-.3-2.4-.1-3.6.5-2.7 1.5-3.4 1.4-2.7-.4.4-1-.1-1.5-1.4-1.5-1.1 0-2-.4-2-.9s-1.6-2.4-3.5-4.3c-2.2-2-3.5-4.1-3.3-5.3.5-3.2 3.6-3 6.5.4 1.5 1.7 3.2 3.1 3.9 3.1.6 0 1.6 1.2 2.3 2.6.9 2.2 1.4 2.4 2.6 1.4 1.1-.9 1.2-1.6.5-2.5-.7-.8-.2-1.9 1.5-3.5 3.2-3 3.2-6.3 0-8.4-2.7-1.8-3.3-3.6-1.2-3.6.7 0 2.6 2 4.1 4.5 2.5 3.9 3.2 4.4 5.5 3.8 2.2-.5 2.4-.4 1.4.9-1.3 1.6-.8 2.8 1.2 2.8 1.6 0 3.6-4.6 2.9-6.5-.5-1.2.2-1.5 2.9-1.5 3.4 0 5.7 2.2 3.6 3.5-.5.4.4 2.2 2.1 4.1 1.6 1.9 3 4.1 3 4.9 0 .8.4 1.5 1 1.5 1.5 0 2.3-4.6 1.1-6.8-.8-1.5-.8-2.3 0-2.8.7-.4.9-2.1.6-4.1-.7-3.8 1.5-8.3 3.8-8.3 1.5 0 4.5-2.7 4.5-4 0-.5-1-1.8-2.2-2.9-1.9-1.8-1.9-2.1-.5-2.7 1.8-.7 2.4-3.4.7-3.4-2 0-1-2.1 1.4-3 1.4-.5 2.9-1.8 3.5-2.8.9-1.6.6-2.3-1.5-3.6-3.4-2.3-2.2-3.6 3.7-3.6h4.9v-8.2l3.8.5c2 .3 5.2.9 7.1 1.3 3.2.6 3.4.6 2.7-1.9-.5-2.3-.2-2.6 4.9-4.3 8.3-2.6 24-.7 22 2.6-.9 1.5 1.2 2 4.5 1 2.2-.6 3.9-.6 5.4.2 1.1.7 5 1.5 8.6 1.9 5.4.6 6.8 1.1 8.6 3.5 1.9 2.4 2.5 2.6 3.8 1.4 1.4-1.1 2-.9 4.1 1.6 2.3 2.6 2.7 2.8 4.7 1.5 1.8-1.1 2.3-1.1 2.7 0 .2.7 1.5 2.4 2.8 3.7 1.7 1.7 2.1 2.7 1.4 4-.8 1.4-.4 1.9 2.2 2.8 3.2 1.1 5.2 4.9 3.6 7-1.4 1.8.3 5.4 3.2 7 2 1 2.9 2.2 2.9 3.9 0 1.4.5 2.5 1 2.5.6 0 1-.8 1-1.8 0-.9.9-3 1.9-4.6 1.5-2.3 1.7-3.4.9-4.9-.5-1.1-1.2-4.1-1.5-6.8-.4-3.9-.2-4.9 1-4.9.8 0 1.7-.9 2-2.1.5-1.8.8-1.9 2.9-.8 1.3.6 3.2 1.9 4.3 2.9 2.5 2.2 14.4 3.3 15.2 1.4.6-1.6-2.4-7.4-3.9-7.4-.7 0-2.5 1.2-4 2.7-2.6 2.5-4.2 2.1-1.6-.5.7-.7 1.7-3.1 2.4-5.5.6-2.3 1.5-5 1.9-6 .7-1.6.2-1.8-4.1-1.7-2.7.1-5.9-.2-7.1-.5-3.4-1.1-2.8.6 1.7 5 2.2 2.1 4 4.4 4 5.1 0 .6-2.1 1.7-4.7 2.3-4.2 1.1-4.8 1-6.7-.9-1.7-1.7-1.9-2.4-.9-3.9 1-1.6.9-2-1-2.5-1.2-.3-3.2-2.2-4.5-4.2-2.3-3.5-2.3-3.6-.3-2.9 3.5 1.1 7.6-2.9 7.8-7.5.1-3.4-.2-4-2.8-5-3.6-1.5-3.7-3.4-.3-6.5 1.4-1.3 2.3-2.9 1.9-3.4-1.5-2.5 1.6-.8 5.4 2.9 3.4 3.4 4.5 3.9 7.1 3.4 1.7-.4 3.6-.1 4.4.5.9.8 1.6.8 2 .2.4-.6-.7-1.7-2.4-2.6-3.2-1.7-3.9-3.9-1.5-4.9.9-.3 2.7.7 4.5 2.4l3.1 3 5.8-2.9c5.2-2.7 5.8-3.3 5.9-6.3 0-1.8-.5-4.2-1.2-5.3-1.8-2.7-1.5-12.7.3-13.3.9-.3.2-1.1-2-2.1-2.3-1.1-3.4-2.3-3.4-3.8 0-2.7-2.8-5.8-9.1-9.8-4.4-2.9-9.4-8.1-9.4-9.9 0-.3.6-.6 1.3-.6.7 0 1.8-.9 2.5-2s1.9-2 2.7-2c.8 0 1.5-.5 1.5-1 0-.6-1.2-1-2.6-1-2.3 0-2.5-.3-2-2.4.6-2.5-.8-4.4-1.9-2.6-.3.5-1 1-1.6 1-1.4 0-1.1-3.4.6-5.6 2.1-2.8 1.9-4.6-.7-4.2-1.8.2-2.4-.3-2.6-2.2-.2-1.4-1.1-3.3-1.9-4.2-1-1.1-1.4-2.9-1.1-4.9.8-5.5-1-11.7-4.2-13.9-1.6-1.1-3-3-3.2-4.2-.2-1.4-1.3-2.5-2.8-2.9-2.1-.6-2.2-.7-.5-.9 1.1-.1 4.5-.1 7.5 0 5.9.2 9.7 2.6 12.6 8.1 1 2 2.6 3 6.6 3.9 2.9.7 6.4 1.4 7.8 1.5 3.8.3 4 .4 4 1.9s-4.4 3-6.3 2.1c-.7-.4-.3.1.7.9 2.3 1.8 7.1 2.3 14.4 1.4 1.7-.2 1.5-6.3-.2-7.7-.8-.7-3.4-1.4-5.8-1.6-8-.7-12-1.7-12.5-3.1-.3-.8-1.2-1.4-1.9-1.4-1.6 0-3.3-3.7-3.1-6.6.2-1.3-.5-2-2.3-2.2-1.4-.2-3.7-.8-5.2-1.3-1.8-.8-3.2-.7-4.6 0-1.8.9-2.1.8-2.4-1.2-.2-1.7-1.1-2.3-4.3-2.7-2.6-.3-4.1-1.1-4.3-2.1-.2-1.3 1-1.7 6.4-2.3 7.2-.7 9.9.3 8.9 3.5-.7 2.2-.2 2.3 2.6.8 2.6-1.3 5.6-.3 6.4 2.2.5 1.4 1.1 1.7 2.3 1 1.1-.6 3.9-.3 7.9.7 3.4.9 6.6 1.2 7 .8.4-.5.2-1.1-.5-1.3-2.2-.8-7.2-5.4-7.2-6.7 0-.7-1.7-2.2-3.7-3.4-9.9-5.7-14.3-12.2-7.3-10.7 2.6.6 3.2.2 5.4-3.4 1.4-2.1 3.4-4.2 4.6-4.6 5.2-1.6-.2-4.9-6.5-3.9-3.3.4-4.5.3-4.5-.6 0-.9-.3-1-1.3-.1-.8.6-1.7.8-2 .4-1.3-1.2-.7-3.4 1.1-4 .9-.3 3.2-1.7 5-3l3.3-2.4-3.1-3.9c-2.9-3.6-3.5-3.9-8.8-4.2-5.6-.3-5.7-.3-7.7-4.6-1.5-3.2-2.7-4.4-4.9-4.9-1.6-.3-3.1-1.4-3.4-2.5-.5-2.2-2.8-1.8-2.4.5.4 2.3-1.3 2.9-4.2 1.6-2.5-1.2-3.5-2.9-1.8-2.9.9 0 3.2-4.4 3.2-5.9s-7.9-6.3-9.5-5.7c-2.1.8-3.1.4-2.7-1.1.2-.7-.8-1.7-2.1-2.2-3.3-1.3-4.2-3.8-1.6-4.6 1.3-.4 3.1.2 5.2 1.8 3.2 2.4 9.1 5.7 10.2 5.7.3 0 .1-.9-.5-2.1-1.6-2.9-.9-3.2 2.8-1.3 1.8.8 3.8 1.4 4.5 1.1 2.1-.7-5.3-3.8-10.1-4.3-4.5-.5-8.5-2.4-4.9-2.4 5.8 0-3.6-5.1-14.4-7.9-3.7-.9-7.3-2.2-8.1-2.9-.8-.6-4.7-1.5-8.7-1.8-3.9-.4-7.4-1.1-7.7-1.5-.3-.5-3.2-.9-6.4-.9-3.7 0-6.4-.5-7.2-1.4-1-.9-2-1.1-3-.5-1.1.6-2.4.2-4.4-1.3-2.1-1.7-4.3-2.3-8.3-2.4-6.8-.1-9.5 1-8.8 3.7.6 2.4-2.1 3.9-3.3 1.9-.9-1.5-6.9-.6-11.2 1.6-3.1 1.6-3.3 2.2-1.6 5.8.9 2.1.8 2.9-.5 4.4-1.8 2-2.3 7.2-.7 7.2.6 0 1-.5 1-1 0-1.7 2-1.1 5.7 1.7l3.5 2.7-2.1 1.7c-1.5 1.2-3.2 1.6-5.5 1.2-2.6-.4-3.9 0-5.5 1.6-1.1 1.1-2.8 2.1-3.6 2.1-1.1 0-1 .5.6 2.1 1.9 1.9 2 2.3.6 3.6-1.8 1.8-3.7.9-3.7-1.8 0-1.5-.7-1.9-3.8-1.9-2.1 0-4.7-.7-5.8-1.5-2.6-2-4.1-1.9-7.1.5-3.5 2.7-5.6 2.5-13-1.1-7.1-3.5-9.6-6.4-6.3-7.4 2.6-.8 5.6-6.3 4.2-7.7-.6-.6-3.7-1.4-6.9-1.8-3.2-.4-4.8-.8-3.6-.9 2.9-.1 5.3-2.7 5.3-5.6 0-1.2.8-3.3 1.9-4.6 1.8-2.2 1.8-2.4-.1-5.8-1.9-3.6-5.3-7.1-6.8-7.1-.4 0-3 1.5-5.6 3.4zM645.8 141.7c.7.3 1.6.2 1.9-.1.4-.3-.2-.6-1.3-.5-1.1 0-1.4.3-.6.6zM1174 144.5c0 .6.6 2 1.4 3 1.2 1.7 1.7 1.8 5.2.6 3-.9 4.6-1 6.8-.1 3.9 1.4 5.7-.3 1.9-1.9-4.5-1.8-15.3-3-15.3-1.6z"/><path d="M1037.3 148.2c-2.7 1.3-2.9 3-.7 4.8 1.3 1.1 1.9 1 3.6-.7 1.2-1.3 1.8-2.8 1.5-3.7-.7-1.8-1.3-1.9-4.4-.4zM853.1 152.6l-2.4 1.7 2.4 1.3c4.3 2.4 12.9 1.6 12.9-1.1 0-1.8-.7-2.2-6-3-3.4-.4-5.1-.2-6.9 1.1zM1074.6 151.9c-.4.7-.5 1.5-.2 1.8.9.9 1.9-.4 1.4-1.8-.4-1.1-.6-1.1-1.2 0zM1086.6 156.3c-5 2.9-5.4 4-1.9 6.5 2.3 1.6 4.1 1.9 9.7 1.6 3.8-.1 7.3-.7 7.9-1.3.8-.8.6-1.1-.6-1.1-1.9 0-2.3-1.6-.6-2.2.7-.2.2-1.5-1.3-3.1-3.2-3.4-7.7-3.5-13.2-.4zM783.5 160c-.3.5-.1 1 .4 1 .6 0 1.1-.5 1.1-1 0-.6-.2-1-.4-1-.3 0-.8.4-1.1 1zM1207.7 160.6c-1.1 1.2.3 2.4 2.9 2.4 2.4 0 3.2 1.4 1.4 2.5-.5.3-1 1-1 1.6 0 1.4 2.8 1.1 3.2-.3.4-1 1-1 3.1-.1 1.5.7 2.9.8 3.2.3.6-1-4-4.4-7-5.2-1.1-.3-2.7-.9-3.6-1.2-.8-.4-1.8-.4-2.2 0zM765 166c0 .5.5 1 1 1 .6 0 1-.5 1-1 0-.6-.4-1-1-1-.5 0-1 .4-1 1zM916.5 168c.3.5 1.9 1 3.6 1 1.6 0 2.9-.5 2.9-1 0-.6-1.6-1-3.6-1-2.1 0-3.3.4-2.9 1zM820.7 168.6c-1.3 1.3.5 2.4 4.1 2.4 2.2 0 3.2-.4 2.7-.9-1.4-1.3-5.9-2.3-6.8-1.5zM928.1 168.9c-1 .6-1 1-.1 1.6 1.3.8 2.4.1 1.9-1.4-.3-.6-1-.7-1.8-.2zM1227 172c0 .5.8 1 1.8 1s2.9 1.1 4.2 2.5c2.3 2.5 5 3.3 5 1.6 0-.5-1.4-2.1-3.1-3.5-3-2.6-7.9-3.5-7.9-1.6zM830.8 172.7c.7.3 1.6.2 1.9-.1.4-.3-.2-.6-1.3-.5-1.1 0-1.4.3-.6.6zM861 178c0 3 1.3 3.7 3.7 2.2 1-.6.9-1.3-.3-3-2.1-3-3.4-2.7-3.4.8z"/><path d="M1232.6 177.8c-1.8 2.8 4.8 8.8 10.4 9.4 1.8.3 2.3-.2 2.5-3 .2-2.6-.1-3.2-1.7-3.2-1.7 0-1.8-.3-.8-1.5 2.1-2.6-1.7-3.2-4.1-.6-2.6 2.7-4.7 2.7-5.1-.2-.2-1.6-.5-1.9-1.2-.9zM1080.5 179c2.8 1.2 4.7 1.2 4 0-.3-.6-1.8-1-3.3-.9-2.4 0-2.5.1-.7.9zM820.3 182c-3.5 1.4-2.7 2 2.8 2 3.6 0 4.9-.4 4.7-1.3-.6-1.5-4.6-1.9-7.5-.7zM897 184.5c0 1.7.2 1.8 2.4.9 2.3-.9 2-2.4-.4-2.4-1.1 0-2 .7-2 1.5zM834.7 185.3c-.3.9.1 2.1.9 2.7 1.1 1 1.4 1 1.4-.1 0-.8-.4-2-.9-2.7-.7-1.1-.9-1.1-1.4.1zM980.5 186c.3.5 1.6 1 2.8.9 2.1 0 2.1-.1.2-.9-2.8-1.2-3.7-1.2-3 0zM844 187c0 .5.5 1 1 1 .6 0 1-.5 1-1 0-.6-.4-1-1-1-.5 0-1 .4-1 1zM914.2 190.9c.2.7.7 1.2 1.1 1.2 1.2-.1.9-1.5-.3-2-.7-.2-1.1.2-.8.8zM1020 191c0 .5.9 1 1.9 1 1.1 0 2.3-.5 2.6-1 .4-.6-.5-1-1.9-1s-2.6.4-2.6 1zM970 193.6c-1.4.7-3.3 1.4-4.2 1.4-1 0-1.8.4-1.8.9s3.2 1.1 7 1.3c3.9.2 7 .2 7 0 0-.1-.7-1.4-1.6-2.7-1.8-2.8-2.8-2.9-6.4-.9zM950.3 194.5c.5 1.4 5 2.3 6.5 1.2 2.2-1.7 1.3-2.4-2.8-2.3-2.2 0-3.9.5-3.7 1.1zM907.8 195.5c-.3.3-.3 1.6 0 3 .4 2.5 6.6 7 8.3 6 1.4-.9 1.1-2.5-.6-2.5-.9 0-1.8-.8-2.2-1.8-1.2-3.5-4.2-6-5.5-4.7zM1235.5 196c-.3.5-.1 1 .4 1 .6 0 1.1-.5 1.1-1 0-.6-.2-1-.4-1-.3 0-.8.4-1.1 1zM832.5 206c-.3.5.1 1 .9 1 .9 0 1.6-.5 1.6-1 0-.6-.4-1-.9-1-.6 0-1.3.4-1.6 1zM1276.2 207c0 1.4.2 1.9.5 1.2.2-.6.2-1.8 0-2.5-.3-.6-.5-.1-.5 1.3zM346.2 210.4c.1 1 .8 1.7 1.3 1.7 1.5-.1 1.2-2.4-.3-2.9-.9-.3-1.3.2-1 1.2zM934.8 209.7c.7.3 1.6.2 1.9-.1.4-.3-.2-.6-1.3-.5-1.1 0-1.4.3-.6.6zM1274.2 212.2c-1.7 1.7-1.5 3.2.6 5.1 2.7 2.5 3.4 2.1 3-2-.3-3.9-1.6-5.1-3.6-3.1zM972 213.4c0 .7.9 2.1 2.1 3.2 1.5 1.4 2.2 1.5 2.8.6.4-.7 1.5-1 2.4-.6 2 .7 2.2-.5.4-2.6-1.5-1.9-7.7-2.3-7.7-.6zM955.6 214.9c-.7 1.1 4.1 2.4 5.6 1.5.8-.5.5-1-.8-1.5-2.7-1.1-4.2-1.1-4.8 0zM1022 214.5c0 .2 1.5 1.2 3.3 2.1l3.2 1.7-2.7.9c-1.6.6-2.8 1.3-2.8 1.8 0 1.1 4.5 2.1 6.3 1.4 3.2-1.2 2.6-3.4-1.7-5.9-4.2-2.5-5.6-3-5.6-2zM1262.3 217.7c-2.1.3-3.3 1-3.3 1.9 0 1.2.4 1.3 2.1.3 1.2-.6 3.2-.9 4.6-.6 1.4.2 2.2 0 2-.6-.4-1.3-1.3-1.5-5.4-1zM825.8 222.7c.6.2 1.8.2 2.5 0 .6-.3.1-.5-1.3-.5-1.4 0-1.9.2-1.2.5zM837 240c0 .5.5 1 1.1 1 .5 0 .7-.5.4-1-.3-.6-.8-1-1.1-1-.2 0-.4.4-.4 1zM964.8 239.7c.6.2 1.8.2 2.5 0 .6-.3.1-.5-1.3-.5-1.4 0-1.9.2-1.2.5zM194.4 250.1c-.3.6-.1 1.6.5 2.2.9.9 1.4.8 2.1-.3.9-1.5.4-3-1-3-.5 0-1.2.5-1.6 1.1zM1267 254.1c0 1-.1 2.2-.2 2.6-.5 1.2 6.5 2.2 8.4 1.2 2.1-1.1 2.4-3.8.6-4.3-.7-.3-3-.7-5-1-3.3-.4-3.8-.2-3.8 1.5zM171 255.1c0 .5.5.7 1 .4.6-.3 1-.8 1-1.1 0-.2-.4-.4-1-.4-.5 0-1 .5-1 1.1zM162.5 256c-.9 1.5 1.4 4 3.6 4 2.5 0 2.4-2.6 0-4-2.4-1.3-2.8-1.3-3.6 0zM1249.6 255.9c-1 1.5 1.2 5.1 2.9 5.1.8 0 1.5.5 1.5 1.1 0 .6 1.4-.3 3-1.9 3.4-3.4 4-5.9 1.3-4.7-2.2 1-4.3 1-6.4.1-1-.4-2-.3-2.3.3zM184.8 260c-1.9 4.7-.8 5.3 2.1 1.1 2.4-3.3 2.7-5.1.9-5.1-.7 0-2.1 1.8-3 4zM150.5 257.9c-.7 1.2 3.1 2.5 4.5 1.6.6-.4.8-1.1.5-1.6-.8-1.2-4.2-1.2-5 0zM264.5 261c.3.5 1.1 1 1.6 1 .6 0 .7-.5.4-1-.3-.6-1.1-1-1.6-1-.6 0-.7.4-.4 1zM260.5 263c-.3.5-.1 1 .4 1 .6 0 1.1-.5 1.1-1 0-.6-.2-1-.4-1-.3 0-.8.4-1.1 1zM1276.5 264c.3.5 1.1 1 1.6 1 .6 0 .7-.5.4-1-.3-.6-1.1-1-1.6-1-.6 0-.7.4-.4 1zM230.2 271.2c.6 1.8 2.8 2.1 2.8.4 0-.9-.7-1.6-1.6-1.6-.9 0-1.4.5-1.2 1.2zM178 273.9c-1.3 2.6-1.3 3.1.5 3.1.9 0 1.5-.9 1.5-2.5 0-3-.6-3.2-2-.6zM307 276c0 1.4 3.8 3.2 4.5 2.1.3-.6-.3-1.5-1.4-2-2.4-1.4-3.1-1.4-3.1-.1zM317.5 276.1c-1 1.5.1 2.3 2 1.5.9-.3 1.3-1 1-1.6-.8-1.3-2.2-1.3-3 .1zM243 280c0 1.3 1.1 1.3 3 0 1.2-.8 1.1-1-.7-1-1.3 0-2.3.4-2.3 1zM1264.5 281c-.3.5-.1 1 .4 1 .6 0 1.1-.5 1.1-1 0-.6-.2-1-.4-1-.3 0-.8.4-1.1 1zM293.1 283.2c-.6 1.8-.9 1.9-1.4.5-.4-1-1.2-1.7-1.8-1.7-.8 0-.9.4 0 1.3.6.8.8 1.7.5 2-.3.3-.3 1 .1 1.6.4.7 1.5.5 3.3-.6 1.5-.9 2.8-1.8 3-1.9.1 0 0-.9-.4-1.8-.9-2.2-2.3-2-3.3.6zM284.5 288c-1.8.8-1.7.9.7.9 1.5.1 3-.4 3.3-.9.7-1.2-1.2-1.2-4 0zM141.6 291.6c-1.1 2.7-.7 3.7.9 2.4 1.6-1.4 2-4 .6-4-.5 0-1.2.7-1.5 1.6zM154 295c0 .5.7 1 1.6 1 .8 0 1.2-.5.9-1-.3-.6-1-1-1.6-1-.5 0-.9.4-.9 1zM1243.5 299c.4.6 1.1.8 1.6.5 1.4-.9 1.1-1.5-.7-1.5-.8 0-1.2.5-.9 1zM1274 299c0 .5.5 1 1.1 1 .5 0 .7-.5.4-1-.3-.6-.8-1-1.1-1-.2 0-.4.4-.4 1zM1276.2 315.9c.2.7.7 1.2 1.1 1.2 1.2-.1.9-1.5-.3-2-.7-.2-1.1.2-.8.8zM1264 329.3c-2.3 1.1-2.1 1.2 2.9 1.5 5.7.3 7.5-.3 5.1-1.8-2-1.3-4.9-1.1-8 .3zM1275.8 369.7c.7.3 1.6.2 1.9-.1.4-.3-.2-.6-1.3-.5-1.1 0-1.4.3-.6.6zM1245.6 379.9c-1 1.6 2.1 2 4.1.6 1.7-1.3 1.6-1.4-.9-1.5-1.5 0-2.9.4-3.2.9zM1195.5 394.1c-1.1 1.7.1 2.1 1.5.4.8-.9.8-1.5.2-1.5-.6 0-1.4.5-1.7 1.1zM1164.7 399.1c.6.6 3.2 1.1 5.7 1.1 4.3.1 5.8 1.3 3.9 3.2-.4.4-.8 1.7-.8 2.9 0 1.5-.7 2.3-2.2 2.5-3.4.5-2.8 2.6 1.7 5.6 2.2 1.4 4.6 3.9 5.5 5.5.9 1.9 3.6 4.1 7.5 6 5.7 2.9 6 3 6 1.1 0-1.2-1-2.5-2.5-3.2-3.6-1.6-3.1-3.6 1.4-4.8 5-1.3 7.3-3.8 4.7-5.2-1.3-.7-1.5-1.3-.6-2.3 1.2-1.5-.1-2.1-6-2.7-1.9-.2-2.6-1.1-3.3-4.3-1.2-4.9-.9-4.6-4.9-5.1-12.1-1.3-17.2-1.4-16.1-.3zM1226 405c0 .5.4 1 .9 1 .6 0 1.3-.5 1.6-1 .3-.6-.1-1-.9-1-.9 0-1.6.4-1.6 1zM1256.5 405c-.3.5.1 1 1 1s1.3-.5 1-1c-.3-.6-.8-1-1-1-.2 0-.7.4-1 1zM965.3 411.8l-3.1 1.7 2.4 2.9c2.5 2.8 2.7 2.8 6.5 1.6 4.8-1.6 5.9-2.9 3-3.7-1.2-.3-2.1-1.1-2.1-1.8s-.7-1.6-1.6-1.9c-1.9-.7-1.2-.9-5.1 1.2zM956.5 418c2.8 1.2 5.5 1.2 5.5 0 0-.6-1.7-1-3.7-.9-3.1 0-3.4.2-1.8.9zM1011.5 419c.3.5 1.4 1 2.3 1 1.5 0 1.5-.2.2-1-2-1.3-3.3-1.3-2.5 0zM1155.5 421.1c-.9 1.4-.2 2 1.4 1 .8-.6.9-1.1.3-1.5-.6-.3-1.4-.1-1.7.5zM1001 423.5c0 .8-.7 1.5-1.5 1.5s-1.5.3-1.5.8c0 .4 1.8.8 4 .8 2.2.1 3.7-.3 3.4-.8-.3-.5 0-1.5.6-2.3 1.1-1.3.7-1.5-1.9-1.5-2.1 0-3.1.5-3.1 1.5zM1118.7 423.1c-2.3 1.4-1.2 2.9 2.2 2.9 1.5 0 3.1.4 3.7.9 1.2 1.1 15.4 2.2 15.4 1.2 0-1.2-13.6-6.1-16.8-6.1-1.5 0-3.5.5-4.5 1.1zM950.5 429c-1 1.7 1.2 3.7 2.5 2.4.8-.8.6-1.5-.4-2.3-1-.9-1.6-.9-2.1-.1zM1215 429.6c0 1.7 2.2 1.4 2.8-.4.2-.7-.3-1.2-1.2-1.2-.9 0-1.6.7-1.6 1.6zM1000.5 430c-.3.5-.1 1 .4 1 .6 0 1.1-.5 1.1-1 0-.6-.2-1-.4-1-.3 0-.8.4-1.1 1zM1180.5 433.6c2.6 2.4 2.6 2.6 1 4.5-1.8 1.8-1.7 1.9 1.3 1.9 2.1 0 3.7-.8 5.1-2.6 1.2-1.5 2.1-3 2.1-3.5 0-1-3-1.9-8.1-2.4l-4.1-.5 2.7 2.6zM1194 432c0 .5.7 1 1.5 1s1.5-.5 1.5-1c0-.6-.7-1-1.5-1s-1.5.4-1.5 1zM1199.2 431.9c.4 1.3 1.8 1.6 1.9.4 0-.4-.5-.9-1.1-1.2-.7-.2-1.1.2-.8.8zM1171.5 432.9c-.6 1.1.9 2.3 1.9 1.4.9-.9.7-2.3-.3-2.3-.6 0-1.2.4-1.6.9zM1169.6 436.9c-.4.7-.5 1.5-.2 1.8.9.9 1.9-.4 1.4-1.8-.4-1.1-.6-1.1-1.2 0zM1218.6 441.4c.7 1.9 4.8 2.2 4.2.3-.3-.6-1.4-1.3-2.6-1.5-1.6-.3-2 .1-1.6 1.2zM961.7 441.7c-.8.7 1.1 3.3 2.4 3.3.5 0 .9-.9.9-2 0-1.9-2-2.7-3.3-1.3zM981.7 441.7c-1.1 1.1-.8 4.8.5 6.1.9.9.7 1.2-1 1.2-2.6 0-2.8 1.2-.7 3 1.3 1 2.3 1 5.5-.5 3.8-1.7 3.9-1.9 2-3.2-1.1-.8-2-2.2-2-3.2 0-2.8-2.8-5-4.3-3.4zM1172.3 442.8c.4 1.6-.2 2.7-2 3.9-2.2 1.4-3.4 1.5-9.2.6-9.1-1.5-12.8-.8-14.7 2.9-2.2 4.3-.4 6.2 5.3 5.4 2.6-.3 5.5 0 7.7.9 1.9.8 4.7 1.5 6.1 1.5 2.8 0 2.9.3 1.5 3-.8 1.5-.6 2.4 1 4 1.1 1.1 2.7 2 3.6 2 .8 0 1.2.4.9 1-1.3 2.1 3.5.9 4.9-1.2 2-2.8 2-3.3-.1-5.3-1.3-1.4-1.4-1.8-.2-2.5.8-.5 1.9-.4 2.6.2.8.6 1.6.8 2 .4.3-.3 1.4.1 2.3.9.9.8 3 1.7 4.6 2.1 2.5.5 3.2.2 4.2-2 .6-1.4.7-2.8.3-3.1-.5-.3-1.1.2-1.5 1-.3.8-1.5 1.5-2.7 1.5-2.1 0-2.1-.1-.6-1.8 1.9-2 1.3-3.4-1-2.5-.8.3-2.6-.6-4.1-1.9-1.5-1.4-3.6-2.8-4.6-3.2-1.8-.6-1.8-.8.3-3l2.3-2.4-3.4-.7c-1.8-.4-3.9-1.5-4.6-2.4-1.2-1.4-1.3-1.3-.9.7zM188.8 443.7c.6.2 1.8.2 2.5 0 .6-.3.1-.5-1.3-.5-1.4 0-1.9.2-1.2.5zM1085.3 446.2c-1.3.6-2.3 1.5-2.3 2 0 .4 1 .8 2.3.8 1.2 0 3.1.7 4.1 1.5 1.1.8 4.1 1.5 6.7 1.5 3.8 0 4.9.4 5.4 1.9.3 1.1 1.3 2.5 2.2 3.3 1.4 1.1 1.6 1 1.1-.8s0-2.3 2.4-2.8c1.7-.3 4-.6 5.2-.6 1.1 0 2.8-.5 3.6-1 3.7-2.3-4.4-4.8-17.5-5.5-3.3-.2-7.1-.5-8.5-.9-1.4-.3-3.5 0-4.7.6zM169.4 454.1c-1.5 1.7-1.5 1.9-.1 1.9 2.2 0 4.7-1.1 4.7-2 0-1.8-2.9-1.7-4.6.1zM1133.5 454c-.4.6.3 1 1.4 1 2.5 0 2.7-.6.6-1.3-.8-.4-1.7-.2-2 .3zM1081 454.7c0 .4 1.2 1.6 2.6 2.7 2.6 1.8 2.6 1.8 2.2-.5-.2-1.6-1.1-2.5-2.5-2.7-1.3-.2-2.3 0-2.3.5zM183 456.5c0 1 4 2.4 5.4 1.9 2.8-1.1 1.7-2.4-1.9-2.4-1.9 0-3.5.2-3.5.5zM167 459c0 .5.5 1 1.1 1 .5 0 .7-.5.4-1-.3-.6-.8-1-1.1-1-.2 0-.4.4-.4 1zM1101.8 464.4c-2.2 1.9-3.5 2.3-6.5 1.9-2.8-.4-4.3-.1-5.2 1.1-.7.9-2.8 1.6-4.7 1.6-1.8 0-3.5.4-3.8.9-1 1.6 2.3 3.3 6.6 3.3 7 .1 7.5-.1 8.1-2.2.4-1.7 1.4-2 5.6-2 2.9 0 6.8-.7 8.7-1.5 2.6-1.1 4.1-1.2 5.5-.5 2.1 1.2 2.4 2.5.9 3.5-1.6 1-1.2 2.3 1 3 2.8.9 1.5 2.5-2.1 2.5-1.7 0-2.8.4-2.5.8.2.4 2.3.6 4.6.4 3.7-.4 4.1-.7 3.6-2.6-.7-2.9.5-4.5 4-5.5 1.6-.4 2.9-1.2 2.9-1.7 0-.9-9.2-2.4-14.8-2.5-1.5 0-3-.6-3.4-1.4-.8-2.3-5.5-1.7-8.5.9zM1206.5 462.9c-.7 1.2 1.2 2.4 2.5 1.6 1.1-.7.4-2.5-1-2.5-.5 0-1.1.4-1.5.9zM1080.5 464c-.3.5.3 1 1.4 1 1.1 0 2.3-.5 2.6-1 .3-.6-.3-1-1.4-1-1.1 0-2.3.4-2.6 1zM1137.3 467.5c-4 1.7-4.2 3.1-.5 4 5.3 1.3 7.2 3.2 6.7 6.9-.5 4.1 1 5.6 3 3 1.2-1.7 1.2-2.1-.3-3.2-1.6-1.2-1.6-1.4.2-2.7 1.6-1.3 2.2-1.2 4.4.5 1.5 1.3 4 2 6.5 2h4l-2.2 2.4-2.2 2.3 4.2.6c6.8.9 10.6-.1 11.4-3.2.4-1.4 1.2-3 1.8-3.4.7-.5-.2-.6-2-.3s-5.1-.1-7.3-.9-4.6-1.2-5.3-.9c-.7.2-3-.2-5.2-.9-2.8-1-4-2-4.1-3.4-.1-1.1-.4-2.5-.8-3.2-1-1.5-8.4-1.3-12.3.4zM1003 468.2c-2.3 1.1-2 1.2 3.5 1.8 6.8.7 7.8.4 5.1-1.6-2.3-1.7-5.1-1.7-8.6-.2zM1160.5 468c.3.5.8 1 1.1 1 .2 0 .4-.5.4-1 0-.6-.5-1-1.1-1-.5 0-.7.4-.4 1zM190.8 468.7c.6.2 1.8.2 2.5 0 .6-.3.1-.5-1.3-.5-1.4 0-1.9.2-1.2.5zM1165 469c0 .5.5 1 1 1 .6 0 1-.5 1-1 0-.6-.4-1-1-1-.5 0-1 .4-1 1zM220.6 470.5c-.4 1.3-.2 1.4 1.4.5 2.3-1.3 2.6-2 .6-2-.8 0-1.6.7-2 1.5zM1078.7 475.4c-.4 1-.5 2.1-.2 2.4.9.9 1.7-.6 1.3-2.5-.3-1.7-.4-1.7-1.1.1zM1203 477.1c-.8.5-2.8 1.4-4.4 1.9-2.3.9-2.6 1.3-1.6 2.5.7.8 2.5 1.5 4.1 1.5 2.2 0 3-.6 3.5-2.5.8-3.2.2-4.5-1.6-3.4zM451.8 479.7c.7.3 1.6.2 1.9-.1.4-.3-.2-.6-1.3-.5-1.1 0-1.4.3-.6.6zM986.2 479.7c-.7.2-1.7 1.3-2.2 2.3-.9 1.8-.8 1.8 2 .9 1.6-.6 3-1.7 3-2.5 0-1.4-.6-1.6-2.8-.7zM999 480c0 .5.5 1 1 1 .6 0 1-.5 1-1 0-.6-.4-1-1-1-.5 0-1 .4-1 1zM222.5 485.1c-1.2 1.9.5 2.3 2.2.6 1.6-1.6 1.6-1.7.1-1.7-.9 0-2 .5-2.3 1.1zM994.5 486.2c1 3.4 2 4.1 4.5 3.3 2.2-.7 2.2-.7-.6-3.1-3.7-3-4.7-3-3.9-.2zM1151.6 484.9c-1.2 1.8 8.1 7 10.3 5.7.5-.4 1.2-.2 1.5.3.4.5-1.2 1.2-3.5 1.6-3.7.6-4.4.4-7.5-2.6-1.8-1.8-3.7-2.9-4.1-2.5-.5.4 0 1.4 1 2.1 1.2.8 1.4 1.5.8 2-.6.3-1.1 1.4-1.1 2.4 0 2.6 5.5 3.6 8.3 1.6 2.4-1.7 4.1-2 3.3-.6-.3.5.1 1.4.9 2.1 2.2 1.8 1.9 2.5-1.2 2.6-4.4.3-6.8 1.1-6.5 2.3.1.6-.2 1.1-.8 1.1-.5 0-1 .4-1 1 0 .5.9 1 1.9 1 2.3 0 3.4 2.3 1.8 3.9-.8.8-.8 1.1.1 1.1 1.7 0 5.4-3.9 4.7-5-1-1.6 1.3-2.1 6.4-1.4 3.7.5 5.1 1.1 5.4 2.5.4 1.4 1.4 1.9 4.1 1.9 4 0 5.6-2 3.6-4.5-1-1.2-1-1.8 0-3 1.7-2 3.3-1.9 5.3.3 2.3 2.6 2.1 4.9-.5 5.6-1.7.4-2 .8-1.1 1.7.6.6.9 1.8.6 2.5-.3.9.2 1.4 1.6 1.4 1.2 0 2.4.6 2.7 1.4 1.1 2.8 4.8.2 5.5-3.8.6-3.4.5-3.6-2-3.4-2 .2-2.7-.2-2.9-2-.2-1.5.2-2.2 1.3-2.2 1.2 0 1.4-.4.5-2-.6-1-.9-2.5-.8-3.2.2-.9-.8-1.3-2.9-1.2-2.3.1-3.3-.3-3.6-1.7-.4-1.3-1.4-1.9-3.5-1.9-2.5 0-3.1-.5-3.7-2.8-.3-1.7-1.3-2.9-2.3-3-3.6-.2-7.2 1-7.2 2.4 0 2.1-1.8 1.7-3-.6-1.3-2.4-3.2-2.7-2.3-.4.5 1.5.3 1.5-2.6 0-1.7-.9-3.1-2.1-3.1-2.6 0-1.2-3.7-1.3-4.4-.1zM965 486.9c-1.5.4-2.6 1.5-2.8 2.8-.3 1.7.6 2.4 4.6 3.7 5.5 1.9 9.2 1.4 11.7-1.4 1.5-1.7 1.4-1.9-1.1-3.9-2.7-2.1-7.4-2.6-12.4-1.2zM984.7 486.6c-.4.4-.7 1.3-.7 2.1 0 1.5 5.6 1.8 6.5.3.3-.6-.2-1-1.2-1-1.1 0-2.4-.5-2.9-1-.6-.6-1.3-.7-1.7-.4zM427 488.7c.8.3 2.5 1.5 3.7 2.6 2.8 2.5 3.8 1.9 1.7-1.1-.9-1.4-2.5-2.2-4.2-2.1-1.5 0-2.1.3-1.2.6zM1068 488.9c0 .9 4.1 3.3 4.7 2.7.3-.2.2-.9-.1-1.4-.7-1.2-4.6-2.3-4.6-1.3zM1206 489c0 1.4 5.8 4.2 7.8 3.8 1.2-.2.7-.9-1.9-2.6-3.9-2.4-5.9-2.8-5.9-1.2zM438.5 491.1c-1.1 1.7.1 2.1 1.5.4.8-.9.8-1.5.2-1.5-.6 0-1.4.5-1.7 1.1zM1032 492.5c-.8.9-.8 1.5-.2 1.5 1.2 0 2.6-1.9 1.9-2.6-.2-.2-1 .2-1.7 1.1zM449 494c-.8.5-1.2 1.2-.9 1.5.8.8 3.9-.5 3.9-1.6s-1.1-1.1-3 .1zM197.5 495c.3.5.8 1 1.1 1 .2 0 .4-.5.4-1 0-.6-.5-1-1.1-1-.5 0-.7.4-.4 1zM1034.1 496c-1.3 1.1-1.9 2-1.5 2 .5 0 .2.5-.6 1-1 .6-2 .4-3.2-.6-.9-.9-2.2-1.3-2.7-.9-1.6.9-1.3 2.5.3 2.5.8 0 2.7 1.1 4.2 2.5 3.6 3.3 5.1 3.2 13.4-1.2l7.1-3.8 4.2 2.3c5 2.7 7.6 3 5.7.7-.7-.8-2.1-1.5-3.1-1.5-.9 0-2.5-.8-3.4-1.7-1.1-1-3.6-1.7-6.9-1.8-2.8-.1-6.4-.5-8.1-.8-2.2-.5-3.6-.1-5.4 1.3zM1067.5 496c-1.9.8-.8 1 6 1 .3 0 .5-.3.5-.8.1-1.1-4.2-1.2-6.5-.2zM1116.6 496.5c-.6 1.6.3 1.9 2.8.9.9-.3 1.3-1 1-1.5-.8-1.4-3.1-1.1-3.8.6zM453.8 500c-1.5 1.1-4 2-5.6 2-3.2 0-9.2 3.9-6 4 .9 0 2.9-.5 4.2-1.2 2.1-.9 2.9-.8 4.5.6 1.8 1.6 2.1 1.6 6-.1 2.5-1.1 3.9-2.3 3.6-3-.2-.7.2-1.3 1-1.3s1.5-.5 1.5-1c0-.6-.9-1-1.9-1-1.1 0-2.6-.2-3.3-.5-.8-.3-2.6.3-4 1.5zM1098.7 499.7c1.8.9 3.6 1.3 4 1 .9-1 .2-1.4-3.7-2.1l-3.5-.6 3.2 1.7zM281.8 500.2c.9.9 1.5.9 2.4 0 .9-.9.7-1.2-1.2-1.2s-2.1.3-1.2 1.2zM1079.5 500c-1.9.8-1.9.9.3.9 1.2.1 2.2-.4 2.2-.9 0-.6-.1-1-.2-.9-.2 0-1.2.4-2.3.9zM222 501c0 .5.5 1 1 1 .6 0 1-.5 1-1 0-.6-.4-1-1-1-.5 0-1 .4-1 1zM1117 500.7c0 1 10 2.6 10.9 1.8.8-.9-.4-1.4-5.7-2.1-3.2-.4-5.2-.3-5.2.3zM1003 502.7c0 1.3 2.9 3.8 3.5 3.1.3-.3-.4-1.3-1.5-2.3-1.1-1-2-1.3-2-.8zM1068 503.5c.7.8 1.9 1.5 2.7 1.5 1.3 0 1.3-.3.3-1.5-.7-.8-1.9-1.5-2.7-1.5-1.3 0-1.3.3-.3 1.5zM1143.7 503.5c-.5 1 0 1.5 1.4 1.5 1.2 0 1.9-.5 1.7-1.2-.6-1.8-2.5-2-3.1-.3zM960 504.5c-.8.9-.8 1.5-.2 1.5 1.2 0 2.6-1.9 1.9-2.6-.2-.2-1 .2-1.7 1.1zM281.5 506c1.9 2.1 3.5 1.8 3.5-.6 0-.9-1-1.4-2.7-1.4-2.5 0-2.6.1-.8 2zM427.5 507.5c0 2.3.3 2.5 3 1.9 3.8-.8 5.7-2.4 2.8-2.4-1.2 0-2.5-.5-2.8-1-1.2-1.9-3-1-3 1.5zM486 508.1c0 .5.5.7 1 .4.6-.3 1-.8 1-1.1 0-.2-.4-.4-1-.4-.5 0-1 .5-1 1.1zM492.5 508c.3.5 1.3 1 2.1 1s1.4 1 1.4 2.5c0 1.4.6 2.5 1.4 2.5 1.6 0 1-5.1-.8-6.2-1.6-1.1-4.8-1-4.1.2zM261.8 509.7c.7.3 1.6.2 1.9-.1.4-.3-.2-.6-1.3-.5-1.1 0-1.4.3-.6.6zM939.5 510c-.3.5.1 1 .9 1 .9 0 1.6-.5 1.6-1 0-.6-.4-1-.9-1-.6 0-1.3.4-1.6 1zM512 511c-1.3.8-1.3 1 .2 1 .9 0 2-.5 2.3-1 .8-1.3-.5-1.3-2.5 0zM1049 511c0 .5.4 1 .9 1 .6 0 1.3-.5 1.6-1 .3-.6-.1-1-.9-1-.9 0-1.6.4-1.6 1zM525 513c0 1.1.5 2 1 2 .6 0 1-.9 1-2s-.4-2-1-2c-.5 0-1 .9-1 2zM475 513.4c.6.8 1 2.5.8 3.8-.3 2 .2 2.3 3.1 2.6 3 .3 3.3.1 2.3-1.1-1.4-1.7.2-2.7 4.4-2.7 1.3 0 2.4-.5 2.4-1 0-.6-1.1-1-2.4-1-1.4 0-2.8-.5-3.1-1-.3-.6-2.4-1-4.7-1-3.4 0-3.9.2-2.8 1.4zM1211.5 513c-1.9.7-1.9.7 0 1.8 2 1.2 2 1.2 0 2.7-3.6 2.6-4.5 3.6-4.5 4.7 0 .6.7.4 1.8-.5.9-.8 3.1-1.7 4.9-1.9l3.2-.3-1.7-3.6c-1.4-2.9-2.1-3.5-3.7-2.9zM934 514.5c-.7.9-1 1.8-.7 2.1.6.7 4.7-1.8 4.7-2.8 0-1.4-2.7-.9-4 .7zM369 514.9c0 1.8 1.8 2.1 3 .6 1-1.3.9-1.5-.9-1.5-1.1 0-2.1.4-2.1.9zM943 515c0 .5.7 1 1.5 1s1.5-.5 1.5-1c0-.6-.7-1-1.5-1s-1.5.4-1.5 1zM218.5 517c.3.5.8 1 1.1 1 .2 0 .4-.5.4-1 0-.6-.5-1-1.1-1-.5 0-.7.4-.4 1zM296.3 516.7c.9.2 2.5.2 3.5 0 .9-.3.1-.5-1.8-.5-1.9 0-2.7.2-1.7.5zM1182.7 517.9c.3 1 0 2.2-.6 2.5-1.4.9-1.5 6.6-.1 6.6 2.1 0 4.2-7.3 2.7-9.8-1.2-1.9-2.6-1.4-2 .7zM397.5 518.1c-.4.6-.3 1.5.3 2.1.6.6 1.1.4 1.5-.6.7-1.8-.9-3.1-1.8-1.5zM497.5 518.1c-.4.5.1 1.9 1.1 3 1.6 1.8 1.6 1.9-.4 1.9-3.1 0-2.8 3 .3 3.1 1.4.1 3.1.2 3.8.3 1.6.1 1-3.6-.9-5-.8-.6-1.2-1.9-.8-2.8.7-1.8-2-2.3-3.1-.5zM519.6 518.2c-.9.5-2.1.6-2.7.2-.8-.4-.8 0 0 1.5.7 1.3 2.1 2.1 3.8 2.1 1.4 0 3.1.8 3.8 1.7.9 1.2 2.8 1.7 6.9 1.8 3.1 0 5.6-.3 5.6-.7 0-.5-1.6-.8-3.5-.8-3.8 0-5.9-2.5-3.4-4 .7-.5 1.1-1.1.9-1.3-1.1-1-9.9-1.4-11.4-.5zM486.9 518.5c-.1.3-.2.8-.3 1.2-.5 2.6-2 3.4-5.2 2.8-3-.5-3.5-.3-4.4 2-1.4 3.6-1.3 3.7 1 2.5 1.7-.9 2.2-.7 3.2 1.7 1.7 3.8 1.8 3.9 2.9 2.3.8-1.1 1.2-1.2 1.6-.3.9 2.4 2.8 1.3 3.9-2.1 1.3-4.2.7-9.3-1.2-10-.8-.3-1.5-.3-1.5-.1zM933.5 519c-.3.5-.2 1 .4 1 .5 0 1.3-.5 1.6-1 .3-.6.2-1-.4-1-.5 0-1.3.4-1.6 1zM974.5 519c-.3.5 0 1.9.9 3.1l1.4 2.1 1.2-2.2c1-1.8.9-2.4-.1-3.1-1.8-1.1-2.6-1.1-3.4.1zM455.5 520c.3.5 1.3 1 2.1 1s1.2-.5.9-1c-.3-.6-1.3-1-2.1-1s-1.2.4-.9 1zM1049 520.1c0 .5.5.7 1 .4.6-.3 1-.8 1-1.1 0-.2-.4-.4-1-.4-.5 0-1 .5-1 1.1zM392 521.1c0 .5.5.7 1 .4.6-.3 1-.8 1-1.1 0-.2-.4-.4-1-.4-.5 0-1 .5-1 1.1zM343.2 522.2c.5 1.5 2.8 1.8 2.9.3 0-.6-.7-1.2-1.7-1.3-1-.3-1.5.1-1.2 1zM980.1 522.4c-.8 1-.9 1.6-.1 2.1 1.3.8 3-.3 3-2.1s-1.4-1.8-2.9 0zM352.3 523.4c1.8 1.4 1.8 1.5 0 2.4-1 .6-1.4 1.4-1 1.8.4.4 2.1 0 3.6-.9 1.6-.9 3.7-1.7 4.6-1.7 1.4 0 1.5-.3.5-1.5-.7-.9-2.9-1.5-5.4-1.5-3.7.1-3.9.2-2.3 1.4zM939.5 524c-1.9.8-1.9.9.3.9 1.2.1 2.2-.4 2.2-.9 0-.6-.1-1-.2-.9-.2 0-1.2.4-2.3.9zM948.1 523.9c-.9.6-1 1.1-.2 1.5 1.3.8 3.1-.1 3.1-1.5 0-1.1-1.1-1.1-2.9 0zM334.5 525c-.3.4.6 1 2 1.2 1.4.3 2.5.2 2.5-.2 0-1.1-3.9-2-4.5-1zM509 526.5c0 1.8 4.1 3.7 5.4 2.4 1.3-1.1-1.2-3.9-3.5-3.9-1.1 0-1.9.7-1.9 1.5zM954 526c0 .5.9 1 2.1 1 1.1 0 1.7-.5 1.4-1-.3-.6-1.3-1-2.1-1s-1.4.4-1.4 1zM984 526.5c0 .8-.6 1.5-1.2 1.5-.7.1.3.9 2.2 1.8 3.4 1.7 3.5 1.7 4.3-.1.5-1.4.2-2.4-1-3.3-2.4-1.8-4.3-1.7-4.3.1zM531.6 527.8c-.3.6.9 1.2 2.7 1.5 1.7.3 4.1.7 5.2.9 1.3.2 2-.3 2-1.2 0-1.1-1.3-1.6-4.7-1.8-2.5-.2-4.9.1-5.2.6zM546.8 527.7c-3 .8-2.1 3 1.2 2.9 2.1-.1 3-.6 3-1.9 0-1.7-.9-1.9-4.2-1zM461.7 528.6c-1.2 1.3.4 2.4 3.4 2.4 2 0 2.9-.4 2.7-1.3-.5-1.3-5-2.2-6.1-1.1zM527.2 532c1.6 2.5 4.6 3.6 6.1 2.1.8-.8.8-1.1-.1-1.1-.7 0-1.2-.7-1.2-1.5 0-1-1-1.5-3-1.5-2.8 0-2.9.2-1.8 2zM422.6 532.5c-2.2 2.2-2 3.4.4 2.8 2.5-.7 3.5-2.2 2.2-3.5-.6-.6-1.5-.4-2.6.7zM501 533.2c0 1.7 3.2 2 6.3.6l3.1-1.5h-4.7c-2.6 0-4.7.4-4.7.9zM457.3 535.2c-1.8.6-3.3 1.4-3.3 1.7 0 1.3 6.9-.1 7.4-1.5.6-1.6.3-1.6-4.1-.2zM1189 535.4c0 .3.4 1.6 1 3 1.3 3.5 3 3.3 3-.4 0-2.3-.4-3-2-3-1.1 0-2 .2-2 .4zM240 538.5l-3.5 1.3 2.9.7c3 .8 5.7-.2 6.4-2.3.5-1.5-1.2-1.4-5.8.3zM476 538c0 .5.4 1 .9 1 .6 0 1.3-.5 1.6-1 .3-.6-.1-1-.9-1-.9 0-1.6.4-1.6 1zM984.3 539.2c-4.6 2-5.4 3.3-2.5 4 1.7.5 8.2-4.7 7.1-5.6-.2-.1-2.3.5-4.6 1.6zM500 538.9c0 .6.5 1.3 1 1.6.6.3 1-.1 1-.9 0-.9-.4-1.6-1-1.6-.5 0-1 .4-1 .9zM462 541c0 .5.5 1 1.1 1 .5 0 .7-.5.4-1-.3-.6-.8-1-1.1-1-.2 0-.4.4-.4 1zM515.8 541c1.2.5 2.2 1.4 2.2 2 0 .5 1.4 1 3 1 1.7 0 3-.4 3-.8 0-1.3-4.8-3.2-7.8-3.1-2.6 0-2.6.1-.4.9zM291.2 542.6c.3 1.7 2.1 2.1 2.6.6.1-.5-.4-1.2-1.3-1.6-1.1-.4-1.5-.1-1.3 1zM972.5 542c-1.9.8-1.9.9.3.9 1.2.1 2.2-.4 2.2-.9 0-.6-.1-1-.2-.9-.2 0-1.2.4-2.3.9zM231.3 542.6c-.7.3-.9 1.2-.6 2 .3.9-.2 1.4-1.6 1.4-1.2 0-2.1.4-2.1.9s-.9 1.1-2 1.4c-1.1.3-2 1-2 1.7 0 .6.8.9 1.8.6 5.4-1.6 9.1-1.7 11.9-.3 2.7 1.4 2.9 1.4 3-.3.1-1.2-.8-2-2.8-2.4-2.1-.4-2.8-1-2.2-1.8 2-3.2.4-4.7-3.4-3.2zM351.8 542.7c.7.3 1.6.2 1.9-.1.4-.3-.2-.6-1.3-.5-1.1 0-1.4.3-.6.6zM401.5 543c-.3.5-.1 1 .4 1 .6 0 1.1-.5 1.1-1 0-.6-.2-1-.4-1-.3 0-.8.4-1.1 1zM264 544.8c-1.9.9-3.8 2.2-4.2 2.8-.4.6-1.6 2.1-2.6 3.4-1.8 2.2-2 2.2-4.2.7-2.1-1.4-2.5-1.4-6.6.9-3 1.7-5.2 2.2-6.9 1.8-1.9-.5-2.5-.2-2.5 1.1 0 1.1.6 1.5 1.8 1.1 1-.4 2.7.1 3.8.9 2.5 1.9 3.4 1.9 3.4-.1 0-.9.6-1.4 1.3-1.1.6.2 1.1 1.5.9 3-.4 3.3 3.1 4.7 5.7 2.3 1-.9 2.5-1.4 3.4-1.1.8.4 1.8.2 2.1-.4.5-.7 1.5-.7 3.2.1 2.1 1 2.8.8 4.6-1l2.1-2.1-2.1-5-2.1-5.1h3.5c3.8 0 4.1-.4 2-2.6-1.8-1.7-2.2-1.7-6.6.4zM513.4 545.5c-1 .8-2.7 1.5-3.6 1.5-2 0-2.2.8-.8 3 .7 1.1 1 1.1 1 .2 0-.7 1.8-2.1 4-3.1s3.7-2.1 3.3-2.4c-1-1-1.7-.9-3.9.8zM526 545c0 .6.7 1 1.5 1s1.5-.2 1.5-.4-.7-.6-1.5-1c-.8-.3-1.5-.1-1.5.4zM616.5 545c.3.5.8 1 1.1 1 .2 0 .4-.5.4-1 0-.6-.5-1-1.1-1-.5 0-.7.4-.4 1zM619 546.5c-1.3 1.4-1.9 2.5-1.3 2.5 1.2 0 4.8-3.8 4.1-4.5-.2-.3-1.5.6-2.8 2zM503 546c0 .5.5 1 1.1 1 .5 0 .7-.5.4-1-.3-.6-.8-1-1.1-1-.2 0-.4.4-.4 1zM970 546.4c0 .9.7 1.6 1.6 1.6 1.7 0 1.4-2.2-.4-2.8-.7-.2-1.2.3-1.2 1.2zM985.6 548.9l-2.7 3.9-9.7.7c-7.4.5-10.1 1.1-11.4 2.5-1.6 1.7-1.6 1.8.3 2.3 1 .3 1.9 1.2 1.9 2.1 0 1.9-1.1 2.1-2.7.5-.9-.9-2.3-.9-5.5 0-2.4.7-4.8 1.1-5.3.9-.6-.2-2 .7-3.3 2-1.9 1.9-2 2.3-.7 2.8.8.4 2.2.1 3-.6.8-.7 2.2-.9 3.1-.6 1.1.4 1.5.2 1.1-.8-1.1-2.7 6.2-3.7 8.3-1.1 1.8 2.1 4 1.9 4-.5 0-1.5.7-2 2.5-2 1.5 0 2.4.5 2.3 1.2-.2.8.6 1.2 1.7 1.1 1.1-.1 2.3.3 2.6.9.4.7 1.3.7 2.5 0 1.1-.5 3.3-.7 5.1-.5 3.9.6 9.3-3 9.3-6.3 0-1.3.5-2.6 1-2.9 1.5-.9 1.2-2.5-.4-2.5-.9 0-1.6-1.2-1.8-3.2-.4-4.5-2.1-4.5-5.2.1zM623.7 546.7c-1.2 1.1-.7 2.1 1.3 2.6 1.1.3 2 .2 2-.3 0-1.2-2.6-3.1-3.3-2.3zM607 548c0 .5.5 1 1 1 .6 0 1-.5 1-1 0-.6-.4-1-1-1-.5 0-1 .4-1 1zM617 552.1c0 .5.5.7 1 .4.6-.3 1-.8 1-1.1 0-.2-.4-.4-1-.4-.5 0-1 .5-1 1.1zM463.5 554.5c-1.7 1.4-1.8 1.7-.5 2.5.8.5 2.2.9 3 .9 1 0 1.1-.2.3-.6-2.2-.8-1.4-2.2 1.1-2 1.4.1 2.5-.3 2.6-.8.1-1.6-4.3-1.6-6.5 0zM593.8 553.7c.7.3 1.6.2 1.9-.1.4-.3-.2-.6-1.3-.5-1.1 0-1.4.3-.6.6zM605.7 554.7c-1.1 1-.8 4.1.4 4.9.6.3 1.4.2 1.8-.3.3-.5 1.5-1.3 2.6-1.7 1.9-.7 1.9-.8-.5-2.1-2.9-1.6-3.4-1.7-4.3-.8zM923.8 554.7c.7.3 1.6.2 1.9-.1.4-.3-.2-.6-1.3-.5-1.1 0-1.4.3-.6.6zM480.3 556.7c-.7.2-1.3.8-1.3 1.2 0 1.1 4.9.1 5.6-1 .5-.9-2.2-1.1-4.3-.2zM626.9 556.9c.7.5 1 1.4.7 2-1.2 1.8 1.9 2.3 8 1.2 6.4-1.2 6.9-1.5 5.9-3.1-.5-.9-1-.9-1.8-.1-1.4 1.4-4 1.5-3.2.1 1-1.6-.7-1.2-2.7.7-1.7 1.5-1.9 1.5-3.6 0-1-1-2.5-1.7-3.3-1.7-1.2 0-1.2.2 0 .9zM274.3 559.1c-1 .5.8.8 4.5.8 3.7.1 6.1-.3 5.7-.8-.6-1.1-7.4-1.1-10.2 0zM347.5 559c.3.5.8 1 1.1 1 .2 0 .4-.5.4-1 0-.6-.5-1-1.1-1-.5 0-.7.4-.4 1zM399 559c0 .5.5 1 1.1 1 .5 0 .7-.5.4-1-.3-.6-.8-1-1.1-1-.2 0-.4.4-.4 1zM518.5 559c.3.5 1.6 1 2.8.9 2.1 0 2.1-.1.2-.9-2.8-1.2-3.7-1.2-3 0zM383 560.6c4.4 1.9 4.8 2.3 3 3.4-1.1.7-.6 1 1.8 1 3.1 0 7.7 3.2 6.4 4.5-.9.9 1.9 2.5 4.3 2.4 1.1 0 1.4-.3.8-.6-.7-.2-1.3-.9-1.3-1.4 0-1.6 2.3-1 4.7 1.3 1.3 1.2 2.6 1.8 3 1.3.5-.4.2-1-.4-1.2-.8-.3-1.1-1.4-.8-2.6.5-1.9-.5-2.8-6.4-6-5.9-3.1-8-3.7-12.8-3.7l-5.8.1 3.5 1.5zM535 559.4c0 .2 1.4.6 3 .8 1.7.3 3 .1 3-.4 0-.4-1.3-.8-3-.8-1.6 0-3 .2-3 .4zM352.5 561c.3.5 1 1 1.6 1 .5 0 .9-.5.9-1 0-.6-.7-1-1.6-1-.8 0-1.2.4-.9 1zM437.2 560.7c-1.9.8-.3 2.3 2.5 2.3 2.1 0 2.4-.2 1.3-1.5-1.3-1.6-1.7-1.7-3.8-.8zM463.6 561.9c-.9 1.4.4 4.1 2 4.1.7 0 2.6-1.1 4.1-2.5l2.8-2.4-4.2-.1c-2.3 0-4.4.4-4.7.9zM511.5 562.4c-1.8 1.4-1.8 1.5-.2 1.6.9 0 2.6.9 3.8 2.1 2.6 2.6 10.2 2.4 10.7-.3.4-2.1-2-3.4-7.8-4.2-3.3-.5-5.1-.2-6.5.8zM929.7 563.6c-.3.4-3.5 1.2-6.9 1.8-4.4.8-6.4 1.6-6.6 2.7-.2 1.4 1 1.7 7.9 2.1 8.7.5 12.9.1 12.9-1.3 0-.5-1-.9-2.2-.9-1.3 0-3.4-.3-4.6-.7-4.5-1.1 0-2.3 6.6-1.6 3.9.3 6.2.2 6.2-.4 0-1.7-11.8-3.1-13.3-1.7zM434.3 568.5c.5 1.4 5.7 1.9 6.9.7.6-.6-.5-1.1-3.1-1.4-2.5-.2-4 0-3.8.7zM243.5 569c-.3.5-.2 1 .4 1 .5 0 1.3-.5 1.6-1 .3-.6.2-1-.4-1-.5 0-1.3.4-1.6 1zM372.7 568.7c-.8.8 3.1 3.6 5.3 3.8 2.3.2 13.2 3.4 15.6 4.6 2.5 1.3 8.1.8 7.4-.6-.3-.5-1.6-1-3-1.1-1.4-.1-4.6-1.1-7.1-2.3-2.6-1.2-5-2.1-5.5-2-1.6.5-9.4-1.3-10-2.2-.6-1.1-1.8-1.2-2.7-.2zM589.1 571.9c-.7.5-1 1.4-.6 2 .5.9 1 .9 2.1 0 2.6-2.2 1.4-3.8-1.5-2zM914.8 571.7c-2.3.6-2.3 1.6 0 3.6 2.8 2.6 5.9 2.2 6.4-.8.3-1.3.3-2.7 0-3-.6-.6-3.9-.5-6.4.2zM438.2 573.9c-1.8.3-3.3 1-3.3 1.6 0 1.9 4.8 1.6 7.2-.4 2.5-2.2 2-2.3-3.9-1.2zM584.5 574c.3.5.8 1 1.1 1 .2 0 .4-.5.4-1 0-.6-.5-1-1.1-1-.5 0-.7.4-.4 1zM516 575.6c0 .8.5 1.2 1 .9.6-.3 1-1 1-1.6 0-.5-.4-.9-1-.9-.5 0-1 .7-1 1.6zM593.5 575c-.3.5.1 1 1 1s1.3-.5 1-1c-.3-.6-.8-1-1-1-.2 0-.7.4-1 1zM431.9 579.1c1.2 1.2 2.4 1.9 2.7 1.6.7-.6-2.5-3.7-3.9-3.7-.6 0-.1.9 1.2 2.1zM403.5 579c.4.6 1.1.8 1.6.5 1.4-.9 1.1-1.5-.7-1.5-.8 0-1.2.5-.9 1zM465.2 581.2c.5 1.5 5.8 2.4 5.8 1 0-.5-1-1.2-2.2-1.6-3.4-.9-4-.7-3.6.6zM550.1 580.9c-1.2.8-1 1.2 1 2.1 2.7 1.2 7.9-.1 7.9-2 0-1.3-1.7-1.3-2.5 0-.4.7-1.2.7-2.5 0-2.2-1.2-2.1-1.2-3.9-.1zM481 586.2c0 .4.9.8 2 .8s2-.4 2-.9c0-.6-.9-.9-2-.8-1.1.1-2 .5-2 .9zM685.2 586.2c.6 1.8 2.8 2.1 2.8.4 0-.9-.7-1.6-1.6-1.6-.9 0-1.4.5-1.2 1.2zM717.5 591c.3.5.8 1 1.1 1 .2 0 .4-.5.4-1 0-.6-.5-1-1.1-1-.5 0-.7.4-.4 1zM447.6 591.8c-.4.7-.4 2.1-.1 3.2.5 1.7.2 2-2.6 2-3.1 0-3.2.1-1.7 1.7 1.9 1.8 9 2.4 9.8.8.3-.6-.5-1.1-1.7-1.3-1.3-.2-2-.9-1.7-1.6.7-1.8-1.1-6.2-2-4.8zM735 592c0 .5.5 1 1.1 1 .5 0 .7-.5.4-1-.3-.6-.8-1-1.1-1-.2 0-.4.4-.4 1zM487.9 595c-1.3 1-1.9 1.9-1.2 2 1.8 0 6.3-2.2 6.3-3.2 0-1.4-2.7-.9-5.1 1.2zM552.5 593.8c-1.1.2-2.5.8-3.1 1.3-.5.4-2.1.6-3.5.3-2.3-.5-2.3-.5-.5 1 2.2 1.8 4.6 2.1 4.6.6 0-.6.9-1 1.9-1 1.1 0 2.3-.5 2.6-1.1.9-1.4.4-1.6-2-1.1zM698.9 594.3c1.5.9 2 1.7 1.3 2.1-.8.4-.5 1.3.8 2.6 2.4 2.4 3.4 2.6 2.6.4-.6-1.5 0-1.6 4.4-1 5 .7 5.7.3 4.1-2.3-.5-.8-1.6-1.1-2.7-.7-.9.4-2.1.2-2.4-.5-.4-.6-2.9-1.3-5.6-1.6-4.6-.4-4.8-.3-2.5 1zM170.2 594.7c-.6.2-1 .9-.6 1.4.7 1.2 12.4 1.2 12.4 0 0-1.7-8.5-2.8-11.8-1.4zM743 597c0 .5.7 1 1.5 1s1.5-.5 1.5-1c0-.6-.7-1-1.5-1s-1.5.4-1.5 1zM469 600.1c0 .6.9 1.3 2 1.6 4 1.1 2 2.5-2.5 1.9-2.5-.4-4.5-.5-4.5-.2 0 1.5 8.9 4.9 12.1 4.7 4.1-.2 14.1 3.2 17.8 6 1.3 1.1 3.3 1.9 4.5 1.9 1.1 0 4.7 2 7.8 4.5 6.4 5 8 5.4 10.1 2.5 1.2-1.8 1.6-1.8 3.3-.5 2.1 1.6 4.4 1.9 4.4.6 0-.5-1-1.1-2.2-1.4-2.1-.6-2.1-.7-.5-2.5 2.1-2.3 1.3-3.2-2.7-3.2-1.7 0-4.9-1.1-7-2.4-2.2-1.3-4.6-2.2-5.3-1.9-.7.3-1.3 0-1.3-.6s-1.8-1.4-4-1.7c-3.2-.5-3.9-1-3.5-2.4.4-1.2-.5-2.1-3.2-3.4-7.9-3.5-25.3-5.9-25.3-3.5zM731 601.8c0 .6.6 1.3 1.3 1.6.8.4.5 1-1 2.2-2.5 1.8-3.1 4.4-.9 4.4.7 0 3.5.9 6.1 2.1 3.4 1.5 5 1.8 5.8 1 .6-.6.9-1.1.7-1.1-.3 0-2.3-.6-4.4-1.4l-4-1.4 5.8-1.2 5.8-1.2-2.8-1.7c-1.6-1-4-2-5.4-2.4-1.4-.3-3.5-.9-4.7-1.2-1.4-.4-2.3-.3-2.3.3zM718.8 605.7c-2.4.6-2.3 2.3.2 2.3 1.1 0 2-.7 2-1.5s-.1-1.4-.2-1.4c-.2.1-1.1.3-2 .6zM842 607c0 .5.7 1 1.5 1s1.5-.5 1.5-1c0-.6-.7-1-1.5-1s-1.5.4-1.5 1zM541 609.5c-.7.8-.8 1.5-.2 1.5.5 0 1.5-.7 2.2-1.5.7-.8.8-1.5.2-1.5-.5 0-1.5.7-2.2 1.5zM724.5 611c.3.5 1.1 1 1.6 1 .6 0 .7-.5.4-1-.3-.6-1.1-1-1.6-1-.6 0-.7.4-.4 1zM548 612c0 .5.5 1 1 1 .6 0 1-.5 1-1 0-.6-.4-1-1-1-.5 0-1 .4-1 1zM858.5 612c-.3.5-.2 1 .4 1 .5 0 1.3-.5 1.6-1 .3-.6.2-1-.4-1-.5 0-1.3.4-1.6 1zM868.5 613c-.3.5-.1 1 .4 1 .6 0 1.1-.5 1.1-1 0-.6-.2-1-.4-1-.3 0-.8.4-1.1 1zM849.6 614.3c-1.7 1.3-1.6 1.4 1.2 1.4 2.1 0 2.9-.4 2.5-1.4-.3-.7-.8-1.3-1.2-1.3-.4 0-1.5.6-2.5 1.3zM777 618.9c0 .5 1.8 1.1 4 1.3 4.7.4 5.4-.7.9-1.6-4.2-.8-4.9-.8-4.9.3zM525 621c0 1.1.4 2 .9 2 1.3 0 3.2-2.6 2.4-3.3-1.3-1.4-3.3-.6-3.3 1.3zM813.4 624.3c-1.3 3.5 2.2 4.8 7.1 2.5 3.3-1.5 3.2-2.8-.4-2.8-1.6 0-3.6-.3-4.5-.6-.9-.4-1.8 0-2.2.9zM532 627.5c0 1.6.9 2.9 2.7 3.9 2.6 1.3 2.9 1.2 5-1.1 1.3-1.3 2.3-2.6 2.3-2.9 0-.2-1.5-.4-3.4-.4s-3.8-.5-4.1-1c-1.1-1.8-2.5-1-2.5 1.5zM786.5 626c.3.5 1 1 1.6 1 .5 0 .9-.5.9-1 0-.6-.7-1-1.6-1-.8 0-1.2.4-.9 1zM579.5 629c-.3.5-.1 1 .4 1 .6 0 1.1-.5 1.1-1 0-.6-.2-1-.4-1-.3 0-.8.4-1.1 1zM783 632c0 .5.5 1 1.1 1 .5 0 .7-.5.4-1-.3-.6-.8-1-1.1-1-.2 0-.4.4-.4 1zM788 634c0 .5.9 1 2.1 1 1.1 0 1.7-.5 1.4-1-.3-.6-1.3-1-2.1-1s-1.4.4-1.4 1zM794.7 634.6c-1.3 1.3.5 2.4 3.9 2.4 1.9 0 3.4-.4 3.4-1 0-.5-.6-.7-1.4-.4-.8.3-1.7.1-2.1-.5-.7-1.2-2.8-1.5-3.8-.5zM864 648.1c0 .5.5.7 1 .4.6-.3 1-.8 1-1.1 0-.2-.4-.4-1-.4-.5 0-1 .5-1 1.1zM596.5 656c.3.5.8 1 1.1 1 .2 0 .4-.5.4-1 0-.6-.5-1-1.1-1-.5 0-.7.4-.4 1zM623 660c0 .5.5 1 1.1 1 .5 0 .7-.5.4-1-.3-.6-.8-1-1.1-1-.2 0-.4.4-.4 1zM661.5 661c.3.5.8 1 1.1 1 .2 0 .4-.5.4-1 0-.6-.5-1-1.1-1-.5 0-.7.4-.4 1zM661 679.1c0 .5.5.7 1 .4.6-.3 1-.8 1-1.1 0-.2-.4-.4-1-.4-.5 0-1 .5-1 1.1zM704.5 701c-.3.5-.1 1 .4 1 .6 0 1.1-.5 1.1-1 0-.6-.2-1-.4-1-.3 0-.8.4-1.1 1zM813.5 709c-1.1.5-3.6.6-5.5.4-3.3-.5-3.4-.4-1.6 1 2.5 2 10.2 2.1 14.6.2 2.5-1 2.9-1.4 1.5-2-2.2-.8-6.5-.7-9 .4zM799.5 712c-.3.5-.1 1 .4 1 .6 0 1.1-.5 1.1-1 0-.6-.2-1-.4-1-.3 0-.8.4-1.1 1z"/></svg>