<?xml version="1.0" standalone="no"?>
<!DOCTYPE svg PUBLIC "-//W3C//DTD SVG 20010904//EN"
 "http://www.w3.org/TR/2001/REC-SVG-20010904/DTD/svg10.dtd">
<svg version="1.0" xmlns="http://www.w3.org/2000/svg"
 width="1195.000000pt" height="1280.000000pt" viewBox="0 0 1195.000000 1280.000000"
 preserveAspectRatio="xMidYMid meet">
<metadata>
Created by potrace 1.15, written by Peter Selinger 2001-2017
</metadata>
<g transform="translate(0.000000,1280.000000) scale(0.100000,-0.100000)"
fill="#000000" stroke="none">
<path d="M5422 12787 c-6 -7 -16 -35 -22 -62 -24 -108 -26 -110 -180 -110
-114 0 -116 0 -175 -35 -58 -35 -66 -46 -79 -110 -3 -16 -24 -37 -53 -57 -54
-37 -78 -41 -91 -17 -12 21 -32 9 -32 -18 0 -11 19 -55 42 -96 l41 -76 -21
-60 c-12 -34 -22 -66 -22 -73 0 -7 17 -24 37 -38 40 -27 103 -100 103 -120 0
-6 -11 -18 -25 -25 -34 -18 -31 -36 7 -44 20 -4 55 -29 94 -66 84 -81 109 -90
243 -90 60 0 121 -4 136 -10 14 -5 48 -31 76 -57 48 -45 51 -46 83 -35 40 15
83 15 91 2 3 -5 -1 -20 -9 -32 -21 -30 -20 -114 2 -158 36 -72 146 -109 173
-57 7 12 25 34 42 48 26 22 30 32 30 73 -1 26 -9 58 -18 72 -16 24 -18 25 -40
10 -34 -22 -45 -20 -45 8 0 20 -4 23 -22 19 -22 -4 -23 -4 -4 11 23 19 32 20
41 6 3 -5 13 -10 21 -10 23 0 19 143 -7 225 -24 80 -22 112 11 136 24 18 103
35 207 46 51 5 51 5 77 -36 l26 -41 35 17 c34 16 36 16 58 -5 30 -28 41 -28
70 2 29 29 95 40 193 31 101 -10 124 -3 124 37 0 17 11 54 24 82 19 43 22 60
17 107 -6 48 -12 62 -44 91 -31 30 -37 42 -37 77 0 42 -10 57 -62 93 -15 10
-34 41 -47 76 -12 33 -28 63 -36 66 -8 3 -34 -4 -58 -14 -39 -17 -51 -18 -105
-8 -51 10 -68 9 -102 -5 -38 -14 -43 -14 -70 1 -27 15 -30 15 -48 -1 -23 -21
-32 -22 -32 -1 0 33 -26 5 -59 -63 -20 -42 -43 -75 -56 -81 -18 -8 -21 -16
-17 -38 3 -20 1 -25 -9 -22 -13 4 -18 18 -39 130 -8 39 -20 67 -41 89 -28 31
-31 31 -89 25 -64 -7 -61 -9 -122 63 -16 19 -35 31 -51 31 -20 0 -31 11 -56
55 -32 56 -57 69 -79 42z"/>
<path d="M6931 12614 c-24 -30 -29 -119 -10 -157 21 -41 52 -67 79 -67 74 0
102 130 46 213 -30 45 -84 50 -115 11z"/>
<path d="M9875 12493 c-101 -53 -98 -107 9 -134 64 -16 77 -1 69 75 -9 78 -23
89 -78 59z"/>
<path d="M9612 12420 c-22 -17 -50 -45 -60 -63 -23 -38 -46 -158 -37 -197 5
-21 -2 -41 -24 -76 -48 -80 -55 -122 -31 -187 29 -76 60 -119 95 -130 17 -6
49 -23 72 -38 57 -40 100 -39 140 4 59 62 93 158 93 266 0 122 -43 195 -122
207 -35 6 -39 9 -33 28 4 12 9 54 12 94 4 56 2 78 -11 97 -22 33 -43 32 -94
-5z"/>
<path d="M7436 12421 c-4 -5 -2 -12 3 -15 5 -4 12 -2 15 3 4 5 2 12 -3 15 -5
4 -12 2 -15 -3z"/>
<path d="M7275 12394 c-44 -48 -42 -109 6 -135 25 -13 50 6 69 51 10 23 8 34
-9 69 -12 23 -26 41 -32 41 -5 0 -21 -12 -34 -26z"/>
<path d="M6822 12385 c-18 -8 -35 -21 -38 -30 -7 -17 22 -55 41 -55 13 0 65
72 65 90 0 14 -29 12 -68 -5z"/>
<path d="M10005 12360 c4 -6 11 -8 16 -5 14 9 11 15 -7 15 -8 0 -12 -5 -9 -10z"/>
<path d="M7926 12301 c-4 -5 -2 -12 3 -15 5 -4 12 -2 15 3 4 5 2 12 -3 15 -5
4 -12 2 -15 -3z"/>
<path d="M8095 12290 c4 -6 11 -8 16 -5 14 9 11 15 -7 15 -8 0 -12 -5 -9 -10z"/>
<path d="M9105 12281 c-3 -5 -1 -12 5 -16 12 -7 30 2 30 16 0 12 -27 12 -35 0z"/>
<path d="M6795 12260 c-8 -13 4 -32 16 -25 12 8 12 35 0 35 -6 0 -13 -4 -16
-10z"/>
<path d="M7022 12254 c-12 -8 -22 -20 -22 -25 0 -5 -10 -23 -21 -39 -15 -20
-20 -36 -15 -54 5 -21 3 -26 -12 -26 -30 0 -42 -21 -42 -76 0 -64 27 -107 54
-85 9 7 16 22 16 32 0 27 18 24 22 -3 7 -54 185 -89 263 -53 58 28 77 67 72
147 -6 98 -39 150 -112 177 -68 26 -170 28 -203 5z"/>
<path d="M9416 12243 c-11 -11 -6 -23 9 -23 8 0 15 4 15 9 0 13 -16 22 -24 14z"/>
<path d="M8209 12219 c-13 -24 -5 -49 14 -49 21 0 38 25 31 43 -9 25 -33 28
-45 6z"/>
<path d="M8410 12175 c-15 -18 -6 -45 15 -45 9 0 15 9 15 24 0 31 -14 40 -30
21z"/>
<path d="M8080 12170 c0 -5 5 -10 10 -10 6 0 10 5 10 10 0 6 -4 10 -10 10 -5
0 -10 -4 -10 -10z"/>
<path d="M8132 12148 c-5 -7 -13 -24 -17 -37 -13 -43 -107 -131 -140 -131 -3
0 -19 15 -36 32 -37 42 -55 32 -86 -46 l-23 -57 21 -28 c29 -40 34 -98 14
-167 -10 -37 -14 -73 -11 -98 8 -54 74 -174 109 -200 40 -30 104 -25 182 13
135 67 149 91 150 262 l1 126 32 39 c38 46 40 64 8 101 -20 23 -33 28 -68 28
-39 0 -44 3 -59 36 -10 19 -24 41 -33 48 -10 8 -16 29 -16 52 0 40 -10 49 -28
27z"/>
<path d="M6740 12075 c-26 -28 -23 -37 15 -37 35 0 53 17 39 39 -16 26 -28 26
-54 -2z"/>
<path d="M8510 11930 c0 -5 5 -10 10 -10 6 0 10 5 10 10 0 6 -4 10 -10 10 -5
0 -10 -4 -10 -10z"/>
<path d="M6739 11885 c-16 -35 -17 -49 -9 -65 15 -28 50 -22 69 12 14 24 14
30 -2 62 -9 20 -22 36 -27 36 -6 0 -20 -20 -31 -45z"/>
<path d="M7457 11912 c-23 -25 -21 -49 4 -62 34 -19 51 -5 47 37 -3 44 -25 54
-51 25z"/>
<path d="M10086 11878 c-21 -30 -20 -38 4 -38 21 0 45 34 35 50 -10 16 -23 12
-39 -12z"/>
<path d="M9991 11874 c-30 -21 -44 -60 -31 -85 14 -26 55 -24 74 3 37 53 4
115 -43 82z"/>
<path d="M6527 11820 c-19 -15 -30 -39 -41 -90 -9 -38 -16 -74 -16 -79 0 -13
74 -61 94 -61 12 0 96 82 96 95 0 3 -11 27 -24 53 -13 26 -26 59 -30 75 -8 33
-41 36 -79 7z"/>
<path d="M9125 11824 c-41 -21 -224 -213 -232 -243 -8 -30 20 -87 47 -96 15
-5 31 3 60 29 22 19 65 49 97 65 82 41 115 79 120 138 6 59 -17 123 -44 123
-10 0 -31 -7 -48 -16z"/>
<path d="M8340 11810 c0 -5 5 -10 10 -10 6 0 10 5 10 10 0 6 -4 10 -10 10 -5
0 -10 -4 -10 -10z"/>
<path d="M9864 11784 c-15 -23 -16 -27 -2 -41 12 -12 20 -13 37 -4 23 13 28
40 9 59 -17 17 -26 15 -44 -14z"/>
<path d="M7084 11745 c-20 -52 -11 -97 19 -103 26 -5 51 60 40 107 -13 53 -37
52 -59 -4z"/>
<path d="M7556 11781 c-4 -5 -2 -12 3 -15 5 -4 12 -2 15 3 4 5 2 12 -3 15 -5
4 -12 2 -15 -3z"/>
<path d="M8535 11759 c-37 -45 -32 -96 13 -122 31 -18 34 -18 52 -2 11 10 27
37 36 61 15 41 15 45 0 69 -24 36 -67 34 -101 -6z"/>
<path d="M9892 11704 c-40 -28 -18 -86 33 -86 26 0 55 23 55 44 0 11 -46 58
-57 58 -5 0 -19 -7 -31 -16z"/>
<path d="M7266 11691 c-4 -5 -2 -12 3 -15 5 -4 12 -2 15 3 4 5 2 12 -3 15 -5
4 -12 2 -15 -3z"/>
<path d="M6690 11671 c0 -5 6 -14 14 -20 16 -13 32 2 21 19 -8 12 -35 13 -35
1z"/>
<path d="M9386 11664 c-18 -17 -20 -42 -7 -94 4 -19 6 -41 3 -48 -2 -8 -45
-33 -96 -56 -117 -54 -147 -88 -182 -202 -14 -47 -37 -109 -50 -137 -28 -60
-30 -107 -9 -167 34 -97 9 -123 -61 -64 -84 71 -117 94 -134 94 -26 0 -170
-97 -170 -115 0 -23 -37 -55 -65 -55 -30 0 -30 -5 -5 122 26 137 26 152 -7
178 -26 20 -29 20 -38 5 -22 -37 -44 -60 -51 -53 -4 5 -6 36 -5 70 2 57 6 67
36 98 51 52 60 88 40 150 -21 64 -43 77 -91 54 -45 -21 -74 -77 -74 -141 0
-83 -17 -118 -91 -201 -39 -42 -77 -91 -85 -109 -8 -17 -16 -71 -19 -120 -10
-154 -14 -172 -42 -190 -24 -16 -25 -16 -50 15 -27 35 -44 40 -62 18 -8 -10
-24 -12 -51 -9 -38 5 -39 5 -49 -33 -6 -22 -17 -64 -26 -95 -19 -71 -32 -83
-73 -68 -39 13 -49 8 -107 -64 -43 -53 -51 -58 -77 -53 -16 3 -44 18 -63 32
-19 14 -41 24 -49 21 -32 -12 -35 -203 -4 -233 9 -9 38 -18 64 -21 82 -8 81
-3 19 -120 -52 -99 -56 -110 -50 -153 l6 -47 -48 -35 c-79 -57 -76 -57 -68 1
7 54 5 58 -24 39 -16 -10 -25 -7 -55 20 -35 31 -76 43 -76 22 0 -5 -9 -14 -19
-20 -16 -8 -22 -4 -39 24 -11 19 -30 39 -41 46 -19 10 -23 6 -47 -45 -15 -30
-30 -55 -34 -55 -5 0 -28 9 -53 19 l-45 19 11 46 c8 35 7 49 -3 61 -9 11 -16
13 -24 5 -5 -5 -36 -10 -68 -10 -50 0 -63 -4 -85 -26 -24 -24 -25 -30 -19 -86
3 -34 11 -67 17 -74 7 -8 31 -14 59 -14 38 0 55 6 80 27 26 21 33 24 41 12 15
-25 10 -40 -22 -57 -112 -61 -117 -103 -21 -204 l36 -38 -24 -32 c-15 -20 -25
-49 -27 -82 -8 -102 -5 -99 -78 -91 -81 8 -99 2 -129 -42 l-24 -35 -12 36
c-12 37 -35 47 -58 24 -29 -29 6 -98 42 -85 25 10 66 -70 66 -126 0 -74 37
-96 95 -57 17 11 33 20 37 20 4 0 21 -21 39 -46 29 -43 81 -84 105 -84 7 0 24
16 40 37 l27 36 -33 30 -33 29 60 -7 c58 -6 61 -6 81 22 18 25 21 26 28 10 11
-30 -15 -159 -36 -183 -23 -24 -25 -53 -6 -79 9 -12 19 -16 31 -11 13 4 27 -2
46 -20 l28 -26 35 22 c36 21 36 21 61 2 l24 -19 -24 -23 c-14 -13 -34 -43 -46
-67 -27 -56 -37 -61 -41 -21 -4 40 -42 53 -53 19 -8 -26 -16 -26 -49 0 -25 20
-28 20 -52 4 -36 -23 -49 -7 -49 60 0 69 -16 88 -48 57 -18 -18 -22 -35 -23
-88 -1 -46 -6 -71 -18 -82 -15 -15 -19 -13 -54 21 -20 20 -52 42 -70 48 -29
10 -33 15 -31 43 2 17 0 37 -5 44 -9 16 -51 16 -64 0 -18 -24 -24 -98 -12
-168 13 -79 4 -108 -30 -90 -11 6 -24 4 -38 -6 -17 -12 -26 -12 -43 -3 -44 23
-73 -55 -37 -98 14 -18 34 -16 70 5 l30 17 37 -42 c44 -51 87 -59 97 -18 9 35
28 49 44 30 15 -18 7 -43 -17 -52 -27 -10 -33 -23 -33 -75 0 -54 -16 -72 -26
-31 -9 36 -21 44 -51 32 -37 -14 -40 -12 -69 36 -25 43 -44 58 -44 34 0 -9
-16 -7 -57 8 -19 7 -60 -43 -67 -81 -7 -39 -41 -86 -61 -86 -8 0 -20 10 -26
22 -10 19 -9 24 10 36 24 17 27 35 7 51 -10 9 -16 8 -26 -4 -23 -28 -50 -38
-65 -25 -8 7 -26 9 -44 5 -17 -3 -32 -2 -36 4 -8 14 -52 14 -60 1 -3 -5 1 -10
9 -10 9 0 16 -4 16 -10 0 -5 -21 -10 -48 -10 -71 0 -89 -17 -87 -82 2 -29 3
-56 4 -59 2 -9 78 -49 95 -49 8 0 23 11 32 25 22 33 64 33 121 0 44 -27 52
-42 31 -63 -9 -9 -9 -20 -1 -45 7 -17 13 -48 15 -67 5 -52 -18 -44 -56 19 -37
64 -58 81 -83 65 -26 -16 -27 -57 -3 -104 15 -30 19 -50 14 -75 -7 -38 10 -50
21 -15 5 15 12 19 25 15 13 -4 23 1 32 14 18 30 26 26 34 -15 7 -39 22 -48
110 -67 49 -10 56 -9 125 21 53 23 79 41 91 62 21 36 34 38 40 5 4 -18 -1 -29
-18 -40 -26 -17 -31 -45 -12 -74 10 -16 3 -26 -47 -74 -65 -63 -85 -73 -115
-57 -17 9 -27 8 -46 -5 -28 -18 -30 -28 -10 -44 11 -10 16 -9 24 5 7 13 13 14
30 5 59 -32 68 -70 20 -92 -21 -9 -34 -22 -36 -36 -5 -32 -62 -34 -62 -3 0 31
-44 70 -78 70 -48 0 -82 -34 -82 -81 0 -51 11 -72 54 -98 47 -30 71 -27 86 10
11 26 17 30 39 24 51 -12 76 -39 76 -81 0 -36 2 -39 27 -39 16 -1 40 -13 58
-30 26 -25 30 -35 25 -62 -3 -19 1 -47 11 -72 l16 -41 -42 -88 c-34 -69 -57
-102 -115 -157 -39 -38 -81 -83 -93 -100 -25 -36 -37 -30 -17 9 8 16 15 31 15
35 0 3 -22 7 -50 8 -45 3 -51 0 -77 -31 l-27 -35 -27 20 c-35 24 -50 24 -84
-3 -33 -26 -58 -16 -63 26 -3 21 -7 24 -20 17 -23 -12 -71 24 -54 41 8 8 24 9
56 1 55 -12 66 -4 66 53 0 54 18 70 61 55 40 -14 86 -14 94 -1 23 37 -64 97
-113 79 -19 -7 -29 -6 -43 7 -10 9 -27 14 -39 11 -26 -7 -27 22 -2 54 18 21
20 22 43 6 27 -20 69 -23 69 -5 0 6 -7 20 -17 30 -24 27 -7 35 20 10 13 -12
26 -22 29 -22 3 0 35 17 69 39 77 46 87 77 27 75 -21 -1 -38 2 -38 7 0 18 -33
39 -61 39 -16 0 -48 -9 -69 -20 -36 -18 -40 -24 -40 -58 l0 -38 -61 -13 c-66
-13 -109 -35 -109 -56 0 -7 16 -25 35 -39 44 -34 44 -46 0 -46 -33 0 -35 -2
-41 -41 -5 -29 -11 -39 -21 -35 -8 4 -17 6 -19 6 -2 0 -4 13 -4 28 0 20 -14
41 -50 77 -51 50 -60 71 -38 93 9 9 7 20 -8 47 -22 41 -24 41 -55 16 -21 -17
-22 -22 -12 -55 11 -35 10 -37 -10 -30 -28 8 -77 33 -77 39 0 2 9 20 21 39
l21 36 -29 27 c-15 16 -39 35 -52 44 -18 11 -23 21 -17 34 6 17 8 17 34 -6 15
-14 47 -38 71 -54 l43 -29 22 25 c11 15 26 35 33 45 10 18 12 18 25 2 7 -9 22
-18 33 -20 17 -3 21 -13 25 -62 4 -48 10 -62 33 -82 22 -19 32 -22 48 -14 32
18 27 119 -10 197 -27 56 -33 63 -73 74 -160 43 -173 52 -164 102 4 21 11 37
16 37 5 0 51 -29 102 -64 102 -69 128 -81 159 -71 27 9 58 78 59 130 1 39 18
75 37 75 5 0 20 -11 32 -24 16 -17 22 -33 19 -57 -3 -31 -1 -34 28 -37 27 -3
33 1 44 27 9 22 19 31 35 31 35 0 51 25 36 57 -10 22 -10 28 3 35 24 13 19 44
-10 63 -28 18 -54 14 -54 -10 0 -9 -9 -15 -21 -15 -20 0 -20 1 5 31 14 17 26
38 26 48 0 25 -32 51 -62 51 -46 0 -57 38 -16 53 15 5 15 10 -2 58 -11 28 -21
53 -22 54 -2 1 -18 10 -36 19 -23 12 -41 33 -58 69 -22 47 -22 53 -8 64 29 21
9 42 -38 41 -52 -1 -168 23 -168 35 0 5 15 6 33 3 30 -6 37 -2 70 34 19 22 43
40 51 40 20 0 20 10 -1 40 -10 14 -16 35 -14 48 2 17 -3 25 -18 29 -16 4 -21
13 -21 42 0 44 -38 98 -63 88 -10 -4 -17 -17 -17 -30 0 -19 -7 -26 -30 -31
-32 -6 -49 -31 -33 -47 10 -10 47 -13 88 -7 14 2 21 -3 23 -19 3 -19 -3 -23
-43 -29 -50 -7 -143 14 -198 45 -27 15 -29 15 -47 -9 -11 -14 -29 -49 -40 -78
-19 -50 -19 -55 -3 -85 9 -18 19 -45 23 -62 5 -25 11 -30 33 -28 33 2 35 -16
6 -43 -12 -10 -35 -38 -51 -62 -19 -27 -44 -48 -69 -58 -42 -17 -45 -24 -27
-53 15 -24 3 -53 -19 -49 -23 4 -98 115 -100 148 -1 14 -9 30 -19 35 -49 30
-57 41 -45 63 11 20 19 22 79 20 74 -3 73 -4 56 66 -5 23 -2 32 20 50 19 15
30 37 38 78 11 51 10 59 -7 78 -24 27 -29 26 -82 -15 -32 -25 -50 -32 -62 -26
-22 11 -41 3 -41 -18 0 -21 -45 -65 -58 -57 -5 3 -15 19 -22 36 -24 57 -70 29
-70 -44 0 -47 -9 -66 -31 -66 -12 0 -21 11 -28 38 -6 20 -11 42 -11 47 0 6 -5
28 -11 50 -11 39 -11 39 -28 18 -13 -15 -25 -19 -44 -16 -17 3 -27 1 -27 -6 0
-9 -21 -10 -72 -6 -57 5 -77 3 -93 -9 -20 -15 -20 -15 5 -63 17 -33 32 -49 48
-51 26 -4 20 -22 -8 -22 -10 0 -20 -7 -24 -15 -9 -25 -24 -17 -31 16 -8 35
-30 47 -56 31 -10 -7 -33 -12 -51 -12 -18 0 -51 -7 -75 -16 l-42 -16 -41 32
c-32 25 -40 38 -36 54 3 12 6 24 6 29 0 13 45 7 110 -14 l63 -22 19 23 c22 27
23 71 4 108 -14 27 -88 101 -136 135 -17 12 -21 20 -12 23 6 3 12 12 12 20 0
21 -38 17 -50 -6 -19 -36 -30 -21 -30 39 0 33 -5 63 -10 66 -6 4 -23 -7 -38
-23 -43 -46 -85 -50 -148 -16 l-53 29 -24 -23 c-29 -27 -39 -28 -62 -2 -16 17
-16 25 -5 64 7 24 9 49 5 55 -4 7 5 11 25 11 44 0 48 24 11 75 -17 24 -31 48
-31 54 0 19 -15 12 -44 -21 l-28 -33 -25 30 c-13 17 -34 41 -46 54 l-22 24 -5
-34 c-5 -32 -7 -34 -43 -32 l-38 2 7 -34 c4 -25 3 -35 -7 -35 -7 0 -23 -10
-36 -21 -27 -26 -44 -17 -74 44 -11 21 -38 58 -60 82 l-40 43 44 54 c55 68 60
82 42 124 l-14 34 47 0 c53 0 68 7 73 33 6 29 24 15 20 -15 -4 -38 23 -37 59
2 26 27 69 43 55 20 -3 -5 -13 -10 -21 -10 -17 0 -44 -57 -44 -94 0 -27 41
-66 70 -66 9 0 25 -9 35 -20 18 -20 69 -27 79 -11 4 5 0 26 -7 48 -11 34 -16
38 -45 35 -26 -2 -32 2 -32 17 0 25 17 37 62 45 61 11 101 81 79 139 -6 15
-25 36 -43 47 -29 18 -34 18 -49 4 -10 -9 -26 -14 -36 -12 -22 4 -61 73 -62
109 -1 15 -7 32 -15 38 -11 10 -19 7 -36 -11 -28 -30 -23 -63 10 -63 35 0 39
-32 5 -45 -14 -5 -37 -10 -51 -10 -19 0 -24 5 -24 28 -1 30 -12 39 -140 117
-41 25 -80 45 -87 45 -17 0 -103 -117 -103 -139 0 -9 10 -36 21 -61 18 -41 19
-45 4 -57 -20 -14 -13 -42 14 -67 10 -9 42 -20 70 -25 28 -4 54 -10 57 -13 3
-3 -20 -32 -51 -64 l-56 -59 5 39 5 38 -35 -5 c-28 -5 -39 -2 -53 16 -10 12
-47 55 -82 95 -138 158 -165 200 -141 224 8 8 22 6 51 -6 45 -21 81 -14 81 15
0 32 -17 55 -49 68 -39 17 -73 98 -47 113 29 16 18 46 -27 73 -24 14 -54 25
-66 25 -12 0 -34 13 -49 29 -22 23 -35 29 -67 27 -36 -1 -40 -4 -40 -26 0 -20
5 -25 25 -24 30 2 40 -11 40 -53 0 -19 10 -43 26 -62 25 -30 70 -168 59 -180
-11 -10 -45 42 -45 69 -1 41 -11 70 -26 70 -9 0 -14 -11 -14 -30 0 -16 -4 -30
-9 -30 -7 0 -123 69 -250 149 -23 14 -5 74 34 116 41 43 43 63 10 103 -36 43
-74 56 -140 47 -45 -5 -55 -10 -53 -23 2 -10 -8 -24 -25 -35 -16 -10 -34 -31
-40 -47 -7 -18 -19 -30 -30 -30 -31 0 -88 29 -128 65 -34 30 -46 35 -88 35
-28 0 -62 5 -78 11 -37 14 -103 78 -103 101 0 14 -8 18 -42 18 -29 0 -54 8
-79 26 -34 23 -36 27 -26 53 9 25 6 35 -23 80 -32 51 -107 121 -128 121 -7 0
-14 -12 -18 -27 -10 -47 -13 -53 -28 -53 -25 0 -29 21 -7 41 12 11 21 30 21
42 0 23 -52 121 -70 132 -22 14 -58 -5 -70 -37 -8 -18 -15 -35 -16 -37 -2 -2
-16 9 -32 25 -65 66 -108 98 -135 100 -19 1 -45 17 -73 45 -39 38 -42 45 -29
59 12 14 11 22 -15 66 -30 53 -113 134 -137 134 -20 0 -25 -22 -14 -53 6 -15
9 -27 7 -27 -1 0 -20 15 -41 33 -80 68 -86 75 -79 102 5 20 2 25 -13 25 -10 0
-40 20 -67 45 -42 38 -48 48 -43 73 3 16 1 34 -6 41 -21 21 -131 10 -141 -14
-14 -38 103 -197 207 -280 31 -25 64 -59 72 -74 8 -16 36 -43 64 -60 27 -18
61 -48 76 -67 14 -19 90 -85 168 -148 78 -62 172 -147 208 -187 37 -41 90 -87
118 -104 36 -21 50 -35 47 -47 -6 -26 18 -42 34 -23 10 12 16 13 26 4 23 -19
16 -43 -21 -79 -43 -42 -42 -67 4 -95 18 -11 63 -50 100 -87 65 -65 108 -88
169 -88 26 0 27 -2 7 -40 -13 -26 -21 -30 -55 -30 -29 0 -43 -6 -55 -22 -14
-22 -14 -24 10 -41 14 -10 25 -24 25 -31 0 -6 -16 -36 -35 -66 -19 -30 -35
-63 -35 -73 0 -27 80 -138 108 -148 13 -5 48 -9 79 -9 52 0 58 -2 100 -45 48
-49 53 -51 71 -33 31 31 2 128 -37 128 -33 0 -45 25 -26 54 22 33 38 33 81 0
42 -32 70 -77 79 -126 4 -20 12 -44 19 -53 11 -15 15 -15 49 1 31 15 43 16 70
6 19 -7 55 -12 81 -12 71 0 250 -77 301 -130 45 -46 71 -50 87 -15 16 35 41
31 78 -12 l33 -37 -24 -9 c-53 -20 -54 -21 -55 -93 0 -38 -6 -81 -12 -95 -14
-35 1 -49 44 -42 39 6 43 -4 18 -43 -16 -24 -16 -27 3 -53 16 -21 18 -32 11
-46 -8 -13 -6 -25 6 -45 9 -16 16 -31 16 -34 0 -3 -23 -6 -52 -6 -39 0 -57 -5
-74 -21 -13 -12 -33 -27 -45 -33 -36 -18 -33 -33 11 -62 33 -22 40 -32 38 -53
-5 -40 -37 -38 -78 4 -37 38 -51 43 -70 20 -10 -12 -9 -20 4 -40 15 -22 15
-26 2 -31 -9 -3 -18 -15 -22 -26 -5 -18 -7 -19 -22 -4 -13 13 -14 19 -3 40 16
29 9 56 -14 56 -16 0 -19 -5 -29 -53 -4 -15 -11 -25 -16 -22 -21 13 -8 49 30
87 54 55 57 70 21 121 -31 43 -34 58 -32 194 1 31 -16 57 -41 65 -9 3 -5 17
15 44 34 51 34 61 -3 69 -30 7 -30 7 -24 56 6 48 5 51 -32 87 -22 21 -55 57
-75 80 -19 23 -43 42 -52 42 -28 0 -102 -65 -127 -113 -14 -26 -29 -47 -33
-47 -5 0 -26 14 -47 32 -21 18 -53 37 -71 43 -26 9 -39 23 -56 58 -20 41 -27
47 -53 47 -54 0 -130 -50 -164 -108 -28 -48 -56 -102 -56 -107 0 -3 5 -3 11 0
5 4 19 -1 29 -10 17 -15 24 -16 50 -5 17 7 34 10 37 6 4 -4 7 -30 8 -60 0 -48
5 -57 48 -107 l48 -54 -28 -7 c-16 -4 -47 -12 -70 -18 -51 -13 -54 -28 -13
-68 22 -23 48 -34 105 -47 41 -9 75 -20 75 -24 0 -4 -16 -13 -36 -20 -34 -12
-37 -11 -65 15 -23 22 -29 24 -34 12 -4 -9 5 -34 19 -57 30 -47 33 -69 9 -78
-18 -7 -56 31 -84 84 -11 20 -28 33 -48 38 -36 8 -36 8 -14 45 15 27 15 30
-10 73 -56 95 -167 88 -167 -10 0 -26 -4 -33 -19 -33 -20 0 -71 53 -71 73 0
21 39 77 74 108 33 28 45 54 60 122 5 21 14 29 37 34 58 11 78 87 39 151 -12
19 -20 50 -20 76 0 63 -29 196 -50 231 -10 17 -33 40 -49 53 -17 12 -31 29
-31 37 0 17 -12 19 -26 5 -15 -15 -82 8 -95 32 -11 20 -12 20 -24 4 -7 -9 -30
-20 -51 -23 -22 -3 -51 -12 -66 -19 -34 -17 -50 -11 -83 32 -26 34 -48 43 -60
24 -12 -20 8 -52 41 -66 44 -18 43 -28 -4 -42 -48 -15 -67 -35 -81 -88 -10
-36 -18 -45 -70 -73 -66 -35 -83 -38 -101 -16 -10 13 -10 19 4 33 14 16 14 21
1 38 -19 25 -19 28 9 61 39 48 39 78 -3 128 -20 24 -44 56 -55 70 -15 23 -23
26 -51 21 -22 -5 -36 -2 -45 9 -18 21 -33 19 -25 -5 5 -17 -6 -25 -78 -60 -47
-22 -87 -47 -91 -55 -11 -29 -66 -11 -66 22 0 8 9 11 29 7 21 -5 34 -1 50 15
26 26 26 36 1 61 -29 29 -74 26 -98 -7 l-20 -27 -41 37 c-29 26 -50 37 -73 37
-24 0 -41 10 -76 46 l-44 46 35 23 c64 44 73 122 20 177 -69 72 -194 -8 -169
-108 7 -28 51 -77 76 -86 11 -3 10 -10 -8 -33 -29 -37 -28 -42 13 -67 20 -11
42 -33 50 -48 10 -20 24 -29 52 -33 26 -4 50 -18 72 -41 19 -19 58 -46 87 -60
28 -14 59 -35 68 -48 15 -21 14 -23 -12 -45 l-27 -23 24 -20 c16 -14 38 -20
71 -20 35 0 52 -5 66 -21 17 -19 18 -21 1 -30 -27 -16 -20 -33 28 -69 54 -41
57 -51 10 -36 -19 6 -35 14 -35 18 0 5 -7 8 -14 8 -22 0 -68 -65 -64 -92 4
-30 67 -46 113 -29 52 18 69 13 103 -31 38 -49 39 -59 11 -84 -29 -26 -39 -48
-30 -63 7 -10 15 -10 41 4 17 9 35 14 38 10 4 -4 8 -63 9 -131 2 -110 12 -210
29 -311 6 -29 4 -33 -27 -40 -27 -7 -34 -16 -43 -48 -11 -39 -17 -43 -84 -61
-7 -2 -17 -15 -22 -30 -6 -15 -20 -40 -31 -56 l-21 -29 -27 25 c-30 28 -50 33
-69 14 -19 -19 -14 -58 13 -105 22 -37 25 -53 23 -117 -3 -66 0 -77 20 -99
l22 -24 -26 -12 -27 -12 24 -25 c31 -33 154 -94 190 -94 22 0 29 5 29 19 0 18
5 19 69 14 45 -4 70 -2 75 6 7 11 -21 41 -64 71 -19 14 -20 18 -9 43 13 28 36
39 25 11 -9 -22 11 -54 34 -54 15 0 20 -7 20 -25 0 -19 7 -26 33 -33 39 -10
39 -24 -2 -36 -17 -5 -31 -12 -31 -16 0 -3 33 -17 73 -31 79 -26 88 -45 17
-38 -25 2 -85 4 -134 4 l-88 0 -44 -50 c-24 -27 -40 -53 -35 -58 4 -4 38 -13
74 -20 64 -11 69 -10 147 22 88 37 121 36 44 -1 -34 -17 -50 -31 -55 -51 -4
-15 -19 -41 -34 -58 -29 -35 -28 -52 1 -57 11 -2 26 -19 36 -42 18 -44 36 -50
63 -20 26 29 34 25 57 -30 l20 -49 51 25 c39 21 49 22 44 10 -4 -10 -1 -19 8
-22 23 -9 65 5 65 21 0 7 -30 44 -66 80 -61 61 -66 68 -55 91 11 25 41 33 41
11 0 -37 26 -50 116 -57 102 -8 112 -6 116 23 3 19 10 22 55 25 40 2 55 8 63
23 14 25 46 24 60 -2 10 -17 7 -27 -14 -58 -26 -38 -31 -57 -20 -85 9 -23 27
-20 81 14 26 17 51 30 56 30 9 0 5 -53 -9 -97 -4 -15 -2 -23 6 -23 7 0 23 -11
35 -24 13 -14 40 -28 61 -32 32 -6 40 -4 52 15 17 25 35 27 52 6 16 -19 64
-19 80 0 6 8 9 23 5 35 -9 30 12 53 36 39 40 -21 51 12 19 54 -18 22 -19 29
-8 46 11 17 10 25 -4 48 -13 22 -26 29 -59 33 -39 5 -41 6 -24 20 10 8 27 15
39 15 16 0 25 14 42 65 26 76 37 90 68 90 13 0 34 13 50 30 21 25 31 29 54 24
35 -9 99 -41 107 -54 9 -15 -35 -72 -51 -66 -20 8 -29 -15 -10 -26 26 -14 46
-63 46 -111 0 -24 7 -52 15 -63 14 -18 15 -18 27 14 7 17 16 32 20 32 14 0 99
-83 114 -111 12 -24 11 -29 -2 -40 -12 -10 -22 -10 -51 0 -63 23 -66 -7 -6
-86 30 -40 51 -41 156 -8 43 14 82 25 87 25 19 0 10 -43 -15 -76 -19 -25 -24
-40 -19 -60 8 -31 -9 -45 -46 -37 -17 3 -31 -1 -40 -12 -12 -14 -10 -16 21
-14 19 1 52 -7 74 -18 l39 -21 -44 -22 c-55 -28 -60 -34 -60 -88 0 -36 4 -44
25 -54 30 -14 33 -28 5 -28 -19 0 -36 19 -93 110 -17 27 -33 38 -67 46 -54 13
-60 27 -20 44 31 13 40 35 18 43 -20 7 -48 -11 -103 -63 -56 -53 -116 -90
-146 -90 -21 0 -25 -10 -8 -27 8 -8 0 -12 -26 -15 -31 -4 -39 0 -56 24 -11 15
-27 28 -35 28 -19 0 -30 -28 -15 -43 6 -6 11 -19 11 -30 0 -15 5 -17 29 -12
29 6 30 6 24 -28 -5 -33 -3 -35 33 -47 48 -15 64 -34 64 -74 0 -38 -9 -50 -35
-53 -11 -1 -29 -3 -40 -5 -15 -2 -21 3 -23 24 -2 20 -9 28 -24 28 -11 0 -49
14 -84 30 l-64 31 21 29 c29 38 19 60 -25 60 -41 0 -50 10 -32 36 12 15 18 16
39 7 20 -10 28 -9 37 2 12 15 40 99 40 120 0 13 -110 45 -153 45 -13 0 -32 -6
-42 -14 -18 -13 -18 -15 2 -62 12 -27 20 -52 17 -55 -8 -13 -149 -97 -169
-101 -17 -3 -20 2 -18 33 3 46 -17 64 -74 72 -42 5 -51 0 -35 -18 5 -6 14 -29
20 -51 12 -40 11 -43 -33 -108 -25 -37 -45 -77 -45 -89 0 -12 -9 -41 -20 -65
-22 -48 -66 -74 -135 -78 -51 -3 -49 -2 -36 -18 9 -11 8 -15 -5 -20 -10 -4
-22 2 -33 15 -15 19 -20 20 -40 10 -28 -15 -36 -9 -22 17 9 17 5 25 -24 51
-20 17 -41 31 -48 31 -7 0 -29 -14 -50 -31 -23 -19 -44 -29 -54 -25 -10 4 -21
-1 -30 -13 -8 -12 -20 -18 -29 -14 -13 5 -12 9 5 25 19 16 21 31 21 118 0 89
-2 100 -21 114 -25 17 -62 7 -67 -18 -2 -9 4 -29 14 -43 17 -26 16 -27 -15
-55 -26 -23 -39 -28 -62 -23 -34 8 -50 -16 -31 -46 9 -15 8 -19 -7 -24 -39
-12 -46 -33 -26 -71 10 -19 21 -34 25 -34 14 0 19 14 9 26 -7 9 -6 22 6 44 14
27 20 31 43 25 27 -7 42 -21 42 -41 0 -6 7 -17 16 -24 13 -12 7 -17 -42 -37
-31 -12 -63 -28 -70 -34 -47 -39 32 -92 82 -54 10 8 25 15 32 15 13 0 112
-144 112 -164 0 -6 -11 -32 -25 -58 -14 -26 -22 -54 -19 -62 5 -13 -2 -16 -42
-14 -47 3 -49 2 -67 -37 -18 -36 -33 -54 -47 -55 -3 0 -10 10 -15 23 -8 18
-19 23 -62 25 -78 5 -149 -31 -111 -55 7 -4 13 -19 13 -33 0 -27 -7 -26 115
-18 31 1 85 -19 127 -49 37 -27 65 -29 83 -8 19 23 43 20 30 -4 -13 -25 -13
-51 0 -51 6 0 31 21 55 48 37 39 47 44 55 32 5 -8 10 -24 10 -35 0 -11 4 -26
9 -34 10 -16 31 -6 31 15 0 8 19 32 42 54 55 50 73 40 64 -36 -9 -75 -35 -129
-105 -214 -33 -41 -61 -79 -61 -84 0 -5 -16 -42 -35 -82 -41 -85 -52 -91 -145
-74 -70 13 -86 6 -71 -31 14 -39 -2 -54 -99 -95 -63 -26 -100 -48 -122 -73
l-31 -35 23 -15 c41 -28 80 -73 87 -99 5 -21 0 -31 -31 -58 -20 -18 -49 -35
-64 -39 -32 -8 -62 -33 -62 -51 0 -19 -38 -37 -64 -30 -18 4 -32 -5 -68 -47
-46 -54 -124 -114 -134 -104 -3 3 -1 14 5 25 17 31 13 74 -9 102 -11 14 -20
32 -20 40 0 8 42 57 92 109 85 87 90 95 73 107 -25 19 -99 18 -164 -2 -65 -19
-133 -76 -113 -95 6 -7 12 -27 12 -45 0 -35 -60 -185 -89 -223 l-18 -23 -41
21 c-32 16 -59 21 -119 21 -43 0 -84 -4 -92 -9 -14 -9 -35 -137 -25 -153 2 -4
33 7 69 23 71 32 75 33 75 20 0 -5 -16 -16 -35 -25 -40 -19 -51 -34 -37 -48 7
-7 25 0 57 22 45 31 47 31 66 14 20 -18 21 -17 62 28 27 29 55 48 77 53 30 7
37 4 63 -25 l29 -32 38 17 c58 26 80 3 39 -41 l-22 -23 27 -7 c14 -3 26 -13
26 -21 0 -8 18 -22 40 -30 40 -16 53 -33 25 -33 -8 0 -15 -4 -15 -10 0 -11 62
-13 97 -4 28 8 29 25 3 49 -11 10 -18 21 -15 25 2 3 36 12 75 19 86 16 104 7
71 -35 -21 -27 -21 -29 -5 -41 12 -8 51 -13 109 -13 75 0 95 3 108 18 23 25
59 113 53 129 -3 7 -26 22 -51 33 -25 11 -45 26 -45 33 0 19 32 47 66 56 26 7
29 12 25 42 -10 101 -10 101 39 115 36 11 59 28 104 79 31 36 63 65 69 65 7 0
24 -14 39 -30 18 -21 35 -30 57 -30 29 0 30 -2 21 -26 -27 -71 8 -95 56 -38
l31 37 54 -29 c64 -34 74 -65 38 -115 -19 -27 -21 -36 -11 -63 7 -20 8 -52 3
-91 -10 -69 -6 -85 20 -85 12 0 24 -12 32 -32 8 -18 24 -42 36 -52 11 -11 21
-27 21 -38 0 -23 18 -23 42 -1 17 15 19 15 32 -2 14 -19 36 -13 36 9 0 7 10
21 21 32 28 24 52 80 44 103 -3 10 -28 32 -55 49 -57 35 -64 51 -20 44 22 -3
30 0 30 11 0 9 -5 19 -10 22 -14 8 -3 25 16 25 27 0 104 -62 135 -109 42 -64
47 -89 20 -107 -25 -18 -27 -51 -3 -80 25 -31 49 -41 122 -49 36 -4 94 -17
130 -29 72 -23 98 -53 87 -98 -12 -45 -61 -80 -56 -40 3 33 -1 42 -21 42 -23
0 -46 -40 -37 -64 3 -9 19 -18 34 -21 57 -13 70 -24 101 -88 17 -36 48 -85 69
-108 38 -42 180 -157 220 -178 38 -20 86 -12 163 26 88 42 134 46 252 19 79
-18 187 -77 206 -113 7 -13 2 -37 -19 -88 -32 -78 -36 -132 -14 -161 14 -18
16 -18 42 14 31 36 45 39 96 17 20 -8 62 -15 93 -15 54 0 59 2 95 40 42 44 49
47 49 26 0 -8 8 -21 19 -28 10 -7 20 -22 22 -33 6 -30 34 -29 70 3 42 38 34
57 -26 66 -26 4 -49 14 -52 22 -7 19 18 55 55 76 l30 18 21 -35 c24 -41 31
-42 82 -13 31 17 41 19 53 9 13 -11 10 -18 -19 -57 -66 -86 -55 -115 44 -122
54 -4 60 -2 71 19 7 12 17 58 21 102 13 112 41 157 98 157 23 0 40 -22 22 -28
-8 -3 -27 -17 -44 -32 l-31 -28 27 -41 c15 -22 33 -41 39 -41 7 0 26 14 44 31
18 17 37 28 43 25 16 -10 13 -62 -5 -98 -16 -31 -16 -44 2 -155 6 -38 3 -45
-34 -90 -23 -26 -51 -74 -63 -106 -24 -62 -49 -87 -94 -90 -25 -2 -29 2 -39
43 -14 57 -38 59 -74 6 -17 -24 -40 -44 -61 -51 -29 -10 -37 -19 -50 -60 -13
-38 -26 -56 -61 -80 -39 -27 -46 -38 -51 -75 -7 -49 -31 -74 -88 -90 -44 -12
-64 -31 -86 -83 -22 -54 -19 -76 15 -95 16 -9 30 -20 30 -23 0 -13 -81 -39
-120 -39 -51 0 -71 20 -116 113 -32 67 -33 73 -17 85 9 6 23 12 31 12 12 0 12
4 -2 19 -19 21 -14 41 9 41 21 0 27 17 14 39 -10 15 -9 24 4 45 10 14 24 26
31 26 7 0 19 7 26 15 7 8 25 15 41 15 34 0 38 15 8 30 -16 9 -18 14 -8 26 15
18 5 28 -43 44 -21 6 -38 15 -38 18 1 4 19 19 40 34 44 30 50 55 28 115 -11
30 -10 36 10 56 19 19 24 20 32 7 5 -8 10 -36 10 -62 0 -27 4 -48 9 -48 11 0
91 80 91 91 0 4 -9 13 -20 19 -28 15 -25 27 20 81 68 81 51 99 -97 99 l-98 0
-48 -89 c-26 -48 -47 -96 -47 -106 0 -9 10 -30 21 -47 l21 -30 -37 -38 c-43
-45 -71 -52 -143 -39 -29 6 -60 8 -70 4 -9 -3 -36 -33 -59 -68 -23 -34 -72
-100 -107 -147 -76 -98 -84 -125 -88 -303 -3 -117 -3 -119 23 -140 14 -12 35
-27 45 -33 16 -10 17 -13 5 -28 -19 -22 -60 -20 -166 8 -49 14 -110 28 -135
33 -40 7 -45 11 -51 41 -9 43 -75 112 -107 112 -50 0 -87 -34 -112 -102 -16
-46 -40 -36 -40 16 0 83 -63 104 -119 41 -50 -57 -35 -95 38 -95 49 0 45 -17
-7 -30 -104 -25 -138 -65 -147 -177 -8 -93 0 -102 63 -75 28 12 70 22 94 22
54 1 138 30 152 52 8 13 7 21 -5 34 -15 14 -19 13 -53 -16 -20 -18 -39 -30
-42 -28 -7 8 44 121 59 130 14 9 158 11 181 2 9 -3 16 -12 16 -19 0 -11 26
-37 136 -132 37 -33 37 -33 31 -93 -8 -70 22 -178 80 -294 l35 -69 -21 -26
c-53 -66 -54 -67 -37 -100 9 -16 16 -34 16 -38 0 -5 -21 -21 -46 -36 -44 -27
-46 -29 -29 -47 25 -27 96 -39 295 -50 169 -10 295 -27 354 -50 15 -6 48 -24
72 -42 l43 -31 56 18 c37 11 68 15 92 10 20 -3 91 -10 157 -14 114 -8 122 -7
143 12 21 19 24 19 40 4 10 -8 30 -20 45 -26 27 -10 46 -55 62 -151 10 -58 48
-115 76 -115 70 -2 113 -18 154 -59 22 -23 58 -54 79 -69 20 -16 47 -49 60
-74 30 -63 48 -73 92 -49 l35 19 40 -28 c22 -15 40 -29 40 -31 0 -2 -9 -18
-20 -36 -11 -18 -20 -50 -20 -71 0 -21 -7 -52 -16 -69 -15 -30 -15 -31 14 -62
16 -17 40 -51 52 -76 26 -51 46 -69 75 -70 36 0 63 28 99 105 20 41 41 75 48
75 7 0 21 -14 31 -31 21 -37 41 -35 114 11 52 34 192 90 221 90 12 0 24 -11
32 -30 21 -51 55 -80 95 -80 45 0 92 23 100 51 8 23 -29 133 -53 162 -8 9 -33
22 -55 28 -35 9 -39 13 -34 37 3 15 17 56 33 92 21 51 28 81 28 140 1 115 -16
160 -93 244 -64 68 -82 99 -96 159 -4 19 -15 31 -34 38 -22 8 -42 34 -86 111
-64 113 -65 121 -27 263 24 90 43 125 86 163 28 25 47 32 101 37 60 7 68 5 86
-14 11 -11 30 -21 43 -21 42 0 98 -86 110 -172 5 -31 18 -61 41 -90 19 -24 35
-53 35 -65 0 -13 8 -24 20 -28 11 -3 36 -26 56 -51 20 -24 43 -44 51 -44 8 0
43 23 76 51 l62 51 63 -5 64 -6 -6 34 c-5 27 -4 35 7 35 26 0 27 -41 2 -89
-35 -65 -42 -109 -20 -117 12 -5 32 8 69 45 29 28 55 48 59 45 14 -15 6 -42
-24 -80 -34 -43 -33 -64 7 -123 27 -39 27 -38 -35 -73 -31 -17 -31 -18 -25
-75 3 -32 13 -82 22 -112 l16 -54 -37 -31 c-56 -47 -45 -73 18 -44 25 11 29 8
80 -44 29 -31 67 -64 84 -73 30 -15 32 -15 56 9 42 42 28 119 -30 164 -32 26
-32 40 5 88 16 21 30 51 30 66 0 14 -21 66 -46 115 l-46 88 7 130 c6 109 4
138 -9 169 -9 21 -16 44 -16 51 0 7 27 22 59 34 46 17 69 33 106 76 39 46 52
55 80 55 19 0 37 -5 40 -10 4 -6 -1 -34 -11 -61 -18 -50 -18 -51 1 -65 40 -29
64 -16 84 48 7 21 17 40 22 44 14 8 117 -74 151 -120 15 -21 28 -47 28 -58 0
-26 53 -140 73 -157 24 -20 61 -17 95 8 17 11 33 21 37 21 3 0 17 -24 30 -53
31 -69 75 -112 109 -103 22 5 25 3 28 -26 4 -40 28 -48 57 -19 27 27 27 34 -8
74 -33 36 -59 143 -48 189 9 35 95 163 151 225 32 36 60 56 86 63 42 11 50 24
50 76 0 44 27 58 48 26 8 -12 18 -22 23 -22 4 0 33 24 64 54 45 43 56 58 50
75 -6 19 -19 25 -70 33 -11 2 -21 12 -23 22 -4 17 0 18 36 13 36 -6 42 -4 82
35 l43 42 17 -22 c35 -43 50 -20 50 78 0 49 13 92 23 80 2 -3 9 -36 16 -75 15
-83 46 -145 74 -145 18 0 19 5 14 49 -4 32 -1 55 7 66 12 16 21 11 102 -52
110 -87 119 -91 176 -91 25 0 55 -5 66 -11 37 -20 53 -12 124 57 89 85 102
110 101 192 0 77 -14 113 -88 229 -80 127 -72 188 30 227 54 20 107 14 150
-18 25 -19 43 -23 104 -23 74 0 75 0 98 -34 22 -33 30 -86 15 -106 -4 -6 -20
-18 -35 -28 -41 -26 -55 -62 -33 -86 18 -20 61 -32 83 -24 11 4 13 18 8 58 -9
67 3 75 108 75 80 0 88 4 104 55 6 19 22 36 42 46 52 25 81 81 81 158 l0 64
41 -52 c45 -57 66 -71 102 -71 24 0 57 27 57 47 0 22 -55 58 -127 83 -63 21
-82 32 -101 60 -31 47 -25 73 41 168 l52 77 65 -3 c55 -3 68 0 88 18 30 28 28
39 -13 93 -31 40 -41 46 -82 52 -108 13 -163 72 -163 177 0 45 5 62 23 84 24
27 33 28 70 2 15 -11 20 -10 28 5 10 16 12 16 40 -8 33 -27 83 -31 179 -17 42
7 45 9 42 35 -2 21 5 36 28 57 39 36 40 87 4 185 -45 121 -49 142 -35 159 20
23 48 19 67 -9 9 -14 25 -25 36 -25 21 0 21 6 3 82 -6 22 -1 33 23 58 36 36
50 38 54 8 3 -20 9 -23 46 -23 26 -1 47 -6 52 -15 11 -18 3 -31 -18 -29 -33 3
-40 -2 -63 -45 -23 -43 -23 -46 -6 -80 18 -40 86 -90 114 -84 15 3 18 12 15
62 -4 52 -2 57 15 53 10 -3 39 -9 66 -13 26 -3 50 -10 53 -15 8 -14 -22 -64
-59 -96 -21 -18 -59 -36 -103 -47 -38 -10 -77 -26 -86 -34 -27 -23 -23 -75 8
-112 l27 -31 -30 -42 c-34 -50 -59 -58 -72 -25 -14 37 -38 53 -56 38 -8 -7
-15 -21 -15 -30 0 -20 39 -55 71 -65 10 -4 22 -20 27 -38 6 -26 25 -44 96 -91
56 -37 100 -59 120 -60 31 -1 31 -1 34 53 2 30 1 66 -3 78 -5 22 -11 24 -56
22 -56 -3 -69 7 -69 55 0 19 11 39 36 64 l37 37 48 -53 c27 -29 53 -51 58 -47
5 3 7 21 4 39 -4 29 -2 36 18 46 13 7 32 19 42 28 16 15 16 16 -3 34 -16 15
-18 23 -9 40 8 15 8 32 -2 66 -12 43 -11 46 10 64 27 21 67 24 74 6 2 -7 0
-23 -4 -35 -5 -14 -3 -35 6 -57 8 -20 15 -44 15 -54 0 -39 47 -69 142 -91 49
-12 94 -19 99 -15 5 3 9 45 9 94 0 81 -2 91 -26 119 -14 17 -47 43 -73 58 -71
41 -81 52 -81 94 0 35 -3 39 -37 48 -21 6 -45 11 -54 11 -9 0 -27 9 -40 19
l-24 19 25 10 c14 5 54 21 89 36 76 31 84 26 75 -46 -6 -47 -6 -48 19 -48 16
0 37 -11 52 -28 24 -25 27 -26 36 -9 6 9 25 23 43 31 32 13 33 14 28 68 -2 31
0 64 6 74 5 10 7 25 5 32 -7 18 -57 42 -90 42 -32 0 -76 25 -115 65 -32 32
-35 51 -11 77 16 18 17 17 33 -24 15 -41 17 -43 65 -49 28 -3 57 -9 67 -13 9
-4 29 -1 46 8 28 15 30 14 58 -16 16 -16 57 -44 90 -60 68 -33 104 -61 104
-83 0 -8 -7 -30 -16 -48 -16 -33 -15 -37 17 -117 47 -119 95 -154 273 -201 33
-8 62 -25 88 -51 82 -82 77 -37 -14 132 -54 98 -85 143 -116 169 -24 20 -60
50 -80 67 l-35 31 51 38 c30 23 61 58 77 87 21 39 31 48 53 48 15 0 34 5 42
10 13 8 10 14 -16 38 -34 31 -50 78 -39 113 4 12 25 49 46 82 22 33 39 72 39
87 0 40 -35 78 -83 90 -73 19 -77 21 -87 41 -9 16 -6 22 24 40 19 11 38 30 42
41 8 27 -6 198 -17 198 -5 0 -25 -33 -44 -73 -49 -99 -54 -103 -96 -82 -49 25
-89 55 -89 66 0 25 42 49 84 49 25 0 57 5 71 10 29 11 29 33 -1 39 -10 2 -29
7 -41 12 l-23 8 24 35 c42 63 42 150 -2 182 -12 9 -10 13 12 27 28 19 34 45
14 65 -29 29 -86 -8 -75 -49 5 -19 3 -21 -26 -14 -86 18 -105 18 -133 -4 -15
-11 -33 -21 -41 -21 -7 0 -29 -16 -48 -35 -58 -57 -154 -62 -99 -4 22 23 25
31 15 43 -18 21 13 36 52 25 39 -11 50 -3 44 31 -4 16 0 36 9 49 14 19 21 21
66 15 l51 -7 -7 49 c-6 44 -13 55 -69 107 -92 87 -123 109 -180 128 -68 23
-77 38 -52 85 16 30 17 39 6 56 -15 25 -13 27 35 35 50 8 57 13 88 77 36 73
68 87 131 56 25 -12 53 -33 64 -46 14 -17 29 -24 55 -24 51 0 57 23 15 66 -29
30 -30 34 -13 34 42 0 61 53 24 65 -38 12 -15 35 34 35 13 0 44 16 70 36 25
21 48 35 51 32 3 -2 -11 -37 -30 -77 -43 -89 -53 -142 -32 -159 13 -11 20 -7
41 21 37 49 78 154 79 205 l0 42 65 0 c48 0 83 -8 139 -30 75 -30 103 -29 91
2 -3 7 -45 34 -94 60 -49 26 -101 59 -116 75 -30 31 -52 109 -42 148 11 45 -3
72 -40 79 -19 4 -54 25 -80 47 -51 46 -61 79 -22 79 27 0 63 38 73 78 6 25 2
31 -43 58 -16 9 -15 13 9 49 14 21 24 42 21 47 -3 4 -44 8 -92 8 -135 -1 -191
-37 -246 -159 -19 -41 -19 -41 2 -64 29 -31 28 -61 -2 -81 -14 -8 -36 -27 -50
-41 -14 -14 -30 -25 -36 -25 -5 0 -10 -9 -10 -20 0 -21 -24 -27 -50 -10 -12 7
-13 18 -3 64 9 43 9 69 0 111 -11 52 -10 56 11 71 31 21 28 41 -10 64 -52 31
-103 35 -138 10 -16 -12 -34 -18 -40 -15 -15 10 -12 41 7 56 33 28 96 122 96
145 0 31 -24 66 -56 83 -41 22 -57 9 -57 -48 0 -40 -3 -49 -15 -46 -49 16 -48
14 -20 37 l27 21 -26 14 c-23 12 -32 11 -73 -6 -27 -11 -57 -19 -68 -18 -15 1
-20 -4 -20 -23 0 -24 3 -25 48 -22 l48 4 -16 -32 c-9 -17 -27 -36 -41 -42 -21
-10 -28 -8 -49 12 -35 33 -38 51 -16 100 23 52 18 72 -15 64 -19 -5 -26 -1
-34 21 -15 39 -12 55 10 55 30 0 24 26 -15 61 -44 40 -44 56 -1 74 23 10 36
23 38 37 3 21 9 23 66 26 l62 3 0 -51 c0 -31 8 -66 20 -90 12 -24 16 -41 10
-45 -22 -13 -9 -27 19 -22 19 4 33 1 41 -8 16 -19 103 -45 152 -45 26 0 44 -6
55 -20 23 -27 36 -25 29 4 -5 20 -1 25 19 30 14 4 43 22 64 41 29 26 40 32 49
23 9 -9 16 -8 29 5 15 15 16 20 4 39 -12 19 -11 23 5 35 75 55 80 75 30 130
-18 21 -43 57 -55 80 -15 31 -36 51 -74 73 -65 38 -166 70 -221 70 -48 0 -56
5 -76 45 -25 47 -60 45 -104 -6 -28 -33 -39 -40 -48 -31 -20 20 -26 14 -42
-42 -27 -91 -60 -106 -90 -41 -19 39 -20 54 -6 91 l11 27 24 -23 c27 -25 46
-20 38 10 -3 12 2 29 12 40 9 10 14 23 11 28 -3 5 6 19 19 32 18 17 31 21 55
17 16 -4 41 -2 55 3 22 8 25 16 25 54 0 37 6 53 32 83 45 52 49 54 86 48 18
-3 53 -3 79 1 39 6 47 11 59 40 15 36 31 44 40 20 7 -18 56 -36 96 -36 39 0
81 25 102 61 21 35 15 58 -26 105 -32 37 -70 44 -124 24 -37 -14 -49 0 -47 54
1 45 17 82 61 149 l25 37 18 -30 c34 -56 98 -34 119 40 12 42 -3 64 -38 55
-70 -17 -86 50 -29 125 78 104 77 102 77 164 0 55 5 68 51 143 36 59 49 89 44
103 -4 12 -10 68 -14 126 -7 95 -10 107 -35 133 -18 18 -30 44 -33 70 -5 36
-2 46 22 71 l29 30 -42 38 -42 39 30 59 c22 43 33 83 40 149 22 203 12 230
-74 198 -43 -16 -48 -16 -74 -1 -16 9 -62 21 -103 26 -80 10 -122 27 -153 61
-16 18 -17 24 -6 52 12 28 12 33 -5 45 -10 8 -27 14 -37 14 -23 0 -23 10 4 64
19 39 20 50 10 83 -6 21 -14 50 -17 66 -5 24 -10 27 -45 27 -31 0 -51 -10
-103 -49 l-65 -50 -124 -7 c-123 -7 -123 -7 -148 19 -14 14 -34 50 -45 79
l-21 53 -51 3 c-40 2 -63 -3 -102 -23 -32 -16 -67 -25 -97 -25 -36 0 -54 -6
-84 -30 -21 -16 -47 -30 -59 -30 -11 0 -36 14 -54 30 -19 17 -41 30 -50 30 -8
0 -27 -24 -42 -54 -15 -30 -44 -70 -64 -89 -35 -35 -127 -87 -151 -87 -13 0
-11 36 6 117 5 26 1 36 -20 58 -21 21 -29 24 -46 15 -27 -15 -50 -62 -50 -104
0 -25 9 -45 30 -69 17 -19 30 -37 30 -39 0 -11 -249 -158 -268 -158 -11 0 -34
-11 -50 -25 -30 -25 -41 -47 -61 -122 -7 -24 -15 -43 -20 -43 -4 0 -20 14 -36
30 -46 48 -95 36 -95 -22 0 -18 -10 -39 -25 -54 -14 -14 -28 -39 -32 -55 -3
-16 -8 -29 -12 -29 -3 0 -24 37 -46 83 -22 45 -47 83 -56 85 -8 1 -45 -27 -82
-63 -36 -36 -70 -65 -75 -65 -6 0 -29 9 -53 20 -88 40 -129 21 -105 -48 14
-38 13 -43 -5 -66 -33 -42 0 -66 36 -26 25 28 31 26 60 -20 14 -22 29 -40 34
-40 4 0 13 12 20 27 l12 26 44 -47 43 -48 66 7 65 7 20 -33 c37 -60 22 -95
-31 -75 -27 10 -37 7 -98 -26 l-68 -37 -16 24 c-9 14 -23 25 -31 25 -18 0 -35
-39 -35 -80 0 -31 -83 -137 -121 -154 -12 -6 -19 -19 -19 -37 0 -26 -22 -59
-39 -59 -13 0 -31 24 -31 42 0 9 16 30 35 45 25 20 41 45 55 89 18 55 25 63
61 80 39 17 41 20 35 53 -6 40 -36 69 -79 78 -19 4 -37 19 -53 44 -27 43 -33
45 -73 24 -20 -10 -30 -24 -34 -47 -9 -49 -76 -168 -102 -180 -28 -12 -78 8
-83 34 -5 25 28 69 63 84 18 7 39 28 50 48 19 34 19 37 2 66 -14 22 -15 34 -7
49 21 40 12 59 -51 101 -72 50 -76 73 -12 78 38 3 49 10 100 68 80 90 80 90
52 141 l-24 44 25 20 c14 10 33 26 43 36 22 21 23 0 2 -37 -18 -32 -18 -40 0
-40 8 0 15 -8 15 -19 0 -22 48 -35 83 -22 33 13 48 35 54 80 4 31 1 46 -16 67
-11 15 -21 30 -21 34 0 11 77 60 84 53 3 -4 6 -29 7 -57 1 -102 14 -147 52
-182 48 -44 100 -54 147 -27 50 30 91 84 97 131 5 39 6 40 54 45 63 8 105 31
129 70 30 49 36 95 15 129 -9 16 -15 31 -13 34 12 11 70 -21 94 -53 14 -19 30
-31 34 -26 5 4 0 46 -11 93 -23 105 -23 103 1 95 11 -3 39 2 63 13 23 10 67
25 97 32 30 7 86 26 124 43 91 41 98 36 148 -98 14 -36 29 -60 38 -60 8 0 27
25 42 58 31 63 42 67 113 42 22 -8 56 -15 75 -15 42 0 136 38 191 76 61 42
132 158 169 277 18 56 59 182 91 281 49 147 60 192 61 253 1 58 -2 77 -15 91
-17 16 -21 16 -80 -7 -102 -39 -112 -38 -139 3 -13 20 -32 39 -44 42 -11 3
-78 -9 -149 -26 -71 -17 -135 -28 -142 -26 -9 4 -13 27 -13 70 0 70 -9 86 -34
60z"/>
<path d="M6652 11610 c-46 -28 -65 -75 -46 -112 20 -40 87 -80 132 -82 34 -1
39 2 60 44 29 59 28 101 -4 139 -21 26 -33 31 -67 31 -24 0 -56 -9 -75 -20z"/>
<path d="M6032 11596 c1 -10 8 -17 13 -17 15 1 12 24 -3 29 -9 3 -13 -2 -10
-12z"/>
<path d="M8418 11576 c-6 -15 -8 -29 -5 -32 12 -12 37 5 37 25 0 31 -19 35
-32 7z"/>
<path d="M5980 11544 c0 -8 5 -12 10 -9 6 3 10 10 10 16 0 5 -4 9 -10 9 -5 0
-10 -7 -10 -16z"/>
<path d="M9170 11546 c0 -18 17 -29 30 -21 8 5 7 11 -1 21 -15 18 -29 18 -29
0z"/>
<path d="M7270 11474 c-61 -19 -90 -53 -90 -109 0 -77 40 -142 105 -170 35
-15 63 -4 107 42 40 42 51 78 34 111 -7 15 -16 39 -20 54 -8 35 -54 88 -74 87
-10 -1 -37 -7 -62 -15z"/>
<path d="M6372 11457 c-12 -13 -22 -35 -22 -50 0 -25 -31 -57 -56 -57 -6 0
-28 14 -49 30 -51 41 -77 38 -126 -11 -31 -31 -43 -38 -49 -28 -14 21 -42 -8
-30 -31 7 -14 2 -26 -24 -54 -19 -19 -40 -53 -46 -73 -7 -21 -23 -57 -36 -80
-16 -27 -23 -52 -19 -68 3 -14 7 -36 10 -49 3 -13 20 -42 39 -65 19 -23 40
-58 46 -79 18 -55 25 -58 68 -29 46 32 57 33 113 7 24 -11 54 -20 65 -20 21 0
81 57 115 109 13 21 19 23 45 14 67 -23 143 32 151 111 7 56 -12 89 -64 114
-28 13 -47 34 -75 85 -36 63 -37 69 -24 95 8 15 15 54 17 87 5 69 -11 82 -49
42z"/>
<path d="M9034 11463 c-43 -35 -58 -99 -30 -122 19 -16 44 -3 80 40 36 42 33
93 -4 97 -14 1 -35 -6 -46 -15z"/>
<path d="M8942 11378 c-16 -16 -15 -38 2 -38 15 0 29 37 17 45 -4 2 -13 -1
-19 -7z"/>
<path d="M8117 11352 c-10 -11 -17 -35 -17 -60 0 -52 21 -67 63 -45 26 13 28
18 22 51 -13 71 -36 89 -68 54z"/>
<path d="M6600 11315 c0 -8 5 -15 10 -15 6 0 10 7 10 15 0 8 -4 15 -10 15 -5
0 -10 -7 -10 -15z"/>
<path d="M1280 11300 c0 -5 5 -10 10 -10 6 0 10 5 10 10 0 6 -4 10 -10 10 -5
0 -10 -4 -10 -10z"/>
<path d="M5030 11285 c-18 -22 -4 -64 25 -71 47 -12 59 16 24 60 -24 30 -32
32 -49 11z"/>
<path d="M10140 11270 c0 -5 6 -10 14 -10 8 0 18 5 21 10 3 6 -3 10 -14 10
-12 0 -21 -4 -21 -10z"/>
<path d="M6925 11260 c-8 -13 15 -24 27 -12 6 6 4 11 -6 15 -8 3 -18 2 -21 -3z"/>
<path d="M5868 11231 c-32 -30 -34 -43 -14 -60 12 -10 18 -8 30 11 18 29 31
78 20 77 -5 -1 -21 -13 -36 -28z"/>
<path d="M8597 11254 c-8 -8 1 -24 14 -24 5 0 9 7 9 15 0 15 -12 20 -23 9z"/>
<path d="M7020 11235 c0 -9 5 -15 11 -13 6 2 11 8 11 13 0 5 -5 11 -11 13 -6
2 -11 -4 -11 -13z"/>
<path d="M10261 11215 c-25 -42 -12 -54 25 -22 18 16 25 30 21 40 -10 26 -23
20 -46 -18z"/>
<path d="M5236 11191 c-4 -5 -2 -12 3 -15 5 -4 12 -2 15 3 4 5 2 12 -3 15 -5
4 -12 2 -15 -3z"/>
<path d="M5700 11160 c0 -13 5 -20 13 -17 6 2 12 10 12 17 0 7 -6 15 -12 18
-8 2 -13 -5 -13 -18z"/>
<path d="M6713 11168 c-24 -11 -31 -28 -12 -28 17 0 49 20 49 30 0 12 -9 12
-37 -2z"/>
<path d="M8676 11158 c-21 -30 -7 -47 16 -19 10 13 18 27 18 32 0 16 -19 9
-34 -13z"/>
<path d="M6985 11140 c-15 -16 -16 -28 -9 -77 l9 -58 40 -3 c22 -1 54 -10 71
-19 27 -14 37 -14 62 -4 37 16 63 43 54 57 -4 5 -30 24 -58 41 -44 27 -53 29
-69 17 -23 -17 -32 -11 -50 32 -16 39 -25 42 -50 14z"/>
<path d="M8003 11125 c-12 -8 -25 -30 -28 -48 -10 -43 -22 -57 -54 -57 -39 0
-51 -17 -51 -72 0 -35 6 -54 20 -68 25 -25 74 -26 99 -1 26 26 69 102 92 160
18 49 18 50 -2 75 -23 30 -45 33 -76 11z"/>
<path d="M6775 11100 c-3 -5 1 -10 9 -10 9 0 16 5 16 10 0 6 -4 10 -9 10 -6 0
-13 -4 -16 -10z"/>
<path d="M7265 11100 c-3 -5 1 -10 10 -10 9 0 13 5 10 10 -3 6 -8 10 -10 10
-2 0 -7 -4 -10 -10z"/>
<path d="M5234 11079 c-47 -52 -2 -222 77 -294 50 -45 115 -50 177 -14 42 24
42 24 42 -7 0 -19 5 -25 17 -22 23 4 29 35 10 56 -8 9 -17 41 -20 71 -11 98
-73 172 -177 212 -65 25 -102 24 -126 -2z"/>
<path d="M7667 11094 c-10 -11 -8 -44 2 -44 6 0 13 4 16 10 8 12 -9 43 -18 34z"/>
<path d="M8691 11082 c-12 -22 -6 -32 21 -32 14 0 19 6 16 22 -4 29 -24 34
-37 10z"/>
<path d="M5790 11055 c0 -8 5 -15 10 -15 6 0 10 7 10 15 0 8 -4 15 -10 15 -5
0 -10 -7 -10 -15z"/>
<path d="M1315 11050 c-17 -28 45 -74 69 -50 8 9 4 17 -17 36 -30 26 -42 29
-52 14z"/>
<path d="M5615 11010 c-4 -6 -3 -16 3 -22 6 -6 12 -6 17 2 4 6 3 16 -3 22 -6
6 -12 6 -17 -2z"/>
<path d="M4896 10979 c-33 -26 -33 -43 -1 -57 46 -21 62 -15 69 23 4 20 4 40
1 45 -10 16 -41 11 -69 -11z"/>
<path d="M916 10961 c-4 -5 -2 -12 3 -15 5 -4 12 -2 15 3 4 5 2 12 -3 15 -5 4
-12 2 -15 -3z"/>
<path d="M5722 10953 c1 -10 -6 -31 -17 -47 -23 -35 -33 -139 -15 -161 19 -23
46 -18 69 11 30 39 29 135 -1 181 -25 36 -41 43 -36 16z"/>
<path d="M7390 10930 c-6 -12 -9 -29 -5 -38 5 -13 8 -14 20 -1 18 19 23 51 8
56 -6 2 -17 -5 -23 -17z"/>
<path d="M1036 10914 c-4 -10 -2 -22 3 -27 15 -15 46 -3 46 18 0 26 -40 33
-49 9z"/>
<path d="M6980 10889 c0 -29 -9 -53 -30 -84 -35 -51 -36 -60 -10 -100 11 -16
17 -38 14 -47 -10 -33 22 -19 65 27 52 56 57 91 19 132 -12 12 -23 41 -25 67
-7 60 -33 64 -33 5z"/>
<path d="M5046 10901 c-27 -30 -13 -94 32 -143 l35 -39 29 28 c16 15 39 43 50
61 19 31 19 34 3 58 -32 49 -118 69 -149 35z"/>
<path d="M7800 10890 c0 -5 5 -10 10 -10 6 0 10 5 10 10 0 6 -4 10 -10 10 -5
0 -10 -4 -10 -10z"/>
<path d="M2015 10879 c-10 -15 3 -25 16 -12 7 7 7 13 1 17 -6 3 -14 1 -17 -5z"/>
<path d="M565 10855 c-46 -45 -25 -95 39 -95 21 0 26 5 26 25 0 27 -25 95 -35
95 -3 0 -17 -11 -30 -25z"/>
<path d="M6681 10856 c-13 -15 -6 -42 19 -71 10 -12 20 -46 24 -83 13 -120 36
-138 101 -81 l36 32 -6 71 c-7 74 -21 126 -36 126 -5 0 -24 -13 -42 -30 -42
-36 -47 -37 -47 -6 0 14 -7 32 -16 40 -19 19 -19 19 -33 2z"/>
<path d="M7070 10846 c0 -17 27 -29 35 -16 4 6 3 15 0 20 -9 15 -35 12 -35 -4z"/>
<path d="M7210 10840 c0 -5 7 -10 16 -10 8 0 12 5 9 10 -3 6 -10 10 -16 10 -5
0 -9 -4 -9 -10z"/>
<path d="M4856 10801 c-24 -27 -27 -84 -4 -89 9 -2 26 6 37 17 18 18 20 32 12
84 -2 14 -28 7 -45 -12z"/>
<path d="M6427 10802 c-9 -10 -17 -24 -17 -30 0 -20 29 -13 41 9 15 29 -3 45
-24 21z"/>
<path d="M1787 10803 c-27 -26 26 -113 68 -113 44 0 47 50 6 91 -28 27 -60 37
-74 22z"/>
<path d="M4386 10781 c-11 -12 -16 -24 -12 -28 9 -9 39 22 34 37 -2 7 -10 4
-22 -9z"/>
<path d="M5256 10751 c-30 -33 -17 -63 35 -81 l45 -17 -1 45 c-3 65 -44 92
-79 53z"/>
<path d="M6500 10750 c0 -5 4 -10 9 -10 6 0 13 5 16 10 3 6 -1 10 -9 10 -9 0
-16 -4 -16 -10z"/>
<path d="M7440 10724 c-34 -40 -38 -79 -8 -98 28 -17 51 15 58 79 7 66 -4 71
-50 19z"/>
<path d="M1995 10731 c-6 -21 8 -66 25 -76 7 -4 21 2 32 12 19 19 19 22 4 52
-18 35 -51 42 -61 12z"/>
<path d="M9916 10725 c-20 -31 -25 -66 -9 -72 6 -2 23 13 37 33 19 28 23 41
14 51 -15 19 -24 16 -42 -12z"/>
<path d="M5005 10730 c-12 -20 -18 -117 -7 -124 27 -17 66 79 45 113 -12 20
-29 25 -38 11z"/>
<path d="M7626 10710 c-34 -30 -66 -101 -66 -145 0 -32 36 -62 58 -49 22 14
80 109 94 156 21 70 -26 90 -86 38z"/>
<path d="M7805 10719 c-8 -12 23 -49 42 -49 7 0 13 8 13 18 0 33 -40 56 -55
31z"/>
<path d="M10245 10704 c-25 -27 -30 -49 -19 -78 8 -20 27 -20 64 -1 24 12 30
22 30 48 0 60 -35 74 -75 31z"/>
<path d="M7096 10698 c-3 -13 -6 -46 -6 -75 0 -87 33 -132 71 -97 27 24 24 71
-8 134 -31 61 -48 72 -57 38z"/>
<path d="M6640 10694 c0 -8 5 -12 10 -9 6 3 10 10 10 16 0 5 -4 9 -10 9 -5 0
-10 -7 -10 -16z"/>
<path d="M4046 10681 c-4 -5 -2 -12 3 -15 5 -4 12 -2 15 3 4 5 2 12 -3 15 -5
4 -12 2 -15 -3z"/>
<path d="M4252 10678 c5 -15 28 -18 29 -3 0 6 -7 12 -17 13 -10 3 -15 -1 -12
-10z"/>
<path d="M6274 10679 c-3 -6 -1 -16 4 -21 13 -13 45 8 36 23 -7 12 -31 11 -40
-2z"/>
<path d="M5067 10674 c-8 -8 1 -24 14 -24 5 0 9 7 9 15 0 15 -12 20 -23 9z"/>
<path d="M6662 10658 c-16 -16 -15 -38 1 -38 17 0 37 20 37 37 0 16 -22 17
-38 1z"/>
<path d="M7025 10640 c-4 -6 -3 -16 3 -22 6 -6 12 -6 17 2 4 6 3 16 -3 22 -6
6 -12 6 -17 -2z"/>
<path d="M2550 10629 c0 -5 5 -7 10 -4 6 3 10 8 10 11 0 2 -4 4 -10 4 -5 0
-10 -5 -10 -11z"/>
<path d="M5370 10630 c0 -5 5 -10 10 -10 6 0 10 5 10 10 0 6 -4 10 -10 10 -5
0 -10 -4 -10 -10z"/>
<path d="M7827 10620 c-7 -27 16 -45 33 -25 15 18 6 45 -14 45 -7 0 -16 -9
-19 -20z"/>
<path d="M1194 10619 c-10 -16 22 -43 41 -35 9 3 15 11 13 18 -6 16 -46 29
-54 17z"/>
<path d="M2592 10614 c-29 -20 -28 -42 2 -50 30 -7 46 1 46 25 0 31 -23 43
-48 25z"/>
<path d="M5745 10620 c-8 -13 4 -32 16 -25 12 8 12 35 0 35 -6 0 -13 -4 -16
-10z"/>
<path d="M7233 10615 c-12 -9 -31 -44 -44 -82 -12 -38 -35 -96 -51 -131 -18
-37 -28 -72 -24 -84 3 -14 -1 -26 -12 -34 -16 -11 -15 -14 7 -37 29 -31 20
-47 -25 -47 -27 0 -37 -5 -46 -26 -26 -57 35 -86 72 -34 22 31 22 31 44 12 31
-28 62 -43 79 -36 17 6 42 62 52 116 6 29 2 40 -19 63 -14 15 -26 31 -26 35 0
3 16 25 36 49 58 67 83 174 44 186 -13 4 -23 18 -27 36 -6 33 -27 37 -60 14z"/>
<path d="M4490 10605 c0 -8 5 -15 10 -15 6 0 10 7 10 15 0 8 -4 15 -10 15 -5
0 -10 -7 -10 -15z"/>
<path d="M7505 10610 c-11 -17 5 -32 21 -19 8 6 14 15 14 20 0 12 -27 11 -35
-1z"/>
<path d="M6920 10589 c0 -5 5 -7 10 -4 6 3 10 8 10 11 0 2 -4 4 -10 4 -5 0
-10 -5 -10 -11z"/>
<path d="M6572 10558 c-7 -7 -12 -18 -12 -25 0 -18 29 -16 37 3 8 21 -10 37
-25 22z"/>
<path d="M7417 10549 c-17 -24 -12 -49 9 -49 8 0 14 -9 14 -20 0 -11 7 -20 15
-20 16 0 20 12 8 24 -5 4 -8 24 -8 43 0 43 -17 53 -38 22z"/>
<path d="M10100 10560 c0 -5 7 -10 15 -10 8 0 15 5 15 10 0 6 -7 10 -15 10 -8
0 -15 -4 -15 -10z"/>
<path d="M6100 10540 c0 -5 5 -10 10 -10 6 0 10 5 10 10 0 6 -4 10 -10 10 -5
0 -10 -4 -10 -10z"/>
<path d="M6460 10511 c-15 -28 21 -71 47 -55 24 15 27 38 8 58 -22 21 -42 20
-55 -3z"/>
<path d="M2285 10511 c-3 -5 -1 -12 5 -16 12 -7 30 2 30 16 0 12 -27 12 -35 0z"/>
<path d="M5390 10500 c0 -15 5 -20 18 -18 9 2 17 10 17 18 0 8 -8 16 -17 18
-13 2 -18 -3 -18 -18z"/>
<path d="M6332 10504 c-25 -18 -30 -62 -7 -71 23 -8 56 27 53 56 -4 31 -17 35
-46 15z"/>
<path d="M7077 10514 c-11 -11 3 -24 18 -18 8 4 12 10 9 15 -6 11 -18 12 -27
3z"/>
<path d="M7695 10500 c-10 -30 5 -47 22 -25 7 11 13 25 13 32 0 21 -28 15 -35
-7z"/>
<path d="M1940 10494 c0 -8 5 -12 10 -9 6 3 10 10 10 16 0 5 -4 9 -10 9 -5 0
-10 -7 -10 -16z"/>
<path d="M5497 10482 c-15 -16 -27 -31 -27 -35 0 -13 49 -7 64 9 19 19 20 28
3 43 -10 8 -20 4 -40 -17z"/>
<path d="M5830 10502 c0 -15 60 -100 108 -154 115 -127 218 -151 128 -29 -38
50 -136 148 -176 175 -26 17 -60 22 -60 8z"/>
<path d="M1976 10493 c-11 -11 -6 -23 9 -23 8 0 15 4 15 9 0 13 -16 22 -24 14z"/>
<path d="M11027 10486 c-7 -16 1 -26 20 -26 7 0 13 9 13 20 0 23 -25 27 -33 6z"/>
<path d="M2846 10481 c-10 -15 4 -40 25 -46 29 -9 51 12 38 36 -10 20 -53 26
-63 10z"/>
<path d="M5603 10474 c-8 -22 15 -44 26 -25 10 16 4 41 -10 41 -5 0 -12 -7
-16 -16z"/>
<path d="M1405 10456 c-26 -39 -16 -60 28 -64 44 -4 55 13 35 55 -17 37 -43
40 -63 9z"/>
<path d="M5200 10466 c0 -29 13 -46 35 -46 27 0 40 26 24 46 -15 18 -59 18
-59 0z"/>
<path d="M7630 10455 c0 -14 4 -25 9 -25 12 0 19 21 13 38 -8 21 -22 13 -22
-13z"/>
<path d="M2284 10456 c-4 -10 -17 -22 -30 -27 -31 -11 -30 -33 3 -59 34 -27
59 -22 55 10 -2 14 -4 37 -5 52 -3 34 -15 46 -23 24z"/>
<path d="M2775 10461 c-3 -5 -1 -12 5 -16 5 -3 10 1 10 9 0 18 -6 21 -15 7z"/>
<path d="M2424 10449 c-10 -17 13 -36 27 -22 12 12 4 33 -11 33 -5 0 -12 -5
-16 -11z"/>
<path d="M2495 10429 c-10 -15 3 -25 16 -12 7 7 7 13 1 17 -6 3 -14 1 -17 -5z"/>
<path d="M2580 10420 c0 -5 5 -10 10 -10 6 0 10 5 10 10 0 6 -4 10 -10 10 -5
0 -10 -4 -10 -10z"/>
<path d="M3003 10414 c-8 -23 12 -38 41 -30 39 10 36 46 -4 46 -19 0 -33 -6
-37 -16z"/>
<path d="M2807 10414 c-9 -10 2 -24 19 -24 8 0 14 7 14 15 0 15 -21 21 -33 9z"/>
<path d="M11255 10404 c-12 -12 -13 -19 -4 -30 6 -8 15 -14 19 -14 6 0 30 44
30 55 0 11 -30 4 -45 -11z"/>
<path d="M2667 10392 c-21 -23 -22 -75 -3 -91 24 -20 69 -9 85 21 14 25 14 29
-5 55 -26 34 -55 40 -77 15z"/>
<path d="M6245 10380 c-8 -13 3 -30 20 -30 14 0 27 24 18 34 -10 9 -31 7 -38
-4z"/>
<path d="M11066 10371 c-4 -5 -2 -12 3 -15 5 -4 12 -2 15 3 4 5 2 12 -3 15 -5
4 -12 2 -15 -3z"/>
<path d="M7040 10339 c-16 -38 -3 -56 29 -40 23 13 28 40 9 59 -18 18 -24 15
-38 -19z"/>
<path d="M2076 10351 c-4 -5 3 -15 15 -21 18 -10 20 -9 17 6 -4 20 -23 30 -32
15z"/>
<path d="M2467 10334 c-4 -4 -7 -16 -7 -26 0 -14 -8 -18 -34 -18 -39 0 -53
-14 -36 -35 19 -23 59 -18 97 11 30 23 46 64 24 64 -5 0 -16 2 -23 5 -8 3 -17
2 -21 -1z"/>
<path d="M6812 10328 c-27 -27 -8 -78 30 -78 19 0 32 35 26 67 -4 22 -38 29
-56 11z"/>
<path d="M6908 10316 c-6 -14 -8 -32 -5 -40 9 -22 34 -9 41 20 12 46 -17 61
-36 20z"/>
<path d="M2573 10293 c-12 -18 -19 -52 -21 -104 -4 -74 -3 -77 29 -113 26 -30
37 -36 57 -31 36 9 72 35 72 53 0 8 -22 41 -50 73 -44 51 -50 63 -50 103 0 52
-12 58 -37 19z"/>
<path d="M10940 10280 c0 -5 5 -10 10 -10 6 0 10 5 10 10 0 6 -4 10 -10 10 -5
0 -10 -4 -10 -10z"/>
<path d="M2827 10273 c-11 -10 -8 -51 4 -58 5 -4 19 1 30 11 18 16 18 18 3 36
-18 19 -27 22 -37 11z"/>
<path d="M992 10243 c2 -10 10 -18 18 -18 22 0 18 29 -3 33 -14 3 -18 -1 -15
-15z"/>
<path d="M3950 10220 c0 -11 4 -20 9 -20 11 0 22 26 14 34 -12 12 -23 5 -23
-14z"/>
<path d="M660 10210 c-11 -11 -20 -27 -20 -35 0 -18 35 -55 53 -55 18 0 43 21
50 42 7 20 -28 68 -49 68 -8 0 -23 -9 -34 -20z"/>
<path d="M3500 10220 c0 -5 5 -10 10 -10 6 0 10 5 10 10 0 6 -4 10 -10 10 -5
0 -10 -4 -10 -10z"/>
<path d="M4530 10204 c0 -22 2 -25 15 -14 8 7 15 19 15 26 0 8 -7 14 -15 14
-10 0 -15 -10 -15 -26z"/>
<path d="M5720 10216 c0 -9 5 -16 10 -16 6 0 10 4 10 9 0 6 -4 13 -10 16 -5 3
-10 -1 -10 -9z"/>
<path d="M5960 10221 c0 -5 6 -14 14 -20 16 -13 32 2 21 19 -8 12 -35 13 -35
1z"/>
<path d="M2335 10200 c-7 -23 1 -40 20 -40 16 0 23 18 17 43 -6 23 -29 22 -37
-3z"/>
<path d="M5241 10194 c-36 -46 -21 -144 24 -152 40 -8 57 59 34 141 -12 44
-30 47 -58 11z"/>
<path d="M8704 10206 c-9 -23 0 -51 16 -51 10 0 15 10 15 29 0 32 -21 47 -31
22z"/>
<path d="M920 10111 c-7 -13 -7 -22 0 -26 15 -9 30 4 30 26 0 25 -16 25 -30 0z"/>
<path d="M3368 10118 c-7 -19 2 -38 19 -38 9 0 13 8 11 22 -3 25 -23 35 -30
16z"/>
<path d="M3490 10111 c0 -21 28 -37 42 -23 14 14 -2 42 -23 42 -12 0 -19 -7
-19 -19z"/>
<path d="M7020 10085 c0 -8 5 -15 10 -15 6 0 10 7 10 15 0 8 -4 15 -10 15 -5
0 -10 -7 -10 -15z"/>
<path d="M2440 10071 c0 -13 26 -32 33 -24 8 7 -11 33 -24 33 -5 0 -9 -4 -9
-9z"/>
<path d="M1250 10005 c-18 -22 23 -65 62 -65 34 0 36 17 7 54 -23 29 -50 34
-69 11z"/>
<path d="M3359 10000 c-54 -29 -92 -77 -84 -109 6 -25 38 -61 55 -61 21 0 42
35 36 61 -10 49 30 69 72 36 9 -7 16 -7 20 -1 4 6 15 13 25 17 42 16 -2 77
-55 77 -18 -1 -49 -10 -69 -20z"/>
<path d="M2940 10001 c0 -5 6 -14 14 -20 16 -13 32 2 21 19 -8 12 -35 13 -35
1z"/>
<path d="M3539 9941 c15 -26 71 -52 92 -41 23 13 32 42 17 52 -7 4 -37 8 -66
8 -48 0 -52 -2 -43 -19z"/>
<path d="M3795 9950 c4 -6 11 -8 16 -5 14 9 11 15 -7 15 -8 0 -12 -5 -9 -10z"/>
<path d="M5400 9951 c0 -6 10 -17 22 -26 28 -19 40 1 12 22 -21 15 -34 17 -34
4z"/>
<path d="M1216 9941 c-4 -7 -5 -15 -2 -18 9 -9 19 4 14 18 -4 11 -6 11 -12 0z"/>
<path d="M3700 9929 c-21 -39 12 -68 39 -35 9 11 10 20 1 35 -14 27 -26 27
-40 0z"/>
<path d="M3806 9905 c-22 -22 -9 -47 23 -43 32 4 40 33 12 47 -15 8 -23 7 -35
-4z"/>
<path d="M6302 9904 c-28 -19 -29 -57 -2 -84 25 -25 52 -26 73 -2 24 27 21 58
-9 81 -32 25 -33 25 -62 5z"/>
<path d="M11197 9909 c-21 -12 -22 -52 -1 -73 19 -20 38 -20 54 -1 24 29 -20
92 -53 74z"/>
<path d="M1420 9885 c-23 -24 -23 -25 -5 -45 35 -39 84 -9 71 43 -8 34 -35 35
-66 2z"/>
<path d="M3514 9895 c-9 -23 10 -40 25 -22 9 11 8 17 -4 27 -12 10 -16 9 -21
-5z"/>
<path d="M4385 9891 c-3 -5 -1 -12 5 -16 12 -7 30 2 30 16 0 12 -27 12 -35 0z"/>
<path d="M1660 9880 c0 -5 4 -10 9 -10 6 0 13 5 16 10 3 6 -1 10 -9 10 -9 0
-16 -4 -16 -10z"/>
<path d="M3910 9855 c-13 -14 -32 -25 -42 -25 -26 0 -22 -26 10 -67 l27 -37
-25 8 c-14 5 -42 10 -62 13 -33 4 -39 2 -49 -21 -9 -20 -10 -35 -1 -62 6 -20
8 -43 5 -51 -9 -24 13 -30 75 -20 55 8 59 8 117 -27 32 -20 64 -41 69 -46 16
-16 28 -11 21 9 -6 21 22 42 78 55 16 4 33 17 39 32 11 23 9 29 -11 45 -17 14
-33 18 -55 14 -49 -9 -68 12 -77 85 -12 105 -68 150 -119 95z"/>
<path d="M1183 9863 c-18 -6 -16 -38 2 -53 20 -16 45 -6 45 19 0 22 -27 41
-47 34z"/>
<path d="M5198 9853 c-27 -31 -30 -60 -12 -99 19 -39 53 -60 80 -50 21 8 15
67 -12 123 -22 44 -35 50 -56 26z"/>
<path d="M1697 9824 c-4 -4 -7 -25 -7 -46 0 -31 3 -38 20 -38 15 0 20 7 20 28
0 31 -21 67 -33 56z"/>
<path d="M3684 9799 c-8 -14 4 -25 38 -33 33 -8 48 12 23 31 -23 16 -51 17
-61 2z"/>
<path d="M4100 9788 c-11 -12 -20 -28 -20 -35 0 -17 64 -45 94 -41 30 4 33 44
5 74 -28 30 -52 30 -79 2z"/>
<path d="M6074 9731 c-22 -10 -59 -30 -82 -45 -38 -24 -42 -30 -42 -67 0 -23
-7 -69 -16 -103 -49 -185 75 -376 228 -352 133 21 219 140 221 306 2 125 -47
226 -127 264 -45 21 -131 20 -182 -3z"/>
<path d="M3135 9720 c-9 -14 12 -48 35 -55 40 -13 54 19 22 48 -21 19 -48 22
-57 7z"/>
<path d="M4256 9703 c-7 -18 14 -37 27 -24 9 9 -1 41 -13 41 -4 0 -11 -8 -14
-17z"/>
<path d="M5728 9665 c-14 -31 8 -67 53 -91 70 -36 107 29 50 87 -38 38 -86 40
-103 4z"/>
<path d="M6896 9641 c-20 -22 -21 -45 -1 -61 21 -17 35 -4 35 35 0 41 -12 51
-34 26z"/>
<path d="M3500 9636 c0 -18 17 -29 30 -21 8 5 7 11 -1 21 -15 18 -29 18 -29 0z"/>
<path d="M6494 9595 c-3 -20 -4 -73 -2 -117 4 -68 8 -84 26 -99 12 -9 22 -26
22 -38 0 -31 12 -32 66 -7 60 28 71 41 80 92 6 39 4 41 -57 99 -35 32 -69 68
-74 79 -6 12 -20 22 -32 24 -18 3 -23 -3 -29 -33z"/>
<path d="M3725 9590 c-3 -5 -1 -10 4 -10 6 0 11 5 11 10 0 6 -2 10 -4 10 -3 0
-8 -4 -11 -10z"/>
<path d="M1576 9561 c-4 -5 -2 -12 3 -15 5 -4 12 -2 15 3 4 5 2 12 -3 15 -5 4
-12 2 -15 -3z"/>
<path d="M6880 9510 c-29 -29 -27 -94 5 -125 29 -30 37 -31 61 -4 38 42 15
149 -33 149 -7 0 -22 -9 -33 -20z"/>
<path d="M6727 9513 c-13 -12 -7 -33 8 -33 8 0 15 9 15 20 0 20 -11 26 -23 13z"/>
<path d="M11230 9500 c0 -5 4 -10 9 -10 6 0 13 5 16 10 3 6 -1 10 -9 10 -9 0
-16 -4 -16 -10z"/>
<path d="M5834 9485 c-4 -9 -2 -21 4 -27 15 -15 44 -1 40 19 -4 23 -36 29 -44
8z"/>
<path d="M4180 9455 c-14 -17 -5 -48 13 -43 14 5 23 58 9 58 -5 0 -15 -7 -22
-15z"/>
<path d="M7770 9450 c0 -5 7 -10 15 -10 8 0 15 5 15 10 0 6 -7 10 -15 10 -8 0
-15 -4 -15 -10z"/>
<path d="M6790 9434 c-9 -10 -10 -18 -2 -26 12 -12 32 -2 32 17 0 21 -16 26
-30 9z"/>
<path d="M3580 9425 c-44 -16 -51 -47 -16 -70 34 -22 72 -17 68 10 -2 11 -4
32 -3 48 0 30 1 30 -49 12z"/>
<path d="M455 9411 c-3 -5 -1 -12 4 -15 5 -3 11 1 15 9 6 16 -9 21 -19 6z"/>
<path d="M1475 9399 c-10 -15 25 -49 50 -49 34 0 50 24 30 44 -18 18 -70 22
-80 5z"/>
<path d="M5726 9391 c-5 -8 85 -91 98 -91 17 0 1 27 -36 61 -45 40 -54 44 -62
30z"/>
<path d="M4980 9365 c0 -9 5 -15 11 -13 6 2 11 8 11 13 0 5 -5 11 -11 13 -6 2
-11 -4 -11 -13z"/>
<path d="M4415 9340 c4 -6 11 -8 16 -5 14 9 11 15 -7 15 -8 0 -12 -5 -9 -10z"/>
<path d="M5128 9334 c-46 -25 -61 -79 -38 -138 14 -37 40 -33 99 14 44 35 51
45 51 75 0 57 -54 81 -112 49z"/>
<path d="M5662 9328 c-19 -19 -14 -42 13 -68 20 -19 30 -22 43 -14 37 23 21
94 -21 94 -13 0 -28 -5 -35 -12z"/>
<path d="M6492 9288 c2 -12 10 -23 18 -23 22 0 19 39 -3 43 -15 3 -18 -1 -15
-20z"/>
<path d="M626 9281 c-4 -5 -2 -12 3 -15 5 -4 12 -2 15 3 4 5 2 12 -3 15 -5 4
-12 2 -15 -3z"/>
<path d="M4370 9271 c-15 -29 5 -68 26 -50 8 6 14 19 14 29 0 10 -6 23 -14 29
-12 10 -17 8 -26 -8z"/>
<path d="M5469 9274 c-35 -10 -61 -29 -102 -74 -59 -63 -77 -105 -77 -177 0
-23 -8 -55 -17 -72 -18 -31 -12 -54 9 -33 22 22 47 13 66 -24 18 -35 18 -37 0
-72 -33 -65 -14 -120 24 -71 13 16 18 34 16 57 -5 42 17 56 72 47 31 -5 50 0
108 29 74 37 92 57 92 100 0 14 9 48 20 76 26 66 25 103 -2 152 -40 71 -112
92 -209 62z"/>
<path d="M6636 9252 c-3 -6 -1 -14 5 -17 15 -10 25 3 12 16 -7 7 -13 7 -17 1z"/>
<path d="M3605 9240 c-4 -6 -3 -16 3 -22 6 -6 12 -6 17 2 4 6 3 16 -3 22 -6 6
-12 6 -17 -2z"/>
<path d="M11090 9240 c0 -5 7 -10 15 -10 8 0 15 5 15 10 0 6 -7 10 -15 10 -8
0 -15 -4 -15 -10z"/>
<path d="M257 9204 c-11 -11 3 -24 24 -24 12 0 19 5 17 13 -5 14 -31 21 -41
11z"/>
<path d="M5930 9200 c0 -5 7 -10 15 -10 8 0 15 5 15 10 0 6 -7 10 -15 10 -8 0
-15 -4 -15 -10z"/>
<path d="M620 9176 c0 -10 9 -16 21 -16 24 0 21 23 -4 28 -10 2 -17 -3 -17
-12z"/>
<path d="M6330 9180 c0 -5 4 -10 9 -10 6 0 13 5 16 10 3 6 -1 10 -9 10 -9 0
-16 -4 -16 -10z"/>
<path d="M6245 9165 c-5 -2 -22 -6 -37 -9 -108 -24 -186 -217 -127 -313 20
-31 20 -35 5 -52 -21 -23 -20 -43 2 -39 9 2 18 13 20 26 4 26 13 27 53 7 27
-15 32 -14 57 3 15 11 36 21 47 23 12 3 21 14 23 29 2 13 15 38 28 55 33 43
54 98 54 140 0 41 -20 94 -42 112 -16 14 -66 25 -83 18z"/>
<path d="M6580 9140 c-13 -25 -10 -62 7 -67 19 -7 55 36 51 60 -4 30 -43 35
-58 7z"/>
<path d="M3740 9120 c0 -5 5 -10 10 -10 6 0 10 5 10 10 0 6 -4 10 -10 10 -5 0
-10 -4 -10 -10z"/>
<path d="M517 9109 c-19 -11 -47 -60 -47 -84 0 -9 11 -27 25 -40 18 -19 35
-25 68 -25 53 0 67 13 67 63 0 29 -7 46 -29 68 -31 30 -54 35 -84 18z"/>
<path d="M4424 9106 c-9 -24 12 -44 28 -28 10 10 8 16 -5 29 -15 15 -17 15
-23 -1z"/>
<path d="M11137 9106 c-50 -18 -64 -31 -98 -91 -32 -56 -36 -86 -14 -105 20
-17 86 12 121 52 26 32 59 131 49 148 -8 12 -11 12 -58 -4z"/>
<path d="M4307 9092 c-8 -9 -22 -32 -32 -51 -16 -33 -16 -33 11 -62 l28 -29
-92 0 c-50 0 -93 -4 -96 -9 -22 -35 155 -66 213 -37 55 29 66 80 31 152 -24
49 -42 59 -63 36z"/>
<path d="M3975 9090 c-8 -13 20 -24 41 -16 20 8 9 26 -16 26 -10 0 -22 -5 -25
-10z"/>
<path d="M4720 9030 c-36 -33 -68 -60 -72 -60 -4 0 -10 11 -14 25 -3 14 -11
25 -16 25 -6 0 -33 -18 -61 -40 -27 -22 -62 -43 -76 -46 -61 -12 -121 -69
-121 -115 0 -27 22 -23 65 11 21 17 42 30 46 30 16 0 9 -47 -11 -73 -26 -32
-25 -42 2 -61 48 -34 128 -10 128 37 0 29 18 19 42 -21 l22 -39 45 30 c25 17
68 53 94 81 42 45 47 54 37 74 -12 26 -14 82 -2 82 4 0 29 -11 56 -25 30 -15
66 -25 92 -25 37 0 44 -4 63 -35 25 -43 54 -46 92 -9 l26 25 13 -30 c7 -17 19
-31 27 -31 12 0 14 8 8 37 -13 73 -19 76 -97 70 -59 -5 -77 -3 -107 14 -20 10
-62 30 -94 44 -39 16 -63 34 -75 54 -9 17 -24 31 -32 31 -8 -1 -44 -28 -80
-60z"/>
<path d="M10940 9064 c0 -8 5 -12 10 -9 6 3 10 10 10 16 0 5 -4 9 -10 9 -5 0
-10 -7 -10 -16z"/>
<path d="M4685 9060 c-8 -13 4 -32 16 -25 12 8 12 35 0 35 -6 0 -13 -4 -16
-10z"/>
<path d="M4995 9060 c4 -6 11 -8 16 -5 14 9 11 15 -7 15 -8 0 -12 -5 -9 -10z"/>
<path d="M5836 9044 c-25 -35 -10 -48 39 -32 42 14 59 38 26 38 -11 0 -23 5
-26 10 -9 15 -18 12 -39 -16z"/>
<path d="M11286 9021 c-4 -5 -2 -12 3 -15 5 -4 12 -2 15 3 4 5 2 12 -3 15 -5
4 -12 2 -15 -3z"/>
<path d="M11400 9001 c0 -12 5 -21 10 -21 6 0 10 6 10 14 0 8 -4 18 -10 21 -5
3 -10 -3 -10 -14z"/>
<path d="M6620 8995 c-15 -18 -16 -63 -3 -76 7 -7 23 -5 47 5 42 18 48 47 14
70 -28 20 -42 20 -58 1z"/>
<path d="M4420 8959 c0 -5 5 -7 10 -4 6 3 10 8 10 11 0 2 -4 4 -10 4 -5 0 -10
-5 -10 -11z"/>
<path d="M5950 8946 c0 -17 27 -29 35 -16 4 6 3 15 0 20 -9 15 -35 12 -35 -4z"/>
<path d="M622 8908 c7 -19 38 -22 38 -4 0 10 -9 16 -21 16 -12 0 -19 -5 -17
-12z"/>
<path d="M4020 8907 c0 -18 28 -42 37 -33 9 8 -9 38 -25 44 -7 2 -12 -3 -12
-11z"/>
<path d="M3938 8893 c-22 -5 -24 -43 -3 -43 16 0 40 36 28 43 -5 2 -16 2 -25
0z"/>
<path d="M5775 8840 c-8 -13 13 -40 31 -40 19 0 18 36 -2 44 -21 8 -22 8 -29
-4z"/>
<path d="M5856 8814 c-7 -19 10 -44 30 -44 21 0 17 38 -5 49 -15 8 -20 7 -25
-5z"/>
<path d="M11060 8820 c0 -5 5 -10 10 -10 6 0 10 5 10 10 0 6 -4 10 -10 10 -5
0 -10 -4 -10 -10z"/>
<path d="M11233 8811 c-73 -34 -83 -95 -19 -125 19 -9 41 -16 49 -16 51 0 88
100 52 140 -22 24 -29 24 -82 1z"/>
<path d="M587 8814 c-9 -10 4 -34 19 -34 8 0 14 4 14 9 0 12 -26 32 -33 25z"/>
<path d="M5530 8774 c-48 -76 -36 -146 19 -108 49 34 63 114 26 144 -12 10
-20 3 -45 -36z"/>
<path d="M5932 8798 c-16 -16 3 -38 34 -38 31 0 41 20 19 37 -23 16 -37 17
-53 1z"/>
<path d="M6370 8790 c-24 -24 -25 -43 -5 -60 10 -9 19 -9 28 -2 6 5 23 12 37
14 47 6 33 68 -16 68 -13 0 -33 -9 -44 -20z"/>
<path d="M740 8790 c0 -5 7 -10 15 -10 8 0 15 5 15 10 0 6 -7 10 -15 10 -8 0
-15 -4 -15 -10z"/>
<path d="M4961 8788 c-35 -19 -48 -43 -32 -62 8 -9 22 -16 32 -16 27 0 31 -14
14 -54 -9 -20 -13 -41 -10 -46 11 -18 53 -10 84 16 38 32 41 72 8 129 -25 44
-55 54 -96 33z"/>
<path d="M222 8778 c-18 -18 -14 -56 7 -68 15 -7 25 -5 42 9 21 16 22 22 11
45 -12 28 -40 34 -60 14z"/>
<path d="M5731 8772 c-5 -10 -13 -46 -17 -80 -6 -60 -7 -62 -36 -62 -40 0 -65
-15 -83 -51 -16 -29 -16 -30 15 -40 54 -19 65 -63 25 -103 -25 -25 -33 -68
-16 -94 15 -25 55 -9 76 30 11 20 28 39 37 42 36 9 88 179 88 286 0 38 -5 54
-22 70 -27 25 -54 26 -67 2z"/>
<path d="M6910 8780 c0 -5 5 -10 10 -10 6 0 10 5 10 10 0 6 -4 10 -10 10 -5 0
-10 -4 -10 -10z"/>
<path d="M10836 8761 c-4 -5 -2 -12 3 -15 5 -4 12 -2 15 3 4 5 2 12 -3 15 -5
4 -12 2 -15 -3z"/>
<path d="M787 8744 c-14 -14 -7 -35 11 -32 9 2 17 10 17 17 0 16 -18 25 -28
15z"/>
<path d="M6094 8721 c-22 -13 -37 -34 -48 -67 -21 -62 -20 -76 4 -102 42 -45
152 -14 174 50 8 21 3 34 -30 82 -21 30 -46 56 -54 56 -8 0 -29 -9 -46 -19z"/>
<path d="M4350 8716 c0 -18 17 -29 30 -21 8 5 7 11 -1 21 -15 18 -29 18 -29 0z"/>
<path d="M6495 8695 c-48 -47 -20 -125 43 -125 61 0 84 79 37 125 -13 14 -31
25 -40 25 -9 0 -27 -11 -40 -25z"/>
<path d="M6990 8706 c0 -9 7 -16 16 -16 9 0 14 5 12 12 -6 18 -28 21 -28 4z"/>
<path d="M1040 8700 c0 -5 7 -10 16 -10 8 0 12 5 9 10 -3 6 -10 10 -16 10 -5
0 -9 -4 -9 -10z"/>
<path d="M4270 8699 c0 -5 5 -7 10 -4 6 3 10 8 10 11 0 2 -4 4 -10 4 -5 0 -10
-5 -10 -11z"/>
<path d="M5894 8699 c-8 -13 13 -29 39 -29 20 0 22 11 5 28 -15 15 -35 15 -44
1z"/>
<path d="M4894 8679 c-3 -6 -1 -16 4 -21 13 -13 45 8 36 23 -7 12 -31 11 -40
-2z"/>
<path d="M4394 8666 c-15 -12 -17 -18 -8 -33 14 -23 41 -28 70 -12 31 16 30
37 -2 49 -33 13 -37 13 -60 -4z"/>
<path d="M5420 8665 c-10 -12 -10 -18 0 -30 16 -19 39 -19 46 0 6 15 -11 45
-26 45 -4 0 -13 -7 -20 -15z"/>
<path d="M2030 8649 c0 -5 5 -7 10 -4 6 3 10 8 10 11 0 2 -4 4 -10 4 -5 0 -10
-5 -10 -11z"/>
<path d="M4790 8650 c0 -5 9 -10 21 -10 11 0 17 5 14 10 -3 6 -13 10 -21 10
-8 0 -14 -4 -14 -10z"/>
<path d="M4727 8644 c-9 -10 -9 -44 1 -44 4 0 14 5 22 10 13 8 13 11 -1 25 -8
8 -18 12 -22 9z"/>
<path d="M6348 8644 c-11 -10 3 -34 19 -34 8 0 13 7 11 17 -3 18 -20 27 -30
17z"/>
<path d="M6756 8601 c-3 -5 1 -11 9 -15 15 -6 29 7 18 18 -9 9 -21 8 -27 -3z"/>
<path d="M877 8588 c-23 -13 -21 -44 4 -62 36 -25 70 5 49 44 -12 23 -32 30
-53 18z"/>
<path d="M1095 8580 c3 -5 13 -10 21 -10 8 0 14 5 14 10 0 6 -9 10 -21 10 -11
0 -17 -4 -14 -10z"/>
<path d="M4695 8578 c-16 -48 -12 -53 48 -56 31 -2 57 1 57 6 0 14 -35 42 -53
42 -9 0 -19 5 -22 10 -9 14 -25 13 -30 -2z"/>
<path d="M6242 8549 c1 -13 8 -23 13 -21 15 3 12 35 -3 40 -9 3 -13 -3 -10
-19z"/>
<path d="M5016 8544 c-20 -19 -5 -54 24 -54 16 0 50 24 50 35 0 2 -7 11 -16
19 -20 20 -38 20 -58 0z"/>
<path d="M5913 8544 c-3 -8 2 -23 11 -32 14 -15 18 -15 26 -3 10 16 -4 51 -21
51 -5 0 -12 -7 -16 -16z"/>
<path d="M6605 8550 c-3 -5 1 -10 10 -10 9 0 13 5 10 10 -3 6 -8 10 -10 10 -2
0 -7 -4 -10 -10z"/>
<path d="M3285 8540 c-11 -17 5 -32 21 -19 8 6 14 15 14 20 0 12 -27 11 -35
-1z"/>
<path d="M6015 8530 c-3 -5 1 -10 9 -10 9 0 16 5 16 10 0 6 -4 10 -9 10 -6 0
-13 -4 -16 -10z"/>
<path d="M6363 8525 c-10 -7 -32 -15 -48 -17 -28 -3 -30 -7 -33 -46 -4 -52
-19 -51 -45 1 -15 32 -22 37 -53 37 -29 0 -43 -8 -80 -46 -24 -26 -44 -50 -44
-55 0 -14 24 -23 58 -21 23 2 42 -5 63 -23 37 -30 44 -31 97 -5 27 13 50 34
64 60 16 28 28 38 39 34 17 -5 49 19 49 37 0 17 -19 46 -34 52 -7 3 -22 -1
-33 -8z"/>
<path d="M6515 8505 c-29 -28 -31 -47 -10 -65 10 -8 12 -17 6 -28 -7 -12 -2
-21 20 -34 36 -22 43 -22 63 -2 13 12 15 28 10 72 -9 82 -43 104 -89 57z"/>
<path d="M5844 8495 c-9 -22 19 -50 41 -41 15 6 16 9 3 28 -19 29 -36 34 -44
13z"/>
<path d="M4860 8490 c0 -5 5 -10 10 -10 6 0 10 5 10 10 0 6 -4 10 -10 10 -5 0
-10 -4 -10 -10z"/>
<path d="M1020 8480 c0 -5 5 -10 10 -10 6 0 10 5 10 10 0 6 -4 10 -10 10 -5 0
-10 -4 -10 -10z"/>
<path d="M11095 8475 c-69 -12 -83 -19 -105 -45 -17 -21 -31 -29 -42 -25 -9 4
-19 2 -23 -4 -3 -6 -15 -11 -25 -11 -28 0 -36 -20 -10 -27 20 -5 21 -9 15 -79
l-7 -73 33 -14 c19 -8 45 -26 58 -41 36 -38 80 -35 162 14 44 26 70 49 77 67
35 94 45 133 46 170 1 76 -41 92 -179 68z"/>
<path d="M5246 8465 c-7 -18 19 -45 45 -45 25 0 35 25 19 45 -16 19 -56 19
-64 0z"/>
<path d="M5560 8460 c0 -5 5 -10 10 -10 6 0 10 5 10 10 0 6 -4 10 -10 10 -5 0
-10 -4 -10 -10z"/>
<path d="M5495 8451 c-3 -5 -1 -12 5 -16 5 -3 10 1 10 9 0 18 -6 21 -15 7z"/>
<path d="M4820 8440 c0 -5 4 -10 9 -10 6 0 13 5 16 10 3 6 -1 10 -9 10 -9 0
-16 -4 -16 -10z"/>
<path d="M4937 8443 c-4 -3 -7 -11 -7 -17 0 -6 5 -5 12 2 6 6 9 14 7 17 -3 3
-9 2 -12 -2z"/>
<path d="M1020 8430 c0 -5 5 -10 10 -10 6 0 10 5 10 10 0 6 -4 10 -10 10 -5 0
-10 -4 -10 -10z"/>
<path d="M695 8420 c3 -5 10 -10 16 -10 5 0 9 5 9 10 0 6 -7 10 -16 10 -8 0
-12 -4 -9 -10z"/>
<path d="M1054 8408 c-10 -16 34 -50 60 -46 31 4 31 32 1 46 -33 15 -52 15
-61 0z"/>
<path d="M4876 8404 c-9 -9 -16 -28 -15 -42 1 -15 -2 -39 -6 -54 -13 -50 15
-31 41 27 33 71 21 111 -20 69z"/>
<path d="M10782 8409 c2 -6 8 -10 13 -10 5 0 11 4 13 10 2 6 -4 11 -13 11 -9
0 -15 -5 -13 -11z"/>
<path d="M5338 8389 c-20 -11 -24 -34 -8 -44 15 -9 40 14 40 36 0 21 -7 23
-32 8z"/>
<path d="M5204 8378 c-4 -6 1 -17 12 -25 20 -15 30 -4 20 22 -6 18 -22 19 -32
3z"/>
<path d="M5450 8380 c0 -5 7 -10 15 -10 8 0 15 5 15 10 0 6 -7 10 -15 10 -8 0
-15 -4 -15 -10z"/>
<path d="M6355 8370 c-8 -13 3 -30 20 -30 20 0 30 21 14 31 -18 11 -26 11 -34
-1z"/>
<path d="M5206 8314 c-4 -9 -4 -19 -2 -22 10 -9 36 8 36 23 0 20 -26 19 -34
-1z"/>
<path d="M11296 8281 c-4 -5 -2 -12 3 -15 5 -4 12 -2 15 3 4 5 2 12 -3 15 -5
4 -12 2 -15 -3z"/>
<path d="M4655 8230 c-9 -15 3 -30 24 -30 21 0 44 23 34 33 -10 11 -51 8 -58
-3z"/>
<path d="M6080 8175 c-20 -24 -6 -28 15 -5 10 11 13 20 8 20 -6 0 -16 -7 -23
-15z"/>
<path d="M11253 8166 c-23 -21 -26 -28 -17 -43 16 -24 53 -19 83 11 49 50 -12
79 -66 32z"/>
<path d="M5580 8150 c0 -5 7 -10 16 -10 8 0 12 5 9 10 -3 6 -10 10 -16 10 -5
0 -9 -4 -9 -10z"/>
<path d="M1055 8110 c4 -6 11 -8 16 -5 14 9 11 15 -7 15 -8 0 -12 -5 -9 -10z"/>
<path d="M5642 8098 c-16 -16 -16 -81 1 -75 6 2 11 13 9 25 -2 11 2 23 8 27
12 7 14 35 2 35 -4 0 -13 -5 -20 -12z"/>
<path d="M10585 8060 c3 -5 10 -10 16 -10 5 0 9 5 9 10 0 6 -7 10 -16 10 -8 0
-12 -4 -9 -10z"/>
<path d="M10976 8051 c-4 -5 -2 -12 3 -15 5 -4 12 -2 15 3 4 5 2 12 -3 15 -5
4 -12 2 -15 -3z"/>
<path d="M6207 8043 c-11 -10 -8 -48 5 -61 7 -7 17 -8 30 -1 23 12 23 31 0 52
-20 19 -26 20 -35 10z"/>
<path d="M10767 8039 c-28 -17 -50 -68 -36 -85 12 -15 48 -18 87 -8 30 8 39
47 18 79 -17 26 -40 31 -69 14z"/>
<path d="M5512 7933 c2 -10 10 -18 18 -18 22 0 18 29 -3 33 -14 3 -18 -1 -15
-15z"/>
<path d="M10912 7878 c-14 -14 -16 -44 -4 -52 10 -6 52 21 52 34 0 17 -36 30
-48 18z"/>
<path d="M10688 7815 c-6 -14 -8 -28 -4 -32 11 -12 41 12 44 36 5 30 -26 27
-40 -4z"/>
<path d="M11485 7799 c-24 -21 -35 -39 -33 -53 7 -46 63 -24 94 37 29 54 -7
63 -61 16z"/>
<path d="M10988 7769 c-2 -5 -30 -19 -62 -30 -32 -10 -65 -27 -72 -36 -21 -28
-17 -80 7 -104 l22 -22 11 22 c7 12 26 30 42 40 20 12 34 32 42 58 7 23 19 46
27 53 8 7 15 16 15 21 0 13 -28 11 -32 -2z"/>
<path d="M6498 7764 c-13 -12 -9 -41 7 -54 19 -15 32 -6 18 12 -6 7 -12 21
-14 31 -2 11 -7 15 -11 11z"/>
<path d="M6422 7738 c-9 -9 -8 -16 5 -30 29 -32 61 -18 48 22 -7 22 -35 26
-53 8z"/>
<path d="M11121 7657 c-12 -15 -5 -27 16 -27 7 0 13 9 13 20 0 23 -13 26 -29
7z"/>
<path d="M6472 7628 c-28 -28 3 -83 33 -58 8 7 15 20 15 29 0 17 -18 41 -30
41 -3 0 -11 -5 -18 -12z"/>
<path d="M11250 7615 c-15 -18 -6 -45 13 -45 20 0 40 27 33 45 -7 19 -30 19
-46 0z"/>
<path d="M11115 7570 c-21 -23 -13 -50 14 -50 22 0 39 39 26 59 -9 16 -20 13
-40 -9z"/>
<path d="M2757 7489 c-26 -15 -11 -30 18 -17 13 6 22 15 19 19 -7 11 -15 11
-37 -2z"/>
<path d="M11240 7465 c-10 -13 -11 -18 -1 -28 10 -9 15 -8 26 7 23 31 -1 50
-25 21z"/>
<path d="M1144 7449 c-8 -14 11 -33 25 -25 6 4 11 14 11 22 0 16 -26 19 -36 3z"/>
<path d="M1085 7431 c-7 -24 3 -51 20 -51 19 0 24 21 12 48 -12 27 -24 28 -32
3z"/>
<path d="M2800 7391 c-7 -13 -7 -22 0 -26 15 -9 30 4 30 26 0 25 -16 25 -30 0z"/>
<path d="M6237 7375 c6 -17 25 -15 31 3 2 7 -5 12 -17 12 -14 0 -19 -5 -14
-15z"/>
<path d="M11159 7366 c-86 -31 -143 -84 -155 -145 -5 -23 -12 -31 -29 -31 -23
0 -55 -28 -55 -48 0 -15 28 -15 69 -1 28 10 37 9 61 -10 36 -26 54 -26 136 0
54 18 69 28 91 60 16 24 28 59 31 88 4 43 1 53 -21 75 -29 29 -70 33 -128 12z"/>
<path d="M11450 7330 c-12 -7 -12 -12 -3 -21 9 -9 16 -9 27 1 26 21 5 39 -24
20z"/>
<path d="M6514 7284 c-16 -23 -16 -27 -1 -41 14 -14 18 -13 41 10 28 28 26 57
-5 57 -10 0 -26 -12 -35 -26z"/>
<path d="M2760 7270 c0 -25 54 -36 95 -19 l30 13 -30 4 c-16 2 -34 8 -39 13
-19 17 -56 10 -56 -11z"/>
<path d="M6200 7275 c-19 -23 -4 -45 30 -45 18 0 33 6 36 15 8 19 -13 45 -36
45 -10 0 -23 -7 -30 -15z"/>
<path d="M6425 7281 c-10 -17 15 -45 29 -31 7 7 5 15 -6 26 -11 11 -18 13 -23
5z"/>
<path d="M2648 7234 c-27 -14 -38 -34 -18 -34 20 0 60 24 60 37 0 16 -8 16
-42 -3z"/>
<path d="M6600 7213 c-14 -10 -36 -18 -50 -19 -17 0 -28 -9 -34 -27 -13 -36
-1 -44 35 -23 16 9 39 17 52 16 49 -4 66 14 47 51 -13 23 -19 24 -50 2z"/>
<path d="M6485 7211 c-6 -11 9 -23 19 -14 9 9 7 23 -3 23 -6 0 -12 -4 -16 -9z"/>
<path d="M1905 7201 c-3 -5 -1 -12 5 -16 5 -3 10 1 10 9 0 18 -6 21 -15 7z"/>
<path d="M1160 7190 c0 -5 5 -10 10 -10 6 0 10 5 10 10 0 6 -4 10 -10 10 -5 0
-10 -4 -10 -10z"/>
<path d="M1780 7192 c0 -5 13 -21 29 -36 21 -20 31 -24 37 -15 4 8 -3 21 -20
36 -28 23 -46 30 -46 15z"/>
<path d="M10560 7180 c0 -5 5 -10 11 -10 5 0 7 5 4 10 -3 6 -8 10 -11 10 -2 0
-4 -4 -4 -10z"/>
<path d="M1061 7166 c-10 -11 -7 -17 11 -30 28 -20 39 -20 63 -2 16 12 17 16
6 30 -17 20 -64 21 -80 2z"/>
<path d="M2700 7170 c0 -5 5 -10 10 -10 6 0 10 5 10 10 0 6 -4 10 -10 10 -5 0
-10 -4 -10 -10z"/>
<path d="M6127 7163 c-4 -3 -7 -12 -7 -20 0 -11 4 -11 20 -3 11 6 18 15 15 21
-7 11 -19 12 -28 2z"/>
<path d="M2493 7120 c-24 -10 -43 -26 -43 -34 0 -22 53 -55 104 -65 50 -9 58
-6 75 27 11 20 9 28 -14 58 -31 40 -59 43 -122 14z"/>
<path d="M1720 7115 c-10 -12 -9 -16 4 -21 16 -6 46 11 46 27 0 15 -37 10 -50
-6z"/>
<path d="M5780 7120 c0 -5 5 -10 10 -10 6 0 10 5 10 10 0 6 -4 10 -10 10 -5 0
-10 -4 -10 -10z"/>
<path d="M1230 7099 c-19 -11 -51 -19 -71 -19 -23 0 -42 -7 -53 -19 -23 -25
-11 -45 21 -36 19 4 26 1 30 -14 4 -16 11 -19 32 -15 24 5 29 2 37 -28 10 -32
11 -33 60 -30 39 2 54 -1 68 -16 11 -13 14 -22 7 -27 -6 -3 -11 -20 -11 -36 0
-18 4 -28 10 -24 6 3 10 17 10 31 0 17 5 24 19 24 21 0 51 35 51 59 0 15 -155
172 -168 170 -4 -1 -23 -10 -42 -20z"/>
<path d="M1612 7111 c2 -7 7 -12 11 -12 12 1 9 15 -3 20 -7 2 -11 -2 -8 -8z"/>
<path d="M2916 7111 c-7 -10 22 -37 30 -28 9 8 -3 37 -15 37 -5 0 -12 -4 -15
-9z"/>
<path d="M10545 7111 c-8 -15 3 -31 21 -31 9 0 14 7 12 17 -4 20 -24 28 -33
14z"/>
<path d="M11144 7076 c-30 -30 -34 -38 -24 -56 14 -26 50 -27 50 -1 0 11 15
29 35 41 41 25 41 44 1 48 -20 3 -36 -6 -62 -32z"/>
<path d="M11308 7096 c-26 -19 -22 -28 9 -24 17 2 29 10 31 21 4 20 -16 22
-40 3z"/>
<path d="M6400 7069 c0 -5 5 -7 10 -4 6 3 10 8 10 11 0 2 -4 4 -10 4 -5 0 -10
-5 -10 -11z"/>
<path d="M2920 7060 c0 -5 5 -10 10 -10 6 0 10 5 10 10 0 6 -4 10 -10 10 -5 0
-10 -4 -10 -10z"/>
<path d="M10651 7043 c-31 -25 -32 -27 -15 -40 25 -18 83 -17 90 2 6 15 -20
65 -34 65 -4 0 -22 -12 -41 -27z"/>
<path d="M2832 7024 c-30 -21 -28 -34 7 -34 28 0 47 22 35 41 -7 13 -16 11
-42 -7z"/>
<path d="M6390 7027 c0 -8 9 -40 20 -72 11 -32 20 -61 20 -66 0 -4 -13 -12
-30 -18 -49 -17 -36 -81 16 -81 13 0 29 8 36 18 22 28 59 45 71 33 13 -13 37
-14 56 -2 20 13 -1 45 -44 65 -30 14 -34 21 -29 41 5 21 0 28 -26 42 -18 10
-40 26 -49 36 -18 20 -41 22 -41 4z"/>
<path d="M6332 7014 c4 -21 22 -23 26 -1 2 10 -3 17 -13 17 -10 0 -15 -6 -13
-16z"/>
<path d="M2650 7000 c0 -5 5 -10 10 -10 6 0 10 5 10 10 0 6 -4 10 -10 10 -5 0
-10 -4 -10 -10z"/>
<path d="M2580 6950 c0 -5 5 -10 10 -10 6 0 10 5 10 10 0 6 -4 10 -10 10 -5 0
-10 -4 -10 -10z"/>
<path d="M11414 6948 c-12 -5 -27 -21 -33 -35 -10 -21 -8 -28 18 -54 33 -33
58 -36 101 -14 43 22 44 57 4 93 -27 24 -56 27 -90 10z"/>
<path d="M1716 6941 c-4 -5 -2 -12 3 -15 5 -4 12 -2 15 3 4 5 2 12 -3 15 -5 4
-12 2 -15 -3z"/>
<path d="M1867 6903 c-9 -26 -14 -49 -12 -51 7 -8 55 31 60 49 6 19 -9 49 -25
49 -4 0 -15 -21 -23 -47z"/>
<path d="M2270 6920 c0 -11 5 -20 10 -20 6 0 10 9 10 20 0 11 -4 20 -10 20 -5
0 -10 -9 -10 -20z"/>
<path d="M1560 6900 c0 -6 7 -25 16 -42 11 -21 19 -27 26 -20 7 7 4 20 -8 41
-18 31 -34 40 -34 21z"/>
<path d="M1645 6900 c-3 -5 -1 -10 4 -10 6 0 11 5 11 10 0 6 -2 10 -4 10 -3 0
-8 -4 -11 -10z"/>
<path d="M1978 6893 c-16 -8 -28 -18 -28 -22 0 -15 13 -21 26 -10 8 7 14 7 19
-1 10 -16 42 -12 49 6 7 18 -10 45 -28 43 -6 -1 -23 -8 -38 -16z"/>
<path d="M1665 6880 c-18 -28 35 -84 58 -61 15 15 -11 71 -34 71 -10 0 -21 -5
-24 -10z"/>
<path d="M1490 6850 c0 -5 5 -10 10 -10 6 0 10 5 10 10 0 6 -4 10 -10 10 -5 0
-10 -4 -10 -10z"/>
<path d="M1973 6800 c-39 -24 -42 -37 -8 -46 29 -7 88 24 93 49 5 24 -44 22
-85 -3z"/>
<path d="M6310 6810 c0 -5 7 -10 16 -10 8 0 12 5 9 10 -3 6 -10 10 -16 10 -5
0 -9 -4 -9 -10z"/>
<path d="M1576 6801 c-4 -5 -2 -12 3 -15 5 -4 12 -2 15 3 4 5 2 12 -3 15 -5 4
-12 2 -15 -3z"/>
<path d="M1634 6788 c2 -7 14 -44 26 -83 24 -75 50 -119 80 -135 16 -9 22 -5
35 19 21 42 19 78 -6 91 -11 7 -27 27 -35 46 -9 22 -28 41 -54 54 -46 23 -54
25 -46 8z"/>
<path d="M6365 6760 c3 -5 13 -10 21 -10 8 0 14 5 14 10 0 6 -9 10 -21 10 -11
0 -17 -4 -14 -10z"/>
<path d="M1400 6745 c0 -8 5 -15 10 -15 6 0 10 7 10 15 0 8 -4 15 -10 15 -5 0
-10 -7 -10 -15z"/>
<path d="M1805 6730 c-7 -12 12 -40 27 -40 16 0 21 32 7 41 -18 12 -26 11 -34
-1z"/>
<path d="M1591 6711 c-8 -6 -11 -16 -7 -27 6 -16 8 -16 23 -1 20 19 6 41 -16
28z"/>
<path d="M1210 6620 c0 -5 5 -10 10 -10 6 0 10 5 10 10 0 6 -4 10 -10 10 -5 0
-10 -4 -10 -10z"/>
<path d="M1870 6620 c0 -5 5 -10 10 -10 6 0 10 5 10 10 0 6 -4 10 -10 10 -5 0
-10 -4 -10 -10z"/>
<path d="M1590 6596 c0 -9 7 -16 16 -16 17 0 14 22 -4 28 -7 2 -12 -3 -12 -12z"/>
<path d="M1202 6584 c-45 -31 -12 -68 56 -62 29 2 38 8 40 24 7 46 -52 69 -96
38z"/>
<path d="M11370 6575 c-10 -12 -9 -16 5 -21 19 -8 40 9 31 25 -10 15 -21 14
-36 -4z"/>
<path d="M1783 6564 c-8 -21 29 -54 61 -54 18 1 19 2 6 13 -8 7 -20 21 -26 32
-14 26 -33 30 -41 9z"/>
<path d="M1864 6556 c-8 -22 3 -33 18 -18 9 9 9 15 0 24 -9 9 -13 7 -18 -6z"/>
<path d="M1110 6550 c0 -5 5 -10 10 -10 6 0 10 5 10 10 0 6 -4 10 -10 10 -5 0
-10 -4 -10 -10z"/>
<path d="M1196 6492 c-2 -4 -1 -14 4 -22 7 -11 14 -12 27 -4 27 17 27 34 -1
34 -13 0 -27 -4 -30 -8z"/>
<path d="M1182 6431 c2 -7 7 -12 11 -12 12 1 9 15 -3 20 -7 2 -11 -2 -8 -8z"/>
<path d="M1105 6384 c-16 -17 -16 -18 0 -30 15 -11 23 -10 47 2 16 8 28 21 25
27 -6 19 -53 20 -72 1z"/>
<path d="M1204 6389 c-7 -13 23 -42 39 -36 16 5 12 20 -10 34 -16 11 -23 11
-29 2z"/>
<path d="M1285 6370 c-8 -13 15 -24 27 -12 6 6 4 11 -6 15 -8 3 -18 2 -21 -3z"/>
<path d="M1297 6306 c-6 -15 1 -26 15 -26 11 0 10 27 -1 34 -5 3 -11 0 -14 -8z"/>
<path d="M11290 6255 c0 -15 46 -32 57 -21 10 9 -18 36 -38 36 -11 0 -19 -7
-19 -15z"/>
<path d="M1180 6184 c0 -8 5 -12 10 -9 6 4 8 11 5 16 -9 14 -15 11 -15 -7z"/>
<path d="M1217 6123 c-13 -12 -7 -43 7 -43 19 0 28 14 20 34 -7 17 -16 20 -27
9z"/>
<path d="M11395 6121 c-3 -5 -1 -12 5 -16 12 -7 30 2 30 16 0 12 -27 12 -35 0z"/>
<path d="M11045 6076 c-26 -19 -13 -46 24 -46 32 0 48 24 30 46 -14 18 -30 18
-54 0z"/>
<path d="M1260 6065 c0 -16 27 -32 37 -21 7 7 -16 36 -28 36 -5 0 -9 -7 -9
-15z"/>
<path d="M10798 6039 c-37 -21 -12 -73 29 -63 11 3 34 -1 51 -10 37 -19 62
-12 62 19 0 32 -23 49 -49 36 -26 -15 -28 -14 -34 9 -6 22 -31 26 -59 9z"/>
<path d="M1142 6023 c2 -10 10 -18 18 -18 8 0 16 8 18 18 2 12 -3 17 -18 17
-15 0 -20 -5 -18 -17z"/>
<path d="M10595 6000 c-3 -5 1 -10 10 -10 9 0 13 5 10 10 -3 6 -8 10 -10 10
-2 0 -7 -4 -10 -10z"/>
<path d="M1107 5963 c-3 -5 -2 -15 2 -21 9 -15 43 -4 38 12 -5 14 -33 20 -40
9z"/>
<path d="M11190 5895 c-9 -11 -10 -19 -3 -26 14 -14 56 7 50 24 -6 19 -32 20
-47 2z"/>
<path d="M11389 5899 c-87 -13 -180 -73 -229 -147 -31 -46 -31 -48 -25 -142 9
-153 8 -150 90 -234 73 -74 77 -76 113 -70 32 5 43 1 70 -20 40 -35 159 -76
217 -76 77 0 130 19 167 59 19 20 45 43 58 52 l24 16 -44 32 c-80 56 -91 71
-88 109 4 49 38 71 128 83 40 5 75 10 77 12 12 13 -53 64 -144 112 -125 66
-145 80 -184 135 -47 64 -134 94 -230 79z"/>
<path d="M1110 5890 c0 -5 5 -10 10 -10 6 0 10 5 10 10 0 6 -4 10 -10 10 -5 0
-10 -4 -10 -10z"/>
<path d="M1052 5804 c-32 -22 -17 -36 17 -16 16 9 27 20 25 24 -7 12 -17 10
-42 -8z"/>
<path d="M450 5740 c0 -5 5 -10 10 -10 6 0 10 5 10 10 0 6 -4 10 -10 10 -5 0
-10 -4 -10 -10z"/>
<path d="M990 5740 c0 -5 5 -10 11 -10 5 0 7 5 4 10 -3 6 -8 10 -11 10 -2 0
-4 -4 -4 -10z"/>
<path d="M1010 5715 c-9 -11 -10 -19 -2 -27 14 -14 32 -1 32 23 0 23 -13 25
-30 4z"/>
<path d="M445 5693 c-16 -16 -16 -17 1 -30 34 -25 71 -5 53 29 -12 23 -32 23
-54 1z"/>
<path d="M636 5671 c-12 -13 -14 -21 -6 -26 13 -8 40 12 40 31 0 20 -14 17
-34 -5z"/>
<path d="M916 5671 c-4 -5 -2 -12 3 -15 5 -4 12 -2 15 3 4 5 2 12 -3 15 -5 4
-12 2 -15 -3z"/>
<path d="M720 5655 c-6 -8 -14 -41 -17 -75 l-6 -60 31 0 c37 0 79 34 88 72 11
50 -65 101 -96 63z"/>
<path d="M485 5619 c-10 -15 3 -25 16 -12 7 7 7 13 1 17 -6 3 -14 1 -17 -5z"/>
<path d="M10852 5618 c5 -15 28 -18 29 -3 0 6 -7 12 -17 13 -10 3 -15 -1 -12
-10z"/>
<path d="M1090 5594 c0 -8 5 -12 10 -9 6 3 10 10 10 16 0 5 -4 9 -10 9 -5 0
-10 -7 -10 -16z"/>
<path d="M535 5581 c-6 -11 9 -23 19 -14 9 9 7 23 -3 23 -6 0 -12 -4 -16 -9z"/>
<path d="M928 5579 c-21 -12 -13 -39 12 -39 19 0 34 25 24 41 -7 11 -15 11
-36 -2z"/>
<path d="M820 5528 c-19 -5 -42 -16 -50 -24 -13 -14 -13 -17 4 -30 26 -19 70
-18 112 2 69 33 16 75 -66 52z"/>
<path d="M1366 5525 c-57 -20 -61 -28 -31 -64 15 -17 31 -31 35 -31 14 0 62
88 55 100 -8 13 -11 12 -59 -5z"/>
<path d="M550 5490 c0 -5 4 -10 9 -10 6 0 13 5 16 10 3 6 -1 10 -9 10 -9 0
-16 -4 -16 -10z"/>
<path d="M1260 5486 c0 -9 7 -16 16 -16 9 0 14 5 12 12 -6 18 -28 21 -28 4z"/>
<path d="M638 5470 c-13 -10 -50 -26 -82 -35 -33 -10 -56 -22 -53 -28 3 -12
71 -48 113 -61 19 -6 23 -2 28 28 4 19 15 45 26 59 11 14 20 30 20 35 0 19
-29 21 -52 2z"/>
<path d="M1540 5474 c0 -9 5 -14 12 -12 18 6 21 28 4 28 -9 0 -16 -7 -16 -16z"/>
<path d="M1148 5463 c-21 -8 -38 -21 -38 -29 0 -15 50 -44 78 -44 41 0 59 60
23 80 -23 12 -17 13 -63 -7z"/>
<path d="M1440 5450 c0 -11 6 -20 14 -20 21 0 31 21 15 31 -22 14 -29 11 -29
-11z"/>
<path d="M11896 5091 c-19 -21 -14 -41 9 -41 22 0 37 36 21 49 -10 8 -17 6
-30 -8z"/>
<path d="M8923 2434 c-14 -22 -22 -25 -51 -20 -43 7 -95 -14 -116 -47 -15 -22
-15 -27 -1 -53 11 -21 13 -44 9 -86 -9 -77 3 -144 28 -168 17 -15 20 -26 15
-58 -5 -26 -2 -45 9 -60 20 -29 29 -28 67 8 41 38 51 38 71 -4 17 -37 60 -76
82 -76 7 0 27 -12 44 -26 38 -33 25 -46 -32 -31 -49 12 -58 2 -58 -65 0 -71
13 -95 60 -109 53 -16 67 -4 51 42 -23 67 -5 76 74 33 31 -16 57 -23 72 -19
13 3 23 1 23 -5 0 -12 81 -110 91 -110 4 0 9 15 13 32 4 18 18 50 32 71 l25
38 40 -36 c22 -20 46 -34 52 -32 7 2 12 26 12 63 l0 59 35 5 c29 4 36 10 41
35 14 63 9 153 -10 197 -25 59 -113 154 -157 168 -21 7 -40 23 -49 41 -18 34
-13 33 -58 14 -39 -16 -87 -20 -87 -7 0 5 11 19 25 32 19 17 22 27 15 41 -6
10 -10 35 -10 57 0 56 -19 68 -66 42 -21 -11 -44 -20 -50 -20 -5 0 -46 18 -89
40 -93 47 -128 51 -152 14z"/>
<path d="M10025 2331 c-8 -15 3 -31 21 -31 9 0 14 7 12 17 -4 20 -24 28 -33
14z"/>
<path d="M10041 2256 c-17 -20 -2 -45 65 -118 29 -32 59 -70 66 -85 20 -40 68
-63 147 -70 60 -5 74 -3 91 12 29 26 25 55 -14 109 -47 67 -92 95 -163 106
-33 4 -82 20 -109 34 -56 30 -67 31 -83 12z"/>
<path d="M9073 1568 c2 -7 10 -13 17 -13 7 0 15 6 18 13 2 7 -5 12 -18 12 -13
0 -20 -5 -17 -12z"/>
<path d="M10345 1550 c-3 -5 1 -10 10 -10 9 0 13 5 10 10 -3 6 -8 10 -10 10
-2 0 -7 -4 -10 -10z"/>
<path d="M7080 1418 c1 -33 104 -118 142 -118 10 0 24 11 30 25 10 22 8 29
-12 50 -38 40 -161 73 -160 43z"/>
<path d="M3431 1406 c-9 -10 -9 -16 -1 -21 12 -7 40 11 40 26 0 14 -26 10 -39
-5z"/>
<path d="M3382 1342 c-29 -25 -43 -52 -24 -52 4 0 22 14 41 31 42 39 28 57
-17 21z"/>
<path d="M3262 1252 c-45 -40 -50 -53 -28 -71 20 -17 49 0 80 45 24 36 25 64
2 64 -6 0 -30 -17 -54 -38z"/>
<path d="M9750 1135 c-21 -26 3 -44 35 -25 13 8 24 20 25 25 1 17 -46 17 -60
0z"/>
<path d="M7671 1037 c-9 -11 -8 -17 3 -26 18 -15 48 -3 44 18 -4 21 -32 26
-47 8z"/>
<path d="M8250 448 c0 -10 22 -25 54 -38 43 -17 59 -19 75 -10 45 23 13 50
-69 57 -49 5 -60 3 -60 -9z"/>
<path d="M7813 377 c-29 -7 -57 -17 -64 -24 -18 -18 29 -42 99 -49 66 -7 92 3
92 36 0 39 -50 54 -127 37z"/>
<path d="M6995 41 c-6 -11 32 -41 52 -41 22 0 26 23 8 37 -22 15 -51 17 -60 4z"/>
</g>
</svg>
