<?xml version="1.0" standalone="no"?>
<!DOCTYPE svg PUBLIC "-//W3C//DTD SVG 20010904//EN"
 "http://www.w3.org/TR/2001/REC-SVG-20010904/DTD/svg10.dtd">
<svg version="1.0" xmlns="http://www.w3.org/2000/svg"
 width="409.508323pt" height="477.394074pt" viewBox="0 0 409.508323 477.394074"
 preserveAspectRatio="xMidYMid meet">
<metadata>
Created by potrace 1.12, written by Peter Selinger 2001-2015
</metadata>
<g transform="translate(-84.175399,501.841256) scale(0.100000,-0.100000)"
fill="white" stroke="none">
<path d="M3180 5008 c100 -9 200 -33 200 -47 0 -62 -837 -116 -1077 -70 -90
18 -66 37 90 75 89 21 94 23 42 18 -65 -6 -169 -30 -197 -45 -28 -15 -22 -47
12 -64 107 -55 587 -63 900 -14 206 32 314 91 234 128 -36 16 -153 31 -234 29
-61 -1 -59 -1 30 -10z"/>
<path d="M2620 4738 c0 -7 7 -26 16 -43 11 -21 17 -63 18 -145 3 -102 -1 -135
-35 -285 -20 -93 -43 -210 -49 -260 -21 -161 -52 -250 -97 -278 -16 -10 -100
-112 -105 -129 -3 -7 -28 12 -60 44 -69 68 -101 80 -303 108 -82 11 -167 22
-189 25 -22 3 -44 1 -52 -6 -16 -13 -19 -55 -4 -64 12 -7 76 -17 258 -40 135
-17 182 -32 226 -73 68 -64 80 -156 48 -367 l-17 -110 -50 3 c-100 6 -390 53
-401 65 -11 11 -45 99 -40 104 1 2 72 -7 156 -18 85 -11 170 -19 190 -17 31 3
35 6 38 35 3 27 -1 33 -20 38 -34 7 -278 41 -401 56 -125 14 -159 31 -196 98
l-24 44 69 -7 c38 -4 147 -18 242 -32 211 -31 236 -30 240 10 2 16 0 32 -5 37
-9 9 -156 33 -343 55 -303 35 -374 57 -425 131 -13 20 -22 39 -20 41 3 3 63
-3 133 -13 71 -10 136 -15 145 -12 20 8 22 50 3 66 -7 6 -84 20 -170 32 -145
19 -159 19 -182 5 -31 -21 -32 -60 -2 -122 37 -81 110 -138 214 -169 7 -2 17
-21 24 -42 34 -107 97 -170 189 -188 l56 -12 16 -60 c18 -69 48 -122 81 -142
12 -8 128 -28 258 -45 l235 -32 -3 -54 c-5 -93 -32 -423 -38 -457 -4 -26 -1
-33 11 -33 16 0 117 -51 143 -72 9 -8 20 -4 42 17 40 39 115 46 165 16 46 -27
46 -27 39 9 -23 114 74 115 198 1 32 -29 61 -51 66 -49 24 10 122 85 128 98 8
20 30 234 39 381 l7 117 232 7 c164 5 239 11 258 21 35 18 65 62 88 127 l18
52 59 6 c32 3 72 13 89 22 42 22 98 86 123 141 15 36 25 46 44 46 73 0 182 71
233 151 30 47 31 82 3 110 -20 20 -29 21 -183 17 -169 -3 -196 -10 -196 -48 0
-38 24 -43 165 -36 98 5 135 3 135 -5 0 -20 -81 -86 -124 -100 -29 -9 -136
-15 -369 -19 -276 -4 -329 -7 -337 -20 -14 -21 -12 -36 4 -53 12 -12 59 -13
280 -9 173 3 266 1 266 -5 0 -22 -47 -77 -80 -94 -31 -17 -61 -19 -260 -20
-282 -1 -324 -6 -328 -37 -2 -13 2 -30 10 -39 11 -14 35 -15 197 -9 l183 7 -7
-28 c-3 -15 -17 -42 -30 -59 l-24 -31 -152 -6 c-84 -4 -181 -7 -217 -7 l-65 0
7 73 c3 39 9 137 12 217 7 162 11 172 89 213 37 20 58 22 250 25 171 3 212 6
221 18 17 22 5 53 -23 60 -41 11 -425 -2 -457 -15 -16 -6 -49 -25 -74 -42 -25
-17 -48 -27 -51 -22 -86 104 -89 118 -95 498 -4 274 -3 334 9 355 8 14 14 53
15 91 0 58 3 69 30 99 34 38 44 85 13 58 -30 -26 -53 -28 -210 -15 -107 10
-158 18 -170 29 -30 25 -43 30 -43 16z"/>
<path d="M3670 2955 c0 -8 -12 -44 -26 -79 -26 -61 -29 -65 -70 -75 -88 -22
-154 -52 -154 -69 1 -41 15 -46 75 -28 31 10 59 16 62 12 7 -7 -10 -51 -58
-148 -48 -96 -131 -303 -170 -423 -16 -49 -45 -112 -64 -140 -18 -27 -50 -81
-70 -120 -44 -83 -62 -105 -86 -105 -20 0 -39 28 -39 58 0 27 66 182 155 366
54 112 75 164 69 174 -5 8 -26 24 -46 36 l-36 21 -69 -47 c-37 -26 -106 -84
-152 -128 -97 -93 -108 -93 -113 3 -3 60 -4 63 -38 79 -44 21 -50 22 -50 3 0
-20 -127 -414 -142 -440 -6 -11 -16 -29 -22 -40 -36 -67 -79 -115 -104 -115
-37 0 32 277 109 438 42 87 42 109 -1 132 -46 25 -80 2 -80 -54 0 -30 -7 -32
-37 -11 -29 20 -195 75 -228 75 -30 0 -84 -49 -111 -102 -68 -131 -121 -363
-109 -478 7 -76 39 -150 64 -150 22 0 61 41 45 47 -42 15 -44 23 -29 133 17
128 53 245 111 365 52 105 81 135 130 135 31 0 134 -36 134 -47 0 -8 -66 -133
-123 -233 -84 -147 -125 -219 -149 -260 l-20 -35 30 33 c16 18 51 71 78 117
27 46 54 84 60 85 26 1 35 -28 28 -91 -7 -73 6 -133 37 -173 33 -42 52 -34 92
42 20 37 48 85 62 107 24 39 25 39 20 10 -18 -95 -18 -145 0 -165 25 -27 45
-25 45 5 0 44 84 281 118 333 8 12 21 21 28 18 17 -7 26 5 13 20 -7 9 -1 23
23 51 56 66 190 191 225 210 18 9 33 21 33 25 0 5 5 8 10 8 22 0 7 -56 -41
-151 -107 -214 -134 -386 -72 -460 29 -33 71 -39 95 -11 8 9 46 72 84 139 38
67 70 120 72 118 2 -2 -2 -38 -8 -80 -6 -43 -9 -92 -6 -110 7 -34 49 -85 72
-85 26 0 86 64 116 124 l30 61 -37 -42 c-20 -24 -45 -43 -55 -43 -22 0 -50 36
-50 63 0 43 129 356 250 610 72 149 135 276 140 281 14 14 160 34 410 57 190
16 249 18 308 10 40 -6 79 -11 87 -11 24 0 17 39 -11 67 l-25 25 -157 -5
c-147 -5 -413 -27 -516 -42 -39 -6 -46 -5 -46 9 0 9 1 17 2 19 6 9 -29 51 -55
67 -38 24 -47 25 -47 5z"/>
<path d="M1800 2900 c-251 -34 -437 -163 -442 -306 -4 -84 44 -166 157 -269
52 -48 95 -91 95 -96 0 -4 -26 -10 -57 -14 -150 -15 -224 -28 -299 -50 -246
-74 -429 -307 -411 -525 8 -100 31 -162 82 -218 53 -59 110 -93 215 -130 64
-22 92 -26 195 -26 135 0 207 15 314 66 88 42 196 149 239 238 84 171 61 295
-90 494 l-69 91 43 3 c23 2 103 -1 177 -7 74 -6 136 -9 138 -8 11 12 -205 60
-309 69 l-123 10 -97 100 c-98 101 -134 156 -145 221 -17 108 88 197 269 227
77 12 265 13 272 1 3 -5 -12 -21 -34 -36 -60 -41 -166 -158 -194 -213 -22 -43
-31 -89 -27 -134 2 -27 21 -22 21 5 0 32 52 109 108 157 66 59 287 178 356
192 31 7 55 17 53 22 -2 6 -29 23 -60 39 l-56 29 -56 -17 c-54 -15 -58 -15
-71 2 -7 10 -14 21 -14 25 0 14 -66 56 -95 61 -16 2 -55 1 -85 -3z m-67 -818
c57 -84 84 -144 98 -217 27 -145 -91 -343 -261 -438 -201 -112 -522 -81 -638
61 -36 44 -37 47 -36 126 0 66 5 92 27 140 37 80 165 206 271 266 135 75 309
128 432 129 l60 1 47 -68z"/>
<path d="M4537 2793 c-12 -11 -8 -23 8 -23 8 0 15 7 15 15 0 16 -12 20 -23 8z"/>
<path d="M1657 2674 c-4 -4 -4 -10 -2 -14 6 -10 55 0 55 11 0 10 -43 12 -53 3z"/>
<path d="M3120 2530 c-9 -16 -8 -21 5 -26 23 -9 47 4 43 23 -5 26 -35 28 -48
3z"/>
<path d="M3721 2441 c-80 -85 -153 -310 -154 -476 -1 -95 17 -177 44 -201 18
-17 20 -16 44 6 l24 23 -23 18 c-23 18 -23 18 -10 121 18 141 54 259 120 391
56 112 104 135 197 93 31 -14 57 -28 57 -31 0 -10 -82 -162 -187 -344 -114
-199 -112 -195 -77 -152 16 19 48 66 71 105 23 39 47 78 52 86 7 12 13 13 27
4 16 -10 19 -24 19 -105 0 -74 4 -101 19 -125 20 -34 52 -58 66 -49 7 4 147
244 157 270 4 11 -2 2 -67 -93 -55 -81 -90 -96 -90 -37 0 65 66 278 127 408
l36 77 -23 25 c-13 14 -32 27 -42 31 -27 8 -58 -23 -58 -58 0 -31 -10 -35 -43
-14 -27 18 -198 76 -223 76 -10 0 -38 -22 -63 -49z"/>
<path d="M1720 2337 c0 -19 16 -31 24 -18 3 5 -1 14 -9 21 -12 10 -15 10 -15
-3z"/>
<path d="M1090 2295 c0 -21 28 -31 43 -16 9 9 8 14 -3 21 -22 14 -40 12 -40
-5z"/>
<path d="M4181 2119 c-7 -12 -10 -23 -8 -26 3 -3 11 5 17 17 15 28 8 35 -9 9z"/>
<path d="M3230 1646 c0 -29 38 -92 75 -124 32 -29 42 -32 99 -32 74 0 133 16
281 77 61 25 136 54 169 64 l58 18 -5 -32 c-3 -18 -49 -125 -102 -237 -138
-293 -188 -411 -224 -528 -33 -112 -57 -148 -164 -249 -37 -36 -66 -54 -92
-59 -76 -14 -89 24 -54 154 l22 84 56 24 c88 39 168 129 185 209 4 19 -7 6
-28 -36 -34 -64 -123 -159 -151 -159 -7 0 -18 6 -24 14 -10 11 -4 30 25 88 20
40 43 81 51 90 9 9 12 25 9 36 -5 15 1 26 23 41 16 12 34 21 40 21 18 0 12
-17 -8 -23 -10 -2 -24 -15 -31 -27 -12 -22 -11 -22 26 -15 22 5 47 8 56 9 13
0 16 8 12 35 -5 40 -39 81 -66 81 -25 0 -101 -52 -121 -84 -9 -13 -27 -26 -39
-28 -17 -2 -22 -9 -21 -26 2 -13 -6 -41 -18 -63 -11 -23 -32 -75 -46 -117 -19
-58 -44 -101 -100 -174 -40 -54 -78 -98 -83 -98 -31 0 -1 103 99 339 34 79 61
152 61 162 0 22 -37 49 -66 49 -25 0 -94 -50 -187 -137 -54 -51 -71 -62 -82
-53 -18 15 -21 6 107 268 60 123 113 235 119 249 13 36 1 72 -32 88 -36 19
-36 20 -44 -12 -3 -16 -38 -93 -77 -173 -180 -371 -229 -492 -293 -732 -21
-77 -24 -102 -15 -118 22 -41 41 -18 81 95 62 177 89 222 183 313 103 99 166
146 179 133 6 -6 -6 -41 -31 -94 -76 -156 -103 -269 -84 -345 13 -47 55 -98
73 -86 6 3 44 56 85 117 l76 112 -6 -63 c-10 -104 28 -162 107 -162 57 0 106
30 184 114 l71 75 6 -49 c8 -62 42 -106 74 -96 13 4 45 46 81 107 33 54 59 99
57 99 -2 0 -22 -24 -45 -54 -59 -79 -100 -85 -101 -15 0 55 71 217 291 664 43
88 81 174 84 192 6 29 2 34 -40 63 l-47 32 -127 -30 c-166 -41 -239 -52 -339
-52 -87 0 -116 9 -179 58 -28 20 -33 22 -33 8z"/>
<path d="M2507 1586 c-83 -31 -192 -118 -274 -219 -140 -174 -265 -394 -330
-584 -36 -103 -38 -114 -38 -238 0 -126 1 -132 30 -185 25 -47 39 -60 90 -85
153 -77 318 -7 452 190 49 74 106 185 124 244 13 42 12 44 -15 67 -36 31 -56
31 -56 -1 0 -66 -149 -306 -256 -411 -61 -60 -107 -84 -164 -84 -34 0 -48 6
-75 33 -47 47 -59 99 -46 207 26 214 152 527 277 692 63 83 193 235 236 275
78 73 146 101 176 71 18 -18 14 -76 -11 -148 -22 -63 -23 -65 -55 -62 -37 4
-41 -9 -11 -36 l20 -20 -42 -83 c-23 -46 -64 -117 -90 -158 -27 -41 -48 -75
-47 -75 2 -1 15 -8 30 -15 40 -20 67 -4 114 66 89 134 164 323 164 412 0 117
-96 187 -203 147z"/>
<path d="M2793 1474 c-7 -18 11 -39 26 -30 17 11 13 46 -4 46 -9 0 -18 -7 -22
-16z"/>
<path d="M2000 1418 c0 -6 -11 -21 -25 -34 -14 -13 -25 -33 -25 -45 0 -19 4
-21 32 -15 41 8 47 15 54 58 5 30 3 36 -15 41 -12 3 -21 0 -21 -5z"/>
<path d="M4880 1245 c-30 -31 -69 -61 -87 -67 -39 -14 -43 -28 -8 -28 15 0 25
-6 25 -14 0 -18 -108 -168 -155 -218 -43 -44 -72 -55 -91 -37 -7 8 -26 45 -41
84 -35 87 -67 108 -119 80 -38 -20 -66 -60 -122 -171 -22 -43 -50 -90 -62
-104 l-21 -25 5 41 c8 60 61 217 102 301 30 63 33 75 22 93 -20 32 -58 37 -80
10 -10 -12 -18 -28 -18 -36 0 -18 -4 -18 -43 2 -17 10 -63 27 -101 40 -82 26
-100 21 -144 -40 -28 -39 -92 -191 -92 -218 0 -7 -9 -31 -21 -52 -11 -21 -16
-35 -10 -32 6 4 10 -26 10 -84 -1 -68 4 -99 18 -127 21 -43 31 -48 57 -28 19
14 19 15 -2 32 -20 18 -20 20 -6 116 14 103 42 190 94 295 54 111 99 133 180
92 22 -11 40 -23 40 -26 0 -2 -9 -23 -20 -44 -19 -37 -47 -86 -174 -305 -28
-48 -36 -68 -21 -50 14 17 42 58 63 92 20 35 42 63 49 63 21 0 31 -31 22 -65
-18 -63 20 -176 59 -174 31 1 97 93 141 197 23 55 57 118 75 139 41 46 52 40
91 -51 18 -42 36 -68 56 -80 27 -16 31 -16 64 0 41 19 96 86 163 195 26 43 50
79 54 79 4 0 14 -12 21 -26 14 -26 14 -26 20 22 3 27 19 79 36 117 17 37 29
67 28 67 -2 0 -27 -25 -57 -55z"/>
<path d="M1990 1224 c0 -8 7 -22 16 -31 22 -22 40 -3 25 26 -14 25 -41 28 -41
5z"/>
<path d="M1723 1154 c-7 -18 11 -39 26 -30 17 11 13 46 -4 46 -9 0 -18 -7 -22
-16z"/>
<path d="M2076 533 c-12 -12 -6 -43 9 -43 8 0 15 2 15 4 0 2 3 11 6 19 5 15
-19 31 -30 20z"/>
</g>
</svg>
