<svg version="1.0" xmlns="http://www.w3.org/2000/svg" width="560" height="519"><g fill="#f2b33e"><path d="M199 492.8c-13.8-5.7-17.8-25.7-10-50.3 1.8-5.5 3.6-10.4 4-11 .4-.5 1.3-2.8 2-5 2.3-7 17.6-32.3 25.5-42.1 7.3-9 18.2-18.8 24.7-22.2 7.4-3.8 10.8-4.1 10.8-1.2 0 1.2-.7 2-1.7 2s-3.1.9-4.8 2c-2.1 1.4-2.5 2-1.2 2 .9 0 1.7.2 1.7.3 0 .2-3.6 4.2-8.1 8.8-20.7 21.6-32.8 42-41.8 70.4-1.7 5.2-5.1 20.7-5.1 23.3 0 .1-.7.2-1.5.2-.9 0-1.5-.9-1.5-2.2 0-4.5 2.4-17.8 3.2-17.8.4 0 .8-1 .8-2.2 0-4.6 7.6-25.8 9.2-25.8.4 0 .8-1 .8-2.2 0-2 6-13.9 10.3-20.3l2-3-2.7 2.7c-1.4 1.5-2.6 3-2.6 3.3 0 .3-2.9 5.6-6.4 11.8-3.5 6.2-7 12.7-7.7 14.5-.8 1.7-1.7 3.2-2.1 3.2-.5 0-.8.6-.8 1.4 0 .8-1.4 5.6-3.2 10.8-2.8 8.2-3.2 10.7-3.2 20.3-.1 7 .3 11.7 1.1 13 1.1 1.8 1.2 1.8 1.3.3 0-3.7 2.7-1.6 4.3 3.5 4 12.4 15.7 12.3 27.8-.2 3.3-3.5 14.9-18.6 14.9-19.5 0-.2 1.6-2.9 3.5-6.1 1.9-3.2 4.2-8 5.1-10.7 1.5-4.7 1.5-5-.2-6.3-3.4-2.5-.9-2.4 4.3 0 2.8 1.4 5.3 3.1 5.6 3.9 2.3 6-11.1 30.6-23.2 42.6l-6.6 6.5-.3-3.2c-.2-2.4-.8-3.3-2.2-3.3-1.2 0-2 .8-2.2 2.2-.4 2.7-7.5 6.5-13.8 7.3-3.4.4-5.9-.1-10-1.7zm37.9-17c.1-.5 1.6-2.9 3.5-5.5 3.6-5.2 7.2-11.7 4.2-7.8-.8 1.1-1.9 2.5-2.4 3.1-.5.5-2.2 3-3.8 5.4-4 6.2-7.5 10-9.1 10-.7 0-1.3.7-1.3 1.6 0 1.2 1.3.6 4.4-2.2 2.4-2.2 4.5-4.2 4.5-4.6zm11.9-19.8c1.4-3.9.8-3.8-1.2.2-1.8 3.6-1.9 4.1-.7 3.4.5-.3 1.4-1.9 1.9-3.6zm4.4-11.4c-.3-.6-1.1.6-1.8 2.5-1.8 5-1.6 5.9.5 1.9 1.1-1.9 1.6-3.9 1.3-4.4zM225.8 389c.6 0 1.2-.9 1.2-2s.7-2.3 1.5-2.6c.8-.4 1.5-1.2 1.5-1.9s1.8-2.9 4.1-5c2.2-2 3.9-3.8 3.7-4-.6-.6-10.8 9.4-10.8 10.5 0 .5-.6 1.3-1.2 1.7-.7.4-2.8 3.1-4.6 5.8l-3.4 5 3.4-3.8c1.8-2 3.9-3.7 4.6-3.7zm18.2-18c0-1.1-.4-2-.8-2-.5 0-1.7.9-2.7 2-1.8 2-1.7 2 .8 2 2 0 2.7-.5 2.7-2zM267 472.5c0-.8-1.1-1.7-2.5-2.1-2-.5-2.5-1.2-2.5-3.8 0-4.2 4-20.1 8-31.5 4.4-12.9 5.8-16.2 18-41.6 13-27 14.7-31.5 12-31.5-.5 0-1-.7-1-1.5 0-2 1.2-1.9 3.1.3.9.9 3.1 2.5 4.9 3.5 3.1 1.7 3.2 2 2.8 6.5-.4 3.4-3.8 11.4-12.2 28.4-6.5 13.1-11.5 24.2-11.1 24.8.3.5-.3 1-1.4 1-5 0-2.6-6.5 16.7-44.6 3.3-6.5 4.3-9.6 3.8-11-.7-1.5-.9-1.6-1.3-.4-.5 1.7-2.4 6.1-4.9 11.5-.9 1.9-2 3.5-2.5 3.5s-.9.6-.9 1.4c0 .8-2.1 5.9-4.6 11.3-2.5 5.4-6.4 13.7-8.6 18.6-2.3 4.8-4.5 8.7-5 8.7-.4 0-.8.8-.8 1.8 0 1.1-.9 4.5-2 7.7-2.4 6.9-2.5 9.2-.3 5 2.5-4.9 4.4-6.5 7.5-6.5h2.9l-2.3 3.1c-4.1 5.6-5.4 8.2-10.4 21.8-3.4 9.5-4.5 13.6-3.6 13.9 1.7.5 1.5 3.2-.3 3.2-.8 0-1.5-.7-1.5-1.5zm5.4-28.5c.5-1.7.4-2-.2-1-.5.8-1.3 2.6-1.6 4-.5 1.7-.4 2 .2 1 .5-.8 1.3-2.6 1.6-4z"/><path d="M206.2 467.8c.3-2.5 3.6-3.7 4.8-1.7 1.3 2 0 3.9-2.7 3.9-2 0-2.4-.4-2.1-2.2zM298.7 465.2c-1.9-2.1-3.7-6.6-3.7-9.3 0-2.9 4-2.6 4.1.4.1 1.3.5.5 1-1.8 1.7-7.2 5-16.5 6-16.5.5 0 .9-.9.9-1.9 0-1.1 2-6.7 4.5-12.7 2.5-5.9 4.5-11.1 4.5-11.6 0-1.9-3.1-1.9-5.6.1-1.5 1.2-2.2 2.1-1.5 2.1 2.2 0 1 5.9-2.9 14.3-2.2 4.7-4.8 11.5-5.7 15.1-1.3 5-2.2 6.6-3.5 6.6-1.1 0-1.8-.7-1.8-1.8 0-3.9 4.3-17 8.2-24.8 2.3-4.6 3.9-8.6 3.5-9-.3-.4-3.8 1.9-7.6 5-7 5.6-11.6 7.6-8.9 3.8 1.9-2.8 13.8-13.1 18-15.8 2.1-1.3 4.6-2.4 5.6-2.4 2.4 0 7.2 3.7 7.2 5.5 0 1.5-8.2 22.4-10.4 26.5-2.3 4.3-6.6 17.7-6.6 20.7v2.8l2.8-3c1.5-1.6 4.2-5.3 6-8.2 1.8-2.8 3.9-5.7 4.7-6.3.8-.6 2.6-4.8 4.1-9.3 1.5-4.5 3.5-9.9 4.6-12 1.1-2.2 1.7-4.6 1.4-5.4-.7-1.8 1.1-4.3 3.1-4.3.7 0 2.7-1.5 4.2-3.3 1.6-1.8 5-4.3 7.5-5.6 4.4-2.1 4.8-2.2 7.1-.7 8 5.2 5.8 19.4-4.6 30.2-2.2 2.2-3.6 4.4-3.2 4.9.5.4.3.5-.4.1s-3.4.3-6.1 1.4c-4.6 2-5 2.4-6.8 8.2-2.4 7.9-4.4 8.8-4.4 1.9 0-2.7.5-5.3 1-5.6.6-.3 1-1.5 1-2.6 0-1.2.7-1.9 1.9-1.9 1.6 0 1.8-.6 1.4-3.8-.5-4 1-8.1 6.6-16.9 2-3.3 3.2-4.3 5.3-4.3h2.7l-5.5 9.2c-3 5.1-5.3 10-5.2 10.8.6 3 3.8 2.1 8.9-2.7 7.1-6.6 13-18.7 8.3-16.9-1.4.5-1.6.1-1.1-2.3.6-2.8-1.5-6.1-3.9-6.1-.5 0-3.1 2.3-5.7 5-2.7 2.8-5.5 5-6.3 5-.9 0-1.4 1.2-1.4 3.5 0 1.9-.4 3.5-.8 3.5-1.5 0-9.2 21.7-9.2 26 0 2.3-.5 3-2 3-1.3 0-2-.7-2-2 0-1.1-.3-2-.8-2-.4 0-3.4 4.3-6.7 9.5-6.3 10-8.5 11.4-11.8 7.7z"/><path d="M321.4 463.6c-3.9-3.9-4.7-8.6-1.4-8.6 1.1 0 2 .5 2 1 0 .6.6 1 1.4 1 .7 0 1.7 1.4 2.2 3.1.5 1.8 1.7 3.7 2.7 4.3 2.6 1.7 10-2.7 17.4-10.3 6.7-6.9 10.4-13.5 12.3-21.6 1.7-7.4 6.5-19.2 16-39 2.6-5.5 6.2-13 7.9-16.7 1.7-3.8 4.5-9.7 6.1-13.2 3.3-7 3.6-8.6 1.8-8.6-.7 0-6.2 2-12.3 4.4-6 2.5-11.2 4.1-11.5 3.7-.3-.5-3-.5-6 0-9.2 1.3-15 1.1-15-.5s2.2-2.2 12-3.2c3.6-.3 11.7-1.9 18-3.5 15.4-3.8 17.8-3.8 22.4.5 2 1.9 3.6 3.7 3.6 3.9 0 2.5-9.4 23.3-13.9 30.7-.5.8-2 4-3.4 7-1.3 3-4.9 10.7-7.9 17-8.9 18.4-9.6 20.2-11.5 26.5-4.5 14.9.9 14.1 11.8-1.7 4.6-6.7 7.2-11.9 9.5-18.8 4.4-13.2 5.8-16.1 9.6-20.3 4.2-4.6 6.1-4.6 16.9-.7 4.5 1.6 8.6 2.7 9.2 2.3.6-.3.7-.1.3.5-.4.7-.2 1.2.3 1.2.6 0 1.1-.8 1.1-1.8 0-2.2 3-5.2 5.1-5.2 1.8.1 5.5 3.1 6.1 5 .3.8-.8 4-2.3 7-2.6 5.4-9.2 23-10.4 28.1-1.5 6 1.4 3.2 6-5.9 6.9-13.8 10.8-18.1 16.5-18.2 4.1 0 6.5 2.5 9 9.2 2.6 7.4 3.6 8.8 6 8.8 2.9 0 21-21.5 21-25 0-.6-1.3-1.3-3-1.6-3.9-.8-3.8-2 .1-2.8 1.9-.4 5.7-3.1 10.1-7.3 6.5-6.3 7-6.6 6.4-3.8-.4 1.7-1.6 4.8-2.8 7-1.1 2.2-2.3 6.6-2.6 9.8-.2 3.1-.8 5.7-1.2 5.7-.4 0-1.3-1.4-2-3.1l-1.3-3-2.1 3.3c-1.1 1.8-2.4 3.5-2.8 3.6-.5.2-.8.9-.8 1.6 0 2-11.3 16.9-14.3 18.9-5.7 3.7-12.1.6-14.8-7.3-.7-1.9-2-4.7-3-6.1-1-1.4-1.6-2.9-1.2-3.3.3-.3-.1-.6-1-.6-1 0-2.6.9-3.7 2-1.3 1.3-1.6 2-.7 2 2.2 0-12.4 28.6-16.4 32.2-3.1 2.9-3.5 3-5.9 1.7-3.4-2-5.3-8-4.7-15.3.8-9.5-.9-9.7-6.8-.6-5.8 8.9-13.2 18.3-15.8 19.9-2.7 1.8-5.3-.3-6.6-5.3-1.7-6.8-1.5-9.6.8-9.6 2.1 0 2.6-1.1 3.6-8 .9-6.2 5.4-19.7 7.1-21.4.8-.8 1.4-2 1.4-2.6 0-.6.9-2.9 2-5 1.7-3.3 2.6-4 5-4h2.9l-3.8 6.3c-5.5 9.2-10 21.7-11.7 32.9-1.4 8.7-1.4 10.2-.2 11.5 1.3 1.2 1.8 1 4-1.9 1.3-1.8 4.2-6.4 6.3-10.3 2.1-3.8 4.4-7.7 5.1-8.5 1.5-1.7 5.6-9 11-19.4 3.4-6.6 3.5-7 1.8-8.3-2.4-1.7-8.2-3.3-9.9-2.7-.7.3-2.3 0-3.5-.6-2.9-1.5-6.1.6-9.4 6.2-3.6 6.2-9.6 24.3-9.6 28.9 0 3.2-.3 3.9-2 3.9-1.6 0-2-.7-2-3.2v-3.3l-2.3 3.7c-1.2 2-4.8 8-8 13.3-3.3 5.4-6.8 10-8 10.4-3.4 1.3-5.5.2-7-3.7-1.4-3.4-1.4-3.7.3-4 1.4-.2 1.9-1.7 2.4-7.4.8-8.7.1-10.2-.9-1.9-.5 4.1-1.1 6.1-2 6.1-.8 0-1.5-.7-1.7-1.5-.2-.9-1.7.3-4.3 3.4-4.5 5.4-11.3 11-15.8 12.9-5.4 2.2-9.5 1.6-13.3-2.2zM422 447c0-.6-1.2-1-2.6-1-2.7 0-2.7 0-2-6.2.3-3.4 1-6.4 1.4-6.7.4-.3 1.3-3.1 1.9-6.2 1.3-6.6 6.9-21 8.5-22 .6-.4.7-1.2.3-1.8-1-1.7-3.5.5-3.5 3 0 1.1-.4 1.9-1 1.9-.5 0-1 .5-1 1.1 0 .6-2.3 5.2-5.1 10.2-3.1 5.4-4.7 9.3-4 9.5.7.2 1.1 3.4 1.1 8.8 0 9.9 1.1 13 4 11.4 1.1-.6 2-1.5 2-2zm-54.5-26.8c-.5-.5-3.5 6.1-3.5 7.5.1.4 1-1 2-3.1 1.1-2.2 1.8-4.2 1.5-4.4zm5.3-9.7c2.2-4.4 5.2-10.8 6.7-14.2 1.5-3.5 3.2-6.3 3.6-6.3.5 0 .9-1.1.9-2.4 0-1.4.4-2.7.9-3.1.6-.3 2.9-4.5 5.2-9.3 2.3-4.8 4.5-8.8 5-9 1.7-.7.7-7.2-1.1-7.2-.4 0-1 1.6-1.3 3.5-.3 1.9-3 8.6-6 14.8-3 6.3-6.1 13.1-6.8 15.2-.8 2-2.4 4.8-3.6 6.2-1.3 1.3-2.3 2.9-2.3 3.6 0 .7-1.4 4.3-3 8.2-2.7 6.3-3.7 9.5-2.6 8.4.2-.2 2.2-4 4.4-8.4zM241.7 422.9c-2.1-1.1-4.2-1.7-4.7-1.4-.5.3-1.1.1-1.5-.5-.3-.5.2-1 1.2-1s2.5-.6 3.4-1.3c2.2-1.7 8-10.9 13-20.6 3.9-7.6 4-8.3 2.4-9.5-2.6-1.9-1.5-5.1 1.7-4.9 2.3.1 2.9-.5 4.7-5 3.3-8.3 3.7-12.9 1.2-15.1-1.1-1-2.7-1.6-3.6-1.3-1 .5-1.5 0-1.5-1.3 0-4.8 10.2-.2 11.8 5.3.6 1.8 1.3 4.4 1.6 5.8.3 1.6 1.5 2.9 2.7 3.2 2.5.7 1.6 2.7-1.2 2.7-1 0-1.9.7-1.9 1.5s-.7 1.5-1.5 1.5c-1 0-1.5-1-1.5-3 0-1.6-.4-3-1-3-.5 0-1 1-1 2.1 0 1.2-.5 3.9-1.2 6-.8 2.9-1.6 3.9-3.2 3.9-1.9 0-2.1.5-1.8 4.3.3 3.6-.4 5.5-4.5 12.7-2.7 4.7-5.2 9.2-5.6 10-.4.8-1.4 2.6-2.3 4-.9 1.4-.1.8 1.8-1.3 1.8-2.1 5.1-7.2 7.3-11.5 2.2-4.2 4.3-7.8 4.8-8 .4-.2.7-.8.7-1.4 0-.6 1-3.7 2.3-6.9 1.6-4.2 2.7-5.9 4.1-5.9 1.6 0 1.7.5 1.1 3.7-1.9 10.2-15.2 34.1-20.6 36.8-3.3 1.8-2.6 1.8-7.2-.6zM172.4 405.6c-.9-2.4.4-4.8 2.3-4.4 1.2.2 1.8 1.2 1.8 2.8 0 2.9-3.2 4.1-4.1 1.6zM180.1 403.6c-1.2-1.4-.5-2.6 1.6-2.6 1.5 0 1.8 2.6.4 3.4-.5.3-1.4 0-2-.8zM199.5 399.6c-2.7-4-.4-7.1 3.3-4.7 1.6 1 1.2 6.3-.5 6.8-.6.2-1.9-.7-2.8-2.1zM113.7 390.5c-6.8-2.3-16.2-7.4-19.7-10.7-5.8-5.4-9.7-14.9-10.7-25.9-.8-8.6 3-20 9.8-29.4 10.4-14.5 28-23.8 49.4-26.4 13-1.6 14.5-1.5 14.5.9 0 1.7-.7 2-4.2 2-4.3 0-13.1 1.4-20.3 3.2-6 1.5-20.9 7.9-21.8 9.5-.4.7-1.2 1.3-1.7 1.3-.6 0-2.3 1.4-3.8 3-1.6 1.7-3.4 3-4.1 3-.6 0-1.1.6-1.1 1.3 0 .7-1.2 2.6-2.7 4.3-1.6 1.6-3.4 4.3-4.1 5.9-1 2.4-.3 1.9 3.3-2.2 3.6-4.1 5.3-5.3 7.6-5.3 1.6 0 2.9.3 2.9.6s-1.9 2.5-4.1 4.9c-21.2 22.7-16.5 43.6 11.4 50.6 3 .7 4.7 1.7 4.7 2.6 0 1.3-1 1.5-4.7 1.1l-4.8-.5 3.5 1.5c1.9.8 6.1 1.9 9.3 2.6 4.4.8 5.7 1.5 5.7 2.8 0 2.6-5.8 2.3-14.3-.7zM194.7 387.4c-1.6-1.6-.6-5.4 1.8-7 1.4-.9 2.5-2.3 2.5-3 0-1.9 4.9-1.8 5.6.1.8 1.9-.1 5.4-1.8 7.7-1.4 1.9-6.9 3.4-8.1 2.2z"/><path d="M130 384.5c0-.9 1.4-1.6 3.8-2 16.2-2.5 25.2-6.7 34.7-16.2 6.3-6.3 12.3-16.3 14-23.5.4-1.6 1.4-2.8 2.2-2.8 2.4 0 1.2 8.4-2.3 15.4-3.3 6.7-9.2 13.6-11.6 13.6-.9 0-1.8 1-2 2.1-.2 1.2-1.2 2.7-2.3 3.3-1.1.6-2.4 1.7-2.8 2.3-3.4 5.4-33.7 12.4-33.7 7.8zM170 381.2c0-2.2 1.1-3.9 4-6.6 6.3-5.7 12.5-14.9 14.6-21.5 1.4-4.5 2.4-6.1 3.7-6.1 1.6 0 1.8.6 1.2 4.3-1.4 9.2-11.4 24.2-20.6 30.7l-2.9 2.1v-2.9zM278.4 373.5c-.4-.9 0-2.3.9-3.2 2.1-2.1 4.9-.9 4.5 1.9-.4 2.8-4.5 3.8-5.4 1.3zM331.5 368.4c-4.9-3.2-8.6-8.7-9.3-13.8l-.5-3.9 5.4 4c3 2.2 7.1 4.7 9.2 5.4 5.1 1.8 4.8 3.9-.5 4-2.4.1-3.5.3-2.5.6.9.2 1.7.9 1.7 1.4 0 .5 3.2.9 7 .9 5.3 0 7 .3 7 1.4 0 1.7-3.1 2.6-9 2.6-3.3 0-5.7-.8-8.5-2.6zM210.9 358.7c-2.4-1.9-3.7-4.9-4.5-10.5-.6-4.9-.5-5.2 1.5-5.2 1.6 0 2.1.6 2.1 2.4 0 3.3 1 5.7 2.1 5 .5-.3 1.6.2 2.5 1 3.1 3.1 4.3 2 12.1-10.9.7-1.1 1.9-3.5 2.8-5.3.9-1.8 3.6-6.4 6-10.2 2.5-3.9 4.5-7.2 4.5-7.5 0-.2 2.2-4.5 5-9.5 7.1-13.1 7-12.5.5-14.9-3.1-1.2-6.9-2.1-8.5-2.1-1.7 0-3-.4-3-1 0-.5-1.6-1-3.5-1s-3.5.3-3.5.8c0 .4-1.5 2.3-3.3 4.3-4.6 5-12.1 24.9-13.3 35.7-.6 4.3-1 5.2-2.7 5.2-1.8 0-1.9-.5-1.2-5.7.6-4.9 2.8-14.4 5-21.3.5-1.6-.3-1.9-8.2-2.5-4.8-.4-10.1-1.3-11.7-2.1-1.6-.8-5.4-1.7-8.3-2-4.3-.6-5.3-1-5.3-2.5 0-1.1.7-1.9 1.8-1.9 4.5 0 15.1 2.3 23.3 5.1 5 1.7 9.5 2.7 9.9 2.2.4-.4 1.3-2.4 1.9-4.3 2.5-7.7 12.3-17.3 15.5-15.2.8.5 12.9 4.8 21.9 7.8 1.2.5 1.7.1 1.7-1.3 0-2.7 2.8-6.3 5-6.3 2.8 0 7.8 3.2 8.4 5.5.3 1.2-1 5.2-3.4 10-6.2 12.7-12 31.4-12 38.5 0 7.2 2.8 4.9 11.1-9 1.5-2.5 4-9.7 11.9-33.9 3.8-11.7 3.9-12.5 2.3-14.3-.9-1-1.3-2.1-.9-2.6.4-.4 1.3.1 2 1 .7 1 2.9 2.5 4.9 3.3 4.5 1.9 5.9 4.4 5.6 10.1-.5 7.6 1 7.3 10.7-2.1 8.5-8.2 19.5-16.5 21.8-16.5 1.9 0 7.4 3.8 8.5 5.7 1.1 2.1 1.4 1.3-9.6 24-4 8.3-7.3 15.4-7.3 15.8 0 .3-1 2.7-2.2 5.3-4.4 9.6-1.8 17.9 3.7 11.9 1.4-1.5 2.3-2.7 2-2.7-.7 0 3.1-6.7 8.6-15.5 2.1-3.3 6.7-14.2 10.4-24.5 6.7-18.5 11.9-31.2 14-34 .6-.8 2.1-3.9 3.3-6.7 1.7-4.5 1.8-5.3.6-5.3-.8 0-1.2-.4-.9-1 .3-.5 1.7-1 3.1-1 3.9 0 3.3 5.9-1.7 15.5-5 9.8-11.7 26-16.9 41.1-4.1 12-6.3 16.8-8.9 19.8-1.2 1.4-1.3 2-.3 2.3.7.3 1.2 2.2 1.2 4.9 0 3.8-.3 4.4-2.1 4.4-2 0-2.1-.3-1.4-5.7.4-3.2.4-5.6.1-5.3-.5.6-7 12-10.7 18.9-5.1 9.4-11.1 9.5-15.9.3-3.5-6.9.5-25.2 9.6-44 2.9-6.2 5.4-11.7 5.4-12.2 0-.6.7-1 1.5-1 2.7 0 1.5 9.1-1.5 12-1.2 1.1-8.9 19.8-10.3 25-3.3 12.2-2.9 16.9 2.2 21.4 2.7 2.4 2.7 1.2.1-2.1-3.3-4.2-2.6-9.9 2.6-22.6 5.4-13 15.2-33 16.5-33.5 1.6-.6.9-3.1-1.2-4.6-2.6-1.8-6-.6-10.1 3.8-1.5 1.6-2.8 2.5-2.8 2s-.4-.4-.8.1c-.4.6-2.3 2.2-4.2 3.6-4.9 3.7-12 10.5-17.4 16.7-3.5 4-4.4 5.7-3.7 6.6 1.3 1.5.4 2.6-2 2.6-2.2 0-4 3.2-8.6 15.9-5.8 15.6-6.3 17.9-5.3 20.7.6 1.4.6 3.2.2 4-.7 1.2-1.1 1-2-1-.6-1.3-2-2.7-3.1-3.1-2.5-.8-3.5-4.3-2.7-9 1.3-6.5-.6-5.7-4.9 2.2-4.5 8.3-6.4 9.6-9.7 6.6-4.1-3.7-5.2-7.4-5.3-17.3 0-7.6-.3-9.5-1.5-9.8-.8-.1-2 1-2.7 2.5-3.2 7.1-17.6 27-21.6 29.8-2.6 1.8-2.7 1.8-4.8.2zm40.1-11.8c0-.5-.7-.9-1.5-.9-1.1 0-1.5-1.2-1.5-4.8 0-6 2-16.2 3.1-16.2.5 0 .9-1.3.9-3 0-2.8 6.5-22.3 8.9-26.9.7-1.2.9-3.1.6-4.2-.9-2.9-3.5-.5-3.5 3.2 0 2.2-.5 2.9-2 2.9-1.4 0-2 .7-2 2.3 0 2.5-9.6 20.7-10.9 20.7-.5 0-1.1 1.1-1.3 2.5-.4 2.1-.1 2.5 1.8 2.5 2.4 0 2.4.1 2.1 9.3-.2 7.5.1 9.8 1.6 12 1.6 2.5 3.7 2.9 3.7.6zm17-7.5c0-1.4 1.8-7.2 4.1-13 3.6-9.2 4.3-10.4 6.5-10.4 2.1 0 2.4-.5 2.4-3.5 0-1.9.5-3.5 1-3.5.6 0 1-.6 1-1.3 0-.7.6-1.9 1.2-2.5.9-.9 1.2-3.6.9-8-.4-9-3-12-4.5-5.5-1.7 6.9-12.9 40.4-13.7 40.9-1.2.7-1.1 9.4.1 9.4.6 0 1-1.2 1-2.6z"/><path d="M329.7 348.9c-1.9-1.1-4.7-6-4.7-8.4 0-2.6 3.4-1.7 5.2 1.4 1.5 2.7 1.9 2.9 4.2 1.8 3.3-1.5 3.3-2.7.1-2.7-2.9 0-4.5-3-4.5-8.6 0-5.2 11-35.8 13.7-38 .7-.6 1.3-1.8 1.3-2.7 0-2.6 16.6-36.9 18.2-37.5.4-.2.8-.9.8-1.7 0-.7.9-3.3 2-5.9 1.8-4 2.5-4.6 5-4.6 1.7 0 3 .5 3 1 0 .6-.4 1-.8 1-.9 0-2.3 2.7-14.2 27.5-12.8 26.6-17.8 38.1-23.1 53.4-3 8.6-2.2 13.1 2.3 13.1 2.6 0 5.3-3.3 12.2-15 4.4-7.4 6.6-12.3 7.5-16.6 2.1-10.8 8.4-26.6 12.2-30.7 1-1.2 1.9-2.4 1.9-2.8 0-1.6 6.9-3.9 9.2-3 1.3.5 4.3 1.5 6.8 2.2 2.5.7 6.9 2.3 9.9 3.6 6.5 2.8 6.1 2.8 6.1.1 0-3.2 3.6-6.6 6.5-6.1 3.4.7 6.5 4 6.5 6.9 0 1.4-1 4.4-2.3 6.7-3.1 5.6-8 19.2-10.7 29.5-1.4 5.3-2.7 8.2-3.6 8.2-.8 0-1.4-1-1.4-2.5 0-3.8 3.1-15.5 4.1-15.5.5 0 .9-1.2.9-2.6 0-3.3 4-14.4 5.1-14.4.5 0 .9-1 .9-2.2.1-1.3.7-3.4 1.4-4.7 1.5-2.8 1.1-5.1-.9-5.1-1.4 0-2.5 2.2-2.5 5.2 0 1.1-.8 2.2-2 2.5-1.1.3-2 1.3-2 2.3 0 1-.7 2.5-1.5 3.4-.8.8-1.5 2-1.5 2.7 0 .6-2 4.9-4.5 9.5-2.5 4.5-4.5 8.5-4.5 8.8 0 .3 1 .6 2.1.6 2 0 2.1.4 1.6 6.8-.5 6.6 1.1 20.2 2.3 20.2 1.1 0 3-4.9 3-7.8 0-2 .3-2.3.9-1.3.8 1.3 1.2 1.3 2.7 0 2.1-1.7 9.2-12.6 12.4-19.2 2.5-4.9 3.7-6.3 4.7-5.4.7.8-15.7 31-19.4 35.6l-1.9 2.4-3.6-3.2c-4.2-3.7-5.3-7.7-4.9-18.8.2-6.6 0-7.3-1.7-7.3-1 0-2.4 1.1-3 2.6-2.2 4.8-12.7 19.8-17.6 25.1-3.4 3.8-5.5 5.3-7 5.1-3.3-.5-5.7-6.7-6.4-16.4l-.7-8.7-3.1 4.9c-1.7 2.7-5 8.5-7.4 12.9-2.5 4.8-5.6 9.1-7.8 10.8-3.8 2.9-4.8 3.2-7.5 1.6zm41-14.6c3.4-4.4 23.7-39.6 28.6-49.6 1.8-3.7 1.8-3.9 0-5.3-2.1-1.7-10-4-16.3-4.8-4-.6-4.9-.3-7.6 2.2-3.7 3.4-8.2 12.5-11.9 24.2-2.1 6.8-2.7 10.9-3 20.5-.2 6.6-.1 10.5.1 8.8.4-2.5 1-3.3 2.6-3.3 1.8 0 2 .4 1.4 4.1-.6 3.9.4 6.9 2.4 6.9.5 0 2.1-1.7 3.7-3.7z"/><path d="M362.4 319.3c.4-3.8 1.1-6.9 1.6-7.1.6-.2 1-1.8 1-3.6 0-4.1 3.1-13.1 7.8-22.6 3.4-6.9 4-7.5 7.1-7.8l3.3-.3-2.1 3c-5 7-13.2 27-14.6 35.6-1.4 8.6-1.7 9.5-3.2 9.5-1.3 0-1.5-1-.9-6.7zM189.6 339.1c-.3-2.1-1.2-5.3-2.1-7.2-1.4-3.4-1.4-3.4-1.5-.6 0 3.8-2.7 3.5-3.6-.5-1.2-5.6-7.2-17.1-11.1-21.6-1.3-1.4-2.3-2.9-2.3-3.3 0-.5-1.1-1.1-2.5-1.5-3.9-1-3.1-3.4 1-3.4 1.9 0 3.5.5 3.5 1 0 .6 1.5 1 3.3 1 2.1 0 2.7.3 1.9.9-1 .6.3 2.9 5 9.2 7.7 10.2 11.5 17.7 12.4 24.7.6 4.8.5 5.2-1.3 5.2-1.6 0-2.2-.9-2.7-3.9zM213.2 330.2c.7-7.2 5.5-21 10.6-30.5 3.4-6.4 4.2-7.2 7-7.5 3.7-.4 3.9.1 1.3 2.9-4.5 4.8-13.9 27.4-15.6 37.2-.4 2.5-1.1 3.7-2.2 3.7-1.3 0-1.5-.9-1.1-5.8zM163 297.1v-2.8l3.5 1.6c4.5 2.1 4.5 4.1 0 4.1-3.2 0-3.5-.3-3.5-2.9zM150.8 287.2c-11.2-11.2-15.8-19-15.8-26.8 0-13.2 13-24.3 34.7-29.8 12.6-3.2 15.3-3.3 15.3-.6 0 1.5-.7 2-2.9 2-4.6 0-20.1 4.9-25.6 8-7.2 4.1-13.3 9.6-15.5 14.1-2.4 4.5-2.4 4.9-.7 4.9.9 0 1.4 1.3 1.5 3.6.3 7.2 3 11.8 13.6 22.8 4.3 4.5 6.6 7.7 6.6 9.2 0 1.3-.3 2.4-.7 2.3-.5 0-5.2-4.4-10.5-9.7zM109.1 291.7c-1.9-2.4-.4-4.4 2.9-3.9 2.1.3 3 1 3 2.3 0 1.1-.4 1.9-.9 1.9s-1.6.2-2.4.5c-.7.3-1.9 0-2.6-.8z"/><path d="M171 284.4c-4.6-10.4-1.1-18.9 13.5-33l9.5-9.1-4-.7c-2.6-.4-4-1.1-4-2.1 0-1.1 1.2-1.5 5-1.5 2.8 0 5-.4 5-1 0-.5-.4-1-.9-1-2.1 0-8-4.6-8.1-6.2 0-3.8 6.8-1 11.3 4.5 2.6 3.2 3.2 3.4 6 2.6 5.5-1.6 10-1 15.4 2 2.9 1.6 5.4 2.6 5.6 2.3.2-.4.5-2.7.6-5.2.1-2.5.6-7.4 1.1-10.9.5-3.6.7-6.8.4-7.2-.7-1.1-4.2-1.7-25.5-4.3-12.2-1.5-20.7-3-22.8-4-2.3-1.3-4.1-3.5-6.2-7.9-1.6-3.4-2.9-7.1-2.9-8.2 0-3.1-1.2-4.2-5.5-4.9-9.1-1.7-16.1-8-19.3-17.6-1.7-4.8-2.2-5.4-6.6-7.1-2.7-1-6.6-3-8.7-4.5-4.5-3.1-10.6-12.2-11.5-17.1-.8-4.3 1.7-8.3 5.1-8.3 3.1 0 3.3 2.5.6 4.8-1.8 1.5-1.9 2-.6 4.7l1.3 3 .1-3.7c.1-4.5.4-4.6 15.1-2.3 5.2.8 10.4 1.4 11.5 1.4 4-.1-1.8-1.7-8.8-2.4-5.8-.6-6.7-1-6.7-2.7 0-1.8.5-2 4.3-1.4 2.3.3 6.7.8 9.7 1.2 4.2.5 6 1.2 7.7 3.2 1.9 2.2 3 2.6 8 2.7 3.2 0 6.3.4 7 .8.7.4 1.6 0 2.1-1 .7-1.2 2.2-1.7 4.7-1.6 6.3.2 10.5 1.3 10.5 2.8 0 1.1-1.4 1.5-5.7 1.5-3.1 0-5.4.2-5.2.4.3.3 7.9 1.4 16.9 2.6 9.1 1.1 17.9 2.2 19.5 2.5 2.8.4 2.8.4.5-.4-1.4-.5-4.2-1.2-6.2-1.6-2.8-.4-3.8-1.1-3.8-2.4 0-1.5.7-1.7 4.7-1.4 7.7.7 15.2 4.1 20.4 9.3l4.7 4.7 1.6-2.8c.9-1.5 3.7-4.9 6.3-7.6 7-7.2 10.2-14.9 11.8-28.3.8-5.9 4.4-24.2 7.5-37.6 1.1-4.8 1.7-9.6 1.3-11.5-.5-2.8-.4-3 1.8-2.7 2 .2 2.5 1 2.7 3.9.2 2.1-.4 6.3-1.2 9.5-2.6 10.2-7.4 33.7-8.1 39.9-1.6 14-6.4 27.5-9.8 27.5-1.3.1-9.7 11.3-9.7 13 0 .6-1.6 1-3.6 1-3.3 0-3.6.2-3 2.3 2.1 7.7 1.8 13.9-2 41l-.7 4.7H225c-4.6 0-6.2-.5-8.3-2.4-2.6-2.4-9.3-3.8-24.9-5.2-7.7-.7-10.9-1.9-14.5-5.4l-2.3-2.1v2.6c0 1.4.5 2.5 1.1 2.5.6 0 1.9 1.1 3 2.4 2.8 3.6 5.7 4.3 27.9 7.1 11.3 1.4 21.4 2.8 22.4 3.1 1.8.6 1.8 1.4 1.2 11.7-1.4 23.6-1.7 25.7-3.7 25.7-1.4 0-1.9-.7-1.9-3 0-1.7-.6-3.1-1.2-3.1-2.8-.3-3.4-.5-7.5-2.6-3.5-1.9-5.1-2.2-10.7-1.6-6 .5-6.6.8-6.6 2.8 0 1.5-1.4 3.2-4 5-4.4 3.1-16.2 15.2-18 18.5-.7 1.4-.7 2 0 2 .6 0-.1 1.7-1.5 3.8-3.6 5.4-4.1 9.3-1.6 11.6 1.1 1 1.7 2.4 1.4 3.2-.9 2.5-2.1 1.5-4.3-3.2zm9.2-97.4c2.8 0 9.6.6 15.2 1.4 15.2 2.2 16.5 2.3 16.1 1.6-.3-.4-5.4-1.3-11.5-2-10.5-1.2-11-1.4-11-3.6 0-1.6-.6-2.4-1.7-2.4-1-.1-6.6-.7-12.5-1.4-6-.6-10.8-.9-10.8-.4 0 .4-1.7.9-3.7.9-2.1.1-3 .3-2 .6.9.2 1.7.8 1.7 1.3s2.1 1.2 4.8 1.5c7.7 1.1 7.9 1.2 8.8 6.3l.9 4.7.3-4.2.3-4.3h5.1zm-27.1-24c1.6 0 11 1.1 20.7 2.4 22.7 3.2 30.3 3.9 27.7 2.7-1.1-.5-4.1-1-6.7-1-4-.1-4.7-.4-5-2.3-.3-2.6-3.9-3.4-28.3-6.3-15-1.7-24.6-3.1-28.2-4.1-1.3-.4-2.3-.2-2.3.2 0 .9 9.9 5.9 13.7 6.9 1.6.4 2.7 1.9 3.5 4.8l1.3 4.2.3-3.7c.3-3.5.6-3.8 3.3-3.8zM237.5 278.4c-1.1-.9-4.6-2.9-7.7-4.5-6.1-3.1-7.6-5.9-3.3-5.9 2.2 0 9 3.2 14 6.6 1.1.8 2.8 1.4 3.9 1.4 1.8 0 1.9.1.1 2-2.2 2.4-4.3 2.5-7 .4zM283.7 275.2c-9.1-8.4-13.3-10.2-16.7-7-1.7 1.6-2 2.8-1.6 5.8.3 2.1.3 4 0 4.3-.3.3-2.7-.6-5.2-1.9-3.1-1.7-5.8-2.4-7.9-2.2-2.9.4-3.3.1-3.3-2 0-2.4.1-2.5 6.5-1.8l6.5.7v-3.5c0-3.9 1.1-4.6 7.6-4.6 4.9 0 11.4 2.3 11.4 3.9 0 .6.6 1.1 1.3 1.1.7 0 2.8 1.5 4.6 3.4l3.3 3.4 5.4-3.7c3.7-2.4 5.6-4.5 6-6.3.5-1.9 1.3-2.8 2.6-2.8 1.8 0 1.9.4 1.3 3.7-.4 2.1-.9 4.1-1.1 4.5-.8 1.3-13.3 9.8-14.4 9.8-.6 0-3.5-2.2-6.3-4.8zM311.3 268.4c-1.5-4 3.9-6.7 6.1-3.1.9 1.5.7 2.1-.8 3.3-2.6 1.9-4.5 1.8-5.3-.2zM224 261.8c0-5.7.9-8.8 2.6-8.8 1.1 0 1.4 1.6 1.4 6.5 0 5.8-.2 6.5-2 6.5-1.7 0-2-.7-2-4.2z"/><path d="M303 256.5c0-3.8.3-4.5 2-4.5 2.1 0 2.6 2.3 1.4 6.8-1.1 4.1-3.4 2.6-3.4-2.3zM342.1 249.1l-.1-5.9 6.7-2.2c12.1-3.8 12.1-3.8 14.8-9.7 2.9-6.5 3.1-9 .8-11.5-1.5-1.7-1.5-1.8 0-1.8 1 0 1.7.4 1.7.8 0 .5 1.8 1.8 4 3.1 5.6 3.1 7 4.8 7 8.3v3l5.3-.6c2.8-.3 8.7-.8 13-1.2 7.1-.6 7.7-.5 7.7 1.3 0 1.7-1.3 2-12.7 3.1-17.2 1.6-16.3 1.7-16.3-1.6 0-1.6-.9-3.9-1.9-5.1l-2-2.3-1.6 3.8c-.8 2.1-1.8 4.8-2.1 6.1-.8 3.1-1.9 3.8-9.9 6.2-7 2.1-11.2 4.1-8.7 4.1 2.2 0 1.3 2.8-1.2 3.4-1.8.4-2.3 1.1-1.9 2.6.4 1.3 0 2-1 2-1.1 0-1.5-1.4-1.6-5.9zM164 253.2c0-1.5 2.4-3.2 4.6-3.2 2.8 0 4.2 1.9 2.3 3.1-1.8 1.1-6.9 1.2-6.9.1zM304.3 239.7c.4-6.2 1-14 1.3-17.5l.7-6.2h7.3c5.6 0 7.4.3 7.4 1.4 0 1.6-3 2.6-7.7 2.6-1.8 0-3.4.5-3.4 1-.1.6-.2 1.3-.3 1.8-.1.4-.6 5.7-1.1 11.7-.5 6.1-1 11.5-1.1 12-.1.6-.2 1.8-.3 2.8 0 .9-.8 1.7-1.8 1.7-1.4 0-1.5-1.2-1-11.3zM453 241.1c0-2-.5-2.1-9.2-3.6-5.4-.8-5.1-3.5.3-3.5 2.7 0 3.8-.4 3.3-1.1-.7-1.2-22.6-.7-34.1.7-4.4.5-5.3.4-5.3-.9 0-1.7.4-1.8 13-3.7 8.5-1.3 23.5-1.3 28.2.1 2.9.8 3.9 1.6 4.3 3.7.3 1.5 1.2 4 2 5.5.8 1.6 1.3 3.3.9 3.8-1 1.6-3.4.9-3.4-1zM353 216.6c0-1.3.6-2.7 1.3-2.9.6-.3-.7-.6-3-.6-2.9-.1-4.3-.5-4.3-1.5s-2.2-1.5-8.4-1.8c-10.5-.7-13.6-.2-13.6 2.3 0 1.7-.9 1.9-9.2 1.9h-9.1l.9-13.7c.5-7.6.9-18.8.9-24.9 0-7.9.4-11.6 1.4-12.7 1.2-1.5 1-1.7-2-1.7-2.9 0-3.8-.7-6.6-4.8-4.5-6.7-5.1-8.8-5.9-20.7-.7-10.1-.6-10.5 1.3-10.5s2.1.8 2.5 9.3c.6 10.2 2.1 14.7 6.5 19.4l3 3.2 5.6-3c3.1-1.6 7.8-3.2 10.6-3.6 4.7-.5 5.1-.4 5.1 1.6 0 1.6-.6 2.1-2.7 2.2-1.6 0-3.6.3-4.5.7-1 .4 7.6.6 19 .4 11.4-.2 21.1-.8 21.7-1.3.5-.5-.9-.9-3.8-.9-3.3 0-4.7-.4-4.7-1.4 0-2.9 11.6-3 13.3-.1.6 1.1 2.7 1.5 8.5 1.5 6.6 0 7.9-.3 9-2 1.6-2.7 6.2-2.7 6.2-.1 0 1.1-.6 2.2-1.2 2.4-.7.3 5.3.6 13.5.6l14.7.1v2.8c.1 2.6.1 2.6 1.6.7 1.4-1.8 1.3-2.1-.6-3.7-2.8-2.3-2.6-4.8.4-4.8 2.8 0 5.6 3.3 5.6 6.6 0 2.7-6.3 12.1-10 15.1-4.2 3.4-6 3.9-6 1.5 0-1.7-.5-1.9-4.5-1.4-3.9.4-4.5.2-4.5-1.4 0-1.7-.7-1.9-7-1.6-6.6.3-7 .5-7 2.8 0 2.2-.3 2.4-5.5 2.4s-5.5-.1-5.5-2.5c0-2.3-.3-2.5-5-2.5s-5 .2-5 2.5c0 2.5-.1 2.5-9.2 2.6-5.1.1-12 .5-15.3.9-3.8.4 4.2.8 21.8.9l27.7.1.1 2.8v2.7l1.6-3.2c1.6-3.1 2-3.3 7-3.3 4 0 5.3.4 5.3 1.5 0 .9-1.4 1.7-3.9 2.1-3.4.5-4.1 1.2-6 5.3-2.4 5.3-5.2 8.6-9.8 11.9l-3.3 2.3V194c0-2.3.6-3.3 2.5-4.2 2.8-1.2 3.4-3.8 1-3.8-.9 0-3 .7-4.7 1.6-2.4 1.3-6.6 1.6-21.4 1.6H341v2.4c0 2.2-.4 2.3-8.2 2.7-4.6.1.1.4 10.5.5l18.7.2.1 4.3.1 4.2 1-3.2c.9-2.7 1.6-3.3 3.9-3.3 1.6 0 2.9.5 2.9 1 0 .6-.3 1-.8 1-.4 0-1.8 2.8-3.1 6.3-2.6 6.8-5.1 10.1-9.3 12.3-3.6 1.9-3.8 1.8-3.8-1zM195 145c0-2.1 1-2.4 4.8-1.4 3.6 1 2.7 3.4-1.3 3.4-2.8 0-3.5-.4-3.5-2zM127 136c0-2.1 1.6-2.5 5.8-1.4 3.9 1.1 2.7 3.4-1.8 3.4-3.3 0-4-.3-4-2zM295 95.5c0-7.4.3-9.5 1.4-9.5 1.9 0 2.6 3.2 2.6 11.8 0 6.5-.2 7.2-2 7.2-1.9 0-2-.7-2-9.5zM295 75.9c0-2.2.4-4.8.9-5.7.4-.9 1.1-5.1 1.4-9.3l.7-7.6-9.8-.7c-5.3-.3-12.1-.9-14.9-1.2l-5.3-.6v7.6c0 6.9-.2 7.6-2 7.6s-2-.7-2-6.4c0-3.7-.6-7.6-1.5-9.2-1.5-3-2-6.6-.9-7.7.4-.3 2.1.5 3.9 1.9 2.9 2.2 4.9 2.6 15.6 3.5 6.8.5 13.3 1.1 14.3 1.4 2.4.5 8.5-2 10.1-4.2 1.1-1.5 1.3-1.5 1.9.4.8 2.4-.8 7-3.4 9.8-1.9 2-4.3 10.2-3.4 11.7.3.4-.3 3.5-1.2 6.8-2 7.1-4.4 8.2-4.4 1.9zM249.8 36.3c-2.5-.6-2.3-3.3.2-3.3 1.1 0 2-.4 2-1s2.7-1 6-1c5.3 0 6 .2 6 2 0 1.1-.7 2-1.5 2s-1.5.5-1.5 1c0 1-7.8 1.2-11.2.3zM276 35.1c0-1.1.6-2.1 1.4-2.1.8 0 1.6-.5 1.8-1.2.2-.6 3.1-1.3 6.6-1.6 5.3-.4 6.2-.2 6.2 1.3 0 3.2-3 4.9-9.6 5.3-6 .4-6.4.3-6.4-1.7z"/><path d="M234 35c-9.7-1.7-14.6-5.2-12.3-8.9 2.2-3.4 28.8-8.2 44.1-8l7.7.2-8.5.8c-18 1.6-39.9 6.7-38.5 8.8.2.5 2.2 1.2 4.2 1.5 12 2 15.3 3 15.3 4.8 0 2-3.6 2.2-12 .8zM294 31.5c0-1.6 1.8-2 18.5-3.5 12.5-1.2 24.5-3.7 24.5-5.1 0-1.1-2.4-1.7-13.9-3.3-5.7-.8-10.6-1.8-11-2.2-1-1.1 22.2.3 25.6 1.6 6.9 2.6 4.1 8.7-4.8 10.3-1.3.3-4.8 1.2-7.6 2-2.9.9-5.3 1.2-5.5.7-.2-.4-3.9-.4-8.3 0-12.6 1.4-17.5 1.2-17.5-.5zM287.1 17.5c.7-.7 20.9-.8 21.6-.1.4.3-4.5.6-10.7.6-6.2 0-11.1-.2-10.9-.5z"/></g><g fill="#eca328"><path d="M203 493.6c-7.2-2.7-8.6-3.4-10.6-5.7-2.6-2.9-5.4-8.2-5.4-10.4 0-.8.9-1.5 2-1.5s2 .5 2 1c0 .6.9 1 2 1s2 .5 2 1.1c0 .6 1 3.3 2.2 5.9 2.3 5 4.1 6 10.6 6 3.8 0 10.2-3.4 15-8.1l4.2-4.1v3.4c0 3.8-1.5 5.8-4.2 5.8-1 0-1.8.7-1.8 1.5s-.7 1.5-1.5 1.5-1.5.4-1.5.9-2.3 1.4-5 2c-6.1 1.3-5.7 1.3-10-.3zM235 480.2c0-2.7-.4-3.1-3.1-3.4-3-.3-3-.3-1.2-2.3 1-1.1 2.8-3.6 4-5.5 1.2-2 3.3-4.9 4.7-6.5l2.6-3v3.8c0 2-.4 3.7-1 3.7-.5 0-1 .7-1 1.5 0 .9-.9 1.5-2.5 1.5-2.1 0-2.5.5-2.5 2.9s.3 2.8 2 2.4c1.1-.3 2-1.4 2-2.4 0-1.1.5-1.9 1-1.9.6 0 1-.7 1-1.5s.4-1.5.9-1.5 1.2-1.1 1.5-2.5c.4-1.4 1.3-2.5 2.1-2.5s1.5-.9 1.5-1.9c0-3 1.1-5.1 2.6-5.1.9 0 1.4-1.2 1.4-3.5 0-1.9.5-3.5 1-3.5.6 0 .9-1 .9-2.2-.1-1.7-.2-1.9-.6-.5-.3 1-1.4 1.7-2.8 1.7-2.3 0-2.3-.2-1.3-3.2 1.7-4.9 3-5.9 5.9-4.4 4.1 2 3.6 6.2-2 17.6-4.9 9.8-12.3 21.2-15.5 23.9-1.4 1.2-1.6 1-1.6-1.7zM267.6 472.4c-.4-1-.1-1.4.6-1.2 1.5.5 2.3 2.8 1 2.8-.5 0-1.3-.7-1.6-1.6zM207.2 467.8c.2-1.2 1-2.3 1.8-2.3 2.2 0 1.9 3.9-.3 4.3-1.5.3-1.8-.1-1.5-2zM263.2 468.8c-1.8-1.8-1.5-4.8.6-4.8 1.4 0 1.4-.2.3-.9-1.2-.8-1.2-1.9.4-7.8 3.2-12.1 9.7-31.7 12.1-36.5 5-9.9 5.9-2.6 1.1 8.7-4.2 10-4.2 10.5-1.3 10.5 3 0 3.1.2 1.1 4s-3.5 3.8-3.5 0c0-4.2-1.7-3.8-2.2.5-.4 3.1-.1 3.5 1.9 3.5 2.2 0 2.2.2 1 3.2-1.7 4.2-3.7 4.8-3.8 1.1-.1-2.3-.2-2.4-.6-.5-.2 1.2-.9 2.2-1.4 2.2-.5 0-.9.5-.9 1 0 .6 1.1 1 2.4 1 2.3 0 2.4.2 1.3 3.5-1 3.5-3.1 4.6-4 2.3-.3-.7-.6-.3-.6.9-.1 1.2.4 2.3 1 2.5.8.3.9 1.5.4 3.6-.7 3.4-3.1 4.2-5.3 2zM299 464c-3.5-3.4-4-7-1-7 1.6 0 2 .7 2 3 0 3 0 3 2.8 1.6 1.5-.8 4.5-3.9 6.7-7s4.8-6.7 5.8-7.9c1-1.2 2.6-3.4 3.5-4.9.9-1.6 2-2.8 2.4-2.8.4 0 .8 3.2.8 7 0 6.4-.2 7-2.1 7-1.9 0-2-.4-1.4-4 .4-2.2.4-4 .1-4-.3 0-3.8 5-7.7 11-3.9 6.1-7.5 11-8 11-.4 0-2.2-1.3-3.9-3zM326 466.3c-3.1-1.2-4.7-3.4-4.2-5.8.6-3.5 2.9-3.1 3.7.5.9 4 4.3 4.8 9.7 2.4 4.8-2.2 18.3-16.3 20-21.1 1.6-4.3 3.8-4.3 3.8 0 0 3.9-1.2 6-3.2 5.5-.8-.2-3.4 2.1-5.9 5.2-7.5 9.2-18.6 15.4-23.9 13.3zM358.6 460.4c-2.3-2.2-2-3.4.9-3.4 2 0 2.5.5 2.5 2.5 0 2.9-1.2 3.2-3.4.9zM363 458.7c0-3 .8-4.3 4.5-7.8 5.4-5 16.1-20.8 17-25 .4-1.7 1.3-2.9 2.2-2.9 1.3 0 1.5.9 1 4.7-.3 2.6-.9 4.9-1.4 5-.4.2-.6 4.1-.4 8.8.2 7.1.1 8.5-1.2 8.5-2.1 0-3-5-2.2-11.9l.6-5.6-3.1 4.5c-1.7 2.5-5.6 8.6-8.6 13.7-6.9 11.5-8.4 12.9-8.4 8zM385 457.1c-.5-1.1-1-2.2-1-2.5 0-.8 3.9-.7 6.8 0 2.2.6 2.2.8.6 2.5-2.2 2.4-5.1 2.4-6.4 0zM186.5 453.8c1.8-10.6 13.1-38.8 15.5-38.8 1.1 0 1.3 5 .4 7.4-.3.9-1.2 1.6-2 1.6-.9 0-1.4 1.1-1.4 3 0 1.7-.4 3-1 3-.5 0-1 1.1-1 2.5s-.3 2.5-.8 2.5c-.4 0-1.3 2.3-2 5.2-.6 2.8-1.6 5.4-2.1 5.7-.4.3-1.1 3.2-1.5 6.4-.6 4.8-1.1 5.7-2.8 5.7-1.8 0-1.9-.4-1.3-4.2zM416.5 453.8c-1.4-1.3-3-4.1-3.5-6.3-1.4-6.1-1.2-7.5 1-7.5 1.7 0 2 .7 2 4 0 2.2.5 4 1 4 .6 0 1 .9 1 2 0 2.9 1.7 2.5 2.2-.5.4-1.9.1-2.5-1.3-2.5-1.5 0-1.9-.8-1.9-3.5 0-2.8.4-3.5 2-3.5 1.4 0 1.8.5 1.3 1.6-.4 1.1-.2 1.5.6 1.3.7-.3 3.8-5.3 6.9-11.2 3.2-5.9 6.9-12.3 8.4-14.1 3-3.8 7.6-5.3 10.7-3.6 2.8 1.4 2.7 3-.2 3-3.4 0-7.7 2.3-7.6 4 .3 2.6-8 19-9.6 19-.8 0-1.5.4-1.5.9s-1 1.2-2.2 1.4c-2 .4-1.9.4.5.6 1.5 0 2.7.5 2.7.9 0 1-3.6 5.7-7.1 9.5l-2.7 2.8-2.7-2.3z"/><path d="M301 452.3c0-5.1 1.1-7.3 3.5-7.3h2.3l-1.6 5c-1.7 5.4-4.2 6.8-4.2 2.3zM324 448.5c0-3.1.3-3.5 2.6-3.5 2 0 2.4.3 1.6 1.3-1.1 1.3-1.2 1.7-1.2 4.2 0 .8-.7 1.5-1.5 1.5-1 0-1.5-1.1-1.5-3.5zM396.7 448.9c13-22 15.3-25.2 15.3-21.9 0 .6.7 1 1.5 1 1 0 1.5 1.1 1.5 3.5 0 1.9-.4 3.5-1 3.5-.5 0-1-.6-1-1.4 0-.8-.6-1.6-1.4-1.9-1-.4-3.6 2.5-8.1 9.3-6.3 9.5-11 15-6.8 7.9zM295 449.8c0-3.7 4.4-16.8 5.6-16.8 1.9 0 1.8 3.1-.3 11.3-1.3 5.1-2.2 6.7-3.5 6.7-1 0-1.8-.5-1.8-1.2zM197 443.5c0-2.8.4-3.5 2-3.5 2.1 0 2.4 1 1.4 4.8-1 3.6-3.4 2.7-3.4-1.3zM305 440.8c0-4.3 1.2-6.1 3.8-5.6l2.1.3-1.9 4.3c-2.3 5-4 5.4-4 1zM361 439c0-2.1-.5-3-1.6-3-1.3 0-1.5-.7-.9-3.7 1.4-7.4 4.5-10 4.5-3.8 0 1.9.5 3.5 1 3.5.6 0 1-1.6 1-3.5s.5-3.5 1-3.5c.6 0 1-.9 1-2 0-1.5.7-2 2.5-2 2.7 0 2.7.2-1.1 7.9-1.2 2.6-2.8 6.5-3.4 8.9-1.5 4.9-4 5.7-4 1.2zM330.3 438.5c-.7-.8-1.3-2.8-1.3-4.5 0-2.4.4-3 2.1-3 1.5 0 1.9.5 1.5 1.5-.3.8.2 2.1 1 3 1.5 1.4 1.9 1.4 5.1-.5 4.1-2.4 5-2.5 3.2-.4-1.3 1.6-8.2 5.4-9.6 5.4-.4-.1-1.4-.7-2-1.5zM323 431.8c2.6-7.8 4.3-11.8 5.2-11.8.4 0 .8-.7.8-1.5s.5-1.5 1-1.5c.6 0 1 1.6 1 3.5 0 2.4-.5 3.5-1.5 3.5s-1.5 1-1.5 3c0 1.7-.4 3-1 3-.5 0-1 1.6-1 3.5 0 3-.3 3.5-2.4 3.5h-2.4l1.8-5.2zM454.4 434.6c-1.1-.8-2.9-3.4-3.9-5.8s-2.7-5.5-3.8-7l-1.8-2.8h3c2.1 0 3.1.5 3.1 1.5 0 .8.4 1.5.8 1.5.5 0 1.5 1.8 2.2 4 1.7 5.3 3.1 6.3 6.4 5.1 3.3-1.3 7.2-5.6 13.8-15.3 2.9-4.3 5.6-7.7 6.1-7.8 1.8 0 .3 3.3-4.9 11.1-6.4 9.7-9.8 13.5-13.6 15.5-3.4 1.8-4.8 1.8-7.4 0zM301.4 428.8c4.7-10.8 6.2-13.8 7.4-13.8.7 0 1.2 1.4 1.2 3.5 0 2.4-.5 3.5-1.5 3.5s-1.5 1-1.5 3c0 1.7-.4 3-1 3-.5 0-1 .9-1 2 0 1.5-.7 2-2.5 2-2.5 0-2.5-.1-1.1-3.2zM310 428.5c0-1.9.5-3.5 1-3.5.6 0 1-1.1 1-2.5 0-2 .5-2.5 2.5-2.5 1.4 0 2.5.2 2.5.4 0 1.5-5.2 11.6-6 11.6-.5 0-1-1.6-1-3.5zM346.7 427.4c2.4-3.5 4.8-8 5.8-11.3.6-2.1.5-2.3-1.5-1.8-2.1.5-2.2.4-1.5-4l.7-4.6-3.4.7c-1.8.3-3.4 1.1-3.6 1.6-.2.6-1.7 1-3.3 1-2.6 0-2.9.4-2.9 3 0 2.8-.3 3-3.5 3-1.9 0-3.5-.4-3.5-1 0-.5.5-1 1.1-1 .6 0 2-1.2 3.2-2.6 3.1-4 9.7-8.4 12.6-8.4 1.8 0 3.3 1 5 3.5 2 2.9 2.3 4.4 1.9 8.9-.5 5.7-4.9 14.5-7.7 15.4-1 .3-.8-.4.6-2.4zM204 424.8c0-4.3 1.2-6.1 3.8-5.6l2.1.3-1.9 4.3c-2.3 5-4 5.4-4 1z"/><path d="M287.1 426.3c.1-1.2 15.7-14.5 21.1-17.9 5.4-3.5 7.5-3.5 10.8.1 2 2.1 2 2.5.6 5.9-2.1 4.9-3.9 4.7-3.4-.5.4-4 .3-4.1-2.5-3.5-1.6.3-3.8.6-4.8.6-1.1 0-1.9.5-1.9 1.1 0 1.7-3.2 3.8-5.7 3.9-1.4 0-2.3.6-2.3 1.6 0 2.1-7.9 9.3-10.2 9.4-1 0-1.8-.3-1.7-.7zM335 421.9c0-4.7 1.6-6.9 5-6.9h3l-3.2 5c-1.8 2.7-3.6 5-4 5-.5 0-.8-1.4-.8-3.1zM241.6 422.3c-2.5-1.3-2.7-1.7-1.5-2.7 1.5-1.2 6.9-8.2 6.9-9 0-.2 2.3-4.3 5-9.1 5.3-9.2 5.9-11.5 3.5-13.5-3.1-2.6-1.8-4.4 3.1-4.1 1.7.2 2.4-1 4.4-7.4 1.3-4.1 2.8-7.5 3.4-7.5.7 0 .8-.3.1-.8-.6-.4-1.6-2-2.3-3.5-1.2-2.7-1.4-2.8-6-2.1-2.6.3-5.5 1-6.4 1.5-.9.5-2.6.9-3.7.9-1.2 0-2.1.7-2.1 1.5s-.7 1.5-1.5 1.5-1.5.5-1.5 1c0 .6-1.1 1-2.4 1-1.8 0-2.5.6-2.8 2.3-.2 1.8-1 2.2-4.3 2.5l-4 .2 4.5-4c2.5-2.3 7.1-5.7 10.2-7.6 10.5-6.4 21.1-5.3 25 2.6 2 3.9 2.5 14 .7 14-.7 0-1-1.4-.7-3.5.6-5.4-.7-4.2-2.7 2.5-1.5 5-2.2 6-4.1 6-2 0-2.3.6-2.9 7-.6 6-1 7-2.6 7-1.4 0-1.9.7-1.9 2.9 0 3.9-.9 6.1-2.6 6.1-.8 0-1.4 1-1.4 2.5 0 1.6-.6 2.5-1.5 2.5s-1.5 1-1.5 2.6c0 2.1.2 2.3 1.3 1.2.6-.7 1.8-2.5 2.6-4 .8-1.6 2-2.8 2.8-2.8.7 0 1.3-1.1 1.3-2.5 0-1.6.6-2.5 1.5-2.5 1 0 1.5-1 1.5-3 0-1.6.5-3 1-3 .6 0 1-.9 1-2s.7-2 1.5-2c1 0 1.5-1.1 1.5-3.5 0-3.1.3-3.5 2.5-3.5 2.3 0 2.4.2 1.4 2.8C263.4 403 250.8 424 248 424c-.5 0-1.1-1.5-1.3-3.2l-.4-3.3-.1 3.3c-.2 3.6-.6 3.7-4.6 1.5zM362.1 421.3c.6-1.5 1.6-3.4 2.2-4.2.7-.8 1-1.5.8-1.5-.3-.1 1-3.7 2.8-8.1 5.5-13.2 8.1-16.6 8.1-10.5 0 3.2-1.9 8-3.2 8-.4 0-.8 1.1-.8 2.5 0 1.6-.6 2.5-1.5 2.5-1 0-1.5 1-1.5 3.4 0 1.9-.7 4.1-1.5 5-.8.8-1.5 2.4-1.5 3.5 0 1.6-.6 2.1-2.5 2.1-2.3 0-2.4-.2-1.4-2.7zM423 419.5c0-2.4.5-3.5 1.5-3.5s1.5-1.1 1.5-3.5.5-3.5 1.5-3.5 1.5-1.1 1.5-3.5c0-1.9-.4-3.5-1-3.5-.5 0-1 1.4-1 3 0 2.6-.3 3-2.9 3-1.6 0-3.1-.6-3.4-1.4-.3-.8-2.9-2.3-5.6-3.3-2.8-1-5.1-2.1-5.1-2.6 0-1.1 6 .9 12.3 4.1.4.2.7-.5.7-1.5.1-4.7 4.6-6.7 8.8-3.7 2.9 2 2.8 2.8-1.2 11-1.9 3.8-3.7 8.1-4.1 9.7-1 4-3.5 3.5-3.5-.8zM393 419c0-1.7 1.1-5.3 2.5-8 1.4-2.8 2.1-5 1.5-5-.5 0-1 .7-1 1.5s-.4 1.5-1 1.5c-.5 0-1 .9-1 2s-.4 2-.9 2-1.1 1.8-1.5 4c-.5 3.4-1 4-3.1 4H386l2.5-6.7c1.4-3.6 3.5-8.1 4.6-9.9 2.5-4.1 7.5-7.8 9.4-7 2.2.8 1.8 3.6-.4 3.6-1 0-2.1.9-2.4 2-.4 1.6 0 2 1.8 2 2.1 0 2.1.3-2.2 8.5-2.4 4.7-4.8 8.5-5.4 8.5-.5 0-.9-1.4-.9-3zM371 416.5c0-3.1.3-3.5 2.6-3.5 1.4 0 2.4.3 2.2.8-3.5 7.3-4.8 8-4.8 2.7z"/><path d="M415 418.4c0-1.3 4.4-8.4 5.2-8.4.9 0 1.1 5.1.2 7.4-.6 1.5-5.4 2.4-5.4 1zM286 414.6c0-1.9.7-4.1 1.5-5 .8-.8 1.5-2.4 1.5-3.5s.6-2.6 1.3-3.3c.8-.7 1.7-2.6 2.1-4.1.3-1.5 1.1-2.7 1.6-2.7.6 0 1-.9 1-1.9 0-1.1.7-2.6 1.5-3.5.8-.8 1.5-1.9 1.5-2.5 0-2.1 3.4-8.1 4.6-8.1.6 0 1.4-1.5 1.7-3.2.3-1.8.9-4.5 1.2-6.1.6-2.3.5-2.6-.9-2.1-.9.3-1.6 1.7-1.6 3s-.4 2.4-1 2.4c-.5 0-1 1.1-1 2.5s-.4 2.5-.9 2.5-1.1 1.3-1.4 2.9c-.3 1.6-1.2 3.5-2 4.2-.7.8-1.7 2.6-2 4.1-.4 1.5-1.3 3.3-2 4-.8.7-1.7 2.6-2.1 4.1-.3 1.5-1.3 2.7-2.1 2.7-1 0-1.5 1.1-1.5 3.5 0 3.1-.3 3.5-2.5 3.5-3 0-3.2.5 5.5-17.5 8.4-17.4 10.7-22.4 11.5-25.3.5-1.8 1.1-2.1 2.8-1.7 3 .9 5.7 4.2 5.7 7 0 1.2-3.8 9.9-8.4 19.1-4.6 9.3-9.5 19.5-11 22.7-3.1 6.5-4.6 7.2-4.6 2.3zM211 411c0-2.5-.4-3-2.5-3-1.4 0-2.5-.3-2.5-.6 0-1.2 7-12.1 8.5-13.4 1.3-1.1 1.5-.7 1.6 2.6.1 2.2.3 3.1.6 2.2.2-1 1.1-1.8 1.9-1.8.8 0 1.4-.9 1.4-2.1 0-1.2.8-2.3 2-2.6 3.1-.8 2.4-3.1-1-3.5l-3.1-.3 3-3.5 3-3.5.1 3.2c0 3 .1 3.1 2.5 2 1.4-.7 2.5-2 2.5-2.9 0-1.3.8-1.8 3.1-1.8h3.1l-2.8 3.8c-1.5 2-5 6.3-7.6 9.5-2.7 3.2-6.5 8.7-8.5 12.3-2.1 3.5-4.1 6.4-4.5 6.4-.4 0-.8-1.3-.8-3zm2-7.2c0-.5-.4-.8-1-.8-.5 0-1 1-1 2.3 0 1.8.2 1.9 1 .7.5-.8 1-1.8 1-2.2zM375 408.5c0-1.9.5-3.5 1-3.5.6 0 1-1.1 1-2.5 0-2 .5-2.5 2.5-2.5 2.3 0 2.4.2 1.4 2.7-2 5.4-4.1 9.3-5 9.3-.5 0-.9-1.6-.9-3.5zM172 405c0-2.3 2.6-3.8 4.1-2.3 1.4 1.4 0 4.3-2.2 4.3-1.2 0-1.9-.7-1.9-2zM477.8 404.3c-3.4-.5-3.6-1.9-.5-2.6 1.2-.2 3-.8 4-1.2 1.4-.6 1.7-.2 1.7 1.9 0 1.5-.5 2.5-1.2 2.5-.7-.1-2.5-.4-4-.6zM485 401.5c0-3 .3-3.5 2.4-3.5 2.3 0 2.4.2 1.3 3.5-.6 1.9-1.6 3.5-2.4 3.5-.8 0-1.3-1.3-1.3-3.5zM180 403c0-.5.7-1 1.5-1s1.5.5 1.5 1c0 .6-.7 1-1.5 1s-1.5-.4-1.5-1zM200.2 399.8c-1.9-1.9-1.5-4.8.7-4.8 2 0 3.7 3.2 2.6 5-.8 1.3-1.8 1.3-3.3-.2zM381 395.1c0-4.2 1-6.1 3.1-6.1 1.5 0 1.9-.7 1.9-3.5 0-2.4.5-3.5 1.5-3.5s1.5-1 1.5-2.7c0-3.8 1.3-5.5 3.9-5.1 2.1.3 2.1.4-1.3 6.8-1.9 3.6-4.6 8.9-6 11.8-2.8 5.8-4.6 6.7-4.6 2.3zM488.6 395.2c-.3-.5.8-2.4 2.4-4.3 3.3-3.8 3.8-3.3 1.4 1.7-1.6 3.4-2.8 4.2-3.8 2.6zM119.2 391.5c-11.2-2.5-24.7-10-28.7-16.1l-1.7-2.6 3.9.4c2.1.2 6.4 1.9 9.6 3.7 4.6 2.6 5.6 3.7 5.2 5.2-.5 1.4-.1 1.9 1.4 1.9 1.1 0 2.6.6 3.3 1.3.7.7 4.8 2 9.1 2.7 6.2 1.1 7.7 1.7 7.7 3.2 0 2.1-1.2 2.1-9.8.3z"/><path d="M378 386.4c2.6-6.9 5-8.5 5-3.5 0 4.4-1 6.1-3.6 6.1-2.1 0-2.3-.3-1.4-2.6zM194.5 386c-.7-1.2 2-6 3.4-6 .5 0 1.1-.9 1.4-2 .6-2.3 2.9-2.6 4.6-.6 1.5 1.7-.4 7.3-2.9 8.6-1.6.8-1.9.6-2.3-1.8l-.4-2.7-.2 2.8c-.1 2.7-2.3 3.7-3.6 1.7zM134 384.5c0-.9 1.4-1.6 3.8-2 10-1.7 17.7-4.8 25.2-10.4l3.1-2.3-.3 3.3c-.2 2.9-.7 3.5-3 3.7-1.6.2-2.8.9-2.8 1.8s-1.1 1.4-3 1.4-3 .5-3 1.4c0 1-2.4 2-6.9 3-8.9 2-13.1 2.1-13.1.1zM272.2 376.8c.6-1.8 2.8-2.1 2.8-.4 0 .9-.7 1.6-1.6 1.6-.9 0-1.4-.5-1.2-1.2zM177 374c0-2.7.3-3 3-3s2.9.2 1.9 1.9c-.7 1-2 2.3-3 3-1.7 1-1.9.8-1.9-1.9zM278.6 374.1c-.8-1.3.3-3.8 2-4.5 1.5-.6 3.4 2.2 2.7 4.2-.5 1.4-3.9 1.6-4.7.3zM385.1 371.3c.6-1.5 1.4-3.2 1.8-3.8 1.5-1.9 4.5-11.5 3.8-12.1-.4-.4-3.3.3-6.5 1.5-6.9 2.5-8.2 2.6-8.2.7 0-1.7 12.1-5 15.5-4.2 1.4.4 4 2 5.8 3.6l3.2 2.9-3.1.1c-2.5 0-3.3.5-3.8 2.5-.4 1.4-1.3 2.5-2.1 2.5-1 0-1.5 1-1.5 2.9 0 4.4-1 6.1-3.6 6.1-2.1 0-2.3-.2-1.3-2.7zM88 369c0-1.1-.4-2-1-2-.5 0-1-1.6-1-3.5 0-4.2 2.5-4.8 3.5-.8.3 1.5 1.5 3.9 2.6 5.5l2 2.8h-3c-2.4 0-3.1-.4-3.1-2zM183 366.8c0-2.1.4-3.8.9-3.8s1.2-1.1 1.5-2.5c.5-1.8 1.3-2.5 3.1-2.5 2.2 0 2.3.2 1.4 2.8-.5 1.6-2.3 4.4-3.9 6.3l-2.9 3.4-.1-3.7zM331.4 368.2c-5.6-4.7-11.3-15.2-8.2-15.2 1.7 0 9.7 6.9 8.1 7-1.9 0-1.6 3 .2 3 .9 0 1.8.7 2.1 1.5.4.8 1.2 1.5 2 1.5s1.4.9 1.4 2c0 2.5-2.7 2.6-5.6.2zM350 362.7c0-1.1 1.2-1.8 3.8-2.2 2-.3 6.1-1 9.1-1.5 6.9-1.3 11.1-1.3 11.1 0s-4 3.3-7 3.5c-1.4.2-5.8.6-9.7 1-6.3.7-7.3.5-7.3-.8zM176.3 357.8c1.8-2.9 3.8-6.5 4.5-8 1.6-3.9 3.2-3.5 3.2.7 0 1.9-.4 3.5-1 3.5-.5 0-1 .9-1 2s-.7 2-1.5 2c-.9 0-1.5.9-1.5 2.5 0 2.1-.5 2.5-3 2.5h-3l3.3-5.2zM210.3 357.8c-2.3-3-2.3-4.8 0-4.8 1.3 0 2.8.5 3.5 1.2.7.7 1.2.8 1.2.3 0-.6 1.2-1.1 2.6-1.1l2.6-.2-2.8 2.9c-3 3.1-5.5 3.7-7.1 1.7zM263.1 352.2c-2.1-1.6-2.2-2.1-1.2-8.2.6-3.6 1.1-7.2 1.1-7.9 0-1.5-4 4.6-7.4 11.2-2.4 4.7-3.6 4.7-3.6.1 0-2.6.5-3.7 1.8-4.1 2.6-.6 11-14.4 13.5-22.1 2.7-8.2 5.2-9.7 4.4-2.6-.3 2.7-1 5-1.6 5.2-.6.2-1.1 1.9-1.1 3.8s-.4 3.4-.9 3.4c-2.3 0-3.4 15-1.4 19 .7 1.4 1.3 2.8 1.3 3.3 0 1.3-2.7.7-4.9-1.1zM245.1 350.4c-2.7-3.5-2.6-4.4.4-4.4 2.2 0 2.5.4 2.5 3.5 0 1.9-.2 3.5-.4 3.5-.3 0-1.4-1.2-2.5-2.6zM223 347.5c6-10.9 12.6-21.5 13.2-21.5.5 0 .8.6.8 1.3 0 1.8-9.2 16.5-13 20.7l-3.2 3.5 2.2-4zM304.8 348.9c-2.7-1.5-2.2-2.6 1.5-3.4 1.9-.4 2.6-.9 1.7-1.2-2.5-.9-4-3.5-4-7 0-2.3.5-3.3 1.5-3.3.8 0 1.5.6 1.5 1.4 0 .8.8 2.4 1.8 3.6 2.8 3.4 5.1 1.5 10.1-8.2 2.4-4.6 5.1-9.2 6.1-10.3 2.3-2.6 5.5-9 7-14.2 1.9-6.2 4.4-5.9 3.7.4-.3 2.6-1 4.9-1.6 5.1-.6.2-1.1 1.2-1.1 2.2 0 3.4-1.2 5-3.6 5-2.2 0-2.4.4-2.5 4.8-.1 3.6-.3 4.1-.8 2.2-.6-2.3-1-1.9-4.6 4.5-4.8 8.7-10.5 17.8-11.9 18.7-1.5 1-2.8.9-4.8-.3zM84 347.3c0-3.4 1.2-6.3 2.6-6.3 1 0 1.4 1.3 1.4 4 0 3.3-.3 4-2 4-1.2 0-2-.7-2-1.7zM206.6 346.8c-1-3.8-.7-4.8 1.4-4.8 1.6 0 2 .7 2 3.5 0 4-2.4 4.9-3.4 1.3zM328.1 346.4c-2.6-3.3-2.6-4.4-.1-4.4 2.6 0 6 3 6 5.2 0 2.7-3.5 2.2-5.9-.8zM335 345.2c0-3.2 1.6-5.2 4.2-5.2 1 0 1.8-.4 1.8-1 0-1.3 6.2-10.1 6.8-9.5.9.8-7.9 15.4-10.3 16.9-2.5 1.6-2.5 1.6-2.5-1.2zM89 343.5c0-3.1.3-3.5 2.5-3.5 2.9 0 3 .2 1 4-2.1 4-3.5 3.8-3.5-.5zM190 340.5c0-4 2.4-4.9 3.4-1.2s.7 4.7-1.4 4.7c-1.6 0-2-.7-2-3.5zM298.6 340.8c-1-3.8-.7-4.8 1.4-4.8 1.6 0 2 .7 2 3.5 0 4-2.4 4.9-3.4 1.3zM359.6 341.1c-.3-.4-1-2-1.5-3.5-1-2.4-.8-2.6 1.4-2.6s2.5.4 2.5 3.5c0 3.3-1.2 4.6-2.4 2.6zM364 339.6c0-1.9.4-2.3 2-1.9 2.3.6 2.5 1.4.8 3.1-1.8 1.8-2.8 1.4-2.8-1.2zM94 336.3c0-2.8-.4-3.3-2.5-3.3-1.4 0-2.5-.2-2.5-.5 0-1.3 3-6.3 4.6-7.6 1.5-1.2 1.6-1 1.3 2.8-.4 4-.3 4.2 2.4 4.5l2.8.3-3 3.5-3 3.5-.1-3.2zM395.6 335.9c-1.4-1.7-2.6-3.9-2.6-5 0-2.8 3.4-2.4 5 .6s3 3.2 3 .5c0-1.1.5-2 1.1-2 .7 0 1.8-.8 2.5-1.7 3.5-4.5 10.4-15.3 12.8-20.1 1.5-3 3-5.1 3.3-4.8.5.4-7.4 15.1-17.3 32.3-2.4 4.1-4.5 4.2-7.8.2zM330 334.5c0-2.2.5-3.5 1.3-3.5s1.8 1.6 2.4 3.5c1.1 3.3 1 3.5-1.3 3.5-2.1 0-2.4-.5-2.4-3.5zM206.5 331.8c2.5-20.2 12.5-42.9 20-45.8 2.8-1.1 6.5-.2 6.5 1.6 0 .8-1.8 1.5-4.5 2-3.9.5-4.5 1-4.5 3 0 1.3-.6 2.4-1.3 2.4-.7 0-1.9 2-2.6 4.5-.7 2.5-1.7 4.5-2.2 4.5-.5 0-.9.7-.9 1.6 0 2.4-3.3 11.4-4.2 11.4-.5 0-.8 1-.8 2.2 0 1.3-.5 5.8-1.2 10-1 6.5-1.5 7.8-3.1 7.8-1.7 0-1.8-.5-1.2-5.2zM242.2 331.8c.3-3.6-.1-4.4-1.9-5.3-3.5-1.5-2.8-3.5 1.1-3.5 3.2 0 3.4.2 4 4.6 1 7.4.8 8.4-1.4 8.4-1.8 0-2-.6-1.8-4.2z"/><path d="M270 333.1c0-4.4 1-6.1 3.6-6.1h2.3l-1.7 4.5c-1.9 5.1-4.2 6-4.2 1.6zM325 334.8c0-3 1.3-5.8 2.6-5.8.9 0 1.4 1.2 1.4 3.5 0 2.8-.4 3.5-2 3.5-1.1 0-2-.6-2-1.2zM188 331.5c0-3.9 1.4-4.6 3-1.6 1.6 3.1 1.2 5.1-1 5.1-1.6 0-2-.7-2-3.5zM298.5 329.8c.4-2.9 1.9-8.9 3.4-13.2 2.7-8.2 5.1-11 5.1-6 0 3.3-2.1 10.4-3.1 10.4-.4 0-1 3.2-1.4 7-.6 6.1-1 7-2.7 7-1.8 0-1.9-.4-1.3-5.2zM373.5 332.2c.4-1.3 4.1-8.1 8.2-15 9.7-16.4 19.3-34.5 19.3-36.4 0-.8-1.8-2.2-4-3.1-2.2-.8-4-2-4-2.6 0-1.1 2.7-.3 8 2.4 1.7.9 3.1 1.2 3.1.8.1-.5.2-1.2.3-1.8.9-5.9 5.1-8 9.4-4.8 3.2 2.4 3.8 4.7 2.1 7.9-1.6 3.1-2.9 3.1-2.9 0s-2.8-5.6-4.1-3.5c-.5.8-.9 1.9-.9 2.4 0 .6-.9 1.7-2 2.5s-2 2.2-2 3.2c0 3.3-4.3 10.8-6.2 10.8-1.3 0-1.8.8-1.8 3 0 3.7-1.9 8-3.7 8-.7 0-1.3 1.1-1.3 2.5 0 1.5-.6 2.5-1.4 2.5-.7 0-3.2 3-5.4 6.8-5.5 9.2-11.5 17.3-10.7 14.4zM356.9 330.8c0-.7-.2-2.3-.3-3.5-.2-1.7.3-2.3 1.6-2.3 1.4 0 1.8.8 1.8 3.5 0 2.4-.5 3.5-1.5 3.5-.8 0-1.5-.6-1.6-1.2zM306 327.5c0-2.4.5-3.5 1.5-3.5s1.5-1.1 1.5-3.5c0-1.9.5-3.5 1-3.5.6 0 1-1.1 1-2.5 0-2 .5-2.5 2.5-2.5h2.5l-1.9 4.8c-6 14.8-8.1 17.7-8.1 10.7zM332 324.6c0-2 .5-3.6 1-3.6.6 0 1-1.3 1-3 0-2.5.4-3 2.5-3h2.4l-2.2 6.2c-2.6 7.2-4.7 8.7-4.7 3.4zM180.5 324.1c-.3-1.7-3.1-6.6-6-11-5.3-7.9-5.4-8.1-2.9-8.1 3.1 0 7.8 5.4 16.7 19.3l1.7 2.7h-4.4c-4.1 0-4.5-.2-5.1-2.9zM275 320.5c0-3.2.2-3.5 2.9-3.5 2.8 0 3-.2 3.3-4.7.3-4.6.4-4.8 3.7-5.1l3.3-.3-2.1 3c-1.4 2-2 3.8-1.6 5.1.5 1.6.2 2-1.5 2-1.3 0-2.8 1.3-4.1 3.5-1.2 1.9-2.5 3.5-3 3.5s-.9-1.6-.9-3.5zM96.1 321.3c3.3-4.4 15.9-14.3 18.1-14.3.4 0 .8 1 .8 2.3 0 1.6-.9 2.8-2.7 3.8-1.6.8-3.2 2-3.6 2.6-.4.7-1.7 1.3-2.7 1.3-1.1 0-2 .4-2 1 0 2.2-3.6 5-6.3 5-2.6 0-2.8-.2-1.6-1.7zM239 320.5c0-1.2 7.5-13.5 8.2-13.5.4 0 .8 1.6.8 3.5 0 2.8-.4 3.5-2 3.5s-2 .7-2 3.5c0 3.1-.3 3.5-2.5 3.5-1.4 0-2.5-.2-2.5-.5zM392 319.8c0-3 1.3-5.8 2.6-5.8.9 0 1.4 1.2 1.4 3.5 0 2.8-.4 3.5-2 3.5-1.1 0-2-.6-2-1.2zM217 316.6c0-3.2.3-3.6 2.5-3.6 2.4 0 2.5.1 1.2 3.2-1.9 4.6-3.7 4.8-3.7.4zM271 310.9c0-1 8-27 8.5-27.7.2-.2 1.9.3 3.8 1.2 4.3 1.7 6.1 4.7 5.2 8.7-.8 3.4-3.5 3.9-3.5.7 0-3.1-1.7-5.6-2.8-4.3-.5.6-2.4 5.8-4.2 11.8-2.7 8.5-3.7 10.7-5.2 10.7-1 0-1.8-.5-1.8-1.1zM338 308.6c0-3.2.3-3.6 2.5-3.6 2.4 0 2.5.1 1.2 3.2-1.9 4.6-3.7 4.8-3.7.4zM257 306.6c0-3.2.3-3.6 2.5-3.6 2.4 0 2.5.1 1.2 3.2-1.9 4.6-3.7 4.8-3.7.4zM358 307.9c0-3.2 2.4-9.9 3.6-9.9 1.5 0 1.8 2.8.8 7.9-.5 2.1-1.2 3.1-2.5 3.1-1.1 0-1.9-.5-1.9-1.1zM316 304.5c0-3.1.3-3.5 2.5-3.5 2.9 0 3 .2 1 4-2.1 4-3.5 3.8-3.5-.5zM307 303.5c1.7-4.5 7.4-14.5 8.2-14.5.4 0 .8 1.6.8 3.5 0 2.4-.5 3.5-1.5 3.5-.9 0-1.5.9-1.5 2.5 0 4.1-2.1 7.5-4.6 7.5-2.1 0-2.2-.3-1.4-2.5zM196.8 304.3c-3-.3-3.8-.8-3.8-2.5 0-1.8.4-1.9 3.6-1.3 5.1.9 8.4 2.3 8.4 3.5 0 1-1 1-8.2.3z"/><path d="M289.6 303.5c-.9-2.5-.7-3.5.7-3.5.7 0 3.3-2.1 5.7-4.6 4.8-4.9 16.7-14.8 21.2-17.7 3.8-2.4 5.9-2.1 9.8 1.3l3.5 2.9-3.7.1c-2.1 0-3.8-.4-3.8-1 0-1.6-1.9-1.2-4.2 1-1.2 1.1-3 2-4 2s-1.8.4-1.8.9c0 .4-1.9 2.1-4.2 3.6-2.4 1.6-7.5 5.9-11.4 9.7-5.6 5.4-7.3 6.6-7.8 5.3zM128 302.6c0-1.4 2.3-2.2 8.5-3 1.7-.3 4.9-.8 7.3-1.1 3.7-.7 4.2-.5 4.2 1.2 0 1.6-1.2 2.1-8.3 3.1-10.6 1.5-11.7 1.5-11.7-.2zM341 300.5c0-1.9.4-3.5.9-3.5s1.1-1.3 1.5-3c.3-1.8 1.2-3 2.1-3 1.1 0 1.5-1 1.5-3.5 0-1.9.4-3.5.9-3.5s1.1-1.3 1.5-3c.3-1.8 1.2-3 2.1-3 1 0 1.5-1 1.5-2.7 0-3.8 1.3-5.5 3.9-5.1 2 .3 2 .6-2 8.8-2.3 4.7-5.9 12.2-8 16.8-2.1 4.5-4.3 8.2-4.9 8.2-.5 0-1-1.6-1-3.5zM151 299.6c0-1.4 2.9-2.6 6.8-2.6 1.2 0 2.2-.4 2.2-.8s-4.1-4.8-9.1-9.7c-6.5-6.4-9.9-10.7-12-15-1.6-3.3-2.4-6.1-1.9-6.3 1.6-.6 1.2-2.2-.5-2.2-.8 0-1.5-.8-1.5-1.7 0-3.4 1.2-6.3 2.6-6.3.8 0 1.4-.4 1.4-1 0-.5 1.3-1 2.9-1h2.8l-1.6 3.5c-.9 1.9-2.2 3.4-2.8 3.5-1.4 0-1.8 2-.4 2 .5 0 1.4 2 2 4.4.6 2.4 2.5 6.5 4.4 9.2 1.8 2.7 3.1 5.7 2.9 6.7-.2.9.1 1.7.7 1.7s1.1-.5 1.1-1.1c0-.6 3.5 2.3 7.7 6.5 4.3 4.2 8.3 7.6 9 7.6.7 0 1.3.7 1.3 1.6 0 1.4-.8 1.6-5 1.1-2.9-.4-5-.2-5 .3 0 .6-1.8 1-4 1-2.7 0-4-.4-4-1.4zM226 297.5c0-3.2.2-3.5 3-3.5h3l-2.2 3.5c-2.9 4.4-3.8 4.4-3.8 0zM337 291.9c3.6-9.5 4.7-11.9 6-11.9 2.1 0 .3 10.1-2.1 12-.3.3-.9 2.2-1.3 4.3-.6 3.1-1.1 3.7-3.1 3.7h-2.4l2.9-8.1zM405 296.6c0-3.2.3-3.6 2.5-3.6 2.4 0 2.5.1 1.2 3.2-1.9 4.6-3.7 4.8-3.7.4zM250.7 295.6c-.3-.8-2.4-2-4.6-2.7-2.3-.7-4.1-1.8-4.1-2.6 0-1.8.3-1.7 6 1.2 5.9 3 7 3.1 6.3.7-.2-1 .6-3 1.7-4.5 2.5-3.1 4.9-2.9 8.8.6 2.5 2.3 2.7 4.4.8 7-2 2.5-2.6 2.1-2.6-1.8 0-2.8-.4-3.5-2-3.5-1.5 0-2.2.8-2.6 2.9-.8 3.8-6.5 5.8-7.7 2.7zM363.5 289.4c1.3-3.6 2.7-6.9 3-7.5 1.3-2 2.5-.7 2.5 2.6 0 1.9-.4 3.5-.9 3.5s-1.1 1.8-1.5 4c-.5 3.4-1 4-3.1 4H361l2.5-6.6zM371 291.6c0-3.2.3-3.6 2.5-3.6 2.4 0 2.5.1 1.2 3.2-1.9 4.6-3.7 4.8-3.7.4zM109 290c0-1.6.5-2.1 2.3-1.8 1.2.2 2.2 1 2.2 1.8s-1 1.6-2.2 1.8c-1.8.3-2.3-.2-2.3-1.8z"/><path d="M324 288.8c0-4.3 1.2-6.1 3.8-5.6l2.1.3-1.9 4.3c-2.3 5-4 5.4-4 1zM408 288.8c0-4.3 1.2-6.1 3.8-5.6l2.1.3-1.9 4.3c-2.3 5-4 5.4-4 1zM375 283.5c0-3.2.2-3.5 3-3.5h3l-2.2 3.5c-2.9 4.4-3.8 4.4-3.8 0zM170.2 281.3c-.7-1.2-1.2-3-1.2-4.1 0-3.5 3.1-10.9 6-14.3l2.9-3.4.1 3.8c0 2-.3 3.7-.8 3.7-.6 0-4.1 9.4-5.5 15-.3 1.1-.6 1-1.5-.7zM287.1 277.6l-2.2-2.4 4.5-.6c2.9-.5 4.6-1.2 4.6-2.1 0-1.7 6.1-5.5 8.9-5.5 3.9 0 2.6 2.1-4.5 7.1-8.4 6-8.8 6.1-11.3 3.5zM235.5 276.4c-2.2-1.3-5.5-3.2-7.2-4-4.3-2.1-4.2-3.4.2-3.4 1.9 0 3.5.5 3.5 1 0 .6.9 1 1.9 1 1.1 0 2.6.7 3.5 1.5.8.8 1.9 1.5 2.5 1.5.6 0 1.1 1.1 1.1 2.5 0 3.1-.5 3.1-5.5-.1zM342.9 276.7c2.7-7.1 7.1-15.7 8-15.7.6 0 1.1 1.3 1.1 3 0 3.2-1.9 8-3.2 8-.4 0-.8.9-.8 1.9 0 3.4-1.2 5.1-3.6 5.1-2 0-2.2-.3-1.5-2.3zM261.4 276c-3.2-2.1-8.8-2.8-11.6-1.6-1.5.7-1.8.3-1.8-1.8 0-2.5.2-2.6 6-2.6 4.7 0 6 .3 6 1.5 0 .9.9 1.5 2.5 1.5 2 0 2.5.5 2.5 2.5 0 3 .2 2.9-3.6.5zM371.1 275.3c4.1-5.2 8.9-7 8.9-3.3 0 1.3-.7 2-2 2-1.1 0-2 .7-2 1.5 0 1-1 1.5-3.1 1.5-2.8 0-3-.2-1.8-1.7zM278.6 270c-5.8-4.4-13.6-5.2-13.6-1.4 0 .8-.4 1.4-1 1.4-.5 0-1-1.6-1-3.5V263h6.5c5.1 0 6.5.3 6.5 1.5 0 1 1 1.5 3 1.5 3.2 0 4.4 1.5 3.8 4.9-.3 1.9-.5 1.8-4.2-.9zM311.5 268c-.8-1.3 1.3-4 3-4 2.1 0 3.6 2.5 2.3 3.8-1.5 1.5-4.5 1.6-5.3.2zM360 261c0-1.6 1.4-5.9 3.2-9.5 2.6-5.1 3.7-6.5 5.5-6.5 2.7 0 2.5.8-3.2 11.9-3.8 7.6-5.5 8.9-5.5 4.1zM353.3 254.8c1.9-4.6 3.7-4.8 3.7-.4 0 3.2-.3 3.6-2.5 3.6-2.4 0-2.5-.1-1.2-3.2zM225.4 248.3c.9-10.8 1.5-13.3 3.2-13.3 1 0 1.4 1.2 1.4 4 0 2.2-.4 4-.8 4s-.6 2.9-.4 6.5c.4 6.2.3 6.5-1.8 6.5-2.2 0-2.2-.2-1.6-7.7zM165 252.6c0-1 .9-1.6 2.1-1.6 2.4 0 2.1 2.3-.4 2.8-1 .2-1.7-.3-1.7-1.2zM188 248.7c1.4-1.2 3.9-3.2 5.5-4.3l2.9-2.2-3.2-.7c-3.8-.8-4.3-3.5-.7-3.5 1.8 0 2.5-.5 2.5-2s-.7-2-2.5-2c-1.4 0-2.5-.4-2.5-1 0-1.5-8.7-1.2-15 .5-7 1.9-11 1.9-11 .1 0-1.6 9.2-4.1 18.6-5.1 7.2-.8 10.6.5 15.2 6.1l3.1 3.7 5.9-1.3c5.9-1.2 6.1-1.2 12.1 2 6.4 3.4 7.3 4.5 4.4 5.2-2.8.6-5.3-.2-5.3-1.8 0-1.5-3.1-1.9-11.2-1.5-3 .2-4.8-.1-4.8-.8 0-.6-.7-1.1-1.5-1.1-1 0-1.5 1-1.5 3 0 2.7-.3 3-3 3s-3 .3-3 3c0 2.8-.2 3-3.7 3l-3.8-.1 2.5-2.2zM342.6 248.6c-1.2-4.6-.6-5.1 12.2-9.1l7.2-2.3v2.4c0 2.1-.5 2.4-3.4 2.4-1.9 0-3.6.5-3.8 1.1-.2.5-2.2 1.3-4.6 1.6-3.7.5-4.1.8-3.6 2.8.4 1.7 0 2.4-1.4 2.7-1.5.4-2.2 0-2.6-1.6zM143 244.5c1.7-2.1 11.4-8.3 15.5-10.1 3.4-1.4 3.5-1.4 3.5.9 0 2.5-3.3 4.7-7 4.7-1.1 0-2 .7-2 1.5s-.9 1.5-2 1.5-2 .7-2 1.5c0 1.1-1.1 1.5-3.6 1.5-3.1 0-3.5-.2-2.4-1.5zM304 238c0-3.3.3-4 2-4 2.1 0 2.5 1.6 1.4 5.8-1.1 3.9-3.4 2.7-3.4-1.8zM453.2 240.3c.2-1-.4-1.8-1.2-1.9-7.5-1.1-9-1.6-9-2.9 0-1 1.1-1.5 3.3-1.6 1.7-.1 2.4-.3 1.5-.6-1-.2-1.8-1.3-1.8-2.4 0-1.2.7-1.9 1.8-1.9 2.9.1 5.3 2.6 5.9 6.4.3 2 1 3.6 1.4 3.6.5 0 .9.7.9 1.5s-.7 1.5-1.5 1.5c-.9 0-1.5-.7-1.3-1.7zM377 235.6c0-.7 1-1.6 2.3-2 4.1-1.1 5.7-.7 5.7 1.4 0 1.7-.7 2-4 2-2.7 0-4-.4-4-1.4zM386 234.6c0-.7 1-1.6 2.3-2 4.1-1.1 5.7-.7 5.7 1.4 0 1.7-.7 2-4 2-2.7 0-4-.4-4-1.4zM397 233.6c0-1.3 2.8-2.6 5.8-2.6.6 0 1.2.9 1.2 2 0 1.6-.7 2-3.5 2-2.3 0-3.5-.5-3.5-1.4zM365.4 227.6l2.1-6.4 3 1.6c3.1 1.6 6.5 4.9 6.5 6.4 0 .4-1.1.8-2.5.8s-2.5-.4-2.5-1c0-2.2-2.2-.8-3.1 2-.8 2.2-1.7 3-3.4 3h-2.3l2.2-6.4zM410 232.6c0-1.3 2.8-2.6 5.8-2.6.6 0 1.2.9 1.2 2 0 1.6-.7 2-3.5 2-2.3 0-3.5-.5-3.5-1.4zM227 229.8c0-4.8 1-7.8 2.6-7.8 1 0 1.4 1.5 1.4 5.5 0 4.8-.2 5.5-2 5.5-1.6 0-2-.7-2-3.2zM418 231.6c0-1.3 2.8-2.6 5.8-2.6.6 0 1.2.9 1.2 2 0 1.6-.7 2-3.5 2-2.3 0-3.5-.5-3.5-1.4zM305 225.5c0-3.8.3-4.5 2-4.5 2.1 0 2.6 2.3 1.4 6.8-1.1 4.1-3.4 2.6-3.4-2.3zM228 218.5c0-.8-1.1-1.7-2.5-2.1-4.1-1-3.1-3.4 1.5-3.4 3.9 0 4 .1 4 3.5 0 2.4-.5 3.5-1.5 3.5-.8 0-1.5-.7-1.5-1.5zM354 216.6V214h-17.5c-10.1 0-17.5-.4-17.5-.9s-.8-1.2-1.7-1.4c-1-.3-.3-.5 1.5-.6 3.3-.1 4.6-2 1.5-2.2-1.3 0-1.1-.3.7-1.1 1.4-.6 8.6-1.2 16.1-1.3 13.2-.2 13.6-.1 13.1 1.8-.4 1.7-.1 1.9 1.6 1.5 1.7-.5 2.2-.2 2.2 1.3 0 1.2.7 1.9 2 1.9 1.4 0 2-.7 2-2.1 0-1.2.8-2.3 2-2.6 1.4-.4 2-1.4 2-3.4 0-2.4.4-2.9 2.5-2.9 2.5 0 2.5 0 1 3.8-2 4.9-4.3 7.9-8.3 11l-3.2 2.5v-2.7zM211 214.5c-.8-.2-3.2-.6-5.2-1-2.4-.4-3.8-1.1-3.8-2 0-1.7 1.1-1.8 8.8-.9 4.2.6 5.2 1 5.2 2.5 0 1.8-1.2 2.1-5 1.4zM195.8 212.3c-3.3-.8-2-3.3 1.7-3.3 2.8 0 3.5.4 3.5 2 0 2-1.4 2.3-5.2 1.3z"/><path d="M185 211.1c-1.9-.4-4.5-1.3-5.7-1.9-3.6-2-7.2-8.2-8.5-14.5-1.3-6.1-1-5.9-9.1-7.2-2.7-.4-5.3-2-8.8-5.4-5.5-5.3-6.1-7.1-2.4-7.1 2.1 0 2.5.5 2.5 3s.4 3 2.5 3c2.3 0 2.5-.3 1.9-2.7-.5-2.3-.4-2.6.7-1.5 1.8 1.7 3.2 1.5 2.5-.4-.4-1.1-.1-1.4 1.2-1 .9.3 7.8 1.3 15.2 2.1 7.4.9 16.4 2 20 2.5 3.6.5 7.2 1 8 1 1.2.1 1.2.3-.2 1.4-2.4 1.8-2.3 2.3.7 2.8 1.7.4 2.5.1 2.5-.8 0-.8.7-1.4 1.5-1.4s1.5.7 1.5 1.5.7 1.5 1.5 1.5 1.5.7 1.5 1.5c0 2.2-1.8 2.1-48.5-4-2.9-.4-3.5-.2-2 .4 1.1.5 3.5 1 5.3 1 2.7.1 3.2.5 3.2 2.6 0 1.4.4 2.5.8 2.5.5 0 1.3 1.7 1.9 3.8.9 3.3 1.1 3.4 1.2 1 .1-3.4.9-3.5 4-.2 3.6 3.8 6.9 5.1 14.9 5.8 15.7 1.4 22.3 2.8 25 5.3 1.5 1.4 2.8 2 3 1.4.5-1.5 3.9-1.4 4.5.2.3.6.6 0 .6-1.5.1-4.5 2.1-3.2 2.1 1.4v4.1l-9.2-.6c-5.1-.4-15.4-1.6-22.8-2.7s-14.2-1.9-15-1.9c-2.5.2 3.3 1.7 6.8 1.8 2.5.1 3.2.5 3.2 2.1 0 2.2-1.5 2.4-8 1.1zM384 192.9c0-1.7-.4-1.9-1.7-1.3-2.2 1-60.1 2.9-61 2-.4-.3.4-1.6 1.7-2.8 1.8-1.7 2.6-1.9 4.1-1 2.5 1.6 4 1.5 3.3-.1-1-2.6 6.7-3.7 25.9-3.7 17 .1 19-.1 22.8-2 2.2-1.2 4.6-1.9 5.2-1.7.7.2 1.7-.5 2.4-1.7 1.1-1.9 1.2-1.7 1.4 2.4.1 2.5.4 3.5.6 2.3.2-1.3.8-2.3 1.2-2.3.5 0 1.1-1.2 1.4-2.7 1-4.5 2.2-5.5 7.1-6 3.8-.5 4.6-.3 4.6 1.1 0 1.4-1.6 2.1-4.6 1.7-.5 0-1.8 1.6-2.8 3.6-2.6 5.6-6.5 11-9.2 12.8-2.3 1.5-2.4 1.4-2.4-.6zm-47.2-2.6c-1-.2-2.6-.2-3.5 0-1 .3-.2.5 1.7.5s2.7-.2 1.8-.5zM360 172.1c0-.6-3.5-1.2-8.7-1.4l-8.8-.3 10.3-.2c12.7-.2 14-2.2 1.5-2.2-8.9 0-13.2-1.1-9.8-2.4.9-.3 12.8-.6 26.4-.6 17.5 0 26.2-.4 29.9-1.4 3.6-.9 5.2-1 5.1-.2-.3 2.6.2 3.5 1.6 3 2.8-1.1 1.7 3.2-1.2 4.6-3.6 1.8-46.3 2.8-46.3 1.1zm24-3.1c0-.5-1.1-1-2.5-1s-2.5.5-2.5 1c0 .6 1.1 1 2.5 1s2.5-.4 2.5-1zM412 170.2c0-2.1.9-3.8 3-5.5 1.7-1.4 3-3 3-3.6 0-.6.5-1.1 1-1.1.6 0 1-.7 1-1.5 0-.9.9-1.5 2.5-1.5 1.4 0 2.5.3 2.5.8 0 1.7-7.1 11.2-10 13.2l-3 2.1v-2.9zM144.6 166.8c-.4-1-2.5-2.2-4.5-2.8-8.3-2.2-16.2-9.2-19.6-17.3-1.5-3.7-1.5-3.7.9-3.7 1.9 0 2.8.8 3.6 3.3.7 1.7 2.3 4 3.6 5 2.4 1.8 2.4 1.8 2.4-.5 0-1.6.3-1.9.9-1 .4.7 1.2 1.2 1.7 1.1.5-.2 2.7.3 4.9.9 2.2.6 10.1 1.8 17.5 2.6 30 3.3 41 5.6 41 8.3 0 1.1.8 1.4 3 1.1 1.7-.3 3-.1 3 .4 0 .4.7.8 1.5.8s1.5.7 1.5 1.6c0 2-.9 1.9-34.5-2.5-12.6-1.7-23.5-3.1-24.2-3.1-.6 0-1.3 1.7-1.5 3.8-.3 2.8-.6 3.3-1.2 2zM303.6 160.4c-.3-.9-.6-2.9-.6-4.5 0-2.4-.4-2.9-2.4-2.9-3.1 0-4.5-3.8-5.3-13.7-.5-6.1-.3-7.3.9-7.3 1.8 0 2.8 2.9 2.8 8.1 0 3.6 3.6 11.6 6.9 15.6l1.9 2.2 6.8-3.4c3.8-1.9 9.3-3.7 12.2-4 4.7-.6 5.2-.5 5.2 1.3 0 1.7-.9 2.1-7 2.7-4.9.5-7 1.1-7 2.1 0 .7-1.1 1.6-2.4 2-1.4.3-2.7 1.2-3 2-.8 2-8.2 1.9-9-.2zM230 158c0-2.7-.3-3-3-3-1.6 0-3-.4-3-1 0-.5-.7-1-1.5-1s-1.5-.6-1.5-1.4c0-.9-2-1.6-6.5-2.1-5.6-.6-6.5-.9-6.5-2.6 0-1.8.5-2 4.8-1.4 6.9 1 14.6 5 19 10.1 4 4.5 5.2 5.2 5.2 3.4 0-1.6 7.9-12 9.6-12.7 2.5-.9 6.3-8.6 8-16.1 1.1-4.7 2.1-7.2 3-7.2.8 0 1.4 1 1.4 2.6 0 4.3-3.1 16.3-4.6 17.8-.8.8-1.4 1.9-1.4 2.5 0 .6-.7 1.1-1.5 1.1s-1.5.6-1.5 1.3c0 2.1-4.4 5.7-6.8 5.7-1.8 0-2.2.6-2.2 3.5v3.5h-5.5c-5.4 0-5.5 0-5.5-3zM421 153c0-3.2.9-3.7 2.8-1.8 1.9 1.9 1.5 4.8-.8 4.8-1.6 0-2-.7-2-3zM363 151.9c0-1.5.5-2 2.2-1.7 3.4.5 3.7 3.8.4 3.8-2 0-2.6-.5-2.6-2.1zM386 152c0-1.3 3.4-3 5.9-3 1.4 0 2.1.6 2.1 2 0 1.7-.7 2-4 2-2.2 0-4-.4-4-1zM194 145c0-2.1 1-2.4 4.8-1.4 3.6 1 2.7 3.4-1.3 3.4-2.8 0-3.5-.4-3.5-2zM175 144.2c0-2.5 3-3.6 7.6-2.7 3.9.7 4.8 3.5 1 3.5-1.3 0-3.8.3-5.5.6-2.7.6-3.1.4-3.1-1.4zM126 136c0-2.1 1-2.4 4.8-1.4 3.6 1 2.7 3.4-1.3 3.4-2.8 0-3.5-.4-3.5-2zM295 124c0-6.3.2-7 2-7 1.7 0 2 .7 2 4.8 0 6.1-.9 9.2-2.6 9.2-1.1 0-1.4-1.7-1.4-7zM256.6 117.3c.8-6 6-30.8 8-38.7 1.1-4.1 1.2-6.2.5-6.9-2.1-2.1-.9-11.7 1.4-11.7s2.7 16.3.5 25.4c-3.4 14.4-5.9 26.1-6.6 31.4-.5 4.2-1 5.2-2.6 5.2-1.7 0-1.9-.5-1.2-4.7zM295 107.5c0-6.6.3-8.5 1.4-8.5 1.8 0 2.6 3.1 2.6 10.8 0 5.5-.2 6.2-2 6.2s-2-.7-2-8.5zM294 82c0-4.7.4-8 1-8s1-1.3 1-3c0-2.4.4-3 2.1-3 1.8 0 2 .4 1.4 2.8-.4 1.5-1 6.4-1.2 11-.4 7.3-.7 8.2-2.4 8.2s-1.9-.8-1.9-8zM297 60.5c0-2.4.5-3.5 1.5-3.5.8 0 1.5-.9 1.5-2s-.4-2-1-2c-.5 0-1-.7-1-1.5s.5-1.5 1.2-1.5c.6 0 2.6-1.1 4.5-2.6 3.2-2.4 3.3-2.4 3.3-.4 0 2.7-2.5 7.6-4.3 8.3-.8.3-1.7 2.4-2.1 4.6-.8 5.3-3.6 5.8-3.6.6zM264.1 51.8c-1.9-3.1-3.1-7.7-2.1-8.3.5-.3 2.1.6 3.6 2s3.1 2.5 3.5 2.5c.5 0 .9.5.9 1 0 .6-.7 1-1.5 1s-1.5.9-1.5 2c0 2.6-1.2 2.5-2.9-.2zM286 51c0-2.1 1-2.4 4.8-1.4 3.6 1 2.7 3.4-1.3 3.4-2.8 0-3.5-.4-3.5-2zM256.5 36c-1.1-.5-3.2-.9-4.7-.9-2-.1-2.8-.6-2.8-1.9 0-1.6 1.2-1.8 12-1.9 7.1-.1 12 .2 12 .7 0 .6 2 1 4.5 1 4.9 0 6.4 2.3 2.3 3.4-3.4.9-21 .6-23.3-.4z"/><path d="M237.3 34.9c-8.6-1.3-13.3-3-15-5.6-1.4-2.1-1.3-2.3 1.7-4.1 3.3-2.1 15.4-4.7 25.5-5.6 5.7-.5 5.6-.4-2.5 1.4-10.9 2.4-22.7 6.5-21.3 7.3 1.5.9 16.1 3.7 19.6 3.7 2 0 2.7.5 2.7 2 0 2.2-.7 2.3-10.7.9zM286 32.6c0-.7 1-1.6 2.3-2 4.1-1.1 5.7-.7 5.7 1.4 0 1.7-.7 2-4 2-2.7 0-4-.4-4-1.4zM300 31.6c0-.7 1-1.6 2.3-2 4.1-1.1 5.7-.7 5.7 1.4 0 1.7-.7 2-4 2-2.7 0-4-.4-4-1.4zM311 30.6c0-1.3 2.8-2.6 5.8-2.6.6 0 1.2.9 1.2 2 0 1.6-.7 2-3.5 2-2.3 0-3.5-.5-3.5-1.4zM319 29.7c0-1.1 1.3-1.8 3.8-2.3 5.7-.9 14.3-3.2 15-3.9.6-.6-1-2-3.3-2.8-2.4-.9.8-2 3.3-1.1 1.9.7 2.7 1.6 2.7 3.4 0 3.5-6.2 6.6-14.7 7.5-5.8.6-6.8.5-6.8-.8zM322.2 19c-6.5-1-7.9-2-2.6-2 5.6 0 11.4 1.1 11.4 2.1s-1.2 1-8.8-.1zM307.3 17.3c.9-.2 2.5-.2 3.5 0 .9.3.1.5-1.8.5-1.9 0-2.7-.2-1.7-.5z"/></g><g fill="#b60f26"><path d="M203.5 493.6c-5.2-1.6-9.8-4.1-11.4-6-1.2-1.4-.9-1.6 2.3-1.6 2 0 3.6.4 3.6.8 0 1.6 5.9 4.2 9.4 4.2 2.9 0 3.6.4 3.6 2 0 2.3-1.7 2.4-7.5.6zM213 491.3c.1-.5 2.5-2.5 5.5-4.6l5.5-3.8v3.2c0 2.2-.5 3.2-2 3.6-1.1.3-2 .9-2 1.4 0 .5-1.6.9-3.5.9s-3.5-.3-3.5-.7zM233.2 481.5c.3-3.3.7-4.1 2.6-4.3 1.6-.3 2.2-1 2.2-2.8 0-2 .5-2.4 3.1-2.4h3l-1.9 2.8c-1.1 1.5-3.6 4.5-5.6 6.7l-3.6 4 .2-4zM207 468c0-1.1.6-2 1.3-2 1.9 0 2.7 1 2 2.6-.8 2.1-3.3 1.7-3.3-.6zM263 468c-1.4-2.7 4.5-26 6.6-26 .9 0 1.4 1.1 1.4 3 0 2.3.5 3 1.9 3 1.7 0 1.8.3.8 3.5-.9 3.1-3.7 5-3.7 2.5 0-.5-.4-1-1-1-.5 0-1 1.2-1 2.8 0 1.5-.4 4.3-1 6.2-.7 2.4-.6 3.6.2 4.1 1.5.9.3 3.9-1.6 3.9-.9 0-2-.9-2.6-2zM299.7 465c-1.3-1.1-2.7-2.9-3-4-.4-1.6 0-2 1.9-2 1.8 0 2.4.6 2.5 2.3.1 1.8.3 1.6.9-.8.4-1.7.8-2.2.9-1.2 0 1 .7 1.7 1.4 1.5 2-.7 13.7-16.9 16.3-22.5 2.7-6.1 4.4-6.8 4.4-1.8 0 2.4-.5 3.5-1.5 3.5-1.2 0-1.5 1.6-1.5 8.4 0 6.2.4 8.9 1.5 10 .8.8 1.5 1.9 1.5 2.5 0 .6.9 2 2 3.1 2 2 2 2 0 2-1.1 0-3.4-1.3-5.2-2.9-3.3-2.9-3.3-3.1-3.1-11.1l.1-8.2-7.3 11c-4.1 6.1-7.8 11.3-8.3 11.6-.5.3-2.1-.3-3.5-1.4zM346.7 453.6c4.3-4.6 8.1-8.2 8.6-7.9.4.2.6 1.6.6 3.1-.2 2.6-.2 2.6-.6.3l-.5-2.4-2.4 2.9c-4.6 5.4-11.7 12.4-12.6 12.4-.5 0 2.6-3.8 6.9-8.4zM242.2 458.3c3.5-7.4 4.8-8.1 4.8-2.8 0 3.1-.3 3.5-2.6 3.5-1.4 0-2.4-.3-2.2-.7zM385.8 457.3c-.8-1-1.8-2.6-2.1-3.5-.9-2.5 3.1-2.3 6.2.3 2.3 1.9 2.3 2 .5 3.4-2.5 1.9-2.8 1.8-4.6-.2zM361.3 455.3c-1.9-.4-2.3-1.1-2.3-3.9 0-2.4.5-3.4 1.5-3.4.8 0 1.5.6 1.5 1.3.1 5.3 4.7 4.3 9.5-2 4.5-5.9 4.5-4.7-.1 2.8-3.6 6-4.2 6.3-10.1 5.2zM417 453c0-1.6.7-2 3-2 2.8 0 2.9.2 1.8 2-.7 1.1-2.1 2-3 2-1.1 0-1.8-.8-1.8-2zM295 450.8c0-3 1.3-5.8 2.6-5.8.9 0 1.4 1.2 1.4 3.5 0 2.8-.4 3.5-2 3.5-1.1 0-2-.6-2-1.2zM399.1 445.5c1.8-3.3 4-7.1 4.9-8.5.9-1.4 2-3.3 2.3-4.2.4-1 1.3-1.8 2.2-1.8 1.5 0-1.9 6-8.4 15-4.2 5.9-4.5 5.8-1-.5zM382.6 445.5c-.8-3.3.3-7.5 2-7.5 1 0 1.4 1.4 1.4 5 0 5.5-2.3 7.1-3.4 2.5zM412.5 443c-1-1.7.5-7 2.1-7 1 0 1.4 1.2 1.4 4s-.4 4-1.4 4c-.8 0-1.8-.5-2.1-1zM356 441.9c0-2.9 2.5-8.9 3.7-8.9 1.4 0 1.7 3.8.7 7.8-.6 2.2-4.4 3.2-4.4 1.1zM193.1 432.9c2.7-6.9 3.8-8.9 4.9-8.9 1.6 0 1.1 6.7-.5 8.4-.8.8-1.5 2.4-1.5 3.5 0 1.6-.6 2.1-2.5 2.1H191l2.1-5.1zM299 435.4c0-2.1 1.8-5.4 3-5.4.6 0 1 1.6 1 3.5 0 2.8-.4 3.5-2 3.5-1.1 0-2-.7-2-1.6zM340.2 434c2.1-1.7 5.1-4.7 6.8-6.8 1.6-2 3-3 3-2.3 0 .8-2.4 3.8-5.3 6.8-3 2.9-6 5.3-6.8 5.3-.7 0 .3-1.4 2.3-3zM383 434.9c0-1.4-.4-1.8-1.2-1.2-.7.4-.5-.5.4-1.9 1-1.4 2.2-4.7 2.9-7.2.7-2.9 1.7-4.6 2.7-4.6 1.2 0 1.4.9.9 5.2-.4 2.9-1.1 5.4-1.7 5.6-.5.2-1 1.4-1 2.7 0 1.2-.7 2.5-1.5 2.9-1 .4-1.5-.1-1.5-1.5zM455 434.3c-1.4-.9-2.6-1.7-2.7-1.8-.1 0-.9-1.8-1.8-3.8-1.5-3.5-1.4-3.7.4-3.7 1.3 0 2.6 1.2 3.7 3.5 2 4.3 5 4.6 8.4 1 1.3-1.4 3.2-2.5 4.2-2.5 1.7 0 1.7.1.2 2.5-1.6 2.4-7.3 6.5-9 6.5-.5 0-2.1-.8-3.4-1.7zM273.3 427.8c2.6-7.2 4.7-8.7 4.7-3.4 0 2-.4 3.6-1 3.6-.5 0-1 1.4-1 3 0 2.5-.4 3-2.5 3h-2.4l2.2-6.2zM331 428.5c0-3.1.3-3.5 2.5-3.5 2.9 0 3 .2 1 4-2.1 4-3.5 3.8-3.5-.5zM324.3 427.8c1.9-4.6 3.7-4.8 3.7-.4 0 3.2-.3 3.6-2.5 3.6-2.4 0-2.5-.1-1.2-3.2zM286 425.9c0-1.1.4-1.7 1-1.4.6.4 2.2-.1 3.5-.9 2-1.3 2.5-1.4 2.5-.3 0 1.9-3.2 4.7-5.3 4.7-1 0-1.7-.8-1.7-2.1zM361.1 424.3c2-5.4 4.1-9.3 5-9.3.5 0 .9 1.6.9 3.5s-.4 3.5-1 3.5c-.5 0-1 1.1-1 2.5 0 2-.5 2.5-2.5 2.5-2.3 0-2.4-.2-1.4-2.7zM470 423.4c0-2.3 3.3-5.8 5-5.2.6.2-.3 1.9-1.9 3.8-2.6 3.1-3 3.2-3.1 1.4zM248 420.7c0-3.5.2-3.7 3.1-3.7 3.4 0 3.3.2-1.3 5.4-1.8 1.9-1.8 1.9-1.8-1.7zM448 422.2c0-1-.9-2.4-2-3.2-1.1-.8-2-2.5-2-3.7 0-3.4 4-1.5 6.7 3.3 2.9 4.9 2.8 5.4-.2 5.4-1.7 0-2.5-.5-2.5-1.8zM241.8 422.2c-2.2-.4-2.3-1.6-.3-3.2 1.9-1.5 2.8-.9 2.3 1.7-.2 1.1-1 1.7-2 1.5zM284 417.5c0-3.1.3-3.5 2.5-3.5 2.9 0 3 .2 1 4-2.1 4-3.5 3.8-3.5-.5zM435.3 419c.8-1.2 2.5-2.9 3.7-3.7 2.1-1.5 2.1-1.4 1.8 1.8-.3 3-.7 3.4-3.7 3.7-3.2.3-3.3.3-1.8-1.8zM352 418.1c1.5-2.9 1.3-5.1-.5-4.5-1.2.5-1.5-.3-1.5-3.5 0-3 .4-4.1 1.5-4.1.8 0 1.5.6 1.6 1.3 0 .6.2 2.3.4 3.7.6 3.6-.4 9-1.6 9-.6 0-.6-.7.1-1.9zM328.6 416.4c-.8-2 .1-3.4 2-3.4.8 0 1.4 1 1.4 2.5 0 2.8-2.4 3.4-3.4.9zM298.5 416c1.1-1.9 13.3-10 14.9-10 .9 0 1.6.8 1.6 2 0 1.6-.7 2-3 2s-3 .4-3 2c0 1.3-.7 2-1.9 2-1 0-2.4.7-3.1 1.5-1.4 1.6-6.5 2.1-5.5.5zM419.4 410.5c.3-.8.9-2.1 1.2-2.9.7-1.9-7-5.9-10.2-5.3-1.8.3-2.4 0-2.4-1.4 0-1.7.3-1.7 3.9-.4 2.1.7 5.3 2 6.9 2.9 3.3 1.7 5.3 2 5.1.9-.4-2.5.3-4.3 1.6-4.3 1 0 1.5 1.1 1.5 3.5s-.5 3.5-1.5 3.5c-.9 0-1.5.9-1.5 2.5 0 2-.5 2.5-2.6 2.5-1.9 0-2.5-.4-2-1.5zM485.7 410.5c-.8-2-.4-2.9 1.1-2.4.5.2.6 1.3.2 2.3-.6 1.9-.7 1.9-1.3.1zM335 409.5c0-.7 8.1-6.5 9.2-6.5.4 0 .8 1.1.8 2.5 0 1.6-.6 2.5-1.5 2.5-.8 0-1.5.5-1.5 1 0 .6-1.6 1-3.5 1s-3.5-.2-3.5-.5zM258 404.6c0-3.2.3-3.6 2.5-3.6 2.4 0 2.5.1 1.2 3.2-1.9 4.6-3.7 4.8-3.7.4zM369.3 404.8c1.9-4.6 3.7-4.8 3.7-.4 0 3.2-.3 3.6-2.5 3.6-2.4 0-2.5-.1-1.2-3.2zM430 405.5c0-1.4-.4-2.5-1-2.5-.5 0-1-1.1-1-2.5 0-3.1 1.3-3.2 4-.3 2.3 2.5 2.4 3.6.6 6.1-1.8 2.4-2.6 2.1-2.6-.8zM172.3 405.4c-.8-2.1 1.3-4.2 2.8-2.7 1.3 1.3.5 4.3-1.1 4.3-.6 0-1.3-.7-1.7-1.6zM200.2 399.4c-1.4-1.6-1-4.4.7-4.4 1.4 0 3.3 3.8 2.6 5-.8 1.4-1.8 1.2-3.3-.6zM487 397.8c0-1.4 1.4-3.8 3.6-5.9l3.5-3.4-2.4 5.5c-2.6 5.9-4.7 7.6-4.7 3.8zM124.8 392.3c-3.3-.8-2-3.3 1.7-3.3 2.8 0 3.5.4 3.5 2 0 2-1.4 2.3-5.2 1.3zM228 386.6c0-3.3.2-3.6 3.1-3.6h3l-2.1 3c-3.1 4.4-4 4.5-4 .6zM103.5 385.4c-5.4-2.8-9.7-6.4-7.7-6.4.7 0 1.2-1.1 1.2-2.5V374l3.5 2.2c3.4 2.3 4.5 3.8 2.5 3.8-.5 0-1 .7-1 1.5 0 1 1.1 1.5 3.5 1.5 3.1 0 3.5.3 3.5 2.5 0 1.4-.1 2.5-.3 2.5-.1 0-2.5-1.2-5.2-2.6zM198 385.5c0-.8-.7-1.5-1.5-1.5-2.3 0-1.8-1.8 1-3.6 1.4-.9 2.5-2.2 2.5-2.9 0-.8.8-1.1 2-.8 2.3.6 2.7 3.3.5 3.3-.8 0-1.5.5-1.5 1 0 .6.5 1 1 1 1.5 0 1.2 1.6-.6 3.4-2 2-3.4 2-3.4.1zM231 373.8l4.5-4 .3 2.6c.5 3.8-1.4 5.6-5.7 5.6l-3.6-.1 4.5-4.1zM90.1 374.4c-2.7-3.5-2.6-4.4.4-4.4 2.2 0 2.5.4 2.5 3.5 0 1.9-.2 3.5-.4 3.5-.3 0-1.4-1.2-2.5-2.6zM179 371.6c0-2.3.5-3.9 1.5-4.2.8-.4 1.5-1.2 1.5-2s.5-1.4 1-1.4c.6 0 1-.7 1-1.5 0-.9.9-1.5 2.5-1.5 1.4 0 2.5.3 2.5.7 0 1.1-6 10-8 11.8-2 1.8-2 1.7-2-1.9zM306 372.6c0-1.4-.4-2.8-1-3.1-.5-.3-1-1.8-1-3.2 0-1.9.4-2.4 1.6-1.9.9.3 1.8.6 2 .6 1.1 0 2.3 5.4 1.8 7.6-.8 3.2-3.4 3.1-3.4 0zM279.2 372.3c.5-2.6 3.8-2.9 3.8-.4 0 1.5-.6 2.1-2.1 2.1-1.4 0-1.9-.5-1.7-1.7zM394 368.5c0-3.1.3-3.5 2.5-3.5 2.9 0 3 .2 1 4-2.1 4-3.5 3.8-3.5-.5zM328.1 364.3c-1.3-1.7-2.2-3.5-2.1-3.9.1-.4-.5-1.1-1.4-1.6-.9-.5-1.6-2-1.6-3.4v-2.5l4.8 3.2c6.1 4.1 5.8 3.9 4.5 4.7-.6.4-1.3 2.1-1.5 3.7l-.3 3-2.4-3.2zM247 363c0-1.2 3.3-3 5.4-3 .9 0 1.6.9 1.6 2 0 1.6-.7 2-3.5 2-1.9 0-3.5-.4-3.5-1zM359 361.6c0-1.3 2.8-2.6 5.8-2.6.6 0 1.2.9 1.2 2 0 1.6-.7 2-3.5 2-2.3 0-3.5-.5-3.5-1.4zM395.2 361.8c-.7-.7-1.2-2-1.2-3s-.7-1.8-1.5-1.8-1.5-.7-1.5-1.4c0-1.3-.5-1.3-3.2-.2-6.4 2.6-7.8 2.8-7.8 1.2 0-1 1.8-1.9 5.4-2.7 5.3-1.1 5.4-1.1 10 2 2.8 2 4.6 4 4.6 5.1 0 2.3-2.9 2.7-4.8.8zM368 359.6c0-.8 1.9-1.8 4.4-2.5 5.8-1.4 6.6-1.4 6.6.4 0 .8-1.6 1.9-3.7 2.4-5.1 1.5-7.3 1.4-7.3-.3zM188 356.6c0-3.2.3-3.6 2.5-3.6 2.4 0 2.5.1 1.2 3.2-1.9 4.6-3.7 4.8-3.7.4zM248 352c0-1.6.7-2 3-2 2.8 0 2.9.2 1.8 2-.7 1.1-2.1 2-3 2-1.1 0-1.8-.8-1.8-2zM263.5 352c-1.8-2-1.7-2 1.3-2 2.5 0 3.2.4 3.2 2 0 1.1-.6 2-1.3 2-.8 0-2.2-.9-3.2-2zM181.3 348.5c.6-1.9 1.6-3.5 2.4-3.5.8 0 1.3 1.3 1.3 3.5 0 3-.3 3.5-2.4 3.5-2.3 0-2.4-.2-1.3-3.5zM328.6 346.4l-2.9-2.9 2.8-.3c3.4-.4 3.7-.1 3.3 3.3l-.3 2.8-2.9-2.9zM224.8 345c1.1-1.9 3.7-6.4 5.7-10 4.1-7.3 5.2-8.7 6.1-7.7.8.7-7.8 14.7-11.3 18.5l-2.5 2.7 2-3.5zM301.1 345.4c-2.7-3.5-2.6-4.4.4-4.4 2.2 0 2.5.4 2.5 3.5 0 1.9-.2 3.5-.4 3.5-.3 0-1.4-1.2-2.5-2.6zM262 344.8c0-3 1.3-5.8 2.6-5.8.9 0 1.4 1.2 1.4 3.5 0 2.8-.4 3.5-2 3.5-1.1 0-2-.6-2-1.2zM190 341.5c0-4 2.4-4.9 3.4-1.2s.7 4.7-1.4 4.7c-1.6 0-2-.7-2-3.5zM256 341.8c6.9-8.3 7.2-8.5 4-3-1.8 2.8-3.8 5.2-4.5 5.2-1 0-.8-.6.5-2.2zM360.5 342c-1.8-2-1.7-2 1.8-2 3.9 0 4.5.8 2.5 2.8-1.6 1.6-2.2 1.5-4.3-.8zM338 339.5c0-.8.6-1.5 1.4-1.5.8 0 2.9-1.7 4.6-3.7l3.2-3.8-2.6 5.3c-1.9 3.6-3.2 5.2-4.6 5.2-1.1 0-2-.7-2-1.5zM93 336.5c0-3.2.2-3.5 3-3.5h3l-2.2 3.5c-2.9 4.4-3.8 4.4-3.8 0zM315.6 337.4c1-1.6 3-5 4.3-7.6 1.3-2.7 2.8-4.8 3.3-4.8 1.3 0-6.7 14.3-8.3 14.9-.7.2-.4-.8.7-2.5zM87.3 335.8c1.9-4.6 3.7-4.8 3.7-.4 0 3.2-.3 3.6-2.5 3.6-2.4 0-2.5-.1-1.2-3.2zM206 337.3c0-3.4 1.2-6.3 2.6-6.3 1 0 1.4 1.3 1.4 4 0 3.3-.3 4-2 4-1.2 0-2-.7-2-1.7zM396.5 336.3l-2.7-2.8 4.1-.3c3.5-.3 4.1-.6 4.1-2.6 0-1.5.7-2.6 2-2.9 1-.3 4.2-4 7-8.3 6-9.2 7-10.4 4.2-4.9-5 9.4-13.8 23.9-14.8 24.2-.6.2-2.3-.9-3.9-2.4zM242 335.8c0-3 1.3-5.8 2.6-5.8.9 0 1.4 1.2 1.4 3.5 0 2.8-.4 3.5-2 3.5-1.1 0-2-.6-2-1.2zM325 335.8c0-3 1.3-5.8 2.6-5.8.9 0 1.4 1.2 1.4 3.5 0 2.8-.4 3.5-2 3.5-1.1 0-2-.6-2-1.2zM298 334.8c0-3 1.3-5.8 2.6-5.8.9 0 1.4 1.2 1.4 3.5 0 2.8-.4 3.5-2 3.5-1.1 0-2-.6-2-1.2zM187 329.5c0-2.2.5-3.5 1.3-3.5s1.8 1.6 2.4 3.5c1.1 3.3 1 3.5-1.3 3.5-2.1 0-2.4-.5-2.4-3.5zM373.3 332.5c2.1-4.7 10.1-17.5 10.9-17.5 1.4 0 .6 1.7-3.6 8.1-3.4 5.3-8.2 11.4-7.3 9.4zM267.3 321.5c.6-1.9 1.6-3.5 2.4-3.5.8 0 1.3 1.3 1.3 3.5 0 3-.3 3.5-2.4 3.5-2.3 0-2.4-.2-1.3-3.5zM300 323.8c0-3 1.3-5.8 2.6-5.8.9 0 1.4 1.2 1.4 3.5 0 2.8-.4 3.5-2 3.5-1.1 0-2-.6-2-1.2zM209 319.8c0-3 1.3-5.8 2.6-5.8.9 0 1.4 1.2 1.4 3.5 0 2.8-.4 3.5-2 3.5-1.1 0-2-.6-2-1.2zM335 315.5c0-1.9.5-3.5 1-3.5.6 0 1-1.1 1-2.5 0-2 .5-2.5 2.5-2.5h2.5l-2.1 5.2c-2.5 6.3-2.8 6.8-4 6.8-.5 0-.9-1.6-.9-3.5zM271.3 309.5c.6-1.9 1.6-3.5 2.4-3.5.8 0 1.3 1.3 1.3 3.5 0 3-.3 3.5-2.4 3.5-2.3 0-2.4-.2-1.3-3.5zM385 312.4c0-1.2 3.4-6.4 4.2-6.4 1.5 0 .8 4.3-.9 5.6-1.9 1.4-3.3 1.8-3.3.8zM212.3 308.8c1.9-4.6 3.7-4.8 3.7-.4 0 3.2-.3 3.6-2.5 3.6-2.4 0-2.5-.1-1.2-3.2zM314 308.5c0-3.1.3-3.5 2.5-3.5 2.9 0 3 .2 1 4-2.1 4-3.5 3.8-3.5-.5zM110 310.2c0-.8 5.2-4.2 6.4-4.2.3 0 .6 1.1.6 2.5 0 2.2-.4 2.5-3.5 2.5-1.9 0-3.5-.4-3.5-.8z"/><path d="M417.1 309.5c0-.5.6-1.9 1.4-2.9.8-1.1 1.5-1.5 1.5-1 0 .6-.7 1.9-1.5 3-.8 1-1.4 1.5-1.4.9zM222 305c0-1.6.8-4.5 1.7-6.5 1.3-2.7 2.3-3.5 4.4-3.5h2.7l-3.5 6.5c-3.7 7.1-5.3 8.1-5.3 3.5zM359.5 302.3c.9-5.2 3.2-10.3 4.4-10.3 1.4 0 1.4 3.9-.1 9.5-.9 3.3-1.7 4.5-3.1 4.5-1.7 0-1.8-.5-1.2-3.7zM125 303.6c0-1.3 2.8-2.6 5.8-2.6.6 0 1.2.9 1.2 2 0 1.6-.7 2-3.5 2-2.3 0-3.5-.5-3.5-1.4zM200.8 304.3c-1-.2-1.8-1.1-1.8-1.9 0-1.6 1.5-1.4 7.4 1.2l3.1 1.3-3.5-.1c-1.9 0-4.3-.2-5.2-.5zM318 300.5c0-1.9.5-3.5 1-3.5.6 0 1-.9 1-2s.5-2 1-2c.6 0 1-.9 1-2 0-1.5.7-2 2.5-2 1.4 0 2.5.2 2.5.5 0 1.5-7.2 14.5-8 14.5-.6 0-1-1.6-1-3.5zM142 300.6c0-.7 1-1.6 2.3-2 4.1-1.1 5.7-.7 5.7 1.4 0 1.7-.7 2-4 2-2.7 0-4-.4-4-1.4zM153 299.6c0-1.3 2.8-2.6 5.8-2.6.6 0 1.2.9 1.2 2 0 1.6-.7 2-3.5 2-2.3 0-3.5-.5-3.5-1.4zM296.6 295.3c3.8-3.7 5.9-5.2 6.2-4.3.5 1.5-8.5 9.9-10.7 10-.7 0 1.3-2.6 4.5-5.7zM248.8 294.2c-1.6-1-2.8-2-2.8-2.4 0-.9 3.9.2 4.6 1.3.8 1.4 4.6 1.1 4.1-.3-.5-1.6 1-4.8 2.3-4.8.6 0 1 1.6 1 3.5 0 2.8-.4 3.5-1.9 3.5-1.1 0-2.5.2-3.3.4-.7.2-2.5-.3-4-1.2zM337.3 291.8c1.9-4.6 3.7-4.8 3.7-.4 0 3.2-.3 3.6-2.5 3.6-2.4 0-2.5-.1-1.2-3.2zM109.3 290.5c-.3-.9-.3-1.8 0-2.2 1-1 3.7.6 3.7 2.2 0 2-2.9 2-3.7 0zM305.6 288.5c-.7-1.9 5.6-6.8 6.6-5.2 1.2 1.9 1 2.4-2.6 4.5-2.8 1.7-3.5 1.8-4 .7zM150.5 285.6l-4-3.5 2.7-.1c1.9 0 3.3.8 4.4 2.5 2.7 4.2 1.1 4.8-3.1 1.1zM172.4 286.5c-.9-2.2.1-2.9 1.5-1.1.8 1 .9 1.6.1 2.1-.5.3-1.3-.1-1.6-1zM326 282c0-3.3 1.1-3.8 3-1.5 1.5 1.8.6 4.5-1.5 4.5-1 0-1.5-1-1.5-3zM169.7 280.6c-.7-1.8.2-8.4 1.5-10.8.6-1.2 2-1.8 4.4-1.8h3.6l-3 3.5c-1.7 1.9-3.4 5-3.8 7-.7 3.7-1.8 4.5-2.7 2.1zM401 280.5c0-.8-2.1-2.2-5-3.2-2.7-1-5-2.3-5-3 0-1.2 3.8.2 9.8 3.5 2.2 1.3 3.1 4.2 1.2 4.2-.5 0-1-.7-1-1.5zM140.5 274.7c-3.1-5.4-3.1-5.7 0-5.7 1.4 0 2.5.6 2.5 1.3 0 .7 1.1 2.9 2.5 5l2.6 3.7h-2.5c-1.9 0-3.1-1.1-5.1-4.3zM236.1 276.5c-1.9-1.4-5.5-3.3-7.9-4.2l-4.4-1.8.6-6.5c1.7-17.3 2.6-28.4 3.2-37.7.6-9.3.5-10.3-1-10.3-1.4 0-1.6-.6-1-3.7.4-2.1 1-4 1.4-4.3.6-.4 1.3-4.2 2.5-13.5.2-1.6.9-6.3 1.5-10.4.8-5.4.7-8.9-.1-13.3-.9-4.4-.9-6.5-.1-8.3 1-2 .9-2.5-.3-2.5-.8 0-1.5-.9-1.5-2 0-1.3-.7-2-2-2-1.6 0-2-.7-2-3.1v-3l3 2.1c1.6 1.1 3.9 3.4 5 5 2.5 3.5 3.6 3.8 4.5 1 .3-1 3.7-5.4 7.6-9.6 7.8-8.6 8.9-11.3 11.4-28.4 1.5-10.4 3.7-21.5 7.6-38.2 1.6-6.4 1.8-9.1 1-10.6-.7-1.2-.8-5-.4-10 .5-6.6.3-8.6-1.1-10.6-.9-1.4-1.6-3.7-1.6-5.2v-2.6l2.9 2.5c3 2.5 5 2.8 26.4 4.3 7.9.6 10 .4 11.5-.8.9-.8 2.3-1.9 3.1-2.3 2.3-1.3.4 4.6-2.5 7.6-2 2.1-2.7 4.2-3.3 10.5-.5 4.3-1.4 9.2-2 10.7-.7 1.9-.9 7.1-.5 15.6.8 14.3.3 18.1-2.4 18.1-1.3 0-2.6 1.7-4.1 5.3-4.9 11.4-6.8 14.4-12.1 20.1-3 3.2-7.2 6.7-9.4 7.8-4.3 2.2-4 3 2.4 6.5 5 2.8 10.5 11.2 19.2 29.8 2 4.4 2.3 6.8 2.6 20.4.4 20.2-2 33.2-8.4 45.2-3.8 7-14 19.9-16.7 21.1-1.6.7-3.5 2.8-4.4 4.6-1.5 3.2-2.8 3.7-9.4 3.2-2.4-.1-9 2.8-11.3 5.1-1.6 1.5-3.9 1-7.5-1.6zM291 276.3c0-3.7 1.6-5.3 5.2-5.3 2 0 2.8-.5 2.8-1.8 0-2.3 1.9-4.2 4.2-4.2 3.6 0 1.9 3.8-3.4 7.7-2.9 2.1-6.1 4.4-7 5.1-1.6 1.2-1.8 1-1.8-1.5zM262.8 276.6c-2.3-1.7-2.3-2.6.2-2.6 1.3 0 2 .7 2 2 0 2.3 0 2.3-2.2.6zM274.8 267.4c-3.8-2-3.5-3.4.7-3.4 3.1 0 3.5.3 3.5 2.5 0 2.9-.5 3-4.2.9zM311.6 268.2c-.3-.5 0-1.7.7-2.6 1.5-2.1 4.9-1.1 4.5 1.3-.3 1.8-4.3 2.8-5.2 1.3zM135.7 263.8c-.8-3.1.2-6.8 1.9-6.8 1 0 1.4 1.3 1.4 4.5 0 4.9-2.3 6.4-3.3 2.3zM165.7 253.4c-.3-.4-.4-1.1-.1-1.5.7-1.2 5.4-1.1 5.4.1 0 .6-.4 1-.9 1s-1.6.2-2.3.5c-.8.3-1.7.3-2.1-.1zM187.5 249.4c1.7-1.4 4.5-3.9 6.3-5.4l3.2-2.8v3.4c0 3-.3 3.4-2.5 3.4-1.8 0-2.5.5-2.5 2 0 1.7-.7 2-3.7 2l-3.8-.1 3-2.5zM141.5 246c.3-.5 1.9-1.9 3.5-3l3-2.1v3c0 2.9-.3 3.1-3.6 3.1-2 0-3.3-.4-2.9-1zM343.2 244.8c.3-.7 1.9-1.8 3.6-2.5 3.1-1.3 3.2-1.2 3.2 1.2 0 2.2-.4 2.5-3.6 2.5-2.3 0-3.4-.4-3.2-1.2z"/><path d="M219 242c0-3 0-3 2.5-1.4 2.9 1.9 3.1 2.9.9 3.8-2.8 1.1-3.4.7-3.4-2.4zM207 238.6c0-1.5 4.5-3 6-2.1 2.4 1.5.9 3.5-2.5 3.5-2.3 0-3.5-.5-3.5-1.4zM304 236.5c0-1.9-.4-3.5-1-3.5-.5 0-1-2.5-1-5.5V222H308.7l-.4 5.8c-.6 9.4-1.3 12.2-2.8 12.2-1 0-1.5-1.1-1.5-3.5zM446.8 237.3c-2.8-.7-2.2-3.3.7-3.3 1.6 0 2.5-.6 2.5-1.5 0-2.1 1.7-1.9 3 .4 2.4 4.5.2 6.1-6.2 4.4zM158 235.9c0-1.1 6-3.9 8.5-3.9 2.4 0 1.8 3.7-.7 4.4-3.6.9-7.8.7-7.8-.5zM363.3 233.8c1.9-4.6 3.7-4.8 3.7-.4 0 3.2-.3 3.6-2.5 3.6-2.4 0-2.5-.1-1.2-3.2zM388 234.6c0-.7 1-1.6 2.3-2 4.1-1.1 5.7-.7 5.7 1.4 0 1.7-.7 2-4 2-2.7 0-4-.4-4-1.4zM398 233.6c0-1.3 2.8-2.6 5.8-2.6.6 0 1.2.9 1.2 2 0 1.6-.7 2-3.5 2-2.3 0-3.5-.5-3.5-1.4zM373 229.3c0-4.5 0-4.6 2-2.8 1.1 1 2 3.1 2 4.7 0 2.1-.5 2.8-2 2.8-1.7 0-2-.7-2-4.7zM411 232.6c0-1.3 2.8-2.6 5.8-2.6.6 0 1.2.9 1.2 2 0 1.6-.7 2-3.5 2-2.3 0-3.5-.5-3.5-1.4zM173 231.6c0-1.3 2.8-2.6 5.8-2.6.6 0 1.2.9 1.2 2 0 1.6-.7 2-3.5 2-2.3 0-3.5-.5-3.5-1.4zM419 231.6c0-1.3 2.8-2.6 5.8-2.6.6 0 1.2.9 1.2 2 0 1.6-.7 2-3.5 2-2.3 0-3.5-.5-3.5-1.4zM182 230.6c0-1.7 3.7-2.7 6.8-1.9 4.1 1 2.6 3.3-2.3 3.3-3.2 0-4.5-.4-4.5-1.4zM367 223c0-1.8.3-1.9 2-1 1.1.6 2 1.5 2 2 0 .6-.9 1-2 1-1.3 0-2-.7-2-2zM212 214.5c-.8-.2-3.2-.6-5.2-1-2.4-.4-3.8-1.1-3.8-2 0-1.7 1.1-1.8 8.8-.9 4.2.6 5.2 1 5.2 2.5 0 1.8-1.2 2.1-5 1.4zM306 212c0-1.1-.5-2-1.1-2-.8 0-.9-5.4-.4-19.3l.7-19.2-3.1-5.5c-1.7-3-3.7-6.7-4.3-8.1-.6-1.4-2.4-3.5-4.1-4.5l-2.9-1.9.6-9.5c.7-9.5 1.3-11 4.9-11 1.3 0 1.7.8 1.7 3.8.1 6.4 2 12.5 5.8 18.2 2 3 3.7 5.6 3.8 5.8.1.1 2.5-1.3 5.5-3.3 2.9-1.9 5.7-3.5 6.1-3.5.5 0 .8 1.1.8 2.5 0 2-.5 2.5-2.5 2.5-1.5 0-2.5.6-2.5 1.4 0 .8-.8 1.6-1.7 1.8-1.6.3-1.6.4-.1 1.8 1.4 1.3 1.4 1.7.2 3.1-1.1 1.2-1.5 5.3-1.8 15.5-.2 7.6-.7 17.6-1.1 22.2-.7 7.2-.6 8.2.9 8.2.9 0 1.6.7 1.6 1.5 0 1-1.1 1.5-3.5 1.5-2.8 0-3.5-.4-3.5-2zM196.8 212.3c-3.3-.8-2-3.3 1.7-3.3 2.8 0 3.5.4 3.5 2 0 2-1.4 2.3-5.2 1.3zM188.8 211.3c-3.3-.8-2-3.3 1.7-3.3 2.8 0 3.5.4 3.5 2 0 2-1.4 2.3-5.2 1.3zM180.3 209.4c-1.8-.9-3.9-2.7-4.8-4-1.5-2.4-1.5-2.4 1.5-2.4 2 0 3 .5 3 1.5 0 .8.9 1.5 2 1.5 1.5 0 2 .7 2 2.5 0 1.4-.1 2.5-.2 2.5-.2 0-1.7-.8-3.5-1.6zM157.9 185.7c-4-2.2-10.9-9.6-10.9-11.8 0-.5 1.1-.9 2.5-.9 1.6 0 2.5.6 2.5 1.5 0 .8.5 1.5 1 1.5.6 0 1 .9 1 2 0 1.3.7 2 2 2 1.1 0 2 .6 2 1.4 0 .8 1.6 1.6 4 2 3.1.5 4 1.1 4 2.6 0 2.7-2.6 2.6-8.1-.3zM390 184.5c0-3.1.3-3.5 2.6-3.5 1.4 0 2.4.3 2.2.8-3.5 7.3-4.8 8-4.8 2.7zM421 158.5c0-2.8.4-3.5 2-3.5 2.3 0 2.6 2.6.6 5.3-2 2.5-2.6 2.1-2.6-1.8zM364 152.5c0-2.7.1-2.8 2.4-1.9 2.4.9 2 4.4-.4 4.4-1.5 0-2-.7-2-2.5zM326 152.6c0-1.4 2.9-2.6 6.8-2.6 1.5 0 2.2.6 2.2 2 0 1.7-.7 2-4.5 2-3.2 0-4.5-.4-4.5-1.4zM419 151.5c0-1.4.3-2.5.6-2.5 1.3 0 4.2 2.1 4.8 3.5.4 1.1-.2 1.5-2.4 1.5-2.5 0-3-.4-3-2.5zM389 151.6c0-1.7 2.2-2.6 6.1-2.6 2.2 0 2.9.5 2.9 2 0 1.7-.7 2-4.5 2-3.2 0-4.5-.4-4.5-1.4zM207 147c0-2.1 1-2.4 4.8-1.4 3.6 1 2.7 3.4-1.3 3.4-2.8 0-3.5-.4-3.5-2zM119 139.2c0-1.9 1.8-4.2 3.2-4.2.4 0 .8 1.4.8 3 0 2.3-.4 3-2 3-1.3 0-2-.7-2-1.8zM125 136c0-2.1 1-2.4 4.8-1.4 3.6 1 2.7 3.4-1.3 3.4-2.8 0-3.5-.4-3.5-2zM295 116.5c0-5 .3-6.5 1.5-6.5 1.8 0 2.9 5.7 2 9.9-.4 1.7-1.3 3.1-2.1 3.1-1.1 0-1.4-1.6-1.4-6.5zM264.8 36.2c-3.4-.7-2-3.2 1.7-3.2 2.3 0 3.5.5 3.5 1.4 0 1.5-2.5 2.4-5.2 1.8zM243.8 35.3c-3.6-.9-2-3.3 2.2-3.3 3.3 0 4 .3 4 2 0 2-2 2.4-6.2 1.3zM236.5 34.5c-.5-.2-2.7-.6-4.7-1-2.5-.4-3.8-1.1-3.8-2.2 0-1.3.7-1.4 3.8-.9 2 .3 4.9.6 6.5.6 2 0 2.7.5 2.7 2 0 1.9-1.7 2.4-4.5 1.5zM288 32.6c0-.7 1-1.6 2.3-2 4.1-1.1 5.7-.7 5.7 1.4 0 1.7-.7 2-4 2-2.7 0-4-.4-4-1.4zM302 31.6c0-1.4 2.9-2.6 6.8-2.6 1.5 0 2.2.6 2.2 2 0 1.7-.7 2-4.5 2-3.2 0-4.5-.4-4.5-1.4zM315.8 32.3c-2.4-.3-3.8-.9-3.8-1.8 0-1.4 1.7-1.9 10.3-3 4.2-.6 4.7-.4 4.7 1.3 0 1.2-.9 2.2-2.2 2.5-1.3.2-3 .6-3.8.9-.8.2-3.2.3-5.2.1zM330 27.8c0-.9 1.7-2 4-2.7 4.6-1.3 5.1-2.8 1.5-3.7-1.4-.3-2.5-1.2-2.5-2 0-1.2.6-1.2 3.6.1 2 .8 3.8 1.5 4 1.5.2 0 .4.8.4 1.9 0 2.2-3.8 4.9-8 5.8-2.2.4-3 .2-3-.9zM241.5 21c1.1-.5 3.4-.8 5-.8h3l-3 .8c-1.6.4-3.9.8-5 .8l-2 .1 2-.9zM318.5 18c-1.6-.7-1.3-.9 1.8-.9 2-.1 3.7.4 3.7.9 0 1.2-2.7 1.2-5.5 0z"/></g><g fill="#a61224"><path d="M264.7 469.4c-.4-.4-.7-1.6-.7-2.6 0-1.2.7-1.8 2.5-1.8 2.1 0 2.3.3 1.6 2.2-.9 2.4-2.3 3.3-3.4 2.2zM186 457.8c0-3 1.3-5.8 2.6-5.8.9 0 1.4 1.2 1.4 3.5 0 2.8-.4 3.5-2 3.5-1.1 0-2-.6-2-1.2zM344 457.7c0-.3 1.4-2.1 3-3.9 1.7-1.8 3-2.8 3-2.2 0 .6-1.3 2.3-3 3.9-1.6 1.6-3 2.6-3 2.2zM385 453.5c0-2.8.4-3.5 2-3.5 1.3 0 2 .7 2 2 0 1.1.7 2.3 1.5 2.6 2.3.9.7 2.4-2.6 2.4-2.7 0-2.9-.3-2.9-3.5zM423 447.6c0-3.3.2-3.6 3.1-3.6h3l-2.1 3c-3.1 4.4-4 4.5-4 .6zM351.8 448.5c1.7-2.9 3.8-5.5 4.6-5.5.3 0 .6 1.6.6 3.5s-.4 3.5-1 3.5c-.5 0-1-.7-1-1.7 0-1.4-.2-1.4-2.1.3-2.2 1.9-2.2 1.9-1.1-.1zM319 444.5c0-1.9.5-3.5 1-3.5.6 0 1 1.6 1 3.5s-.4 3.5-1 3.5c-.5 0-1-1.6-1-3.5zM373 446.3c0-.6.9-2.1 2.1-3.4l2-2.4-1.7 3c-2.4 3.9-2.4 4-2.4 2.8zM412.7 444c-.7-2.8.3-6 1.9-6 1 0 1.4 1.3 1.4 4 0 4.3-2.3 5.7-3.3 2zM271.3 433.8c1.9-4.6 3.7-4.8 3.7-.4 0 3.2-.3 3.6-2.5 3.6-2.4 0-2.5-.1-1.2-3.2zM358 435.8c0-3 1.3-5.8 2.6-5.8.9 0 1.4 1.2 1.4 3.5 0 2.8-.4 3.5-2 3.5-1.1 0-2-.6-2-1.2zM456.8 435.2c-3.4-.7-2-3.2 1.7-3.2 2.3 0 3.5.5 3.5 1.4 0 1.5-2.5 2.4-5.2 1.8zM300 414.9c3-2.5 3.6-2.7 3.9-1.3.4 2.1-2.5 4.4-5.3 4.4-1.8-.1-1.6-.5 1.4-3.1zM350 411.9c0-2.4 2.6-2.5 3.2-.1.4 1.2-.1 1.8-1.3 1.9-1.3.1-1.9-.5-1.9-1.8zM485.1 409.1c-.7-1.2-1.6-1.9-2.2-1.6-.5.4-.9.1-.9-.4 0-.6 1.4-1.1 3-1.1 3 0 3.7 1.3 2.1 3.9-.7 1.1-1.1.9-2-.8zM216 401.5c0-3.2.2-3.5 3-3.5h3l-2.2 3.5c-2.9 4.4-3.8 4.4-3.8 0zM396.1 401.3c3.1-4 4.9-4.3 4.9-.8 0 2.1-.5 2.5-3.1 2.5-2.9 0-3-.2-1.8-1.7zM200.2 398.9c-.9-1.4-1-2.5-.4-3.1 1.5-1.5 3.2 0 3.2 2.8 0 3-1.1 3.1-2.8.3zM489 394.2c0-.5.9-1.7 2-2.7 2.2-2 2.6-1.4 1 1.6-1.1 1.9-3 2.6-3 1.1zM269 376.5c0-1.9.5-3.5 1-3.5.6 0 1 1.6 1 3.5s-.4 3.5-1 3.5c-.5 0-1-1.6-1-3.5zM332.8 368.9c-2.9-1.6-2.1-2.9 1.7-2.9 2.8 0 3.5.4 3.5 2 0 2.2-2.4 2.6-5.2.9zM391 355.5c0-.8.5-1.5 1-1.5.6 0 1 .7 1 1.5s-.4 1.5-1 1.5c-.5 0-1-.7-1-1.5zM386 355.1c0-1.1 3.1-2.4 3.9-1.6.3.3-.1 1-.9 1.5-1.9 1.2-3 1.2-3 .1zM310 344.1c0-2.1.6-3 2.2-3.4 3.1-.8 3.3-.3 1.2 3.2-2.3 3.9-3.4 3.9-3.4.2zM226 343.7c0-1.4 3.3-6.7 4.3-6.7.9 0-.3 2.4-2.7 5.5-.8 1.1-1.6 1.6-1.6 1.2zM206 339.3c0-3.4 1.2-6.3 2.6-6.3 1 0 1.4 1.3 1.4 4 0 3.3-.3 4-2 4-1.2 0-2-.7-2-1.7zM330 335.5c0-2.4.5-3.5 1.5-3.5.8 0 1.5.7 1.5 1.5s.9 2.4 2 3.5l2 2h-3.5c-3.3 0-3.5-.2-3.5-3.5zM343 336c1.2-1.6 2.3-3 2.6-3 .2 0-.2 1.4-1.1 3-.9 1.7-2 3-2.6 3-.6 0-.1-1.3 1.1-3zM298 335.8c0-3 1.3-5.8 2.6-5.8.9 0 1.4 1.2 1.4 3.5 0 2.8-.4 3.5-2 3.5-1.1 0-2-.6-2-1.2zM299 327.8c0-3 1.3-5.8 2.6-5.8.9 0 1.4 1.2 1.4 3.5 0 2.8-.4 3.5-2 3.5-1.1 0-2-.6-2-1.2zM178.5 319c-2-3.8-1.9-4 1-4 2.2 0 2.5.4 2.5 3.5 0 4.3-1.4 4.5-3.5.5zM303.3 312.5c.6-1.9 1.6-3.5 2.4-3.5.8 0 1.3 1.3 1.3 3.5 0 3-.3 3.5-2.4 3.5-2.3 0-2.4-.2-1.3-3.5zM201.8 304.3c-1-.2-1.8-1.1-1.8-1.8 0-1.6 2.1-1.1 5.5 1.2 1.9 1.3 1.9 1.3 0 1.2-1.1-.1-2.8-.3-3.7-.6zM283 287.5c0-2.9 1.2-3.2 3.4-.9 2.3 2.2 2 3.4-.9 3.4-2 0-2.5-.5-2.5-2.5zM143.2 278.5c-2.7-3.4-2.8-4.5-.2-4.5 1.3 0 2.2.9 2.6 2.5 1 4.1 0 5-2.4 2zM234.9 275.6c-3.1-1.9-6.6-3.7-7.7-4.1-1.2-.3-2.2-1.3-2.2-2 0-1.2.6-1.1 3.8.1 2 .9 5.2 2.5 7.1 3.7l3.4 2 4.8-2.6c2.7-1.6 5.4-2.4 6.3-2.1 2.1.8 1.6 2.6-1.2 4-1.2.6-3 1.8-4 2.7-2.6 2.3-3.9 2.1-10.3-1.7zM283 273.5c-6.5-6-9.4-7.5-14.3-7.5-1.8 0-3.9-.4-4.6-.9-1.2-.8-.9-1.3 1.5-2.7 3-1.7 13.2-14.7 16.8-21.3 6.1-11.4 8.9-25.5 8.4-42.3-.3-10.2-.7-13.1-2.7-17.3-8.7-18.8-14-27-19.6-30.1-2.2-1.2-4.8-3.5-5.7-5-2-3.3-1.3-4.6 4.1-7.4 6.4-3.3 19.1-18.4 19.1-22.7 0-.6 1.4-4.1 3.2-7.9 2.8-6.1 3.2-6.6 3.8-4.4.5 2.1.7 2.2 1.3.8.3-1 1.3-1.8 2.2-1.8 2.2 0 2.3 30.8 0 31.6-.8.4-1.5 1-1.5 1.5s.7.9 1.5.9c.9 0 1.5.9 1.5 2.4 0 1.3.3 3.1.6 4 .4 1.1.1 1.6-1 1.6-.9 0-1.6-.4-1.6-1 0-.5-.4-1-1-1-2 0-.9 5.5 1.4 7.2 2.3 1.7 2.4 1.7 1.9-.2-1.1-4.2 3.2-1 7.2 5.3 2.6 4.1.8 4.7-2.6.9-3.7-4.2-3.7-2.9.1 2.8 1.6 2.5 3 5 3 5.7 0 1.6 1.4 2.3 2.8 1.4 1-.6 1-1.5.2-3.6-.8-2-.7-3.1.1-4.1 1.7-2.1 2.4-1.7 3.8 2.3 1.2 3.2 1.2 3.8-.3 4.8-.8.7-1.3 1.5-1 1.8.3.3-.3.3-1.3.1-1.9-.5-2 .3-2.6 19.3-.4 12.6-.3 19.9.3 20.1.6.2 1 1.2 1 2.3 0 1.2.7 1.9 2 1.9 1.7 0 2 .7 2 4s-.3 4-2 4c-1.5 0-2 .7-2 2.6 0 1.7-.6 2.8-2 3.1-2.1.5-3 5.3-1 5.3 1.2 0 1.3 19.5 0 30-.7 6.8-1.1 7.7-4.4 10.5-7.3 6.2-10.4 8.5-11.5 8.5-.6 0-3.8-2.5-7.1-5.5zM258.3 274.2c-2.9-1.4-5.3-3-5.3-3.4 0-.4 1.5-.8 3.4-.8 2.6 0 3.6-.5 4.1-2 .3-1.1 1.5-2 2.6-2 1.6 0 1.9.7 1.9 5.5 0 3-.3 5.5-.7 5.4-.5 0-3.2-1.2-6-2.7zM171.3 269.8c1.9-4.6 3.7-4.8 3.7-.4 0 3.2-.3 3.6-2.5 3.6-2.4 0-2.5-.1-1.2-3.2zM166 252.4c0-.8.9-1.4 2-1.4s2 .4 2 .9-.9 1.1-2 1.4c-1.3.3-2 0-2-.9zM140.5 247c.3-.5 1.9-1.9 3.5-3l3-2.1v3c0 2.9-.3 3.1-3.6 3.1-2 0-3.3-.4-2.9-1zM226.7 247.4c-.3-.6-.3-3.5 0-6.5l.7-5.4.7 3.9c.7 4.2-.3 9.8-1.4 8zM453.2 240.8c.6-1.8 2.8-2.1 2.8-.4 0 .9-.7 1.6-1.6 1.6-.9 0-1.4-.5-1.2-1.2zM373 231.5c0-4.3 2.5-4.8 3.5-.8.3 1.5 1.2 3.1 1.8 3.5.7.4-.2.8-2 .8-3.1 0-3.3-.2-3.3-3.5zM189.8 211.3c-3.3-.8-2-3.3 1.7-3.3 2.8 0 3.5.4 3.5 2 0 2-1.4 2.3-5.2 1.3zM229.7 193.5c.3-3.3.9-6.7 1.4-7.5 1-1.8-.1 8.7-1.2 11.5-.4 1.1-.5-.7-.2-4zM230.8 171.3c-.2-3.6.1-6.9.8-11.2l.5-3.4 2.1 2c1.9 1.9 1.9 2.2.4 5.1-.9 1.7-1.6 4.7-1.6 6.7 0 4.1-1.9 4.8-2.2.8zM137.8 162.9c-2.9-1.6-2.1-2.9 1.7-2.9 2.8 0 3.5.4 3.5 2 0 2.2-2.4 2.6-5.2.9zM193 145c0-2.1 1-2.4 4.8-1.4 3.6 1 2.7 3.4-1.3 3.4-2.8 0-3.5-.4-3.5-2zM294 87.1c0-5.1-.3-6.1-2-6.6-1.1-.3-2-1-2-1.5 0-1.3-3.5-3-7.3-3.6-4.7-.6-14.5-.6-15.5 0-1.3.8-2.2-4.6-2-11.8l.1-6.1.6 6.5c.6 6.2.7 6.5 3.4 6.8 1.5.2 2.7.8 2.7 1.3 0 1.4 8.7 1.1 9.4-.3.3-1 .8-.9 1.8.3.7.9 1.9 1.4 2.6 1.2.6-.3 1.2 0 1.2.7 0 .6.4.9.9.6.5-.3 1.4.1 2.1.9.7.8 2.5 1.5 4.1 1.5h2.9v8c0 6.4-.3 8-1.5 8s-1.5-1.3-1.5-5.9zM298.3 69.3c-1.6-.6-1.7-3.3-.3-3.3 1.1 0 2.6 2.8 1.9 3.4-.2.2-1 .1-1.6-.1zM297 60.5c0-2.4.5-3.5 1.5-3.5s1.5 1.1 1.5 3.5-.5 3.5-1.5 3.5-1.5-1.1-1.5-3.5zM299.8 53.6c-.8-.8-2.3-1.6-3.4-1.9-1.2-.3-.8-.5 1.2-.6 1.7 0 4.3-1 5.8-2.2 2.2-1.7 2.6-1.8 2.6-.4 0 1.9-2.9 6.5-4 6.5-.5 0-1.5-.6-2.2-1.4zM263 49.1c-1.6-4.1-1-5.3 1.7-3.2 1.5 1.3 2 2.5 1.6 4-.7 2.9-1.8 2.6-3.3-.8zM290 32.6c0-1.3 2.8-2.6 5.8-2.6.6 0 1.2.9 1.2 2 0 1.6-.7 2-3.5 2-2.3 0-3.5-.5-3.5-1.4zM305 31.6c0-1.3 2.8-2.6 5.8-2.6.6 0 1.2.9 1.2 2 0 1.6-.7 2-3.5 2-2.3 0-3.5-.5-3.5-1.4zM314 30.6c0-1.3 2.8-2.6 5.8-2.6.6 0 1.2.9 1.2 2 0 1.6-.7 2-3.5 2-2.3 0-3.5-.5-3.5-1.4zM337.4 22.5c-.2-2.7.3-3 2.5-1.6 1.6 1 .8 4.1-1.1 4.1-.7 0-1.4-1.1-1.4-2.5z"/></g><g fill="#1d1511"><path d="M205.5 494.1c-1.6-.4-5.2-1.9-8-3.2-4-2-5.6-3.6-8-8-2.5-4.7-3-6.7-3.3-14.9-.2-6.1.2-12.1 1.2-16.7 5.1-24.3 27-62.5 44.9-78.5 16.2-14.4 27.2-17.1 35.1-8.9 2.5 2.6 3 4 3.3 10.3.4 6.1.1 8.4-2 13.8-6.5 17.1-18 36-21.9 36-1 0-3-.7-4.3-1.6l-2.4-1.6 3.3-4.6c5.2-7.4 13.6-23 13.6-25.3 0-1.1-.7-2.7-1.5-3.5-2.4-2.4-1.8-3.4 1.9-3.4 3.3 0 3.5-.2 5.5-6.2 3.1-9 2.4-15.8-1.5-15.8-5.6 0-21.5 14-35 30.7-18.2 22.7-32.5 61.2-31.2 84.2.3 6.4.7 7.4 3.8 10.6 2.9 3 4.1 3.5 7.9 3.5 2.5 0 6.4-.9 8.7-2 4.1-2 14-12.5 21.4-22.7 4.9-6.7 12-21.3 12-24.5 0-1.7.5-2.8 1.4-2.8 2.4 0 6.6 4.1 6.6 6.4 0 6.9-17.6 34.8-27.4 43.4-5.8 5-15.9 7.3-24.1 5.3z"/><path d="M207.3 468.5c-.7-2 .2-2.9 2.1-2.2.9.4 1.3 1.3 1 2.2-.8 1.9-2.3 1.9-3.1 0zM263.5 468.4c-.8-.9-1.3-2.4-1.1-3.3.3-.9 1.2-4.3 2-7.6 5.4-22.3 11.4-37.4 29.9-75.5 3.6-7.4 6.9-14.7 7.2-16.2.9-3.3 1.4-3.4 4.9-.7 4.6 3.6 3.7 6.7-8.9 32.3-6.3 12.8-11.5 24.1-11.5 25 0 3.7 3.2 2.9 8.3-2.1 7.1-6.9 15.4-13.2 18.3-13.9 1.5-.4 3.4 0 5 1.1 3.2 2 3 5-.9 13.5-1.4 3-3.4 7.8-4.5 10.5-1.1 2.8-3.4 8.4-5 12.6-3.8 9.4-5.1 16.9-3 16.9.8 0 3.8-3.4 6.7-7.5 2.8-4.1 5.5-7.5 5.8-7.5.3 0 .1.6-.4 1.3-.5.6-3.6 5.2-6.8 10-6.8 10.4-8.6 10.9-12.3 3.7-2-3.7-2.3-5.5-1.8-10.3.7-6.8 5.2-21 9-28.1 2.4-4.6 3.4-8.6 2-8.6-.3 0-3.4 2.2-6.8 4.9-9.2 7.3-22 21.1-23.3 25.1-4.5 13.6-9.4 26-10.3 26-.5 0-1.6-.7-2.5-1.6zM323.2 464.4c-4.1-2.8-5-6.1-4.2-15.4.8-8.4 5-22.4 8.5-27.7.9-1.3 1.5-3.2 1.4-4.1-.3-3.3.1-4.2 2.1-4.2 1 0 2.4-.9 3-2 1.3-2.4 10.8-9 13.1-9 2.6 0 5.9 4.3 5.9 7.8s-2.2 5.2-6.8 5.2c-3.7 0-6 2.6-10.7 11.8-3.4 6.8-3.6 7.5-2.1 9 1.3 1.4 1.9 1.4 4.1.2 4.4-2.4 9.4-7.9 12.5-13.8 1.6-3.2 2.9-4.9 3-3.8 0 2.6-5.4 10.9-9.7 14.6-1.9 1.7-5.9 4.4-8.9 6.1-3.2 1.9-5.4 3.8-5.4 4.8 0 .9-.4 2.1-.8 2.7-.5.5-1.5 4.1-2.2 8.1-1.5 8.1-.7 10.3 3.7 10.3 5.4 0 14.2-6.4 21.1-15.4 1.2-1.6 2.4-2.7 2.7-2.4.8.8-10.4 12.7-15 15.8-5 3.4-11.6 4-15.3 1.4zM358.8 460.3c-4.5-5.2-5.1-11.9-1.9-22.3 3.6-11.8 9-25.5 14.9-38 15.5-32.8 19.2-41.2 19.2-43.5 0-3.3 1.2-3.2 5.5.6 4.6 4.1 4.4 5.1-5.1 23.9-22 43.7-31 65.5-29 70.5 1 2.8 4.4 1.5 8.7-3.2 4.5-5.1 4.3-4.6-2.3 6.2-4.6 7.4-7.2 9-10 5.8zM385.3 456.3c-1.4-2-1.9-5.5-2.3-14.1-.3-6.3-.2-11.6.2-11.8.4-.3 1.2-2.4 1.8-4.7 3.1-11.6 6.6-19.2 11.1-24 5.3-5.5 5.1-5.5 18.2-.1 4.5 1.9 8.5 3.4 8.9 3.4.4 0 .8-1 .8-2.3 0-4.9 4.3-6.2 7.8-2.4l2.2 2.4-3.5 7.7c-4.6 9.9-11.7 33.6-10.1 33.6.3 0 1.8-1.9 3.3-4.2 4.3-6.6 5.6-7.8 8-7.8 1.3 0 2.3.2 2.3.5s-1.3 3.3-2.9 6.8c-3 6.5-10.3 15.7-12.6 15.7-.8 0-2.3-1.3-3.4-2.8-1.6-2.3-2.1-4.8-2.3-11.8-.4-11.4-1.5-11.5-8.4-1.1-2.8 4.3-5.7 8.3-6.4 9-1 1 4.6-9.2 8.9-16.3 6.7-10.9 14.1-24.6 13.7-25.5-.5-1.5-6.8-4.5-9.4-4.5-3.3 0-8.6 4.4-11.4 9.5-4.1 7.5-8.6 21.8-10.1 32.5-1.3 9-1.3 9.6.5 10.6s1.8 1.1 0 2.7c-2.5 2.2-2.8 2.2-4.9-1zM453.3 432.8c-1.1-1.3-2.3-3.1-2.6-4-1-2.8 2.8-2.2 4.7.7.9 1.4 2.4 2.5 3.3 2.5 2.4 0 12-10.2 17.3-18.2 2.4-3.8 5-6.8 5.8-6.8 1.3 0 .6 1.2-8.1 14-1.6 2.5-5.1 6.6-7.6 9.3-5.3 5.5-9.3 6.3-12.8 2.5zM434 424.5c0-3.3.2-3.5 3.5-3.5h3.6l-2.8 3.5c-1.5 1.9-3.1 3.5-3.5 3.5-.5 0-.8-1.6-.8-3.5zM445 418c0-.5-1.1-1-2.5-1-3.1 0-3.4-2.5-.4-3.3 2.6-.7 6.1.8 7.7 3.4 1.1 1.7.9 1.9-1.8 1.9-1.6 0-3-.4-3-1zM485.2 409c-1.1-1.7-1-2 .8-2 2.1 0 2.5.7 1.2 2.7-.6.9-1.1.7-2-.7zM172.6 405.3c-.9-2.2 1-4.1 2.5-2.6 1.3 1.3.5 4.3-1 4.3-.5 0-1.2-.8-1.5-1.7zM478.3 404.3c-2.8-.5-3-2.3-.3-2.3 1 0 4.9-2.8 8.5-6.2l6.6-6.1-2.1 5.4c-1.1 3-3.2 6.4-4.6 7.7-2.5 2.2-3.6 2.4-8.1 1.5zM200.2 398.9c-1.5-2.3-.8-4.1 1.3-3.2 1.6.5 2.1 3.8.7 4.7-.4.2-1.4-.4-2-1.5zM125.5 392.4c-10.8-2.2-13.9-3.1-19.8-6.1-13.7-6.8-20.4-16.2-21.4-29.7-1.4-18.2 7.8-35 25.4-46.5 9.5-6.3 20.3-9.6 36.5-11.5 7-.8 13.2-1.7 13.8-2.1.8-.5.3-1.7-1.6-3.6-1.9-2-2.3-2.9-1.3-2.9.8 0 3 1.5 4.8 3.4 3.1 3.2 3.4 3.3 13.4 3.9 10.1.5 25.2 3.5 29.9 5.9 2 1.1-.4 1.2-13.9.9-11.3-.2-16.3 0-16.3.8 0 .6 2 3.7 4.4 6.8 9.9 13.1 13 19.8 14.1 30.5 1.2 10.9-4.3 22.5-16.7 35.4-9.6 10.1-23.9 15.5-40.3 15.3-4.9-.1-9.9-.3-11-.5zm18.3-10.9c9.3-2.2 15.9-6 24-13.9 10.3-9.9 14.4-17.5 15-27.6.5-9.6-2-18.5-7.7-26.9-6.6-9.7-6.3-9.5-18.3-7.7-19 2.8-33.7 8.9-48.8 20.3-10.2 7.7-14.8 14-17.5 24.2-1.9 7.3-1.9 12.4-.1 15.9 2.5 4.8 10.9 11.8 16.3 13.6 10.5 3.5 27.1 4.4 37.1 2.1zM279.7 374.4c-1.4-1.5-.6-3.4 1.4-3.4 1.4 0 1.9.5 1.7 1.7-.3 1.8-2 2.7-3.1 1.7zM333.3 369c-2.9-1.2-10.3-11.1-10.3-13.9v-2.2l3.3 2.4c7.3 5.6 9.2 6 22.2 5.4 10.5-.4 26.4-3.4 40-7.3 1.8-.5 1.8-.4.5.9-.8.8-5.1 2.7-9.5 4.1-4.4 1.5-9.7 3.6-11.7 4.7-7.7 4.2-17.9 6.9-25.2 6.8-3.9 0-8.1-.4-9.3-.9zM210.8 357.3c-3.6-4.1-4.2-6.8-4.1-17.3.1-12.4 2.1-21.7 7.4-35.6 4.9-12.7 9.7-18.4 15.3-18.4 4.5 0 12.6 2.6 18.1 5.7 5.1 2.9 7.5 3 7.5.2 0-3.4 1.9-5.9 4.6-5.9 2.8 0 7.9 4.5 7.1 6.3-.3.7-2.1 4.8-4.1 9.2-4.2 9.6-10.2 29.3-11.2 36.4-.6 5-.6 5.1 1.9 5.1 2.7 0 5.8-3.7 10.5-12.5 2-3.8 11.8-32.8 14.4-42.7.7-2.7 1.5-4.8 1.9-4.8.3 0 2.1 1 4 2.3 3.1 2.1 3.4 2.8 3.9 8.2.7 8.5 2.4 8.4 11.3-.4 7.8-7.5 13-11.9 18.5-15.3 3.4-2.1 3.5-2.1 6.9-.3 6.2 3.4 6.1 4-2.1 20.7-8 16.5-15.6 34.6-15.6 37.3 0 2.7 1.9 5.5 3.9 5.5 2.4 0 5.1-3.3 9-11 1.8-3.6 4.8-8.7 6.6-11.5 1.9-2.7 4.3-7.9 5.5-11.5 5.2-15.7 12.4-33.8 18.9-47 5.5-11.2 5.5-11.4-1.8-10.5-5.5.6-6 .5-6.6-1.5-1-3.2.8-4.5 10.1-7.6 4.8-1.5 9.1-3.6 9.9-4.7.7-1 2.2-4.5 3.2-7.8 1-3.2 2.2-5.9 2.7-5.9 2.1 0 7.6 5.2 7.6 7.3 0 4.7.5 4.8 17.6 3.2 8.7-.8 19.8-2 24.5-2.5 4.7-.6 13.5-1 19.6-1 12.2 0 14.6.9 15.8 6.2l.7 2.6-9.9-.5c-16.6-.9-65.9 3.8-71.6 6.8-1 .6-5.2 7.9-9.1 16.2-4 8.4-9.7 20.2-12.6 26.2-8.8 18.3-18 42.6-18 47.3 0 4.9 7.1 5.8 10.7 1.5l2.3-2.8-2.1 4.5c-2.5 5.3-8.6 12-11 12-.9 0-3.1-1.6-4.9-3.6l-3.1-3.6.7-9.1c.8-10.6.2-10.7-5.3-.9-8 14.5-10.1 17.2-13.3 17.2-3.2 0-7.2-4.4-8.4-9.2-1.7-7.1 3.2-25.4 10.8-40.7 5.3-10.6 5.8-13.6 2.4-12.5-1.3.4-3.9 1.9-5.9 3.5-2 1.6-3.9 2.6-4.3 2.2-.3-.3-.6-.2-.6.4 0 .6-3.8 5-8.5 9.9-6.3 6.6-8.5 9.5-8.3 11.2.2 1.5-.5 2.6-2.1 3.5-1.3.7-2.8 1.9-3.2 2.7-2.2 4.1-6.1 14.5-8.4 22.5-1.5 5-2.9 9.6-3.1 10.4-.3 1.1-.8 1.1-2.7-.2-2-1.4-2.2-2.1-1.9-9.8.2-4.6 0-8-.5-7.6-.4.5-2.8 4.5-5.3 8.9-5.8 10.5-7.2 11.4-11 6.9-3.3-3.9-4.6-9.8-3.6-16.6.4-2.5.4-5.4.1-6.5-1.4-4.3-4.1-2.1-10.9 8.5-7.4 11.5-10.6 15-5.2 5.8 18.5-32 24.6-43.3 24.6-45.7 0-1.9-4.6-4.4-9.6-5.2-3.3-.5-4.6-.1-8.2 2.6-7.4 5.4-15.1 24.6-17.9 45.1l-1.7 12.2 2.3 1.8c2.3 1.9 2.3 2 .6 3.9-2.2 2.5-3.7 2.5-5.7.3z"/><path d="M361.7 342.9c-6.9-3.9-6.7-26.1.4-48.2 4.2-13 7.5-18.9 13.1-23 2.6-1.9 2.9-1.9 9.3-.3 3.7.9 9.4 3 12.6 4.7 6.1 3 7.9 3.1 7.9.1 0-2.6 2.9-6.2 4.9-6.2.9 0 3 1.3 4.6 3l2.8 3-3.5 7.7c-9.2 20.1-14.8 44.3-10.3 44.3 1.4 0 2.3-.8 6-5.5 2.1-2.5-5.4 11.7-7.7 14.7l-1.7 2.3-3.1-3c-3.8-3.7-5.2-8.8-4.8-17.9.3-6.7.2-7.1-1.9-7.4-1.8-.3-3.1 1.1-7 7.4-2.6 4.2-5.8 8.8-7.1 10.3l-2.3 2.6 2.3-4c1.2-2.2 4.9-8.7 8.3-14.5 10.1-17.3 16.5-29.6 16.5-31.9 0-2.6-5.5-5.1-11.1-5.1-5.7 0-10.4 4.6-15.1 14.8-5.2 11.2-8.4 22.8-9.8 35.2-1.2 10.1-1.2 10.3.9 11.9l2.2 1.7-2.3 2.1c-1.8 1.7-2.7 1.9-4.1 1.2zM411.9 318.5c1.7-3.4 3.1-5.1 3.1-3.9 0 .7-.9 2.2-2.1 3.5-1.6 1.9-1.8 2-1 .4zM109.5 291c-.4-.7-.3-1.6.2-2.1 1.2-1.2 4.5 0 4 1.5s-3.4 1.9-4.2.6zM147 282c-10.1-10.1-13.6-22-9.1-30.8 5.7-11.2 29.2-22.2 47.3-22.2 6.9 0 6.9 0 11.4 4.7l4.5 4.6 5.7-1c4.8-.9 6.2-.8 9.7.8 4.6 2.1 8.1 4.6 7.3 5.4-.3.3-3 1.2-6 2-3.1.8-7.8 2.7-10.4 4.3-2.7 1.5-8 4.6-11.9 6.7-12.5 6.8-21 14.7-22.7 21.1-1.5 5.5-4 4.4-3.1-1.4 1.4-9.3 9.2-20.3 20.8-29.2 3-2.3 5.5-4.6 5.5-5.1 0-2.4-25.6-.3-37 3.1-9.4 2.8-16.5 9.1-17.4 15.4-.9 5.9 2.1 13.7 7.5 19.2 2.6 2.6 4 4.9 3.7 6-.3 1.6-1.4.9-5.8-3.6zM296.1 272.7c-1.3-1.6-.5-2.7 2.1-2.7 2.1 0 2.3 1.3.4 2.9-1 .8-1.6.8-2.5-.2zM312.2 266.8c.2-1.3 1.1-2.4 2.1-2.6 2.2-.4 3.5 2.7 1.6 3.9-2.5 1.6-4.1 1-3.7-1.3z"/><path d="M166 252c0-.5 1.2-1 2.6-1 1.4 0 2.3.4 1.9 1-.3.6-1.5 1-2.6 1-1 0-1.9-.4-1.9-1zM453.5 241.1c-.6-1.1.9-2.3 1.9-1.4.9.9.7 2.3-.3 2.3-.6 0-1.2-.4-1.6-.9zM355 215.2c0-3.6 1.6-5.2 5.2-5.2 2.8 0 2.8.1 1.3 2.4-.9 1.4-2.7 3.2-4.1 4.1-2.3 1.5-2.4 1.5-2.4-1.3zM198 212.5c-.8-.2-3.2-.6-5.2-1-2.4-.4-3.8-1.1-3.8-2 0-1.7 2.2-1.8 9.4-.9 3.6.5 4.6 1.1 4.6 2.5 0 1.8-1.2 2.1-5 1.4zM180.4 209.3c-1.7-.8-3.6-2.3-4.2-3.4-1.1-1.7-.9-1.9 1.7-1.9 1.6 0 3.6.7 4.5 1.5.8.8 2.2 1.5 3 1.5.9 0 1.6.8 1.6 2 0 2.4-2.2 2.5-6.6.3zM172.4 199.5c-1.8-4.5-1.8-4.5 1.1-4.5 2.3 0 2.5.4 2.5 4 0 4.9-1.6 5.2-3.6.5zM197.8 192.3c-2.9-.7-2-3 1.3-3.7 6.2-1.2 7.9-.8 7.9 1.9 0 2.2-.4 2.5-3.7 2.4-2.1-.1-4.6-.3-5.5-.6zM387 188.6c0-2.3.5-3.9 1.5-4.2.8-.4 1.5-1.5 1.5-2.5s.7-1.9 1.5-1.9c1.1 0 1.5-1.1 1.5-4v-4h4c3.6 0 4 .3 4 2.5 0 1.8-.5 2.5-2 2.5-1.4 0-2.8 1.7-4.9 5.8-1.6 3.1-3.8 6.6-5 7.6-2.1 1.9-2.1 1.9-2.1-1.8zM152.5 181.5l-4-4 2.9-.3c3.7-.4 5.8 1.7 5.4 5.4l-.3 2.9-4-4zM349 175.5c0-2.2.4-2.5 3.9-2.5 6.7 0 10.1 1.1 10.1 3.1 0 1.7-.8 1.9-7 1.9-6.8 0-7-.1-7-2.5zM188 170.9c-10.7-1.3-13-1.9-13-3.3 0-.8 1-1.6 2.3-2 3.1-.8 7.7-.7 7.7.2 0 .4 1.8.6 4 .4 2.2-.2 4 0 4 .6 0 .5 1.9.7 4.5.4 4.3-.4 4.5-.4 4.5 2.2 0 2.4-.3 2.6-3.7 2.5-2.1-.1-6.7-.5-10.3-1zM308.6 160.5c-.8-2.1 8.9-8.2 14.3-9.1 3.6-.6 4.1-.4 4.1 1.2 0 1.9-3.9 3.8-10.2 5.1-1.4.3-2.8 1.3-3.1 2.4-.6 2.3-4.2 2.5-5.1.4zM421 158.6c0-5.6.1-5.6-17.1-5.6-12.9 0-15.9-.3-15.9-1.4 0-2 1.8-2.2 18-2.5 13.6-.2 14.6-.1 16.8 1.9 2.4 2.3 2.8 5 1.2 8.1-1.5 2.6-3 2.4-3-.5zM227.2 157.8c-.7-.7-1.2-2-1.2-3 0-1.3-.8-1.8-3-1.8-1.7 0-3.3-.6-3.6-1.4-.3-.9-3-1.6-7.5-2-6.6-.7-6.9-.8-6.9-3.3 0-2 .4-2.4 1.8-1.8.9.4 4.4 1.1 7.7 1.6 6.5 1.1 15.1 6 18 10.5 1.5 2.3 1.5 2.4-1.3 2.4-1.5 0-3.3-.5-4-1.2zM329 152.6c0-2.1 3.3-2.6 19.8-2.6 14.5 0 15.2.1 15.2 2s-.7 2-17.5 2c-14.2 0-17.5-.3-17.5-1.4zM178.5 149.1c-2.3-.5-3.1-1.2-3.3-3.2-.2-1.4.4-3.1 1.2-3.8 1.9-1.6 7.6-.5 7.6 1.5 0 .8.9 1.4 2 1.4 1.5 0 2 .7 2 2.5 0 2.2-.4 2.5-3.2 2.4-1.8-.1-4.6-.4-6.3-.8zM120 145.1c-1.6-3.1-1.2-6.9 1-9.1 2.1-2.1 3.9-2.4 7.8-1.4 3.2.9 2.8 3.4-.6 3.4-3.7 0-5.2 1.7-5.2 5.7 0 3.7-1.4 4.3-3 1.4zM191 144.4c0-2 .4-2.5 1.6-2 .9.3 2.7.9 4 1.2 4 1 2.9 3.4-1.6 3.4-3.6 0-4-.2-4-2.6zM153 142.6c-.6-.8-1-2.4-.8-3.5.3-1.8.6-1.9 2.8-.8 3.2 1.6 4 5.7 1.2 5.7-1.1 0-2.5-.7-3.2-1.4zM245.8 35.3c-1.7-.4-2.6-3.2-1-3.4.4 0 10-.2 21.3-.4 26.4-.5 47.8-2.1 60.2-4.5 10.5-2 12-2.6 11.4-4.3-.4-1.2-9.5-3.6-13.9-3.7-1.6 0-2.8-.4-2.8-.9 0-1.1 10-.4 14.7 1 4.7 1.5 6 3.5 3.8 5.9-2.6 2.9-7.3 5-12.5 5.7-2.5.3-5 .9-5.5 1.4-3 2.3-23.2 3.9-48.1 3.8-14.3-.1-26.7-.3-27.6-.6zM232.5 33.6c-7.5-1.5-10.5-3.1-10.5-5.7s4-4.2 14.9-6.3c8.8-1.7 14.3-2 7.7-.5-6.1 1.4-18.6 6.1-18.6 6.9 0 1 8.1 3 12.4 3 2.9 0 3.6.4 3.6 2 0 2.3-.8 2.3-9.5.6zM312.3 17.3c1.5-.2 3.9-.2 5.5 0 1.5.2.2.4-2.8.4s-4.3-.2-2.7-.4z"/></g><g fill="#040202"><path d="M197.7 491.3c-1.8-.5-4.2-5.1-3.3-6.1.8-.8 5.4 2.6 6.6 4.8 1.1 2.1.6 2.3-3.3 1.3zM264 468c0-.5.7-1 1.5-1s1.5.5 1.5 1c0 .6-.7 1-1.5 1s-1.5-.4-1.5-1zM324.3 464.3c-2.5-1.7-3-3.3-1-3.3.6 0 1.7 1.1 2.4 2.5.6 1.4 1 2.5 1 2.4-.1 0-1.2-.7-2.4-1.6zM386.7 458.3c-1.3-1.2-.7-4.3.9-4.3.8 0 1.3.4 1 .9-.4.5-.1 1.1.6 1.3.6.2.8 1 .4 1.6-.8 1.3-1.9 1.5-2.9.5zM420 445.4c0-.3 1.1-2 2.4-3.7 1.3-1.8 4.2-6.9 6.5-11.5 5.4-10.8 10.2-16.2 14.5-16.2 4.7 0 7.5 3.6 10.8 13.5 2.3 7 4.1 7.2 10.2.8 4.5-4.9 13-15.9 15.5-20.3 1.2-2 1.1-2.5-.3-3.5-2-1.5-2-2.5 0-2.5.8 0 4-2.3 7-5.2l5.6-5.2-2.1 5.4c-1.2 3-2.1 6.9-2.1 8.7 0 3.7-1.3 4.9-3 2.8-1.2-1.4-1.6-1.3-3.7.6-1.2 1.3-2.3 2.7-2.3 3.2 0 1.2-12.2 17.6-14.8 20-1 .9-3.2 1.9-4.8 2.3-3.6.7-6.4-1.7-9.8-8.5-3.7-7.3-4.9-7.9-9-4.5-1.9 1.6-3.7 4.1-4.1 5.5-.8 3.5-5.7 10.9-7.1 10.9-.6 0-2.6 1.8-4.4 4-2.9 3.6-5 5-5 3.4zM173 404.6c0-.9.7-1.6 1.6-1.6.9 0 1.4.5 1.2 1.2-.6 1.8-2.8 2.1-2.8.4zM200 398.5c-1.6-1.9-.3-4 1.6-2.4 1.5 1.3 1.9 3.9.5 3.9-.5 0-1.4-.7-2.1-1.5zM195 384.9c0-2.3 5.4-7.9 7.6-7.9 2.1 0 1.7 4.4-.7 7.4-2.6 3.3-6.9 3.6-6.9.5zM279.2 372.3c.2-1 1-1.8 1.8-1.8s1.6.8 1.8 1.8c.2 1.2-.3 1.7-1.8 1.7s-2-.5-1.8-1.7zM368.7 360.4c-1.1-1.2.3-2.4 2.9-2.4 1.6 0 2.4.5 2.2 1.3-.5 1.3-4 2.2-5.1 1.1zM298 295.1c0-1.1 9.1-9.1 10.3-9.1 1.4 0 .7 2.1-1 2.7-.9.4-3 2.2-4.6 4-2.9 3.3-4.7 4.2-4.7 2.4zM151.5 285.9c-5.2-5.1-9.5-9.5-9.5-10 0-.4.9-.5 2.1-.2 1.7.5 17.9 17.4 17.9 18.8 0 1.3-1.7-.1-10.5-8.6zM172.1 273c-1.6-.9-.6-3 1.5-3 1.5 0 2 2.5.6 3.4-.4.2-1.4.1-2.1-.4zM312 266.4c0-1 .7-1.4 2.2-1.2 3.2.5 3.5 2.8.4 2.8-1.7 0-2.6-.5-2.6-1.6zM166 252c0-.5.9-1 2.1-1 1.1 0 1.7.5 1.4 1-.3.6-1.3 1-2.1 1s-1.4-.4-1.4-1zM309.5 218c-.4-.6-.4-2.4 0-4l.7-3h19.9c22.4 0 24.5-.5 27.3-6.4 3.3-7 3.7-6.8-17-6.5-15.5.3-18.7.1-19.4-1.1-3.3-5.2-1-5.7 28.8-6.5 25.6-.7 27.5-.9 30.5-2.9 2.9-2 8.1-8.5 7.4-9.2-.2-.2-7.1-.4-15.5-.5-8.4 0-15.4-.5-15.8-1-.7-1.2-4.4-1.1-4.4.1 0 .7-3.5 1-9.7.8-9.4-.3-9.8-.4-10.1-2.7-.2-1.3.1-2.8.7-3.4.7-.7 12.9-1.3 34.3-1.7 37.6-.7 39-.9 45.7-8.6l3.5-3.9-14.6-.3c-15.8-.3-18-1-15.8-5.1 1-2 1.9-2.1 18.3-2.1 12.1 0 17.7.4 18.5 1.2 1.7 1.7 1.5 7.9-.4 10.8-3.1 4.7-9.9 11.2-13.6 13.1-3.9 2-10.8 2.6-10.8.9 0-.5-.4-1-1-1-.5 0-1 .9-1 2 0 3.3-4.2 10.2-9.5 15.7-4.6 4.7-5.4 5.2-11 5.8-8.2.9-7.9.7-9.5 5.6-.8 2.6-3.5 6.6-6.4 9.7l-4.9 5.2h-22.3c-14.1 0-22.5-.4-22.9-1zM209 213.9c-6.3-1-15-2.3-19.3-2.8-8.5-1-13.9-4-15.9-9-.6-1.4-1.4-3.5-1.9-4.6-.5-1.1-1.2-3.6-1.7-5.5-.5-2.3-1.5-3.6-2.8-3.8-7.5-1.1-10.7-2.7-15.3-7.7-2.8-3.1-5.6-7.5-6.7-10.6-1.8-5-2.2-5.3-7.4-7.1-8.7-2.9-16.5-11.7-18.5-20.6-1.1-5.4 1.3-7.2 9.9-7.2 19.7.1 33.1 5 27.2 9.9-1.1 1-4.4.8-14.8-.7-7.3-1.1-13.5-1.8-13.7-1.6-1.6 1.5 6.3 10.4 11.3 12.8 1.7.8 17.3 3.3 34.6 5.6s32.1 4.6 32.8 5.2c1.6 1.4 1.5 4.3-.3 5.8-1.4 1.2-7.5.5-7.5-.8 0-.4-2-.6-4.5-.4-3.3.3-4.5 0-4.5-.9 0-1-.3-1-.8-.3-.7 1.2-7.2.7-7.2-.5 0-.4-1.5-.5-3.2-.3-1.8.2-8.2-.3-14.3-1.2-6-.8-11.2-1.3-11.4-1-1.1 1.1 4.6 9.9 7.4 11.5 2 1.2 11.1 2.8 27 4.8 28.9 3.8 28.2 3.6 29 6.2 1.2 3.6-1.3 5.2-7 4.5-2.7-.3-5.1-1-5.3-1.5-.2-.5-1.2-.6-2.3-.4-1.1.3-6.8 0-12.5-.7-5.8-.7-10.8-1-11-.7-.9.8 1.8 8.5 3.6 10.5 1.7 1.7 18.4 4.6 39.6 6.8l6.2.7.7-6.2c1.1-9.5 1.7-6.5.9 4.3l-.7 9.6-4.1-.1c-2.2-.1-9.3-1-15.6-2zM230.2 168.6c-1.3-5.2-6.7-11.1-12-13.3-1.9-.8-10-2.3-18.1-3.4-8-1.1-14.7-2.3-14.9-2.7-.1-.4-1.8-.6-3.7-.4-2.1.3-3.5 0-3.5-.7 0-.6-.7-.8-1.6-.4-1.2.5-1.5 0-1.2-2.3l.3-2.9 8.4-.3c4.9-.2 8.8.1 9.5.8.5.5 3.8 1 7.2 1 3.5 0 6.5.4 6.9.9.3.5 3.4 1.3 7 1.6 3.5.4 7 1.4 7.6 2.1.6.8 1.7 1.4 2.3 1.4.7 0 3.4 2.2 6 4.9l4.9 4.9-1.8 6.6c-1 3.6-1.9 6.6-1.9 6.6-.1 0-.7-2-1.4-4.4zM309.6 162.8c-1.3-2.9-1.2-3.3 1.3-5.2 6.7-5.5 9.2-6 32.6-6.6 13.2-.4 22.5-.3 23.3.3.6.5 1.2 1.7 1.2 2.6 0 3.7-1.9 4.1-21 4.1-20.4 0-26.5 1.1-31.8 5.5-1.7 1.4-3.3 2.5-3.6 2.5-.4 0-1.3-1.4-2-3.2zM237.3 34.3c-1.3-.2-2.3-.8-2.3-1.2 0-.4-1.3-.6-3-.3-1.8.3-3 0-3-.7 0-1.4 22.6-1.5 23.5-.1.3.6-.3 1-1.4 1-1.2 0-2.1.5-2.1 1 0 1-7.3 1.2-11.7.3zM332.5 27c-.3-.5.7-1.2 2.2-1.6 4.2-1 4.6-1.4 2.8-3.4-1.6-1.8-1.6-1.8.4-1.3 3.2.8 3.5 2.2 1 4.9-2.3 2.5-5.3 3.1-6.4 1.4z"/></g></svg>