<svg xmlns="http://www.w3.org/2000/svg" width="776" height="719" style="shape-rendering:geometricPrecision;text-rendering:geometricPrecision;image-rendering:optimizeQuality;fill-rule:evenodd;clip-rule:evenodd"><path style="opacity:.015" fill="#e8e6e6" d="M404.5 20.5c4.481-1.148 9.148-1.315 14-.5-4.655.5-9.321.666-14 .5Z"/><path style="opacity:.004" fill="#d7d6d5" d="M396.5 20.5c1.333.667 1.333.667 0 0Z"/><path style="opacity:.004" fill="#cdcbca" d="M398.5 20.5c1.333.667 1.333.667 0 0Z"/><path style="opacity:1" fill="#d6cdd5" d="M445.5 22.5c8.852-1.427 17.518-.26 26 3.5 1.482 2.592 1.148 4.925-1 7a595.36 595.36 0 0 1-32 10.5c-2.493-1.274-4.826-.94-7 1-2.906-.992-5.739-.66-8.5 1a14.98 14.98 0 0 1-4.5-1c-1.123 1.044-2.456 1.71-4 2-6.023.023-12.023.023-18 0-2.141.113-3.975.78-5.5 2-16.464.567-32.964-.1-49.5-2a50.386 50.386 0 0 1-9 .5l1-1a111.31 111.31 0 0 1-27-5 344.08 344.08 0 0 1-5-5c2.101-2.77 4.768-4.77 8-6a89.464 89.464 0 0 1 22-3c-9.089.85-17.422 3.683-25 8.5 4.313 3.285 9.147 4.285 14.5 3 1.895 1.495 4.728 2.328 8.5 2.5a769.975 769.975 0 0 0 128-7 47.227 47.227 0 0 0 12-5 83.187 83.187 0 0 0-24-6.5Z"/><path style="opacity:1" fill="#b40f26" d="M424.5 221.5c1.634 4.582 3.968 8.582 7 12a937.422 937.422 0 0 1-3 64c-1.636 3.71-2.302 7.71-2 12a1426.136 1426.136 0 0 1-5.5 67c-1.127 4.503-3.794 6.503-8 6-1.066-1.599-2.566-2.599-4.5-3 .98 7.333-1.853 12.333-8.5 15a6482.027 6482.027 0 0 1-16.5-14.5 125.321 125.321 0 0 0-14-5.5c-2.91.348-4.91 1.848-6 4.5l1 1c-.8 4.08-1.3 8.247-1.5 12.5-3.176-3.84-7.343-6.007-12.5-6.5-3.977-.879-7.644-.379-11 1.5a86.237 86.237 0 0 0-9.5 6 234.412 234.412 0 0 0-22.5-11c-.497-24.94 1.169-49.94 5-75a43.836 43.836 0 0 1-1-2c1.935-10.772 2.935-21.772 3-33 .799-9.991 1.466-19.991 2-30a1305.26 1305.26 0 0 0 6-16 43.836 43.836 0 0 1-1-2c6.189-8.699 13.356-16.699 21.5-24 2.973-4.579 4.973-9.579 6-15a705.172 705.172 0 0 1 15-77 262.206 262.206 0 0 1 .5-31 2806.646 2806.646 0 0 1-4.5-19c4.427 3.963 9.594 6.463 15.5 7.5a451.243 451.243 0 0 0 39 2 35.984 35.984 0 0 0 8.5-5.5c.484 2.413.15 4.746-1 7a50.895 50.895 0 0 0-7 10 2722.525 2722.525 0 0 1-4.5 39 1087.402 1087.402 0 0 0 2 38.5 272.878 272.878 0 0 0-.5 37.5c.968 10.595 5.134 19.595 12.5 27Z"/><path style="opacity:1" fill="#1e100e" d="M211.5 199.5v3a86.92 86.92 0 0 1-8.5 2c-1.385-.014-2.551-.348-3.5-1-4.769-1.389-9.769-2.056-15-2a117.75 117.75 0 0 1-16-2l-1 1c3.418 7.585 8.752 13.418 16 17.5a417.782 417.782 0 0 0 37 7 707.508 707.508 0 0 1 62 8.5v9c-6.19.323-12.19-.01-18-1-3.345-1.717-7.011-2.384-11-2a1831.704 1831.704 0 0 0-49-5c1.048 7.878 5.048 13.711 12 17.5a681.962 681.962 0 0 0 53 7.5c5.429 1.512 11.096 2.179 17 2 2.557.985 5.224 1.985 8 3 1.322 2.365 1.322 4.698 0 7a358.83 358.83 0 0 1-25-1c-7.451-1.557-15.118-2.557-23-3-2.793-.072-4.793.261-6 1 .286 5.483 1.952 10.483 5 15 3.257 2.379 6.924 3.379 11 3 5.116 1.306 10.449 1.973 16 2 4.769 1.389 9.769 2.056 15 2 7.713 2.155 15.713 3.155 24 3 .441-7.214 1.441-14.214 3-21-.065 11.228-1.065 22.228-3 33a7837.816 7837.816 0 0 1-68-10.5c-4.356-1.514-7.523-4.348-9.5-8.5a69.811 69.811 0 0 1-5.5-21c-12.137-.651-21.97-5.651-29.5-15a227.992 227.992 0 0 1-8.5-19c-16.84-4.486-28.34-14.82-34.5-31-1.524-8.808 2.143-12.808 11-12a1766.268 1766.268 0 0 1 41.5 5.5c1.66 1.488 2.66 3.321 3 5.5Z"/><path style="opacity:1" fill="#20120f" d="M321.5 224.5c.304.65.637 1.317 1 2a1305.26 1305.26 0 0 1-6 16c-1.241-6.481-4.074-12.148-8.5-17-3.498-3.317-7.331-5.984-11.5-8-1.938-1.663-4.272-2.329-7-2a3859.959 3859.959 0 0 1-50-6.5c-2.732-1.654-4.065-4.154-4-7.5.453-.958 1.119-1.792 2-2.5 20.1 1.012 40.1 3.345 60 7a68.694 68.694 0 0 1 14 7 165.744 165.744 0 0 0 10 11.5Z"/><path style="opacity:1" fill="#f0b13e" d="M184.5 201.5c4.769 1.389 9.769 2.056 15 2 .949.652 2.115.986 3.5 1a86.92 86.92 0 0 0 8.5-2v-3c6.627 2.734 13.627 3.567 21 2.5.852-1.728 1.852-1.895 3-.5-.065 3.346 1.268 5.846 4 7.5a3859.959 3859.959 0 0 0 50 6.5c2.099 1.112 4.433 1.779 7 2 4.169 2.016 8.002 4.683 11.5 8 4.426 4.852 7.259 10.519 8.5 17a1134.543 1134.543 0 0 1-2 30c-1.559 6.786-2.559 13.786-3 21-8.287.155-16.287-.845-24-3-4.769-1.389-9.769-2.056-15-2-5.098-1.457-10.431-2.124-16-2-4.076.379-7.743-.621-11-3-3.048-4.517-4.714-9.517-5-15a567.543 567.543 0 0 1 29 2c5.099 1.404 10.432 2.071 16 2 3.186-.002 6.186-.335 9-1 1.322-2.302 1.322-4.635 0-7a498.402 498.402 0 0 1-8-3c-5.46-1.237-11.127-1.904-17-2a681.962 681.962 0 0 1-53-7.5c-6.952-3.789-10.952-9.622-12-17.5a1831.704 1831.704 0 0 1 49 5c3.474 1.025 7.14 1.692 11 2 5.81.99 11.81 1.323 18 1v-9a707.508 707.508 0 0 0-62-8.5 417.782 417.782 0 0 1-37-7c-7.248-4.082-12.582-9.915-16-17.5l1-1a117.75 117.75 0 0 0 16 2Z"/><path style="opacity:1" fill="#64451d" d="M184.5 201.5c5.231-.056 10.231.611 15 2-5.231.056-10.231-.611-15-2Z"/><path style="opacity:1" fill="#1d0f0d" d="M426.5 309.5c-.302-4.29.364-8.29 2-12 19.336.167 38.67 0 58-.5 7.18-3.036 11.18-8.536 12-16.5.543-.06.876-.393 1-1a729.564 729.564 0 0 0-54-1c-2.645-2.717-2.645-5.55 0-8.5 26.355-.96 52.688-1.96 79-3 7.629-3.128 12.629-8.628 15-16.5-16.837-1.09-33.837-1.09-51 0a198.855 198.855 0 0 1-27-1c-1.03-1.052-1.697-2.386-2-4a22.18 22.18 0 0 1 2-5c25.487-.61 50.821-1.277 76-2h8c5.283.404 10.283-.262 15-2 8.349-2.338 14.682-7.338 19-15a801.488 801.488 0 0 0-40-1.5 69.385 69.385 0 0 0-6-2.5c2.061-5.554 6.061-8.054 12-7.5a420.29 420.29 0 0 1 41 0c5.406 1.98 7.239 5.814 5.5 11.5-8.022 17.106-21.522 26.439-40.5 28-5.516 20.272-18.85 30.105-40 29.5-2.067 9.801-6.733 18.134-14 25a34.099 34.099 0 0 0-6 3l-55 1a65.147 65.147 0 0 0-10 1.5Z"/><path style="opacity:1" fill="#20120f" d="M511.5 212.5c.625 3.47-.375 6.304-3 8.5-19.675.167-39.342.667-59 1.5-6.722 2.685-12.722 6.351-18 11-3.032-3.418-5.366-7.418-7-12 .996-.086 1.829.248 2.5 1 6.408-5.027 13.575-8.527 21.5-10.5 15.837-.38 31.671-.88 47.5-1.5 5.341-.215 10.508.452 15.5 2Z"/><path style="opacity:.016" fill="#e7e7e6" d="M442.5 211.5c1.333.667 1.333.667 0 0Z"/><path style="opacity:1" fill="#efb13e" d="M511.5 212.5c1.336 1.807 3.003 3.307 5 4.5a57.418 57.418 0 0 1 17 .5 69.385 69.385 0 0 1 6 2.5c13.346.167 26.679.667 40 1.5-4.318 7.662-10.651 12.662-19 15-5.18.347-10.18 1.013-15 2h-8c-24.336-.167-48.669 0-73 .5-1.237.232-2.237.732-3 1.5a22.18 22.18 0 0 0-2 5c.303 1.614.97 2.948 2 4 .111.617.444 1.117 1 1.5 8.66.5 17.327.666 26 .5 16.992-.666 33.992-1 51-1-2.371 7.872-7.371 13.372-15 16.5-26.312 1.04-52.645 2.04-79 3-2.645 2.95-2.645 5.783 0 8.5l53 2c-.82 7.964-4.82 13.464-12 16.5-19.33.5-38.664.667-58 .5a937.422 937.422 0 0 0 3-64c5.278-4.649 11.278-8.315 18-11a1742.926 1742.926 0 0 1 59-1.5c2.625-2.196 3.625-5.03 3-8.5Z"/><path style="opacity:1" fill="#62441d" d="M289.5 215.5c2.728-.329 5.062.337 7 2-2.567-.221-4.901-.888-7-2Z"/><path style="opacity:1" fill="#9e722b" d="M560.5 236.5c-4.717 1.738-9.717 2.404-15 2 4.82-.987 9.82-1.653 15-2Z"/><path style="opacity:1" fill="#9c712b" d="M537.5 238.5c-25.179.723-50.513 1.39-76 2 .763-.768 1.763-1.268 3-1.5 24.331-.5 48.664-.667 73-.5Z"/><path style="opacity:1" fill="#6f4f20" d="M253.5 239.5c3.989-.384 7.655.283 11 2-3.86-.308-7.526-.975-11-2Z"/><path style="opacity:1" fill="#775422" d="M461.5 249.5a198.855 198.855 0 0 0 27 1v1c-8.673.166-17.34 0-26-.5-.556-.383-.889-.883-1-1.5Z"/><path style="opacity:1" fill="#936a28" d="M539.5 250.5c-17.008 0-34.008.334-51 1v-1c17.163-1.09 34.163-1.09 51 0Z"/><path style="opacity:1" fill="#996f2a" d="M269.5 259.5c5.873.096 11.54.763 17 2-5.904.179-11.571-.488-17-2Z"/><path style="opacity:1" fill="#735221" d="M269.5 270.5a567.543 567.543 0 0 0-29-2c1.207-.739 3.207-1.072 6-1 7.882.443 15.549 1.443 23 3Z"/><path style="opacity:1" fill="#6f4e20" d="M269.5 270.5a358.83 358.83 0 0 0 25 1c-2.814.665-5.814.998-9 1-5.568.071-10.901-.596-16-2Z"/><path style="opacity:1" fill="#714f20" d="M445.5 278.5c18.012-.333 36.012 0 54 1-.124.607-.457.94-1 1l-53-2Z"/><path style="opacity:1" fill="#946a28" d="M256.5 286.5c5.569-.124 10.902.543 16 2-5.551-.027-10.884-.694-16-2Z"/><path style="opacity:1" fill="#936928" d="M272.5 288.5c5.231-.056 10.231.611 15 2-5.231.056-10.231-.611-15-2Z"/><path style="opacity:.075" fill="#f8ca78" d="M507.5 308.5c1.025.397 1.192 1.063.5 2a2.428 2.428 0 0 1-.5-2Z"/><path style="opacity:.998" fill="#dcd4dc" d="M509.5 311.5c5.351 1.174 9.851 3.841 13.5 8a52.141 52.141 0 0 0 1.5 10 4745.59 4745.59 0 0 0 73-7.5 141.293 141.293 0 0 1 31 1c2.226 1.227 3.726 3.061 4.5 5.5a131.396 131.396 0 0 0 4.5 14h-4c.322-2.222-.345-4.056-2-5.5a139.558 139.558 0 0 0-25.5-2.5 2322.158 2322.158 0 0 0-59.5 4.5 163.266 163.266 0 0 0-30 5.5c-13.183 27.697-26.35 55.364-39.5 83a9301.81 9301.81 0 0 0-14 38c-.978 4.4-.478 8.567 1.5 12.5 2.667.667 5.333.667 8 0l9.5-11.5.5 1a120.085 120.085 0 0 1-10.5 20c-3.23 3.411-7.063 5.745-11.5 7a10.413 10.413 0 0 1-5-1.5c-4.229-4.439-6.229-9.772-6-16 .883-7.225 1.716-14.391 2.5-21.5a530.095 530.095 0 0 1-23.5 39.5c-7.89 1.304-13.057-1.863-15.5-9.5-2.207-12.564-1.207-24.897 3-37a185.592 185.592 0 0 1 17-37c1.25-2.577 1.584-5.243 1-8-35.285 22.285-57.119 53.952-65.5 95a40.738 40.738 0 0 1 1.5 9 57.649 57.649 0 0 0-11-10c.177-7.41.844-14.743 2-22L343.5 503c-3.614-1.578-6.781-4.078-9.5-7.5-3.399-10.426-4.399-21.092-3-32-1.555-2.015-3.389-2.348-5.5-1a165.925 165.925 0 0 1-18.5 29c-3.263 8.263-8.93 14.263-17 18-5.775-3.198-8.775-8.198-9-15-2.566-28.405 3.101-55.072 17-80a154.572 154.572 0 0 1 8.5-9.5 12.862 12.862 0 0 1 6-1.5c12.58 2.249 24.413 6.583 35.5 13 .302-4.929 2.135-9.095 5.5-12.5 8.395-1.255 12.895 2.245 13.5 10.5-10.987 21.129-18.487 43.462-22.5 67 .276 1.83.943 3.497 2 5a21.754 21.754 0 0 0 7.5-6 97.042 97.042 0 0 1 9-14 1390.032 1390.032 0 0 0 21.5-65.5c-1.017-1.049-1.184-2.216-.5-3.5a69.244 69.244 0 0 1 13 9 39.924 39.924 0 0 1-.5 15 25.513 25.513 0 0 1 4.5 4 327.028 327.028 0 0 1 31.5-29.5c4.463-2.3 8.796-4.8 13-7.5a121.917 121.917 0 0 1 10.5 8l.5 3.5a456.253 456.253 0 0 1-22.5 48.5 347.384 347.384 0 0 1-9 23c-1.568 6.778.932 9.944 7.5 9.5 2.167-1.5 4-3.333 5.5-5.5a211.687 211.687 0 0 1 19-34 671.558 671.558 0 0 1 36.5-91c-5.265.316-10.599 1.649-16 4-1.181 1.635-1.181 3.302 0 5-.825.886-1.825 1.219-3 1a73.133 73.133 0 0 1 1-17 114.453 114.453 0 0 1 28-9 224.348 224.348 0 0 0 6-23Zm-185 100c7.781.426 14.781 2.926 21 7.5a2313.404 2313.404 0 0 1-40 71 163.656 163.656 0 0 1-10 11.5c-2.648-1.473-4.315-3.64-5-6.5 2.04-29.12 11.04-55.786 27-80l7-3.5Z"/><path style="opacity:1" fill="#ddd4dd" d="M242.5 321.5a112.97 112.97 0 0 1 15 .5c6.123 3.789 11.29 8.622 15.5 14.5 13.228-5.789 24.728-3.456 34.5 7a71682.2 71682.2 0 0 1-20 5.5l-37 21c-6.958 5.951-12.791 12.785-17.5 20.5a19.717 19.717 0 0 0-1.5 6.5 46.963 46.963 0 0 1 2.5 11.5c-7.302-9.718-8.302-20.051-3-31 9.111-13.777 20.277-25.611 33.5-35.5-21.263-3.015-41.929-.681-62 7-15.661 8.992-19.161 21.492-10.5 37.5a349.925 349.925 0 0 0 30.5 32.5c22.247-.229 43.58 3.937 64 12.5l-4 1a317.839 317.839 0 0 0-49-2.5c11.6 12.939 20.766 27.439 27.5 43.5 3.779 16.998.779 32.664-9 47-18.488 25.077-43.488 37.41-75 37-22.339.889-41.839-5.944-58.5-20.5-9.396-11.02-13.729-23.853-13-38.5a59.489 59.489 0 0 1 2.5-19c10.43-26.427 29.264-43.927 56.5-52.5a292.027 292.027 0 0 1 50-8 111.557 111.557 0 0 1-12-13c-16.789-11.076-24.289-26.576-22.5-46.5 4.312-9.982 11.146-17.816 20.5-23.5 13.297-6.987 27.297-11.821 42-14.5Zm-22 108a29.278 29.278 0 0 1 7 2.5c8.098 10.024 14.265 21.191 18.5 33.5 2.367 10.199 1.7 20.199-2 30-18.193 35.017-47.026 50.517-86.5 46.5-14.482-1.262-26.982-6.762-37.5-16.5-6.573-6.723-8.906-14.723-7-24 3.066-14.3 9.899-26.467 20.5-36.5 25.284-20.928 54.284-32.762 87-35.5ZM525.5 380.5c13.228 2.797 25.728 7.464 37.5 14-.593-5.588 1.24-10.088 5.5-13.5 2.135-.635 4.135-.301 6 1 5.185 2.209 7.351 6.042 6.5 11.5-11.556 21.667-18.889 44.667-22 69a4.457 4.457 0 0 0 1.5 2 43.725 43.725 0 0 0 5.5-3 559.459 559.459 0 0 0 21-34l.5 1.5c-8.715 17.945-18.548 35.111-29.5 51.5-4.917-1.251-8.25-4.251-10-9a46.297 46.297 0 0 1-2.5-14.5c.566-5.489.899-10.989 1-16.5-2.082.028-3.916-.639-5.5-2-8.819 17.465-19.986 33.298-33.5 47.5-1.925 1.595-3.925 1.762-6 .5a26.852 26.852 0 0 1-3.5-6c-6.561-33.423-.561-64.423 18-93a86.208 86.208 0 0 1 9.5-7Zm13 9c7.348.803 14.348 2.969 21 6.5a284.917 284.917 0 0 0-6.5 14.5 202972.735 202972.735 0 0 0-33 58 56.992 56.992 0 0 1-9.5 11 33.902 33.902 0 0 1-6-3.5c2.028-27.086 9.528-52.586 22.5-76.5 2.818-4.661 6.651-7.995 11.5-10Z"/><path style="opacity:.004" fill="#eac0c5" d="M339.5 387.5c1.333.667 1.333.667 0 0Z"/><path style="opacity:.998" fill="#ddd4dd" d="M416.5 513.5c8.622 1.443 12.455 6.443 11.5 15a2354.458 2354.458 0 0 1-34.5 71.5l3.5 3.5c10.605-11.787 22.772-21.454 36.5-29 5.259.929 8.592 3.929 10 9a4115.653 4115.653 0 0 1-19.5 47c-3.441 7.74-4.941 15.74-4.5 24a25.513 25.513 0 0 0 4.5-4 204.291 204.291 0 0 1 16-22 132.146 132.146 0 0 0 10-26c3.869-5.069 6.535-10.402 8-16l1 1c4.608-7.941 11.108-13.775 19.5-17.5 5.999-.912 9.833 1.588 11.5 7.5.667 6 .667 12 0 18-5.989 14.655-16.489 24.489-31.5 29.5a6.978 6.978 0 0 0-2.5 3.5 144.511 144.511 0 0 0-5.5 22.5c-.577 4.982 1.589 8.148 6.5 9.5a248.082 248.082 0 0 0 13.5-6.5c7.6-6.927 14.433-14.427 20.5-22.5a248.158 248.158 0 0 0 11-33c12.65-27.303 25.317-54.636 38-82a32.085 32.085 0 0 0 3.5-13 106.462 106.462 0 0 0-17 4.5c-13.604 7.093-27.937 12.426-43 16a78.223 78.223 0 0 1-24-1c-7.567-5.901-12.234-13.567-14-23 .35-1.257 1.017-1.591 2-1a94.068 94.068 0 0 0 19 12c11.73.601 23.397-.066 35-2a1441.578 1441.578 0 0 0 40-9.5c6.414 1.373 11.747 4.539 16 9.5a134.191 134.191 0 0 1-3.5 13.5 4052.473 4052.473 0 0 0-44 90c-4.7 9.466-6.867 19.466-6.5 30 2.516-.255 4.85-1.089 7-2.5a176.706 176.706 0 0 0 22.5-30.5c3.674-15.031 9.674-29.031 18-42 1.731-2.117 3.898-3.617 6.5-4.5 4.735.348 9.401 1.348 14 3a133.808 133.808 0 0 1 17.5 7.5c2.516-11.95 7.849-13.617 16-5 .667 2 .667 4 0 6-9.817 17.117-15.817 35.45-18 55a1112.566 1112.566 0 0 1 22-39c6.128-6.085 12.461-6.418 19-1a416.199 416.199 0 0 0 9.5 21.5c3.62.841 6.954.174 10-2a246.66 246.66 0 0 0 25-33.5 101.998 101.998 0 0 1-10-4.5 75.963 75.963 0 0 0 11-4c6.5-5.167 12.333-11 17.5-17.5.667 1 .667 2 0 3-5.946 10.173-9.279 21.173-10 33a24.834 24.834 0 0 0-5-8 568.771 568.771 0 0 1-22.5 33.5l-9 7c-5.588 2.138-10.088.638-13.5-4.5a139.908 139.908 0 0 0-10-20c-5.369 2.372-9.036 6.372-11 12a307.054 307.054 0 0 1-14 30 983.778 983.778 0 0 1-12 12c-6.881-4.769-10.048-11.436-9.5-20 .598-4.338.765-8.672.5-13l-3-3a219.008 219.008 0 0 1-30.5 40.5c-4.253.093-6.753-2.074-7.5-6.5-2.411-9.919-3.078-19.919-2-30a1235.728 1235.728 0 0 0-24.5 38c-3.545 3.913-7.045 3.913-10.5 0-3.222-5.554-4.889-11.554-5-18-5.766 8.101-12.599 15.268-20.5 21.5-7.94 6.271-16.274 7.271-25 3-2.606-1.938-4.439-4.438-5.5-7.5l-1-20a998.63 998.63 0 0 1-21.5 31c-8.491-4.468-12.491-11.634-12-21.5 2.51-17.197 8.01-33.364 16.5-48.5 1.15-2.254 1.484-4.587 1-7-15.252 10.287-28.585 22.62-40 37a476.736 476.736 0 0 0-16.5 43 19.887 19.887 0 0 0 3.5 4c.688.832.521 1.498-.5 2-4.873-2.705-8.539-6.539-11-11.5a526.493 526.493 0 0 1 17.5-59.5 2642.669 2642.669 0 0 1 35-73 66.816 66.816 0 0 0 4.5-15Zm152 57c6.936-.3 12.936 1.867 18 6.5a945.348 945.348 0 0 1-38.5 66.5c-2.244 2.494-4.577 2.494-7 0 .709-22.836 6.709-44.169 18-64 2.406-3.908 5.572-6.908 9.5-9Zm-85 18c2.627-.207 4.293.96 5 3.5-3.925 10.193-10.259 18.527-19 25-2.247 1.309-4.58 1.975-7 2l-2-4a332.736 332.736 0 0 1 7.5-15.5c3.995-5.521 9.161-9.188 15.5-11Z"/><path style="opacity:.999" fill="#dcd3dc" d="M347.5 508.5c16.796-1.537 25.463 6.129 26 23a175.693 175.693 0 0 1-2.5 15 199.7 199.7 0 0 1-24 49 91.778 91.778 0 0 1-9.5 7 166.424 166.424 0 0 0-16-6.5c3.76.194 6.926-.973 9.5-3.5a332.011 332.011 0 0 0 22.5-39 3.647 3.647 0 0 0-1-1.5c5.766-9.627 9.766-19.961 12-31-.535-7.051-4.201-9.384-11-7-11.349 7.34-21.515 16.173-30.5 26.5-33.685 37.001-53.518 80.501-59.5 130.5.471 24.055 11.471 31.055 33 21 20.965-18.245 35.965-40.578 45-67-1.743-2.019-2.91-4.186-3.5-6.5a53.672 53.672 0 0 0 10.5 5.5l3.5 3.5c.629 4.828-.038 9.495-2 14-8.195 20.903-20.695 38.736-37.5 53.5-16.236 10.756-32.569 11.089-49 1-7.789-6.992-11.956-15.825-12.5-26.5-.9-18.597 2.1-36.597 9-54a386.787 386.787 0 0 1 41-71 230.137 230.137 0 0 1 25.5-25.5c6.545-4.606 13.545-8.106 21-10.5Z"/><path style="opacity:.004" fill="#dcd4dc" d="M416.5 513.5c-.667-1.333-.667-1.333 0 0ZM415.5 513.5c-.667.667-.667.667 0 0Z"/><path style="opacity:.01" fill="#dcd4dc" d="M382.5 528.5c1.025.397 1.192 1.063.5 2a2.428 2.428 0 0 1-.5-2Z"/><path style="opacity:.004" fill="#dcd4dc" d="M374.5 531.5c1.333.667 1.333.667 0 0ZM275.5 542.5c1.333.667 1.333.667 0 0ZM274.5 544.5c1.333.667 1.333.667 0 0Z"/><path style="opacity:.004" fill="#e2dde1" d="M264.5 548.5c1.333.667 1.333.667 0 0Z"/></svg>