<svg version="1.0" xmlns="http://www.w3.org/2000/svg" width="546.011" height="636.525" viewBox="0 0 409.508 477.394" fill="white"><path d="M233.825 1.041c10 .9 20 3.3 20 4.7 0 6.2-83.7 11.6-107.7 7-9-1.8-6.6-3.7 9-7.5 8.9-2.1 9.4-2.3 4.2-1.8-6.5.6-16.9 3-19.7 4.5-2.8 1.5-2.2 4.7 1.2 6.4 10.7 5.5 58.7 6.3 90 1.4 20.6-3.2 31.4-9.1 23.4-12.8-3.6-1.6-15.3-3.1-23.4-2.9-6.1.1-5.9.1 3 1zM177.825 28.041c0 .7.7 2.6 1.6 4.3 1.1 2.1 1.7 6.3 1.8 14.5.3 10.2-.1 13.5-3.5 28.5-2 9.3-4.3 21-4.9 26-2.1 16.1-5.2 25-9.7 27.8-1.6 1-10 11.2-10.5 12.9-.3.7-2.8-1.2-6-4.4-6.9-6.8-10.1-8-30.3-10.8-8.2-1.1-16.7-2.2-18.9-2.5-2.2-.3-4.4-.1-5.2.6-1.6 1.3-1.9 5.5-.4 6.4 1.2.7 7.6 1.7 25.8 4 13.5 1.7 18.2 3.2 22.6 7.3 6.8 6.4 8 15.6 4.8 36.7l-1.7 11-5-.3c-10-.6-39-5.3-40.1-6.5-1.1-1.1-4.5-9.9-4-10.4.1-.2 7.2.7 15.6 1.8 8.5 1.1 17 1.9 19 1.7 3.1-.3 3.5-.6 3.8-3.5.3-2.7-.1-3.3-2-3.8-3.4-.7-27.8-4.1-40.1-5.6-12.5-1.4-15.9-3.1-19.6-9.8l-2.4-4.4 6.9.7c3.8.4 14.7 1.8 24.2 3.2 21.1 3.1 23.6 3 24-1 .2-1.6 0-3.2-.5-3.7-.9-.9-15.6-3.3-34.3-5.5-30.3-3.5-37.4-5.7-42.5-13.1-1.3-2-2.2-3.9-2-4.1.3-.3 6.3.3 13.3 1.3 7.1 1 13.6 1.5 14.5 1.2 2-.8 2.2-5 .3-6.6-.7-.6-8.4-2-17-3.2-14.5-1.9-15.9-1.9-18.2-.5-3.1 2.1-3.2 6-.2 12.2 3.7 8.1 11 13.8 21.4 16.9.7.2 1.7 2.1 2.4 4.2 3.4 10.7 9.7 17 18.9 18.8l5.6 1.2 1.6 6c1.8 6.9 4.8 12.2 8.1 14.2 1.2.8 12.8 2.8 25.8 4.5l23.5 3.2-.3 5.4c-.5 9.3-3.2 42.3-3.8 45.7-.4 2.6-.1 3.3 1.1 3.3 1.6 0 11.7 5.1 14.3 7.2.9.8 2 .4 4.2-1.7 4-3.9 11.5-4.6 16.5-1.6 4.6 2.7 4.6 2.7 3.9-.9-2.3-11.4 7.4-11.5 19.8-.1 3.2 2.9 6.1 5.1 6.6 4.9 2.4-1 12.2-8.5 12.8-9.8.8-2 3-23.4 3.9-38.1l.7-11.7 23.2-.7c16.4-.5 23.9-1.1 25.8-2.1 3.5-1.8 6.5-6.2 8.8-12.7l1.8-5.2 5.9-.6c3.2-.3 7.2-1.3 8.9-2.2 4.2-2.2 9.8-8.6 12.3-14.1 1.5-3.6 2.5-4.6 4.4-4.6 7.3 0 18.2-7.1 23.3-15.1 3-4.7 3.1-8.2.3-11-2-2-2.9-2.1-18.3-1.7-16.9.3-19.6 1-19.6 4.8s2.4 4.3 16.5 3.6c9.8-.5 13.5-.3 13.5.5 0 2-8.1 8.6-12.4 10-2.9.9-13.6 1.5-36.9 1.9-27.6.4-32.9.7-33.7 2-1.4 2.1-1.2 3.6.4 5.3 1.2 1.2 5.9 1.3 28 .9 17.3-.3 26.6-.1 26.6.5 0 2.2-4.7 7.7-8 9.4-3.1 1.7-6.1 1.9-26 2-28.2.1-32.4.6-32.8 3.7-.2 1.3.2 3 1 3.9 1.1 1.4 3.5 1.5 19.7.9l18.3-.7-.7 2.8c-.3 1.5-1.7 4.2-3 5.9l-2.4 3.1-15.2.6c-8.4.4-18.1.7-21.7.7h-6.5l.7-7.3c.3-3.9.9-13.7 1.2-21.7.7-16.2 1.1-17.2 8.9-21.3 3.7-2 5.8-2.2 25-2.5 17.1-.3 21.2-.6 22.1-1.8 1.7-2.2.5-5.3-2.3-6-4.1-1.1-42.5.2-45.7 1.5-1.6.6-4.9 2.5-7.4 4.2-2.5 1.7-4.8 2.7-5.1 2.2-8.6-10.4-8.9-11.8-9.5-49.8-.4-27.4-.3-33.4.9-35.5.8-1.4 1.4-5.3 1.5-9.1 0-5.8.3-6.9 3-9.9 3.4-3.8 4.4-8.5 1.3-5.8-3 2.6-5.3 2.8-21 1.5-10.7-1-15.8-1.8-17-2.9-3-2.5-4.3-3-4.3-1.6z"/><path d="M282.825 206.341c0 .8-1.2 4.4-2.6 7.9-2.6 6.1-2.9 6.5-7 7.5-8.8 2.2-15.4 5.2-15.4 6.9.1 4.1 1.5 4.6 7.5 2.8 3.1-1 5.9-1.6 6.2-1.2.7.7-1 5.1-5.8 14.8-4.8 9.6-13.1 30.3-17 42.3-1.6 4.9-4.5 11.2-6.4 14-1.8 2.7-5 8.1-7 12-4.4 8.3-6.2 10.5-8.6 10.5-2 0-3.9-2.8-3.9-5.8 0-2.7 6.6-18.2 15.5-36.6 5.4-11.2 7.5-16.4 6.9-17.4-.5-.8-2.6-2.4-4.6-3.6l-3.6-2.1-6.9 4.7c-3.7 2.6-10.6 8.4-15.2 12.8-9.7 9.3-10.8 9.3-11.3-.3-.3-6-.4-6.3-3.8-7.9-4.4-2.1-5-2.2-5-.3 0 2-12.7 41.4-14.2 44-.6 1.1-1.6 2.9-2.2 4-3.6 6.7-7.9 11.5-10.4 11.5-3.7 0 3.2-27.7 10.9-43.8 4.2-8.7 4.2-10.9-.1-13.2-4.6-2.5-8-.2-8 5.4 0 3-.7 3.2-3.7 1.1-2.9-2-19.5-7.5-22.8-7.5-3 0-8.4 4.9-11.1 10.2-6.8 13.1-12.1 36.3-10.9 47.8.7 7.6 3.9 15 6.4 15 2.2 0 6.1-4.1 4.5-4.7-4.2-1.5-4.4-2.3-2.9-13.3 1.7-12.8 5.3-24.5 11.1-36.5 5.2-10.5 8.1-13.5 13-13.5 3.1 0 13.4 3.6 13.4 4.7 0 .8-6.6 13.3-12.3 23.3-8.4 14.7-12.5 21.9-14.9 26l-2 3.5 3-3.3c1.6-1.8 5.1-7.1 7.8-11.7s5.4-8.4 6-8.5c2.6-.1 3.5 2.8 2.8 9.1-.7 7.3.6 13.3 3.7 17.3 3.3 4.2 5.2 3.4 9.2-4.2 2-3.7 4.8-8.5 6.2-10.7 2.4-3.9 2.5-3.9 2-1-1.8 9.5-1.8 14.5 0 16.5 2.5 2.7 4.5 2.5 4.5-.5 0-4.4 8.4-28.1 11.8-33.3.8-1.2 2.1-2.1 2.8-1.8 1.7.7 2.6-.5 1.3-2-.7-.9-.1-2.3 2.3-5.1 5.6-6.6 19-19.1 22.5-21 1.8-.9 3.3-2.1 3.3-2.5 0-.5.5-.8 1-.8 2.2 0 .7 5.6-4.1 15.1-10.7 21.4-13.4 38.6-7.2 46 2.9 3.3 7.1 3.9 9.5 1.1.8-.9 4.6-7.2 8.4-13.9 3.8-6.7 7-12 7.2-11.8.2.2-.2 3.8-.8 8-.6 4.3-.9 9.2-.6 11 .7 3.4 4.9 8.5 7.2 8.5 2.6 0 8.6-6.4 11.6-12.4l3-6.1-3.7 4.2c-2 2.4-4.5 4.3-5.5 4.3-2.2 0-5-3.6-5-6.3 0-4.3 12.9-35.6 25-61 7.2-14.9 13.5-27.6 14-28.1 1.4-1.4 16-3.4 41-5.7 19-1.6 24.9-1.8 30.8-1 4 .6 7.9 1.1 8.7 1.1 2.4 0 1.7-3.9-1.1-6.7l-2.5-2.5-15.7.5c-14.7.5-41.3 2.7-51.6 4.2-3.9.6-4.6.5-4.6-.9 0-.9.1-1.7.2-1.9.6-.9-2.9-5.1-5.5-6.7-3.8-2.4-4.7-2.5-4.7-.5zM95.825 211.841c-25.1 3.4-43.7 16.3-44.2 30.6-.4 8.4 4.4 16.6 15.7 26.9 5.2 4.8 9.5 9.1 9.5 9.6 0 .4-2.6 1-5.7 1.4-15 1.5-22.4 2.8-29.9 5-24.6 7.4-42.9 30.7-41.1 52.5.8 10 3.1 16.2 8.2 21.8 5.3 5.9 11 9.3 21.5 13 6.4 2.2 9.2 2.6 19.5 2.6 13.5 0 20.7-1.5 31.4-6.6 8.8-4.2 19.6-14.9 23.9-23.8 8.4-17.1 6.1-29.5-9-49.4l-6.9-9.1 4.3-.3c2.3-.2 10.3.1 17.7.7 7.4.6 13.6.9 13.8.8 1.1-1.2-20.5-6-30.9-6.9l-12.3-1-9.7-10c-9.8-10.1-13.4-15.6-14.5-22.1-1.7-10.8 8.8-19.7 26.9-22.7 7.7-1.2 26.5-1.3 27.2-.1.3.5-1.2 2.1-3.4 3.6-6 4.1-16.6 15.8-19.4 21.3-2.2 4.3-3.1 8.9-2.7 13.4.2 2.7 2.1 2.2 2.1-.5 0-3.2 5.2-10.9 10.8-15.7 6.6-5.9 28.7-17.8 35.6-19.2 3.1-.7 5.5-1.7 5.3-2.2-.2-.6-2.9-2.3-6-3.9l-5.6-2.9-5.6 1.7c-5.4 1.5-5.8 1.5-7.1-.2-.7-1-1.4-2.1-1.4-2.5 0-1.4-6.6-5.6-9.5-6.1-1.6-.2-5.5-.1-8.5.3zm-6.7 81.8c5.7 8.4 8.4 14.4 9.8 21.7 2.7 14.5-9.1 34.3-26.1 43.8-20.1 11.2-52.2 8.1-63.8-6.1-3.6-4.4-3.7-4.7-3.6-12.6 0-6.6.5-9.2 2.7-14 3.7-8 16.5-20.6 27.1-26.6 13.5-7.5 30.9-12.8 43.2-12.9l6-.1 4.7 6.8zM369.525 222.541c-1.2 1.1-.8 2.3.8 2.3.8 0 1.5-.7 1.5-1.5 0-1.6-1.2-2-2.3-.8z"/><path d="M81.525 234.441c-.4.4-.4 1-.2 1.4.6 1 5.5 0 5.5-1.1 0-1-4.3-1.2-5.3-.3zM227.825 248.841c-.9 1.6-.8 2.1.5 2.6 2.3.9 4.7-.4 4.3-2.3-.5-2.6-3.5-2.8-4.8-.3zM287.925 257.741c-8 8.5-15.3 31-15.4 47.6-.1 9.5 1.7 17.7 4.4 20.1 1.8 1.7 2 1.6 4.4-.6l2.4-2.3-2.3-1.8c-2.3-1.8-2.3-1.8-1-12.1 1.8-14.1 5.4-25.9 12-39.1 5.6-11.2 10.4-13.5 19.7-9.3 3.1 1.4 5.7 2.8 5.7 3.1 0 1-8.2 16.2-18.7 34.4-11.4 19.9-11.2 19.5-7.7 15.2 1.6-1.9 4.8-6.6 7.1-10.5 2.3-3.9 4.7-7.8 5.2-8.6.7-1.2 1.3-1.3 2.7-.4 1.6 1 1.9 2.4 1.9 10.5 0 7.4.4 10.1 1.9 12.5 2 3.4 5.2 5.8 6.6 4.9.7-.4 14.7-24.4 15.7-27 .4-1.1-.2-.2-6.7 9.3-5.5 8.1-9 9.6-9 3.7 0-6.5 6.6-27.8 12.7-40.8l3.6-7.7-2.3-2.5c-1.3-1.4-3.2-2.7-4.2-3.1-2.7-.8-5.8 2.3-5.8 5.8 0 3.1-1 3.5-4.3 1.4-2.7-1.8-19.8-7.6-22.3-7.6-1 0-3.8 2.2-6.3 4.9zM87.825 268.141c0 1.9 1.6 3.1 2.4 1.8.3-.5-.1-1.4-.9-2.1-1.2-1-1.5-1-1.5.3zM24.825 272.341c0 2.1 2.8 3.1 4.3 1.6.9-.9.8-1.4-.3-2.1-2.2-1.4-4-1.2-4 .5zM333.925 289.941c-.7 1.2-1 2.3-.8 2.6.3.3 1.1-.5 1.7-1.7 1.5-2.8.8-3.5-.9-.9zM238.825 337.241c0 2.9 3.8 9.2 7.5 12.4 3.2 2.9 4.2 3.2 9.9 3.2 7.4 0 13.3-1.6 28.1-7.7 6.1-2.5 13.6-5.4 16.9-6.4l5.8-1.8-.5 3.2c-.3 1.8-4.9 12.5-10.2 23.7-13.8 29.3-18.8 41.1-22.4 52.8-3.3 11.2-5.7 14.8-16.4 24.9-3.7 3.6-6.6 5.4-9.2 5.9-7.6 1.4-8.9-2.4-5.4-15.4l2.2-8.4 5.6-2.4c8.8-3.9 16.8-12.9 18.5-20.9.4-1.9-.7-.6-2.8 3.6-3.4 6.4-12.3 15.9-15.1 15.9-.7 0-1.8-.6-2.4-1.4-1-1.1-.4-3 2.5-8.8 2-4 4.3-8.1 5.1-9 .9-.9 1.2-2.5.9-3.6-.5-1.5.1-2.6 2.3-4.1 1.6-1.2 3.4-2.1 4-2.1 1.8 0 1.2 1.7-.8 2.3-1 .2-2.4 1.5-3.1 2.7-1.2 2.2-1.1 2.2 2.6 1.5 2.2-.5 4.7-.8 5.6-.9 1.3 0 1.6-.8 1.2-3.5-.5-4-3.9-8.1-6.6-8.1-2.5 0-10.1 5.2-12.1 8.4-.9 1.3-2.7 2.6-3.9 2.8-1.7.2-2.2.9-2.1 2.6.2 1.3-.6 4.1-1.8 6.3-1.1 2.3-3.2 7.5-4.6 11.7-1.9 5.8-4.4 10.1-10 17.4-4 5.4-7.8 9.8-8.3 9.8-3.1 0-.1-10.3 9.9-33.9 3.4-7.9 6.1-15.2 6.1-16.2 0-2.2-3.7-4.9-6.6-4.9-2.5 0-9.4 5-18.7 13.7-5.4 5.1-7.1 6.2-8.2 5.3-1.8-1.5-2.1-.6 10.7-26.8 6-12.3 11.3-23.5 11.9-24.9 1.3-3.6.1-7.2-3.2-8.8-3.6-1.9-3.6-2-4.4 1.2-.3 1.6-3.8 9.3-7.7 17.3-18 37.1-22.9 49.2-29.3 73.2-2.1 7.7-2.4 10.2-1.5 11.8 2.2 4.1 4.1 1.8 8.1-9.5 6.2-17.7 8.9-22.2 18.3-31.3 10.3-9.9 16.6-14.6 17.9-13.3.6.6-.6 4.1-3.1 9.4-7.6 15.6-10.3 26.9-8.4 34.5 1.3 4.7 5.5 9.8 7.3 8.6.6-.3 4.4-5.6 8.5-11.7l7.6-11.2-.6 6.3c-1 10.4 2.8 16.2 10.7 16.2 5.7 0 10.6-3 18.4-11.4l7.1-7.5.6 4.9c.8 6.2 4.2 10.6 7.4 9.6 1.3-.4 4.5-4.6 8.1-10.7 3.3-5.4 5.9-9.9 5.7-9.9-.2 0-2.2 2.4-4.5 5.4-5.9 7.9-10 8.5-10.1 1.5 0-5.5 7.1-21.7 29.1-66.4 4.3-8.8 8.1-17.4 8.4-19.2.6-2.9.2-3.4-4-6.3l-4.7-3.2-12.7 3c-16.6 4.1-23.9 5.2-33.9 5.2-8.7 0-11.6-.9-17.9-5.8-2.8-2-3.3-2.2-3.3-.8zM166.525 343.241c-8.3 3.1-19.2 11.8-27.4 21.9-14 17.4-26.5 39.4-33 58.4-3.6 10.3-3.8 11.4-3.8 23.8 0 12.6.1 13.2 3 18.5 2.5 4.7 3.9 6 9 8.5 15.3 7.7 31.8.7 45.2-19 4.9-7.4 10.6-18.5 12.4-24.4 1.3-4.2 1.2-4.4-1.5-6.7-3.6-3.1-5.6-3.1-5.6.1 0 6.6-14.9 30.6-25.6 41.1-6.1 6-10.7 8.4-16.4 8.4-3.4 0-4.8-.6-7.5-3.3-4.7-4.7-5.9-9.9-4.6-20.7 2.6-21.4 15.2-52.7 27.7-69.2 6.3-8.3 19.3-23.5 23.6-27.5 7.8-7.3 14.6-10.1 17.6-7.1 1.8 1.8 1.4 7.6-1.1 14.8-2.2 6.3-2.3 6.5-5.5 6.2-3.7-.4-4.1.9-1.1 3.6l2 2-4.2 8.3c-2.3 4.6-6.4 11.7-9 15.8-2.7 4.1-4.8 7.5-4.7 7.5.2.1 1.5.8 3 1.5 4 2 6.7.4 11.4-6.6 8.9-13.4 16.4-32.3 16.4-41.2 0-11.7-9.6-18.7-20.3-14.7zM195.125 354.441c-.7 1.8 1.1 3.9 2.6 3 1.7-1.1 1.3-4.6-.4-4.6-.9 0-1.8.7-2.2 1.6zM115.825 360.041c0 .6-1.1 2.1-2.5 3.4-1.4 1.3-2.5 3.3-2.5 4.5 0 1.9.4 2.1 3.2 1.5 4.1-.8 4.7-1.5 5.4-5.8.5-3 .3-3.6-1.5-4.1-1.2-.3-2.1 0-2.1.5zM403.825 377.341c-3 3.1-6.9 6.1-8.7 6.7-3.9 1.4-4.3 2.8-.8 2.8 1.5 0 2.5.6 2.5 1.4 0 1.8-10.8 16.8-15.5 21.8-4.3 4.4-7.2 5.5-9.1 3.7-.7-.8-2.6-4.5-4.1-8.4-3.5-8.7-6.7-10.8-11.9-8-3.8 2-6.6 6-12.2 17.1-2.2 4.3-5 9-6.2 10.4l-2.1 2.5.5-4.1c.8-6 6.1-21.7 10.2-30.1 3-6.3 3.3-7.5 2.2-9.3-2-3.2-5.8-3.7-8-1-1 1.2-1.8 2.8-1.8 3.6 0 1.8-.4 1.8-4.3-.2-1.7-1-6.3-2.7-10.1-4-8.2-2.6-10-2.1-14.4 4-2.8 3.9-9.2 19.1-9.2 21.8 0 .7-.9 3.1-2.1 5.2-1.1 2.1-1.6 3.5-1 3.2.6-.4 1 2.6 1 8.4-.1 6.8.4 9.9 1.8 12.7 2.1 4.3 3.1 4.8 5.7 2.8 1.9-1.4 1.9-1.5-.2-3.2-2-1.8-2-2-.6-11.6 1.4-10.3 4.2-19 9.4-29.5 5.4-11.1 9.9-13.3 18-9.2 2.2 1.1 4 2.3 4 2.6 0 .2-.9 2.3-2 4.4-1.9 3.7-4.7 8.6-17.4 30.5-2.8 4.8-3.6 6.8-2.1 5 1.4-1.7 4.2-5.8 6.3-9.2 2-3.5 4.2-6.3 4.9-6.3 2.1 0 3.1 3.1 2.2 6.5-1.8 6.3 2 17.6 5.9 17.4 3.1-.1 9.7-9.3 14.1-19.7 2.3-5.5 5.7-11.8 7.5-13.9 4.1-4.6 5.2-4 9.1 5.1 1.8 4.2 3.6 6.8 5.6 8 2.7 1.6 3.1 1.6 6.4 0 4.1-1.9 9.6-8.6 16.3-19.5 2.6-4.3 5-7.9 5.4-7.9.4 0 1.4 1.2 2.1 2.6 1.4 2.6 1.4 2.6 2-2.2.3-2.7 1.9-7.9 3.6-11.7 1.7-3.7 2.9-6.7 2.8-6.7-.2 0-2.7 2.5-5.7 5.5zM114.825 379.441c0 .8.7 2.2 1.6 3.1 2.2 2.2 4 .3 2.5-2.6-1.4-2.5-4.1-2.8-4.1-.5zM88.125 386.441c-.7 1.8 1.1 3.9 2.6 3 1.7-1.1 1.3-4.6-.4-4.6-.9 0-1.8.7-2.2 1.6z"/><path d="M123.425 448.541c-1.2 1.2-.6 4.3.9 4.3.8 0 1.5-.2 1.5-.4s.3-1.1.6-1.9c.5-1.5-1.9-3.1-3-2z"/></svg>